<?xml version="1.0" encoding="UTF-8"?>
<svg version="1.1" xmlns="http://www.w3.org/2000/svg" width="860" height="860">
<path d="M0 0 C25.14941576 -0.56799182 25.14941576 -0.56799182 36 8 C36.81210937 8.63953613 36.81210937 8.63953613 37.640625 9.29199219 C40.82615434 11.80752161 43.99219889 14.34628258 47.1484375 16.8984375 C50.69485501 19.7622363 54.26946102 22.58605403 57.875 25.375 C58.84179688 26.12523437 59.80859375 26.87546875 60.8046875 27.6484375 C61.85914063 28.42445313 62.91359375 29.20046875 64 30 C64.97658569 30.82250244 64.97658569 30.82250244 65.97290039 31.66162109 C70.24222697 34.98736289 73.10147132 36.4378046 78.57421875 35.9296875 C80.61693686 35.608181 82.654865 35.25507718 84.6875 34.875 C86.91258114 34.53697557 89.13921314 34.20902226 91.3671875 33.890625 C92.47932617 33.73013672 93.59146484 33.56964844 94.73730469 33.40429688 C130.87115647 28.92677079 168.31712652 41.27165109 197.25 62.75 C200.21655485 65.18380871 202.7256147 67.27487375 204 71 C202.25222376 77.08342005 198.2978869 79.06363454 193 82 C175.36397826 90.94730722 154.53305831 93.54174892 135 93 C135.24758057 93.51908936 135.49516113 94.03817871 135.75024414 94.57299805 C136.8685442 96.93807472 137.96560686 99.3124242 139.0625 101.6875 C139.45244141 102.50412109 139.84238281 103.32074219 140.24414062 104.16210938 C142.98236045 110.14742174 142.98236045 110.14742174 143.05859375 113.83203125 C141.46977161 117.0858921 140.1989162 118.20334843 137 120 C123.04456321 123.3026991 110.61133207 120.46717137 98.5625 113.1875 C96.55326007 111.92680364 94.55450436 110.64924861 92.56640625 109.35546875 C91.51428955 108.68056396 90.46217285 108.00565918 89.37817383 107.31030273 C86.93794111 105.70232757 84.72208231 103.94754837 82.48706055 102.06665039 C68.19599309 90.83425782 51.38509268 92.65515055 34.15356445 93.01428223 C26.89886196 93.15612994 19.64261229 93.19349471 12.38671875 93.22265625 C11.59096373 93.22729511 10.7952087 93.23193398 9.97533989 93.23671341 C-2.39776115 93.28810469 -14.56358332 92.5556518 -26.859375 91.18359375 C-27.60674234 91.10075701 -28.35410969 91.01792027 -29.12412453 90.93257332 C-85.12473653 84.58082687 -85.12473653 84.58082687 -93 76 C-93.48632812 73.09155273 -93.48632812 73.09155273 -93.53125 69.49609375 C-93.73837018 63.44717131 -94.44681796 57.66517491 -95.59375 51.72265625 C-95.74602051 50.93321625 -95.89829102 50.14377625 -96.05517578 49.33041382 C-96.5299969 46.90637713 -97.01431379 44.48438084 -97.5 42.0625 C-97.98496474 39.60691182 -98.46723206 37.150827 -98.94689941 34.69419861 C-99.24271711 33.18304619 -99.54185547 31.6725381 -99.84509277 30.16285706 C-100.77658725 25.45407295 -101.6339219 20.78984637 -102 16 C-99.40932122 13.40932122 -98.3317628 13.74280965 -94.73046875 13.734375 C-93.67666016 13.73179687 -92.62285156 13.72921875 -91.53710938 13.7265625 C-89.87905273 13.73816406 -89.87905273 13.73816406 -88.1875 13.75 C-86.5468457 13.73839844 -86.5468457 13.73839844 -84.87304688 13.7265625 C-83.2865332 13.73042969 -83.2865332 13.73042969 -81.66796875 13.734375 C-80.21813599 13.73775879 -80.21813599 13.73775879 -78.73901367 13.74121094 C-75.0931734 14.08567931 -72.24543295 14.89560456 -69.47363281 17.35351562 C-69.05436523 17.86591797 -68.63509766 18.37832031 -68.203125 18.90625 C-67.72399658 19.48012451 -67.24486816 20.05399902 -66.7512207 20.64526367 C-66.25581787 21.25732666 -65.76041504 21.86938965 -65.25 22.5 C-64.18727574 23.77824062 -63.1234662 25.05557969 -62.05859375 26.33203125 C-61.53894043 26.95932129 -61.01928711 27.58661133 -60.48388672 28.23291016 C-58.4887151 30.60886478 -56.40828786 32.90018144 -54.3125 35.1875 C-41.95361875 48.83188532 -41.95361875 48.83188532 -39 55 C-19.3206976 51.73782181 0.35506205 48.46435628 20 45 C18.57060909 41.22866676 16.86385237 37.72619662 14.953125 34.17578125 C14.355 33.06396484 13.756875 31.95214844 13.140625 30.80664062 C12.51671875 29.65357422 11.8928125 28.50050781 11.25 27.3125 C10.6415625 26.17876953 10.033125 25.04503906 9.40625 23.87695312 C6.1167228 17.77937866 2.74350753 11.85353424 -1.13769531 6.11010742 C-2 4 -2 4 -1.15136719 1.72387695 C-0.77141602 1.15499756 -0.39146484 0.58611816 0 0 Z " fill="#555555" transform="translate(358,324)"/>
<path d="M0 0 C25.14941576 -0.56799182 25.14941576 -0.56799182 36 8 C36.81210937 8.63953613 36.81210937 8.63953613 37.640625 9.29199219 C40.82615434 11.80752161 43.99219889 14.34628258 47.1484375 16.8984375 C52.68729802 21.37117148 58.30842089 25.72374708 64 30 C64.845625 30.65613281 65.69125 31.31226563 66.5625 31.98828125 C71.07823794 35.34601331 71.07823794 35.34601331 76.5625 35.875 C78.2640625 35.441875 78.2640625 35.441875 80 35 C82.67496399 34.89130005 85.32161296 34.95301075 88 35 C88 35.33 88 35.66 88 36 C86.9275 36.144375 85.855 36.28875 84.75 36.4375 C82.08337051 36.83749442 79.58600271 37.27591924 77 38 C77 38.66 77 39.32 77 40 C78.21816406 39.855625 79.43632812 39.71125 80.69140625 39.5625 C82.31508014 39.37479204 83.93877943 39.1873037 85.5625 39 C86.36236328 38.90460938 87.16222656 38.80921875 87.98632812 38.7109375 C90.32221496 38.443979 92.65909356 38.2179184 95 38 C96.88525391 37.79697266 96.88525391 37.79697266 98.80859375 37.58984375 C102 38 102 38 104.40625 40.37890625 C105.0971875 41.42949219 105.788125 42.48007812 106.5 43.5625 C112.31988064 51.9872815 117.96031108 58.82438526 128.1796875 61.58984375 C142.36121809 63.65225471 157.67023392 62.49474728 170.77734375 56.76171875 C174.11687739 55.61723885 176.65840438 56.04525839 180 57 C180.99 57.66 181.98 58.32 183 59 C181.49789557 63.5063133 179.60514899 67.82269554 176 71 C172.48025122 72.03380539 169.06102653 71.91549402 165.41423035 71.84178162 C163.79686075 71.85075308 163.79686075 71.85075308 162.14681703 71.85990578 C158.52698621 71.87145346 154.9094171 71.83290869 151.28979492 71.79467773 C148.6979579 71.79270362 146.10611697 71.79381075 143.51428223 71.79777527 C137.93088983 71.80144475 132.3480703 71.7794942 126.76482201 71.7401104 C118.69249869 71.68320594 110.62045221 71.66498889 102.54795007 71.65619446 C89.45083639 71.64087628 76.354028 71.59429809 63.25708008 71.52807617 C50.5350904 71.46381706 37.81318366 71.41427112 25.09106445 71.38452148 C24.30679823 71.38268242 23.52253201 71.38084336 22.71450015 71.37894856 C18.78004311 71.36981326 14.84558547 71.36096731 10.91112745 71.35226524 C-21.72613728 71.27970512 -54.36302779 71.15641946 -87 71 C-86.979375 70.071875 -86.95875 69.14375 -86.9375 68.1875 C-86.84230396 64.97713989 -86.84230396 64.97713989 -88 62 C-85.36 62 -82.72 62 -80 62 C-80.32798584 60.91058105 -80.65597168 59.82116211 -80.99389648 58.69873047 C-82.21455297 54.64075225 -83.43037625 50.58133914 -84.64477539 46.52148438 C-85.17015843 44.76751082 -85.69683589 43.01392443 -86.22485352 41.26074219 C-86.98537744 38.7347419 -87.74117245 36.20736703 -88.49609375 33.6796875 C-88.73154404 32.90132538 -88.96699432 32.12296326 -89.20957947 31.3210144 C-90.4262629 27.22963425 -91.40739783 23.23961156 -92 19 C-93.32 19 -94.64 19 -96 19 C-96.103125 20.258125 -96.20625 21.51625 -96.3125 22.8125 C-96.59733325 26.28746568 -97.33309732 27.73349022 -100 30 C-100.38854209 27.71059044 -100.7604628 25.41835426 -101.125 23.125 C-101.33382813 21.84882813 -101.54265625 20.57265625 -101.7578125 19.2578125 C-101.83773438 18.18273437 -101.91765625 17.10765625 -102 16 C-99.40932122 13.40932122 -98.3317628 13.74280965 -94.73046875 13.734375 C-93.67666016 13.73179687 -92.62285156 13.72921875 -91.53710938 13.7265625 C-89.87905273 13.73816406 -89.87905273 13.73816406 -88.1875 13.75 C-86.5468457 13.73839844 -86.5468457 13.73839844 -84.87304688 13.7265625 C-83.2865332 13.73042969 -83.2865332 13.73042969 -81.66796875 13.734375 C-80.21813599 13.73775879 -80.21813599 13.73775879 -78.73901367 13.74121094 C-75.0931734 14.08567931 -72.24543295 14.89560456 -69.47363281 17.35351562 C-69.05436523 17.86591797 -68.63509766 18.37832031 -68.203125 18.90625 C-67.72399658 19.48012451 -67.24486816 20.05399902 -66.7512207 20.64526367 C-66.25581787 21.25732666 -65.76041504 21.86938965 -65.25 22.5 C-64.18727574 23.77824062 -63.1234662 25.05557969 -62.05859375 26.33203125 C-61.53894043 26.95932129 -61.01928711 27.58661133 -60.48388672 28.23291016 C-58.4887151 30.60886478 -56.40828786 32.90018144 -54.3125 35.1875 C-41.95361875 48.83188532 -41.95361875 48.83188532 -39 55 C-19.3206976 51.73782181 0.35506205 48.46435628 20 45 C18.57060909 41.22866676 16.86385237 37.72619662 14.953125 34.17578125 C14.355 33.06396484 13.756875 31.95214844 13.140625 30.80664062 C12.51671875 29.65357422 11.8928125 28.50050781 11.25 27.3125 C10.6415625 26.17876953 10.033125 25.04503906 9.40625 23.87695312 C6.1167228 17.77937866 2.74350753 11.85353424 -1.13769531 6.11010742 C-2 4 -2 4 -1.15136719 1.72387695 C-0.77141602 1.15499756 -0.39146484 0.58611816 0 0 Z " fill="#2B2B2B" transform="translate(358,324)"/>
<path d="M0 0 C10.19246862 -1.20502092 10.19246862 -1.20502092 13.93359375 1.2890625 C15.76652682 3.43738805 17.36401903 5.69750827 19 8 C20.91740754 10.32715882 22.89828081 12.5981828 24.875 14.875 C25.91686044 16.09358436 26.95852864 17.3123331 28 18.53125 C31.27398201 22.33839956 34.6480223 26.0492495 38.05859375 29.734375 C39.94102316 31.93117391 41.40262663 34.17946359 42.9375 36.625 C44.58050511 38.84983388 45.35935181 39.88269511 48.12402344 40.38891602 C54.31885244 40.20352059 60.22714107 39.46951388 66.3125 38.3125 C68.31636228 37.95027753 70.32027096 37.58831165 72.32421875 37.2265625 C74.54951864 36.81792325 76.77477656 36.40905538 79 36 C82.90649838 35.28626948 86.81348847 34.5764292 90.72338867 33.8815918 C93.28884213 33.42520082 95.8528768 32.96074813 98.4152832 32.48754883 C99.59050537 32.2789624 100.76572754 32.07037598 101.9765625 31.85546875 C103.01893066 31.66621826 104.06129883 31.47696777 105.13525391 31.28198242 C110.33219031 30.77043806 110.33219031 30.77043806 113 32 C113.62482777 33.89049785 114.23903123 35.78581047 114.77552795 37.70324707 C116.2559432 42.16429336 118.07055738 45.31160911 122 48 C132.90298691 50.89548294 144.81809156 49.87765751 155.9944458 49.56219482 C160.27777957 49.45845823 164.56130529 49.44610882 168.84570312 49.42578125 C177.23330254 49.37265632 185.61508969 49.21866145 194 49 C192.61566796 45.30430098 191.64516481 43.29948123 188.4375 40.94921875 C187.727146 40.41901123 187.01679199 39.88880371 186.28491211 39.3425293 C185.15388062 38.52328979 185.15388062 38.52328979 184 37.6875 C182.45900053 36.54252065 180.91863398 35.39668897 179.37890625 34.25 C178.63012207 33.69699219 177.88133789 33.14398438 177.10986328 32.57421875 C172.98364674 29.49555128 168.99368356 26.24793429 165 23 C167.83427577 20.16572423 170.24407493 20.36549512 174.1875 19.875 C175.48042969 19.70742188 176.77335938 19.53984375 178.10546875 19.3671875 C179.39066406 19.24601562 180.67585937 19.12484375 182 19 C183.83498047 18.80083984 183.83498047 18.80083984 185.70703125 18.59765625 C189 19 189 19 191.40625 21.37890625 C192.0971875 22.42949219 192.788125 23.48007812 193.5 24.5625 C199.31988064 32.9872815 204.96031108 39.82438526 215.1796875 42.58984375 C229.36121809 44.65225471 244.67023392 43.49474728 257.77734375 37.76171875 C261.11687739 36.61723885 263.65840438 37.04525839 267 38 C267.99 38.66 268.98 39.32 270 40 C268.49789557 44.5063133 266.60514899 48.82269554 263 52 C259.48025122 53.03380539 256.06102653 52.91549402 252.41423035 52.84178162 C250.79686075 52.85075308 250.79686075 52.85075308 249.14681703 52.85990578 C245.52698621 52.87145346 241.9094171 52.83290869 238.28979492 52.79467773 C235.6979579 52.79270362 233.10611697 52.79381075 230.51428223 52.79777527 C224.93088983 52.80144475 219.3480703 52.7794942 213.76482201 52.7401104 C205.69249869 52.68320594 197.62045221 52.66498889 189.54795007 52.65619446 C176.45083639 52.64087628 163.354028 52.59429809 150.25708008 52.52807617 C137.5350904 52.46381706 124.81318366 52.41427112 112.09106445 52.38452148 C111.30679823 52.38268242 110.52253201 52.38084336 109.71450015 52.37894856 C105.78004311 52.36981326 101.84558547 52.36096731 97.91112745 52.35226524 C65.27386272 52.27970512 32.63697221 52.15641946 0 52 C0 50.35 0 48.7 0 47 C5.94 46.505 5.94 46.505 12 46 C10.05642138 36.23742691 7.02877051 26.78012384 4.16259766 17.25830078 C3.47738447 14.97789232 2.79707527 12.6960633 2.1171875 10.4140625 C1.90472382 9.71407135 1.69226013 9.0140802 1.47335815 8.2928772 C0.61785368 5.41651633 0 3.01967003 0 0 Z " fill="#EAEBEB" transform="translate(271,343)"/>
<path d="M0 0 C83.82 0 167.64 0 254 0 C254.99 2.97 254.99 2.97 256 6 C238.83290726 15.21812245 214.6810722 12.58285427 195.71815825 12.50437045 C191.44236342 12.49025543 187.16658747 12.49701 182.89077759 12.50050354 C175.71145777 12.50318698 168.53230689 12.48989876 161.35302734 12.46655273 C153.137517 12.44001621 144.9222897 12.4381836 136.70675123 12.4499411 C128.70466893 12.4608527 120.70268568 12.45442471 112.70061111 12.44038582 C109.3417581 12.43473426 105.9829802 12.43462066 102.62412643 12.43945122 C76.5147966 12.46739495 50.99966574 10.97568428 25.24316406 6.32006836 C23.04415092 5.92289759 20.84274517 5.54164507 18.640625 5.16210938 C12.31903799 4.05431559 6.14928413 2.84399573 0 1 C0 0.67 0 0.34 0 0 Z " fill="#B9BBBD" transform="translate(279,400)"/>
<path d="M0 0 C25.9756372 -1.73206444 25.9756372 -1.73206444 31.96875 1.8046875 C34.36809667 3.91422544 36.49943236 6.08298525 38.58154297 8.50292969 C41.3089737 11.38151923 44.60436023 13.56610866 47.8125 15.875 C53.83109058 20.3239284 59.71442871 24.9137797 65.53491211 29.61816406 C70.30369438 33.46681142 75.14468891 37.21084169 80.0534668 40.87939453 C83.89210561 43.78421122 83.89210561 43.78421122 85 46 C65.2 46 45.4 46 25 46 C19.06 35.605 19.06 35.605 13 25 C11.67484375 22.68613281 10.3496875 20.37226563 8.984375 17.98828125 C7.90591912 16.09654276 6.82777624 14.20462578 5.75 12.3125 C5.18410156 11.32701172 4.61820312 10.34152344 4.03515625 9.32617188 C3.50277344 8.38966797 2.97039062 7.45316406 2.421875 6.48828125 C1.95362305 5.66884033 1.48537109 4.84939941 1.00292969 4.00512695 C0 2 0 2 0 0 Z " fill="#D2D3D5" transform="translate(370,341)"/>
<path d="M0 0 C2.20408952 2.03533092 3.70458294 3.69296359 4.68359375 6.5546875 C3.52494196 10.74726566 1.94823587 12.50723898 -1.69140625 14.8046875 C-2.46226562 15.30484375 -3.233125 15.805 -4.02734375 16.3203125 C-6.15756496 17.46903247 -7.95214442 18.10126742 -10.31640625 18.5546875 C-9.98640625 17.2346875 -9.65640625 15.9146875 -9.31640625 14.5546875 C-13.77140625 15.0496875 -13.77140625 15.0496875 -18.31640625 15.5546875 C-18.81140625 13.5746875 -18.81140625 13.5746875 -19.31640625 11.5546875 C-15.02640625 11.2246875 -10.73640625 10.8946875 -6.31640625 10.5546875 C-6.31640625 9.8946875 -6.31640625 9.2346875 -6.31640625 8.5546875 C-10.27640625 8.2246875 -14.23640625 7.8946875 -18.31640625 7.5546875 C-16.83440551 3.84968566 -15.40790225 0.8820675 -13.31640625 -2.4453125 C-14.96640625 -1.7853125 -16.61640625 -1.1253125 -18.31640625 -0.4453125 C-17.32640625 -2.9203125 -17.32640625 -2.9203125 -16.31640625 -5.4453125 C-20.69425976 -7.70057037 -23.55121938 -7.49526893 -28.31640625 -6.4453125 C-29.51265625 -5.9709375 -30.70890625 -5.4965625 -31.94140625 -5.0078125 C-44.17251698 -0.25515233 -63.54325032 1.46384901 -76.125 -3.21875 C-84.5413598 -7.9295111 -92.99140934 -16.79531867 -97.31640625 -25.4453125 C-109.69140625 -24.9503125 -109.69140625 -24.9503125 -122.31640625 -24.4453125 C-122.31640625 -25.1053125 -122.31640625 -25.7653125 -122.31640625 -26.4453125 C-123.30640625 -26.7753125 -124.29640625 -27.1053125 -125.31640625 -27.4453125 C-123.86234375 -27.414375 -123.86234375 -27.414375 -122.37890625 -27.3828125 C-119.4417473 -27.08912751 -119.4417473 -27.08912751 -118.31640625 -28.4453125 C-115.98343192 -28.48624187 -113.649354 -28.48772973 -111.31640625 -28.4453125 C-111.31640625 -29.1053125 -111.31640625 -29.7653125 -111.31640625 -30.4453125 C-72.02711736 -34.97100075 -31.02935221 -25.45697327 0 0 Z " fill="#252525" transform="translate(557.31640625,388.4453125)"/>
<path d="M0 0 C-0.67281104 4.37327173 -2.22609151 5.83913726 -5 10 C0.61 10 6.22 10 12 10 C12 10.33 12 10.66 12 11 C10.35 11 8.7 11 7 11 C7 11.66 7 12.32 7 13 C4.35541621 14.32229189 2.32238699 14.09677194 -0.625 14.0625 C-1.62789062 14.05347656 -2.63078125 14.04445313 -3.6640625 14.03515625 C-4.82035156 14.01775391 -4.82035156 14.01775391 -6 14 C-5.67 15.32 -5.34 16.64 -5 18 C-4.0925 17.649375 -3.185 17.29875 -2.25 16.9375 C0.87758436 16.03531221 2.05208081 15.86618493 5 17 C4.4375 19.33203125 4.4375 19.33203125 3 22 C0.58221755 23.16960226 -1.45392985 23.96062852 -4 24.6875 C-4.6813501 24.89463623 -5.3627002 25.10177246 -6.06469727 25.31518555 C-8.03690752 25.90230006 -10.01541807 26.45640855 -12 27 C-12.87527344 27.25007813 -13.75054688 27.50015625 -14.65234375 27.7578125 C-22.29984756 29.61412966 -30.18714792 29.17448057 -38 29 C-38 28.67 -38 28.34 -38 28 C-39.65 27.67 -41.3 27.34 -43 27 C-43 26.67 -43 26.34 -43 26 C-42.10692139 25.85377197 -41.21384277 25.70754395 -40.29370117 25.55688477 C-36.97794321 25.01278363 -33.66256242 24.46648759 -30.34741211 23.91870117 C-28.91298676 23.6821434 -27.47841702 23.44645943 -26.04370117 23.21166992 C-23.9805701 22.87388488 -21.91798003 22.53295273 -19.85546875 22.19140625 C-18.61434326 21.98717041 -17.37321777 21.78293457 -16.09448242 21.57250977 C-12.9793325 21.06997968 -12.9793325 21.06997968 -10 20 C-10.33 18.35 -10.66 16.7 -11 15 C-12.27774858 14.99576806 -13.55549717 14.99153612 -14.87196541 14.98717594 C-45.20032866 14.88650938 -75.52866967 14.78080178 -105.85699333 14.66888306 C-109.58955791 14.65511342 -113.32212266 14.64138633 -117.0546875 14.62768555 C-117.79777672 14.62495724 -118.54086593 14.62222894 -119.306473 14.61941796 C-131.33985009 14.57533807 -143.37323647 14.53470608 -155.40662982 14.49534739 C-167.75318851 14.45488768 -180.09972995 14.41072485 -192.44626319 14.36312145 C-200.06525704 14.3338624 -207.68424964 14.30749483 -215.30326597 14.28482103 C-221.14465975 14.267128 -226.98602622 14.24428377 -232.82739449 14.21950912 C-235.22435343 14.21015166 -237.62131959 14.2024717 -240.01828957 14.19658089 C-243.2873858 14.18829759 -246.55640266 14.17401454 -249.82546997 14.15821838 C-250.77683905 14.15724028 -251.72820812 14.15626217 -252.70840657 14.15525442 C-257.25154171 14.12696965 -261.52950478 13.92680004 -266 13 C-266 12.34 -266 11.68 -266 11 C-268.64 11 -271.28 11 -274 11 C-274 10.67 -274 10.34 -274 10 C-273.16809787 10.00081311 -273.16809787 10.00081311 -272.31938964 10.00164264 C-239.45996909 10.03287295 -206.60077974 10.027736 -173.74138956 9.97527504 C-169.79723861 9.96900959 -165.85308725 9.96304845 -161.90893555 9.95727539 C-160.73110535 9.95554373 -160.73110535 9.95554373 -159.5294806 9.95377708 C-146.80992484 9.93580257 -134.09049523 9.94248845 -121.37094168 9.95826416 C-108.32257982 9.97389966 -95.27443381 9.96308918 -82.22610968 9.92765242 C-74.17238186 9.90661587 -66.11919687 9.90628633 -58.06548139 9.93231983 C-51.89313067 9.95006392 -45.72139506 9.93103954 -39.54911804 9.89815521 C-37.01467325 9.8904437 -34.48015984 9.89475426 -31.94576073 9.91181374 C-28.49143306 9.93328955 -25.03995197 9.91198738 -21.58576965 9.87974548 C-20.57701446 9.89624443 -19.56825926 9.91274337 -18.52893573 9.92974228 C-13.47368608 9.94176672 -13.47368608 9.94176672 -9.31583536 7.43354905 C-7.95380259 5.58025348 -7.95380259 5.58025348 -6.93521708 3.64070231 C-5.31398819 0.79649209 -3.15343559 0 0 0 Z " fill="#131313" transform="translate(544,386)"/>
<path d="M0 0 C4.46876455 3.07848225 8.07974831 6.73924494 9.8125 11.9375 C10.37634129 17.63012838 10.11969906 22.08694138 6.8125 26.9375 C2.28480949 31.2683344 -1.28042097 33.60839671 -7.5 34.3125 C-13.30105447 33.72256226 -17.49323746 31.67634839 -21.5625 27.5 C-24.80169927 22.39203192 -25.93078531 18.01565565 -25.1875 11.9375 C-23.33830845 6.49870134 -19.81163162 3.16388275 -15.1875 -0.0625 C-10.0582896 -1.7722368 -5.12602784 -1.70867595 0 0 Z " fill="#1E1E1D" transform="translate(710.1875,450.0625)"/>
<path d="M0 0 C4.84336665 2.60106728 8.28618575 5.68708355 10.375 10.8125 C11.05573835 16.0526022 11.03233258 20.4734892 8.6875 25.25 C4.07712827 30.3587903 -0.0193327 33.40431125 -6.9375 34.1875 C-12.71899561 33.59955129 -16.89395485 31.54354515 -21 27.4375 C-24.24724906 22.19194383 -25.04304377 18.02642 -24.16015625 11.98828125 C-22.96790404 7.14094929 -20.46304475 4.4453093 -16.5625 1.5 C-10.90390593 -1.7506817 -6.21198183 -2.03495957 0 0 Z " fill="#1D1D1C" transform="translate(172.625,450.1875)"/>
<path d="M0 0 C17.16 0 34.32 0 52 0 C59 16 59 16 59 21 C56.09190221 23.90809779 49.04404755 23.09623892 45.20336914 23.23535156 C30.28848996 22.83215489 17.94711249 13.08161098 6 5 C5.4344339 4.63362427 4.8688678 4.26724854 4.28616333 3.88977051 C2.84120768 2.95104216 1.41834964 1.97846413 0 1 C0 0.67 0 0.34 0 0 Z " fill="#BCBFC0" transform="translate(436,417)"/>
<path d="M0 0 C25.14941576 -0.56799182 25.14941576 -0.56799182 36 8 C36.54140625 8.42635742 37.0828125 8.85271484 37.640625 9.29199219 C40.82615434 11.80752161 43.99219889 14.34628258 47.1484375 16.8984375 C52.68729802 21.37117148 58.30842089 25.72374708 64 30 C64.845625 30.65613281 65.69125 31.31226563 66.5625 31.98828125 C71.07823794 35.34601331 71.07823794 35.34601331 76.5625 35.875 C77.696875 35.58625 78.83125 35.2975 80 35 C82.67496399 34.89130005 85.32161296 34.95301075 88 35 C88 35.33 88 35.66 88 36 C86.9275 36.144375 85.855 36.28875 84.75 36.4375 C82.08337051 36.83749442 79.58600271 37.27591924 77 38 C77 38.66 77 39.32 77 40 C78.485 40.495 78.485 40.495 80 41 C80 44.10551666 79.4606285 45.35261084 78 48 C77.06800781 47.24976563 76.13601563 46.49953125 75.17578125 45.7265625 C63.58011882 36.40982275 63.58011882 36.40982275 51.74511719 27.40039062 C50 26 50 26 47.90332031 23.95898438 C40.76198944 17.36653508 34.87421068 16.85325627 25.375 17 C24.08464844 16.98839844 22.79429687 16.97679687 21.46484375 16.96484375 C18.30825384 16.9414616 15.1562121 16.95398921 12 17 C12.515625 17.94875 13.03125 18.8975 13.5625 19.875 C14.036875 20.90625 14.51125 21.9375 15 23 C14.67 23.66 14.34 24.32 14 25 C13.67 24.01 13.34 23.02 13 22 C11.68 22.33 10.36 22.66 9 23 C7.098824 19.93209199 5.23389953 16.84367579 3.375 13.75 C2.83359375 12.87730469 2.2921875 12.00460937 1.734375 11.10546875 C1.23164063 10.26113281 0.72890625 9.41679687 0.2109375 8.546875 C-0.26037598 7.77182617 -0.73168945 6.99677734 -1.21728516 6.19824219 C-2 4 -2 4 -1.13818359 1.71582031 C-0.76258301 1.14959961 -0.38698242 0.58337891 0 0 Z " fill="#242423" transform="translate(358,324)"/>
<path d="M0 0 C1.16639511 -0.00701431 2.33279022 -0.01402863 3.53453064 -0.02125549 C4.81047592 -0.01361176 6.0864212 -0.00596802 7.40103149 0.00190735 C8.76132994 -0.00052125 10.1216266 -0.00424123 11.48191833 -0.00915527 C15.17421067 -0.01856051 18.86623773 -0.00914111 22.55850935 0.00417686 C26.42476914 0.01549824 30.29101599 0.01138319 34.1572876 0.00942993 C40.65215381 0.00854696 47.14691566 0.01962618 53.64175415 0.03804016 C61.14439709 0.05919004 68.64688695 0.06272146 76.14955366 0.0564782 C83.37157989 0.05077668 90.59355235 0.05644064 97.81557083 0.06765175 C100.88639956 0.07228912 103.95719531 0.0731753 107.02802658 0.0710659 C110.64778316 0.06917761 114.26738471 0.07732835 117.88710594 0.0931263 C119.84445088 0.09937063 121.80181935 0.09586883 123.75917053 0.09205627 C124.93120529 0.09914108 126.10324005 0.10622589 127.31079102 0.11352539 C128.32509878 0.11557826 129.33940655 0.11763113 130.38445091 0.11974621 C133.59505346 0.40167865 136.27276866 1.24714678 139.28237915 2.3742218 C139.28237915 2.7042218 139.28237915 3.0342218 139.28237915 3.3742218 C135.32237915 3.3742218 131.36237915 3.3742218 127.28237915 3.3742218 C128.02487915 4.8385968 128.76737915 6.3029718 129.53237915 7.8117218 C130.45108348 9.66487969 131.36771934 11.51906433 132.28237915 13.3742218 C132.69745728 14.19664368 133.1125354 15.01906555 133.54019165 15.8664093 C135.09814212 19.10215259 136.26447515 21.56854194 136.34487915 25.1867218 C134.79006157 28.38781683 133.34459839 29.48038048 130.28237915 31.3742218 C115.88749752 34.84905616 103.09931069 31.48711946 90.78237915 24.0617218 C90.20863556 23.71612213 89.63489197 23.37052246 89.04376221 23.01445007 C79.55643402 17.1963864 79.55643402 17.1963864 78.28237915 13.3742218 C82.22352448 12.06050669 83.46592595 12.75836676 87.28237915 14.3742218 C88.61025239 15.21565321 89.9203163 16.08554383 91.2159729 16.9757843 C103.91754832 25.6228499 114.12266363 26.83640939 129.28237915 25.3742218 C128.38760651 16.9443677 128.38760651 16.9443677 122.28237915 4.3742218 C105.12237915 4.0442218 87.96237915 3.7142218 70.28237915 3.3742218 C70.28237915 2.7142218 70.28237915 2.0542218 70.28237915 1.3742218 C68.98300415 1.5185968 67.68362915 1.6629718 66.34487915 1.8117218 C65.61398071 1.89293274 64.88308228 1.97414368 64.1300354 2.05781555 C62.27097686 2.19308794 62.27097686 2.19308794 61.28237915 3.3742218 C59.07370084 3.46855166 56.86196394 3.49164611 54.65127563 3.48774719 C53.9586261 3.48789322 53.26597656 3.48803925 52.55233765 3.4881897 C50.25268469 3.48749055 47.95311178 3.47969809 45.6534729 3.47187805 C44.06306503 3.47001388 42.47265658 3.46858997 40.88224792 3.46759033 C36.68841985 3.46376509 32.4946262 3.45393476 28.30081177 3.44288635 C24.02449001 3.43267237 19.74816271 3.42809274 15.47183228 3.42304993 C7.07533207 3.41231249 -1.32114011 3.395236 -9.71762085 3.3742218 C-6.45904397 0.44501915 -4.33967792 -0.00071821 0 0 Z " fill="#101010" transform="translate(364.7176208496094,412.6257781982422)"/>
<path d="M0 0 C19.39098473 -1.19125503 46.43792329 2.52696685 62 15 C60.41800369 15.64910154 58.83434276 16.29414694 57.25 16.9375 C56.36828125 17.29714844 55.4865625 17.65679687 54.578125 18.02734375 C47.89045613 20.55041882 41.33652387 20.25837685 34.25 20.3125 C32.99960937 20.34150391 31.74921875 20.37050781 30.4609375 20.40039062 C21.94680197 20.45889156 16.66899676 19.66179088 9.86328125 14.32421875 C0 3.91435768 0 3.91435768 0 0 Z " fill="#E7E8E8" transform="translate(466,362)"/>
<path d="M0 0 C5.61717422 0.56894208 10.1054704 2.64350382 15.125 5.0625 C15.96522705 5.4644458 16.8054541 5.8663916 17.67114258 6.28051758 C24.55760143 9.64542419 30.80451133 13.47326525 37 18 C37.79148437 18.5465625 38.58296875 19.093125 39.3984375 19.65625 C46.43251334 24.63343002 46.43251334 24.63343002 48 29 C46.84942691 33.19424028 45.26269991 34.95377746 41.625 37.25 C40.85414063 37.75015625 40.08328125 38.2503125 39.2890625 38.765625 C37.15884129 39.91434497 35.36426183 40.54657992 33 41 C33.33 39.68 33.66 38.36 34 37 C29.545 37.495 29.545 37.495 25 38 C24.67 36.68 24.34 35.36 24 34 C30.435 33.505 30.435 33.505 37 33 C37 32.34 37 31.68 37 31 C33.04 30.67 29.08 30.34 25 30 C26.48200074 26.29499816 27.908504 23.32738 30 20 C28.35 20.66 26.7 21.32 25 22 C25.66 20.35 26.32 18.7 27 17 C22.22426677 14.38104952 18.15565119 15.16880569 13 16 C13 15.01 13 14.02 13 13 C12.30860265 9.75608861 12.30860265 9.75608861 9.27734375 8.61328125 C8.17519531 8.18402344 7.07304688 7.75476563 5.9375 7.3125 C4.28041016 6.65701172 4.28041016 6.65701172 2.58984375 5.98828125 C1.73519531 5.66214844 0.88054688 5.33601563 0 5 C0 3.35 0 1.7 0 0 Z " fill="#2E2E2E" transform="translate(514,366)"/>
<path d="M0 0 C-0.67281104 4.37327173 -2.22609151 5.83913726 -5 10 C0.61 10 6.22 10 12 10 C12 10.33 12 10.66 12 11 C10.35 11 8.7 11 7 11 C7 11.66 7 12.32 7 13 C4.35541621 14.32229189 2.32238699 14.09677194 -0.625 14.0625 C-1.62789062 14.05347656 -2.63078125 14.04445313 -3.6640625 14.03515625 C-4.43492187 14.02355469 -5.20578125 14.01195312 -6 14 C-5.505 15.98 -5.505 15.98 -5 18 C-4.0925 17.649375 -3.185 17.29875 -2.25 16.9375 C0.87758436 16.03531221 2.05208081 15.86618493 5 17 C4.4375 19.33203125 4.4375 19.33203125 3 22 C0.58221755 23.16960226 -1.45392985 23.96062852 -4 24.6875 C-4.6813501 24.89463623 -5.3627002 25.10177246 -6.06469727 25.31518555 C-8.03690752 25.90230006 -10.01541807 26.45640855 -12 27 C-12.87527344 27.25007813 -13.75054688 27.50015625 -14.65234375 27.7578125 C-22.29984756 29.61412966 -30.18714792 29.17448057 -38 29 C-38 28.67 -38 28.34 -38 28 C-39.65 27.67 -41.3 27.34 -43 27 C-43 26.67 -43 26.34 -43 26 C-41.66038208 25.78065796 -41.66038208 25.78065796 -40.29370117 25.55688477 C-36.97794321 25.01278363 -33.66256242 24.46648759 -30.34741211 23.91870117 C-28.91298676 23.6821434 -27.47841702 23.44645943 -26.04370117 23.21166992 C-23.9805701 22.87388488 -21.91798003 22.53295273 -19.85546875 22.19140625 C-18.61434326 21.98717041 -17.37321777 21.78293457 -16.09448242 21.57250977 C-12.9793325 21.06997968 -12.9793325 21.06997968 -10 20 C-10.33 18.35 -10.66 16.7 -11 15 C-35.255 14.505 -35.255 14.505 -60 14 C-60 13.67 -60 13.34 -60 13 C-48.12 12.67 -36.24 12.34 -24 12 C-24 11.67 -24 11.34 -24 11 C-19.71 11 -15.42 11 -11 11 C-10.34 9.35 -9.68 7.7 -9 6 C-6.76122935 2.43831943 -4.40714964 0 0 0 Z " fill="#1A1A1A" transform="translate(544,386)"/>
<path d="M0 0 C3.29043553 0.05772694 4.77894209 0.32667572 7.8125 1.8125 C10.64643294 5.46918766 10.1126487 7.74312641 9.75 12.3125 C9.65019776 15.39661363 9.65019776 15.39661363 10.4375 18.6875 C10.79139411 22.79267172 10.33423101 24.1745052 7.75 27.3125 C4.90785932 28.25988023 3.07391609 28.44710559 0.125 28.4375 C-1.06996094 28.44136719 -1.06996094 28.44136719 -2.2890625 28.4453125 C-4.25 28.3125 -4.25 28.3125 -5.25 27.3125 C-5.34971786 25.39791718 -5.38080589 23.47967683 -5.3828125 21.5625 C-5.38410156 20.3971875 -5.38539063 19.231875 -5.38671875 18.03125 C-5.38285156 16.8040625 -5.37898437 15.576875 -5.375 14.3125 C-5.37886719 13.0853125 -5.38273438 11.858125 -5.38671875 10.59375 C-5.38542969 9.4284375 -5.38414062 8.263125 -5.3828125 7.0625 C-5.38168457 5.98484375 -5.38055664 4.9071875 -5.37939453 3.796875 C-5.16769153 -0.26782258 -3.6919864 0.11613865 0 0 Z " fill="#0C0D0D" transform="translate(746.25,402.6875)"/>
<path d="M0 0 C2.71797416 2.01849551 4.68134797 3.61783637 5.46508789 7.01733398 C5.63729145 9.36428112 5.63313345 11.64809687 5.5625 14 C5.57345703 14.7940625 5.58441406 15.588125 5.59570312 16.40625 C5.54600162 20.38237036 5.26597659 22.5561337 3.18359375 26.03125 C1 28 1 28 -2.5 28.5 C-6.16604646 27.97627908 -7.4013508 27.52836819 -10 25 C-10.51757812 22.79516602 -10.51757812 22.79516602 -10.53125 20.25390625 C-10.53640625 19.33416016 -10.5415625 18.41441406 -10.546875 17.46679688 C-10.53140625 16.50837891 -10.5159375 15.54996094 -10.5 14.5625 C-10.51546875 13.60794922 -10.5309375 12.65339844 -10.546875 11.66992188 C-10.50797658 4.72169189 -10.50797658 4.72169189 -8.15234375 1.375 C-5.14536438 -0.54597412 -3.50360263 -0.64351885 0 0 Z " fill="#101111" transform="translate(682,403)"/>
<path d="M0 0 C1.65 0 3.3 0 5 0 C5.64834654 1.269553 6.29357815 2.54069706 6.9375 3.8125 C7.29714844 4.52019531 7.65679688 5.22789062 8.02734375 5.95703125 C9 8 9 8 10 11 C10.33 7.37 10.66 3.74 11 0 C12.65 0 14.3 0 16 0 C16 9.24 16 18.48 16 28 C14.35 28 12.7 28 11 28 C9.68 25.03 8.36 22.06 7 19 C6.67 21.97 6.34 24.94 6 28 C4.02 28 2.04 28 0 28 C0 18.76 0 9.52 0 0 Z " fill="#6A6A6A" transform="translate(699,403)"/>
<path d="M0 0 C1.83048267 2.74572401 3.26661871 5.40295604 4.6875 8.375 C5.37392578 9.77878906 5.37392578 9.77878906 6.07421875 11.2109375 C7.14573803 14.43905888 7.25846694 15.84612775 6 19 C3.09074004 22.4947714 0.3099348 23.33041698 -4.04296875 23.91796875 C-17.33884141 24.79597745 -27.20522335 22.49668034 -38.5 15.6875 C-39.07374359 15.34190033 -39.64748718 14.99630066 -40.23861694 14.64022827 C-49.72594513 8.8221646 -49.72594513 8.8221646 -51 5 C-47.05885467 3.68628489 -45.8164532 4.38414496 -42 6 C-40.67212676 6.8414314 -39.36206285 7.71132203 -38.06640625 8.6015625 C-25.36483083 17.24862809 -15.15971552 18.46218759 0 17 C-0.50076258 12.98903756 -1.04726554 9.31764626 -2.5625 5.5625 C-3.036875 4.386875 -3.51125 3.21125 -4 2 C-2.68 2.33 -1.36 2.66 0 3 C0 2.01 0 1.02 0 0 Z " fill="#2B2B2B" transform="translate(494,421)"/>
<path d="M0 0 C1.98 0 3.96 0 6 0 C6.84191873 3.72728171 7.6720168 7.45710003 8.5 11.1875 C8.73847656 12.24259766 8.97695312 13.29769531 9.22265625 14.38476562 C9.44824219 15.40634766 9.67382812 16.42792969 9.90625 17.48046875 C10.11572266 18.41785889 10.32519531 19.35524902 10.54101562 20.32104492 C10.98967088 22.93971199 11.08407959 25.34939083 11 28 C9.35 28 7.7 28 6 28 C5.34 26.35 4.68 24.7 4 23 C3.01 23 2.02 23 1 23 C0.67 24.65 0.34 26.3 0 28 C-1.98 28 -3.96 28 -6 28 C-5.37829964 24.83267649 -4.75202871 21.66627261 -4.125 18.5 C-3.95097656 17.613125 -3.77695313 16.72625 -3.59765625 15.8125 C-2.54242377 10.49725491 -1.36042333 5.24559627 0 0 Z " fill="#3B3B3B" transform="translate(173,403)"/>
<path d="M0 0 C0.99 2.97 0.99 2.97 2 6 C1.01 5.505 1.01 5.505 0 5 C0 4.34 0 3.68 0 3 C-1.15113281 3.30292969 -2.30226563 3.60585938 -3.48828125 3.91796875 C-7.68726069 4.96564401 -11.90805553 5.68351898 -16.1875 6.3125 C-22.25314401 7.22751953 -28.29821147 8.21923611 -34.3359375 9.3046875 C-35.61186768 9.53244873 -36.88779785 9.76020996 -38.20239258 9.99487305 C-40.72690066 10.44785068 -43.25024364 10.90738304 -45.7722168 11.37426758 C-61.23179796 14.13049608 -61.23179796 14.13049608 -66 13 C-67.76977539 10.9753418 -67.76977539 10.9753418 -69 9 C-68.67 8.34 -68.34 7.68 -68 7 C-67.67 7.33 -67.34 7.66 -67 8 C-60.08289218 8.56478734 -53.46204349 7.60054906 -46.6875 6.3125 C-44.68363772 5.95027753 -42.67972904 5.58831165 -40.67578125 5.2265625 C-38.45048136 4.81792325 -36.22522344 4.40905538 -34 4 C-30.09350162 3.28626948 -26.18651153 2.5764292 -22.27661133 1.8815918 C-19.71115787 1.42520082 -17.1471232 0.96074813 -14.5847168 0.48754883 C-13.40949463 0.2789624 -12.23427246 0.07037598 -11.0234375 -0.14453125 C-9.45988525 -0.42840698 -9.45988525 -0.42840698 -7.86474609 -0.71801758 C-4.9734354 -1.0026148 -2.79678205 -0.72893825 0 0 Z " fill="#F2F2F0" transform="translate(384,375)"/>
<path d="M0 0 C1.41623216 -0.05447047 2.83308191 -0.09300508 4.25 -0.125 C5.03890625 -0.14820313 5.8278125 -0.17140625 6.640625 -0.1953125 C9.24073227 0.01992817 10.79947644 0.62062657 13 2 C14.82037083 5.58533908 15.25826919 9.0099681 14.25 12.875 C13 15 13 15 11 17 C7.875 17.125 7.875 17.125 5 17 C5 20.63 5 24.26 5 28 C3.35 28 1.7 28 0 28 C-1.37365621 25.25268757 -1.0128639 23.18332936 -0.87890625 20.1171875 C-0.80639648 18.36728516 -0.80639648 18.36728516 -0.73242188 16.58203125 C-0.67634766 15.35871094 -0.62027344 14.13539063 -0.5625 12.875 C-0.48418945 11.02841797 -0.48418945 11.02841797 -0.40429688 9.14453125 C-0.2743256 6.09611412 -0.13934981 3.0480005 0 0 Z " fill="#0D0D0D" transform="translate(655,403)"/>
<path d="M0 0 C1.32 0 2.64 0 4 0 C5.71619335 5.47873426 7.42498065 10.9597024 9.12695312 16.44287109 C9.70695387 18.30776163 10.28897155 20.17202612 10.87304688 22.03564453 C11.71234998 24.7148485 12.54436819 27.3962219 13.375 30.078125 C13.76872803 31.32677338 13.76872803 31.32677338 14.17041016 32.60064697 C14.41065918 33.38115417 14.6509082 34.16166138 14.8984375 34.96582031 C15.11161621 35.64976868 15.32479492 36.33371704 15.54443359 37.03839111 C16 39 16 39 16 43 C13.36 43 10.72 43 8 43 C6.54317306 38.88962549 5.50854716 34.89733845 4.74609375 30.60546875 C4.42415039 28.80045898 4.42415039 28.80045898 4.09570312 26.95898438 C3.87849609 25.71439453 3.66128906 24.46980469 3.4375 23.1875 C3.21642578 21.95451172 2.99535156 20.72152344 2.76757812 19.45117188 C1.62342163 12.97683616 0.62971661 6.54480745 0 0 Z " fill="#D7D7D6" transform="translate(262,343)"/>
<path d="M0 0 C83.82 0 167.64 0 254 0 C254 0.33 254 0.66 254 1 C174.47 1.33 94.94 1.66 13 2 C13 2.33 13 2.66 13 3 C11.20759337 2.88610125 9.41605165 2.75852313 7.625 2.625 C6.12839844 2.52058594 6.12839844 2.52058594 4.6015625 2.4140625 C2 2 2 2 0 0 Z " fill="#ACAEAF" transform="translate(279,400)"/>
<path d="M0 0 C19.39098473 -1.19125503 46.43792329 2.52696685 62 15 C58.55591054 17.09105431 58.55591054 17.09105431 56.1875 16.703125 C53.61115281 15.8750134 51.21707022 14.8004381 48.75 13.6875 C43.79770586 11.59113009 38.89358622 10.03818505 33.6875 8.75 C33.03040039 8.58717529 32.37330078 8.42435059 31.69628906 8.2565918 C24.51181935 6.54932823 17.41132789 5.82162896 10.0625 5.4375 C9.28326172 5.39431641 8.50402344 5.35113281 7.70117188 5.30664062 C5.80092883 5.20171923 3.90048331 5.1004755 2 5 C1.34 3.35 0.68 1.7 0 0 Z " fill="#F2F2F1" transform="translate(466,362)"/>
<path d="M0 0 C20.31035513 -0.56806071 38.78903691 1.21176863 58 8 C58.495 10.475 58.495 10.475 59 13 C54.13442728 12.39646988 49.58584158 11.41063501 44.875 10.0625 C34.54417305 7.21363401 24.28636141 5.86149269 13.58203125 5.34375 C11 5 11 5 9 3 C9.33 2.67 9.66 2.34 10 2 C6.7 1.67 3.4 1.34 0 1 C0 0.67 0 0.34 0 0 Z " fill="#373736" transform="translate(456,357)"/>
<path d="M0 0 C2.42846397 2.16011045 3.51884286 3.84789309 4.45800781 6.94897461 C4.70125793 7.73666733 4.94450806 8.52436005 5.19512939 9.33592224 C5.44526794 10.18284134 5.69540649 11.02976044 5.953125 11.90234375 C6.21760437 12.77645401 6.48208374 13.65056427 6.75457764 14.55116272 C7.31054288 16.39816184 7.86163768 18.24663304 8.40820312 20.09643555 C9.24707898 22.92764155 10.10678873 25.75192036 10.96875 28.57617188 C11.50647529 30.37201696 12.04297519 32.16822951 12.578125 33.96484375 C12.83636047 34.80973862 13.09459595 35.65463348 13.36065674 36.52513123 C13.59129822 37.3159761 13.8219397 38.10682098 14.05957031 38.92163086 C14.26592102 39.6142955 14.47227173 40.30696014 14.68487549 41.02061462 C15 43 15 43 14 47 C10.04 46.67 6.08 46.34 2 46 C1.505 44.515 1.505 44.515 1 43 C3.64 43 6.28 43 9 43 C8.66677734 41.90534424 8.33355469 40.81068848 7.99023438 39.68286133 C6.75328205 35.61284809 5.52543612 31.54013476 4.30029297 27.46655273 C3.76923812 25.70538823 3.23573156 23.94496104 2.69970703 22.18530273 C1.92872439 19.65278925 1.16665897 17.1177367 0.40625 14.58203125 C0.16563843 13.79850784 -0.07497314 13.01498444 -0.32287598 12.2077179 C-1.46515469 8.36746651 -2.31060297 5.05548651 -2 1 C-1.34 0.67 -0.68 0.34 0 0 Z " fill="#222221" transform="translate(269,343)"/>
<path d="M0 0 C2.05078125 0.03255208 4.1015625 0.06510417 6.15234375 0.09765625 C6.15234375 0.75765625 6.15234375 1.41765625 6.15234375 2.09765625 C23.31234375 2.09765625 40.47234375 2.09765625 58.15234375 2.09765625 C58.15234375 2.42765625 58.15234375 2.75765625 58.15234375 3.09765625 C41.65234375 3.42765625 25.15234375 3.75765625 8.15234375 4.09765625 C12.11234375 6.40765625 16.07234375 8.71765625 20.15234375 11.09765625 C18.83234375 11.42765625 17.51234375 11.75765625 16.15234375 12.09765625 C15.24380394 12.51125648 15.24380394 12.51125648 14.31690979 12.93321228 C11.30618914 13.16193935 9.76233871 11.72776243 7.37762547 10.03986263 C-1.89035232 3.50107909 -9.64391141 2.81918253 -20.71875 3 C-22.37884778 2.99433041 -24.03893623 2.98469771 -25.69898987 2.97132874 C-30.01498335 2.94697693 -34.32896951 2.97552702 -38.64477539 3.01611328 C-43.06988748 3.0480281 -47.49476334 3.02851454 -51.91992188 3.01367188 C-60.56306763 2.99208851 -69.20477773 3.02653864 -77.84765625 3.09765625 C-77.84765625 2.76765625 -77.84765625 2.43765625 -77.84765625 2.09765625 C-76.4415786 2.08219505 -76.4415786 2.08219505 -75.00709534 2.06642151 C-66.19236983 1.96885453 -57.37771755 1.86613674 -48.56311131 1.75831699 C-44.03095039 1.70304703 -39.49878307 1.64962066 -34.96655273 1.6003418 C-30.59637077 1.55275814 -26.22626977 1.50041777 -21.85618401 1.4447155 C-20.1851699 1.42426467 -18.51413356 1.40555619 -16.84308052 1.38858223 C-14.51062065 1.36459832 -12.17831518 1.33453605 -9.84594727 1.30297852 C-9.14823715 1.29722305 -8.45052704 1.29146759 -7.73167419 1.28553772 C-4.72975544 1.23907416 -2.64768498 0.13994107 0 0 Z " fill="#4A4A4A" transform="translate(428.84765625,413.90234375)"/>
<path d="M0 0 C4.39375558 0.87839477 7.22019056 3.28622817 10.625 6.0625 C11.86978115 7.06381516 13.1145729 8.06511714 14.359375 9.06640625 C14.97232422 9.56285645 15.58527344 10.05930664 16.21679688 10.57080078 C17.83956597 11.87141555 19.48880716 13.13882637 21.140625 14.40234375 C22.49414062 15.44068359 22.49414062 15.44068359 23.875 16.5 C24.67679687 17.1084375 25.47859375 17.716875 26.3046875 18.34375 C26.86414063 18.8903125 27.42359375 19.436875 28 20 C28 20.99 28 21.98 28 23 C20.08 23 12.16 23 4 23 C4 22.67 4 22.34 4 22 C-11.18 21.67 -26.36 21.34 -42 21 C-42 20.67 -42 20.34 -42 20 C-21.87 19.67 -1.74 19.34 19 19 C9.62606902 11.82181437 9.62606902 11.82181437 0 5 C-0.1875 2.375 -0.1875 2.375 0 0 Z " fill="#121212" transform="translate(437,368)"/>
<path d="M0 0 C5.00362366 1.5498796 8.38424755 4.55719001 12.3125 7.875 C17.87307097 12.48830984 23.50467952 16.95191956 29.3125 21.25 C42.11410478 30.75008074 42.11410478 30.75008074 48 36 C48 36.33 48 36.66 48 37 C28.53 37 9.06 37 -11 37 C-11 36.67 -11 36.34 -11 36 C6.16 35.67 23.32 35.34 41 35 C30.62114395 26.15873166 30.62114395 26.15873166 19.875 17.875 C1.3928131 4.17843931 1.3928131 4.17843931 0 0 Z " fill="#E7E8E8" transform="translate(407,350)"/>
<path d="M0 0 C4.95 0 9.9 0 15 0 C15 1.65 15 3.3 15 5 C13.35 5 11.7 5 10 5 C10.0721875 5.75023437 10.144375 6.50046875 10.21875 7.2734375 C11.44343006 20.77893707 11.44343006 20.77893707 11 27 C10.67 27.33 10.34 27.66 10 28 C8.35 28 6.7 28 5 28 C5 20.41 5 12.82 5 5 C3.35 5 1.7 5 0 5 C0 3.35 0 1.7 0 0 Z " fill="#545555" transform="translate(717,403)"/>
<path d="M0 0 C18.22867799 -0.02339022 36.45735207 -0.04100922 54.68604183 -0.05181217 C63.15048157 -0.05696213 71.61491196 -0.06398001 80.0793457 -0.07543945 C87.45941616 -0.08542606 94.83947984 -0.09186289 102.21955687 -0.09408849 C106.12498123 -0.09538885 110.03038623 -0.09843187 113.93580437 -0.10573006 C117.61701918 -0.11255307 121.2982068 -0.11460425 124.97942734 -0.11310768 C126.96367999 -0.11351092 128.94792974 -0.11887322 130.93217468 -0.12442017 C137.37585209 -0.117031 143.61314968 0.13207876 150 1 C150 1.33 150 1.66 150 2 C151.98 2.33 153.96 2.66 156 3 C156 3.33 156 3.66 156 4 C148.08 4.66 140.16 5.32 132 6 C132 5.34 132 4.68 132 4 C135.465 3.505 135.465 3.505 139 3 C137.27856589 1.27856589 134.99030375 1.85669277 132.64073181 1.84178162 C130.89693993 1.82709839 130.89693993 1.82709839 129.11791992 1.81211853 C127.83111328 1.80636307 126.54430664 1.8006076 125.21850586 1.79467773 C123.85876667 1.78510438 122.49903049 1.77509463 121.13929749 1.76467896 C117.43701464 1.73756493 113.73471895 1.71659068 110.03239131 1.69667697 C106.16728657 1.67485735 102.30222168 1.64744904 98.43714905 1.62062073 C91.11318208 1.57063925 83.78919306 1.52572074 76.46518284 1.48259836 C68.12913723 1.4332725 59.79313158 1.37833718 51.45712459 1.32291877 C34.30478664 1.20901503 17.15241163 1.10219436 0 1 C0 0.67 0 0.34 0 0 Z " fill="#2A2B2B" transform="translate(360,412)"/>
<path d="M0 0 C-0.99980185 2.72673232 -1.56070974 3.79074089 -4.23046875 5.0625 C-12.56225528 7.88285087 -21.27975842 8.17913606 -30 8.1875 C-30.81291504 8.18830566 -31.62583008 8.18911133 -32.46337891 8.18994141 C-36.43351576 8.15280647 -40.12570904 7.97638381 -44 7 C-44 6.34 -44 5.68 -44 5 C-36.96001623 2.54831335 -30.10852937 2.6234597 -22.71289062 2.52148438 C-16.76469153 2.36008387 -11.76734555 1.59461352 -6.16723633 -0.46118164 C-3.72230953 -1.06903941 -2.35698847 -0.80643514 0 0 Z " fill="#202020" transform="translate(528,379)"/>
<path d="M0 0 C1.46687256 0.04060547 1.46687256 0.04060547 2.96337891 0.08203125 C8.07520052 0.35804234 13.16564595 0.76621631 18.26171875 1.25 C19.83276367 1.39308594 19.83276367 1.39308594 21.43554688 1.5390625 C23.98221144 1.77163461 26.5283719 2.00866925 29.07421875 2.25 C29.07421875 2.58 29.07421875 2.91 29.07421875 3.25 C42.93421875 3.745 42.93421875 3.745 57.07421875 4.25 C57.07421875 4.58 57.07421875 4.91 57.07421875 5.25 C52.64926486 5.39552459 48.22421963 5.5377593 43.79907227 5.67724609 C42.30099801 5.72489538 40.80294962 5.77336688 39.30493164 5.82275391 C3.56916341 6.99835152 3.56916341 6.99835152 -7.92578125 3.25 C-5.45653427 0.17545124 -3.88020023 -0.11417601 0 0 Z " fill="#1A1A19" transform="translate(330.92578125,409.75)"/>
<path d="M0 0 C1.65 0 3.3 0 5 0 C6 1 6 1 6.11352539 3.59204102 C6.10828857 4.71795654 6.10305176 5.84387207 6.09765625 7.00390625 C6.09443359 8.21884766 6.09121094 9.43378906 6.08789062 10.68554688 C6.07951172 11.96494141 6.07113281 13.24433594 6.0625 14.5625 C6.05798828 15.84576172 6.05347656 17.12902344 6.04882812 18.45117188 C6.03699545 21.63416022 6.02051068 24.81705762 6 28 C4.02 28 2.04 28 0 28 C0 18.76 0 9.52 0 0 Z " fill="#49494A" transform="translate(690,403)"/>
<path d="M0 0 C10.4227331 -0.54776408 19.14567142 0.09711428 28 6 C28 6.66 28 7.32 28 8 C20.08 8 12.16 8 4 8 C2.68 5.36 1.36 2.72 0 0 Z " fill="#D3D4D4" transform="translate(363,329)"/>
<path d="M0 0 C9.24154826 -0.20871753 17.9400212 -0.14982548 27 2 C26.34 2.66 25.68 3.32 25 4 C25 4.99 25 5.98 25 7 C24.15179688 6.83628906 23.30359375 6.67257812 22.4296875 6.50390625 C18.9354469 5.99051555 15.65372426 5.90149261 12.125 5.9375 C10.97257812 5.94652344 9.82015625 5.95554687 8.6328125 5.96484375 C7.76398438 5.97644531 6.89515625 5.98804688 6 6 C6.33 6.598125 6.66 7.19625 7 7.8125 C8 10 8 10 8 13 C7.01 13 6.02 13 5 13 C3.5625 11.3125 3.5625 11.3125 2 9 C0.67130142 7.32963607 -0.66104368 5.66215268 -2 4 C-1.34 2.68 -0.68 1.36 0 0 Z " fill="#323231" transform="translate(358,324)"/>
<path d="M0 0 C1.42821559 0.19266934 2.85660929 0.38402193 4.28515625 0.57421875 C5.03684082 0.67524902 5.78852539 0.7762793 6.56298828 0.88037109 C10.68157622 1.41308584 14.8092754 1.86169078 18.9375 2.3125 C19.73293213 2.39991455 20.52836426 2.4873291 21.34790039 2.57739258 C23.21099153 2.78175546 25.07422906 2.98478302 26.9375 3.1875 C25.9375 5.6875 25.9375 5.6875 23.9375 8.1875 C16.33168129 9.28449308 8.42596741 7.04522894 0.9375 5.6875 C-0.42306618 5.44598897 -1.78374263 5.20509829 -3.14453125 4.96484375 C-6.45165436 4.3784744 -9.75752864 3.78585768 -13.0625 3.1875 C-8.96696161 -1.29808967 -5.79110102 -0.80576881 0 0 Z " fill="#151514" transform="translate(305.0625,405.8125)"/>
<path d="M0 0 C1.83048267 2.74572401 3.26661871 5.40295604 4.6875 8.375 C5.14511719 9.31085938 5.60273438 10.24671875 6.07421875 11.2109375 C7.14573803 14.43905888 7.25846694 15.84612775 6 19 C3.39769374 21.52853553 1.75736581 22.87985498 -1.86254883 23.45410156 C-3.39431763 23.42268066 -3.39431763 23.42268066 -4.95703125 23.390625 C-6.06884766 23.37773437 -7.18066406 23.36484375 -8.32617188 23.3515625 C-9.47666016 23.31804687 -10.62714844 23.28453125 -11.8125 23.25 C-13.56723633 23.22292969 -13.56723633 23.22292969 -15.35742188 23.1953125 C-18.2391178 23.1482644 -21.11913797 23.08253709 -24 23 C-24 22.67 -24 22.34 -24 22 C-16.41 21.67 -8.82 21.34 -1 21 C-1 20.34 -1 19.68 -1 19 C-7.93 19 -14.86 19 -22 19 C-22 18.67 -22 18.34 -22 18 C-14.74 17.67 -7.48 17.34 0 17 C-0.80263725 10.99921887 -0.80263725 10.99921887 -2.5625 5.5625 C-3.036875 4.386875 -3.51125 3.21125 -4 2 C-2.68 2.33 -1.36 2.66 0 3 C0 2.01 0 1.02 0 0 Z " fill="#3A3A3A" transform="translate(494,421)"/>
<path d="M0 0 C1.58748047 -0.00386719 1.58748047 -0.00386719 3.20703125 -0.0078125 C4.31691406 -0.00007813 5.42679687 0.00765625 6.5703125 0.015625 C7.67246094 0.00789063 8.77460938 0.00015625 9.91015625 -0.0078125 C10.97105469 -0.00523437 12.03195312 -0.00265625 13.125 0 C14.09679199 0.00225586 15.06858398 0.00451172 16.06982422 0.00683594 C18.7511963 0.27113335 20.39839897 0.89820441 22.6953125 2.265625 C17.62054456 3.52867835 12.96734896 4.53598584 7.6953125 4.265625 C7.3653125 5.255625 7.0353125 6.245625 6.6953125 7.265625 C5.7053125 6.935625 4.7153125 6.605625 3.6953125 6.265625 C3.3653125 7.255625 3.0353125 8.245625 2.6953125 9.265625 C2.6953125 7.945625 2.6953125 6.625625 2.6953125 5.265625 C1.3753125 5.265625 0.0553125 5.265625 -1.3046875 5.265625 C-1.4078125 6.52375 -1.5109375 7.781875 -1.6171875 9.078125 C-1.90202075 12.55309068 -2.63778482 13.99911522 -5.3046875 16.265625 C-5.69322959 13.97621544 -6.0651503 11.68397926 -6.4296875 9.390625 C-6.74292969 7.47636719 -6.74292969 7.47636719 -7.0625 5.5234375 C-7.14242188 4.44835937 -7.22234375 3.37328125 -7.3046875 2.265625 C-4.70799822 -0.33106428 -3.61081538 0.00840143 0 0 Z " fill="#464646" transform="translate(263.3046875,337.734375)"/>
<path d="M0 0 C0.99 0 1.98 0 3 0 C3 8.58 3 17.16 3 26 C1.35 26 -0.3 26 -2 26 C-5.42857143 17.57142857 -5.42857143 17.57142857 -5 13 C-2.525 13.495 -2.525 13.495 0 14 C0 9.38 0 4.76 0 0 Z " fill="#222221" transform="translate(711,404)"/>
<path d="M0 0 C0.53109375 0.40992188 1.0621875 0.81984375 1.609375 1.2421875 C2.31578125 1.78101563 3.0221875 2.31984375 3.75 2.875 C4.44609375 3.40867187 5.1421875 3.94234375 5.859375 4.4921875 C10.78236797 7.95984313 13.00295448 7.99950759 19 7 C21.6742359 6.91101492 24.32323981 6.95303929 27 7 C27 7.33 27 7.66 27 8 C25.39125 8.2165625 25.39125 8.2165625 23.75 8.4375 C21.08337051 8.83749442 18.58600271 9.27591924 16 10 C16 10.66 16 11.32 16 12 C16.99 12.33 17.98 12.66 19 13 C19 16.10551666 18.4606285 17.35261084 17 20 C15.26797907 18.60770997 13.53951516 17.21099444 11.8125 15.8125 C10.84957031 15.03519531 9.88664062 14.25789063 8.89453125 13.45703125 C1.23411371 6.9544636 1.23411371 6.9544636 0.1875 2.6875 C0.125625 1.800625 0.06375 0.91375 0 0 Z " fill="#2F2F2E" transform="translate(419,352)"/>
<path d="M0 0 C4.33463526 7.46311114 5.6686426 18.47480681 5 27 C4.67 27.66 4.34 28.32 4 29 C3.01 28.67 2.02 28.34 1 28 C-1.65777833 20.23447485 -3.11675454 11.19436772 -2 3 C-1.34 2.01 -0.68 1.02 0 0 Z " fill="#323131" transform="translate(261,345)"/>
<path d="M0 0 C0.33 0 0.66 0 1 0 C1 8.25 1 16.5 1 25 C4.465 24.505 4.465 24.505 8 24 C7.34 23.67 6.68 23.34 6 23 C6 20.36 6 17.72 6 15 C7.65 15.33 9.3 15.66 11 16 C11 17.65 11 19.3 11 21 C11.66 21 12.32 21 13 21 C13.33 18.69 13.66 16.38 14 14 C14.66 14.66 15.32 15.32 16 16 C15.88709677 23.11290323 15.88709677 23.11290323 13 26 C8.98095248 27.33968251 5.20426651 27.45169805 1 27 C0 26 0 26 -0.11352539 23.49975586 C-0.10828857 22.41573486 -0.10305176 21.33171387 -0.09765625 20.21484375 C-0.09443359 19.04501953 -0.09121094 17.87519531 -0.08789062 16.66992188 C-0.07951172 15.43822266 -0.07113281 14.20652344 -0.0625 12.9375 C-0.05798828 11.70193359 -0.05347656 10.46636719 -0.04882812 9.19335938 C-0.03699608 6.12885883 -0.02051173 3.06445279 0 0 Z " fill="#777777" transform="translate(741,404)"/>
<path d="M0 0 C0.639375 0.66 1.27875 1.32 1.9375 2 C2.95652113 3.00184661 3.97765697 4.00154348 5 5 C5.65484375 5.66257812 6.3096875 6.32515625 6.984375 7.0078125 C12.26670854 12.08409757 16.81115911 14.55923022 24 16 C20.33797068 18.44135288 18.41214305 19 14 19 C10.96477194 17.40035278 8.53474796 15.29456015 6 13 C5.38125 12.47277344 4.7625 11.94554687 4.125 11.40234375 C2.4375 9.875 2.4375 9.875 0 7 C0.41015625 5.0078125 0.41015625 5.0078125 1 3 C0.67 2.01 0.34 1.02 0 0 Z " fill="#171717" transform="translate(467,366)"/>
<path d="M0 0 C3.25696479 0.41755959 4.63443291 0.63443291 7 3 C-2.34924517 5.46961193 -11.29283007 7.31826787 -21 7 C-21 6.34 -21 5.68 -21 5 C-21.66 4.67 -22.32 4.34 -23 4 C-22.2575 4.04125 -21.515 4.0825 -20.75 4.125 C-18.05102797 4.1998271 -18.05102797 4.1998271 -16.125 3 C-13.09256067 1.57296973 -10.307602 1.93759242 -7 2 C-6.67 1.67 -6.34 1.34 -6 1 C-4.33333333 1 -2.66666667 1 -1 1 C-0.67 0.67 -0.34 0.34 0 0 Z " fill="#1A1919" transform="translate(368,372)"/>
<path d="M0 0 C-4.75 2 -4.75 2 -7 2 C-7 2.66 -7 3.32 -7 4 C-6.01 4.33 -5.02 4.66 -4 5 C-6.41474617 5.53160457 -8.83108107 6.05054766 -11.25 6.5625 C-11.93191406 6.71396484 -12.61382812 6.86542969 -13.31640625 7.02148438 C-16.81769038 7.75233495 -19.60298173 8.32203546 -23 7 C-22.67 6.01 -22.34 5.02 -22 4 C-22.495 4.165 -22.99 4.33 -23.5 4.5 C-27.03444089 5.20688818 -30.39690701 5.06005155 -34 5 C-34 4.67 -34 4.34 -34 4 C-29.80253464 3.25915879 -25.60337989 2.52908434 -21.40234375 1.80883789 C-19.97409939 1.56242686 -18.54635412 1.31310431 -17.11914062 1.06079102 C-15.06505284 0.69817872 -13.00938525 0.34614855 -10.953125 -0.00390625 C-9.71723633 -0.21861572 -8.48134766 -0.4333252 -7.20800781 -0.65454102 C-4.36377289 -0.96082659 -2.65273658 -0.95278421 0 0 Z " fill="#343434" transform="translate(354,375)"/>
<path d="M0 0 C1.125 1.5625 1.125 1.5625 2 4 C0.69565217 10.30434783 0.69565217 10.30434783 -2 13 C-5.125 13.125 -5.125 13.125 -8 13 C-8 16.63 -8 20.26 -8 24 C-9.65 24 -11.3 24 -13 24 C-13.33 23.34 -13.66 22.68 -14 22 C-12.35 22.33 -10.7 22.66 -9 23 C-9 19.37 -9 15.74 -9 12 C-9.66 12 -10.32 12 -11 12 C-11 11.01 -11 10.02 -11 9 C-10.34 9 -9.68 9 -9 9 C-9 6.36 -9 3.72 -9 1 C-7.35 1 -5.7 1 -4 1 C-3.70703125 7.0546875 -3.70703125 7.0546875 -4 9 C-4.99 9.66 -5.98 10.32 -7 11 C-5.68 11.33 -4.36 11.66 -3 12 C-2.67 10.68 -2.34 9.36 -2 8 C-1.67 8 -1.34 8 -1 8 C-0.67 5.36 -0.34 2.72 0 0 Z " fill="#494A4A" transform="translate(668,407)"/>
<path d="M0 0 C2.475 0.495 2.475 0.495 5 1 C5 6.28 5 11.56 5 17 C3.35 17.33 1.7 17.66 0 18 C0 12.06 0 6.12 0 0 Z " fill="#EFEFF0" transform="translate(677,408)"/>
<path d="M0 0 C1.98 0 3.96 0 6 0 C6.33 2.64 6.66 5.28 7 8 C6.01 8.495 6.01 8.495 5 9 C4.53348793 11.12576782 4.53348793 11.12576782 4.375 13.5625 C4.30023438 14.38878906 4.22546875 15.21507812 4.1484375 16.06640625 C4.09945312 16.70449219 4.05046875 17.34257812 4 18 C3.01 18 2.02 18 1 18 C1 16.02 1 14.04 1 12 C0.01 12 -0.98 12 -2 12 C-1 3.42857143 -1 3.42857143 0 0 Z " fill="#3F3F3F" transform="translate(173,403)"/>
<path d="M0 0 C7.8408377 -0.45235602 7.8408377 -0.45235602 11.5625 1 C13.87460278 4.21683865 13.25501172 7.11107127 13 11 C9.67465243 12.10844919 7.37817425 11.84454356 4 11 C3.8125 7.625 3.8125 7.625 4 4 C4.99 3.34 5.98 2.68 7 2 C4.69 1.67 2.38 1.34 0 1 C0 0.67 0 0.34 0 0 Z " fill="#3D3D3D" transform="translate(742,403)"/>
<path d="M0 0 C0.8357959 0.48218994 0.8357959 0.48218994 1.68847656 0.97412109 C4.27444132 2.1218 6.16617406 2.31095759 8.984375 2.4140625 C10.38623047 2.47207031 10.38623047 2.47207031 11.81640625 2.53125 C12.78449219 2.5621875 13.75257813 2.593125 14.75 2.625 C16.22533203 2.68300781 16.22533203 2.68300781 17.73046875 2.7421875 C20.15346037 2.83628426 22.57644796 2.92192328 25 3 C25.33 3.99 25.66 4.98 26 6 C17.42 6 8.84 6 0 6 C0 4.02 0 2.04 0 0 Z " fill="#0F0F0E" transform="translate(468,437)"/>
<path d="M0 0 C0.33 0.99 0.66 1.98 1 3 C-6.73059495 4.35709504 -14.14453364 5.31918373 -22 5 C-22 4.34 -22 3.68 -22 3 C-22.99 2.67 -23.98 2.34 -25 2 C-23.5459375 2.0309375 -23.5459375 2.0309375 -22.0625 2.0625 C-19.12534105 2.35618499 -19.12534105 2.35618499 -18 1 C-12.00318593 -0.17328971 -6.09324251 -0.0991667 0 0 Z " fill="#161616" transform="translate(457,359)"/>
<path d="M0 0 C12.66970387 0.77904328 12.66970387 0.77904328 18 3 C17.67 3.99 17.34 4.98 17 6 C10.59646678 6.2361959 5.15370839 5.823321 -1 4 C-0.67 2.68 -0.34 1.36 0 0 Z " fill="#353535" transform="translate(280,402)"/>
<path d="M0 0 C4.59621922 1.4870121 7.46972347 3.79812128 11 7 C11 7.33 11 7.66 11 8 C5.39 8 -0.22 8 -6 8 C-2 2 -2 2 0 0 Z " fill="#E9EBEA" transform="translate(545,387)"/>
<path d="M0 0 C1.32 0 2.64 0 4 0 C3.67 0.66 3.34 1.32 3 2 C2.34 1.67 1.68 1.34 1 1 C1.11458693 2.43836751 1.24209116 3.87570966 1.375 5.3125 C1.44460938 6.11300781 1.51421875 6.91351563 1.5859375 7.73828125 C1.89564426 10.27224441 1.89564426 10.27224441 4 13 C4.1953125 16.13671875 4.1953125 16.13671875 4.125 19.6875 C4.10695313 20.86699219 4.08890625 22.04648437 4.0703125 23.26171875 C4.03550781 24.61716797 4.03550781 24.61716797 4 26 C2.68 26 1.36 26 0 26 C0 17.42 0 8.84 0 0 Z " fill="#090909" transform="translate(700,404)"/>
<path d="M0 0 C5.28464631 0.93329763 9.32832094 4.21285934 13 8 C13.5625 11.4375 13.5625 11.4375 13 14 C11.58235006 13.06398754 10.16592432 12.1261208 8.75 11.1875 C7.96109375 10.66542969 7.1721875 10.14335937 6.359375 9.60546875 C5.58078125 9.07566406 4.8021875 8.54585938 4 8 C3.2471875 7.4946875 2.494375 6.989375 1.71875 6.46875 C0 5 0 5 -0.25 2.3125 C-0.1675 1.549375 -0.085 0.78625 0 0 Z " fill="#191919" transform="translate(437,368)"/>
<path d="M0 0 C0 0.66 0 1.32 0 2 C-1.98 2.99 -1.98 2.99 -4 4 C-4.33 9.61 -4.66 15.22 -5 21 C-5.99 21.33 -6.98 21.66 -8 22 C-8.08685287 18.70849875 -8.14033895 15.4172904 -8.1875 12.125 C-8.21263672 11.18785156 -8.23777344 10.25070312 -8.26367188 9.28515625 C-8.27333984 8.38925781 -8.28300781 7.49335938 -8.29296875 6.5703125 C-8.3086792 5.74289551 -8.32438965 4.91547852 -8.34057617 4.06298828 C-8.22818604 3.38220215 -8.1157959 2.70141602 -8 2 C-4.77208445 -0.1519437 -3.71599191 -0.20086443 0 0 Z " fill="#0C0C0B" transform="translate(681,405)"/>
<path d="M0 0 C3.5 0.125 3.5 0.125 4.5 1.125 C4.54092937 3.45797433 4.54241723 5.79205225 4.5 8.125 C-1.65234375 8.22265625 -1.65234375 8.22265625 -3.5 8.125 C-4.5 7.125 -4.5 7.125 -4.625 4.125 C-4.44582419 -0.1752195 -4.39475968 0.1569557 0 0 Z " fill="#545455" transform="translate(620.5,461.875)"/>
<path d="M0 0 C-0.33 0.66 -0.66 1.32 -1 2 C-5.99912865 3.66637622 -11.20386251 3.1845647 -16.4375 3.1875 C-17.58283203 3.19974609 -18.72816406 3.21199219 -19.90820312 3.22460938 C-21.00970703 3.22654297 -22.11121094 3.22847656 -23.24609375 3.23046875 C-24.25341553 3.23457764 -25.2607373 3.23868652 -26.29858398 3.24291992 C-29.03169002 2.99715033 -30.66797046 2.40116137 -33 1 C-10.40510967 -0.19388403 -10.40510967 -0.19388403 0 0 Z " fill="#F6F5F4" transform="translate(520,386)"/>
<path d="M0 0 C3.47914843 -0.0294191 6.95826417 -0.04693792 10.4375 -0.0625 C11.41138672 -0.07087891 12.38527344 -0.07925781 13.38867188 -0.08789062 C19.34778969 -0.10782078 25.09067683 0.22390482 31 1 C31 1.33 31 1.66 31 2 C29.1746875 2.185625 29.1746875 2.185625 27.3125 2.375 C24.72906095 2.6877321 22.86309211 3.05676669 20.4375 4.0625 C17.17459723 5.3174626 14.4626275 5.26133038 11 5 C10.34 4.34 9.68 3.68 9 3 C9.33 2.67 9.66 2.34 10 2 C6.7 1.67 3.4 1.34 0 1 C0 0.67 0 0.34 0 0 Z " fill="#5E5E5E" transform="translate(456,357)"/>
<path d="M0 0 C0.33 0 0.66 0 1 0 C1.125 7.75 1.125 7.75 0 10 C-0.06996014 11.70702735 -0.08440154 13.41668003 -0.0625 15.125 C-0.04896484 16.49011719 -0.04896484 16.49011719 -0.03515625 17.8828125 C-0.02355469 18.58148438 -0.01195312 19.28015625 0 20 C-0.33 19.34 -0.66 18.68 -1 18 C-1.66 18 -2.32 18 -3 18 C-3.33 16.35 -3.66 14.7 -4 13 C-5.32 12.67 -6.64 12.34 -8 12 C-8 14.31 -8 16.62 -8 19 C-8.33 19 -8.66 19 -9 19 C-9 16.36 -9 13.72 -9 11 C-7.68 10.67 -6.36 10.34 -5 10 C-5 9.34 -5 8.68 -5 8 C-5.99 7.67 -6.98 7.34 -8 7 C-5.36 7 -2.72 7 0 7 C0 4.69 0 2.38 0 0 Z " fill="#4B4C4C" transform="translate(755,407)"/>
<path d="M0 0 C2.64 0 5.28 0 8 0 C8 2.64 8 5.28 8 8 C5.36 8 2.72 8 0 8 C0 5.36 0 2.72 0 0 Z " fill="#595A5A" transform="translate(563,462)"/>
<path d="M0 0 C2.64 0 5.28 0 8 0 C8 2.64 8 5.28 8 8 C5.36 8 2.72 8 0 8 C0 5.36 0 2.72 0 0 Z " fill="#464747" transform="translate(670,462)"/>
<path d="M0 0 C2.64 0 5.28 0 8 0 C8 2.64 8 5.28 8 8 C5.36 8 2.72 8 0 8 C0 5.36 0 2.72 0 0 Z " fill="#454546" transform="translate(402,462)"/>
<path d="M0 0 C0.99 0 1.98 0 3 0 C3 7.26 3 14.52 3 22 C2.01 22 1.02 22 0 22 C0 14.74 0 7.48 0 0 Z " fill="#070707" transform="translate(723,408)"/>
<path d="M0 0 C15.84 0 31.68 0 48 0 C48 0.33 48 0.66 48 1 C30.675 1.495 30.675 1.495 13 2 C13 2.33 13 2.66 13 3 C11.20759337 2.88610125 9.41605165 2.75852313 7.625 2.625 C6.12839844 2.52058594 6.12839844 2.52058594 4.6015625 2.4140625 C2 2 2 2 0 0 Z " fill="#AAADB0" transform="translate(279,400)"/>
<path d="M0 0 C1.134375 0.020625 2.26875 0.04125 3.4375 0.0625 C3.4375 2.7025 3.4375 5.3425 3.4375 8.0625 C0.7975 8.0625 -1.8425 8.0625 -4.5625 8.0625 C-4.60491723 5.72955225 -4.60342937 3.39547433 -4.5625 1.0625 C-3.5625 0.0625 -3.5625 0.0625 0 0 Z " fill="#434444" transform="translate(245.5625,461.9375)"/>
<path d="M0 0 C2.33294775 -0.04241723 4.66702567 -0.04092937 7 0 C8 1 8 1 8.0625 4.5625 C8.041875 5.696875 8.02125 6.83125 8 8 C5.36 8 2.72 8 0 8 C0 5.36 0 2.72 0 0 Z " fill="#454646" transform="translate(224,462)"/>
<path d="M0 0 C1.134375 0.020625 2.26875 0.04125 3.4375 0.0625 C3.4375 2.7025 3.4375 5.3425 3.4375 8.0625 C0.7975 8.0625 -1.8425 8.0625 -4.5625 8.0625 C-4.60491723 5.72955225 -4.60342937 3.39547433 -4.5625 1.0625 C-3.5625 0.0625 -3.5625 0.0625 0 0 Z " fill="#484848" transform="translate(549.5625,461.9375)"/>
<path d="M0 0 C1.134375 0.020625 2.26875 0.04125 3.4375 0.0625 C3.4375 2.7025 3.4375 5.3425 3.4375 8.0625 C0.7975 8.0625 -1.8425 8.0625 -4.5625 8.0625 C-4.60491723 5.72955225 -4.60342937 3.39547433 -4.5625 1.0625 C-3.5625 0.0625 -3.5625 0.0625 0 0 Z " fill="#414242" transform="translate(281.5625,461.9375)"/>
<path d="M0 0 C2.33294775 -0.04241723 4.66702567 -0.04092937 7 0 C8 1 8 1 8.0625 4.5625 C8.041875 5.696875 8.02125 6.83125 8 8 C5.36 8 2.72 8 0 8 C0 5.36 0 2.72 0 0 Z " fill="#464646" transform="translate(206,462)"/>
<path d="M0 0 C2.33294775 -0.04241723 4.66702567 -0.04092937 7 0 C8 1 8 1 8.0625 4.5625 C8.041875 5.696875 8.02125 6.83125 8 8 C5.36 8 2.72 8 0 8 C0 5.36 0 2.72 0 0 Z " fill="#454645" transform="translate(599,462)"/>
<path d="M0 0 C2.33294775 -0.04241723 4.66702567 -0.04092937 7 0 C8 1 8 1 8.0625 4.5625 C8.041875 5.696875 8.02125 6.83125 8 8 C5.36 8 2.72 8 0 8 C0 5.36 0 2.72 0 0 Z " fill="#454646" transform="translate(581,462)"/>
<path d="M0 0 C1.134375 0.020625 2.26875 0.04125 3.4375 0.0625 C3.4375 2.7025 3.4375 5.3425 3.4375 8.0625 C0.7975 8.0625 -1.8425 8.0625 -4.5625 8.0625 C-4.60491723 5.72955225 -4.60342937 3.39547433 -4.5625 1.0625 C-3.5625 0.0625 -3.5625 0.0625 0 0 Z " fill="#464646" transform="translate(531.5625,461.9375)"/>
<path d="M0 0 C1.134375 0.020625 2.26875 0.04125 3.4375 0.0625 C3.4375 2.7025 3.4375 5.3425 3.4375 8.0625 C0.7975 8.0625 -1.8425 8.0625 -4.5625 8.0625 C-4.60491723 5.72955225 -4.60342937 3.39547433 -4.5625 1.0625 C-3.5625 0.0625 -3.5625 0.0625 0 0 Z " fill="#444444" transform="translate(513.5625,461.9375)"/>
<path d="M0 0 C2.33294775 -0.04241723 4.66702567 -0.04092937 7 0 C8 1 8 1 8.0625 4.5625 C8.041875 5.696875 8.02125 6.83125 8 8 C5.36 8 2.72 8 0 8 C0 5.36 0 2.72 0 0 Z " fill="#474747" transform="translate(492,462)"/>
<path d="M0 0 C2.33294775 -0.04241723 4.66702567 -0.04092937 7 0 C8 1 8 1 8.0625 4.5625 C8.041875 5.696875 8.02125 6.83125 8 8 C5.36 8 2.72 8 0 8 C0 5.36 0 2.72 0 0 Z " fill="#444444" transform="translate(474,462)"/>
<path d="M0 0 C2.33294775 -0.04241723 4.66702567 -0.04092937 7 0 C8 1 8 1 8.0625 4.5625 C8.041875 5.696875 8.02125 6.83125 8 8 C5.36 8 2.72 8 0 8 C0 5.36 0 2.72 0 0 Z " fill="#424243" transform="translate(456,462)"/>
<path d="M0 0 C1.134375 0.020625 2.26875 0.04125 3.4375 0.0625 C3.4375 2.7025 3.4375 5.3425 3.4375 8.0625 C0.7975 8.0625 -1.8425 8.0625 -4.5625 8.0625 C-4.60491723 5.72955225 -4.60342937 3.39547433 -4.5625 1.0625 C-3.5625 0.0625 -3.5625 0.0625 0 0 Z " fill="#444444" transform="translate(442.5625,461.9375)"/>
<path d="M0 0 C1.134375 0.020625 2.26875 0.04125 3.4375 0.0625 C3.4375 2.7025 3.4375 5.3425 3.4375 8.0625 C0.7975 8.0625 -1.8425 8.0625 -4.5625 8.0625 C-4.60491723 5.72955225 -4.60342937 3.39547433 -4.5625 1.0625 C-3.5625 0.0625 -3.5625 0.0625 0 0 Z " fill="#484848" transform="translate(424.5625,461.9375)"/>
<path d="M0 0 C1.134375 0.020625 2.26875 0.04125 3.4375 0.0625 C3.4375 2.7025 3.4375 5.3425 3.4375 8.0625 C0.7975 8.0625 -1.8425 8.0625 -4.5625 8.0625 C-4.60491723 5.72955225 -4.60342937 3.39547433 -4.5625 1.0625 C-3.5625 0.0625 -3.5625 0.0625 0 0 Z " fill="#464646" transform="translate(388.5625,461.9375)"/>
<path d="M0 0 C1.134375 0.020625 2.26875 0.04125 3.4375 0.0625 C3.4375 2.7025 3.4375 5.3425 3.4375 8.0625 C0.7975 8.0625 -1.8425 8.0625 -4.5625 8.0625 C-4.60491723 5.72955225 -4.60342937 3.39547433 -4.5625 1.0625 C-3.5625 0.0625 -3.5625 0.0625 0 0 Z " fill="#474747" transform="translate(370.5625,461.9375)"/>
<path d="M0 0 C1.134375 0.020625 2.26875 0.04125 3.4375 0.0625 C3.4375 2.7025 3.4375 5.3425 3.4375 8.0625 C0.7975 8.0625 -1.8425 8.0625 -4.5625 8.0625 C-4.60491723 5.72955225 -4.60342937 3.39547433 -4.5625 1.0625 C-3.5625 0.0625 -3.5625 0.0625 0 0 Z " fill="#434444" transform="translate(352.5625,461.9375)"/>
<path d="M0 0 C2.33294775 -0.04241723 4.66702567 -0.04092937 7 0 C8 1 8 1 8.0625 4.5625 C8.041875 5.696875 8.02125 6.83125 8 8 C5.36 8 2.72 8 0 8 C0 5.36 0 2.72 0 0 Z " fill="#434444" transform="translate(331,462)"/>
<path d="M0 0 C2.33294775 -0.04241723 4.66702567 -0.04092937 7 0 C8 1 8 1 8.0625 4.5625 C8.041875 5.696875 8.02125 6.83125 8 8 C5.36 8 2.72 8 0 8 C0 5.36 0 2.72 0 0 Z " fill="#414141" transform="translate(313,462)"/>
<path d="M0 0 C2.33294775 -0.04241723 4.66702567 -0.04092937 7 0 C8 1 8 1 8.0625 4.5625 C8.041875 5.696875 8.02125 6.83125 8 8 C5.36 8 2.72 8 0 8 C0 5.36 0 2.72 0 0 Z " fill="#434343" transform="translate(295,462)"/>
<path d="M0 0 C1.134375 0.020625 2.26875 0.04125 3.4375 0.0625 C3.4375 2.7025 3.4375 5.3425 3.4375 8.0625 C0.7975 8.0625 -1.8425 8.0625 -4.5625 8.0625 C-4.60491723 5.72955225 -4.60342937 3.39547433 -4.5625 1.0625 C-3.5625 0.0625 -3.5625 0.0625 0 0 Z " fill="#454546" transform="translate(263.5625,461.9375)"/>
<path d="M0 0 C0.33 0 0.66 0 1 0 C1.60965199 6.02031344 2.13451772 11.94670256 2 18 C1.01 18.33 0.02 18.66 -1 19 C-1.53122363 17.23225581 -2.04964073 15.46065917 -2.5625 13.6875 C-2.85253906 12.70136719 -3.14257812 11.71523438 -3.44140625 10.69921875 C-4 8 -4 8 -3 5 C-2.34 5.33 -1.68 5.66 -1 6 C-0.67 4.02 -0.34 2.04 0 0 Z " fill="#373737" transform="translate(266,368)"/>
<path d="M0 0 C0.99 0 1.98 0 3 0 C3 8.58 3 17.16 3 26 C1.68 26 0.36 26 -1 26 C-0.67 25.34 -0.34 24.68 0 24 C0.66 24.33 1.32 24.66 2 25 C2 21.7 2 18.4 2 15 C1.34 15 0.68 15 0 15 C0 10.05 0 5.1 0 0 Z " fill="#050505" transform="translate(711,404)"/>
<path d="M0 0 C1.35158203 0.15275391 1.35158203 0.15275391 2.73046875 0.30859375 C3.41753906 0.39238281 4.10460937 0.47617187 4.8125 0.5625 C3.3275 2.0475 3.3275 2.0475 1.8125 3.5625 C2.59625 3.68625 3.38 3.81 4.1875 3.9375 C6.8125 4.5625 6.8125 4.5625 8.8125 6.5625 C2.0267064 6.01386137 -4.53759036 5.01982062 -11.1875 3.5625 C-7.69024202 -0.26783017 -5.03295147 -0.58826705 0 0 Z " fill="#444444" transform="translate(303.1875,405.4375)"/>
<path d="M0 0 C0.33 0 0.66 0 1 0 C1.33 5.94 1.66 11.88 2 18 C2.33 18 2.66 18 3 18 C3.33 12.72 3.66 7.44 4 2 C4.33 2 4.66 2 5 2 C5 7.61 5 13.22 5 19 C6.65 18.67 8.3 18.34 10 18 C10 18.66 10 19.32 10 20 C7.38326241 21.40182371 4.9628331 22.60495559 2 23 C0 21 0 21 -0.22705078 18.84521484 C-0.21657715 17.97590332 -0.20610352 17.1065918 -0.1953125 16.2109375 C-0.18886719 15.26992188 -0.18242188 14.32890625 -0.17578125 13.359375 C-0.15902344 12.37453125 -0.14226563 11.3896875 -0.125 10.375 C-0.11597656 9.38242187 -0.10695313 8.38984375 -0.09765625 7.3671875 C-0.07404116 4.91121866 -0.04110799 2.45572832 0 0 Z " fill="#4A4B4B" transform="translate(672,407)"/>
<path d="M0 0 C2.31 0 4.62 0 7 0 C7 2.64 7 5.28 7 8 C4.36 8 1.72 8 -1 8 C-0.67 5.36 -0.34 2.72 0 0 Z " fill="#383838" transform="translate(653,462)"/>
<path d="M0 0 C0 2.31 0 4.62 0 7 C-2.64 7 -5.28 7 -8 7 C-8 4.69 -8 2.38 -8 0 C-2.25 -1.125 -2.25 -1.125 0 0 Z " fill="#3D3D3D" transform="translate(196,463)"/>
<path d="M0 0 C2.31 0 4.62 0 7 0 C7 2.64 7 5.28 7 8 C4.69 8 2.38 8 0 8 C0 5.36 0 2.72 0 0 Z " fill="#353636" transform="translate(635,462)"/>
<path d="M0 0 C4.29 0.33 8.58 0.66 13 1 C13 1.33 13 1.66 13 2 C15.97 2.495 15.97 2.495 19 3 C19 3.33 19 3.66 19 4 C7.12 4.99 7.12 4.99 -5 6 C-5 5.34 -5 4.68 -5 4 C-1.535 3.505 -1.535 3.505 2 3 C1.34 2.01 0.68 1.02 0 0 Z " fill="#535353" transform="translate(497,412)"/>
<path d="M0 0 C0.93585938 0.01546875 1.87171875 0.0309375 2.8359375 0.046875 C5.50958912 0.24159473 8.0125919 0.66102072 10.625 1.25 C10.295 2.24 9.965 3.23 9.625 4.25 C-3.04470387 4.43451025 -3.04470387 4.43451025 -8.375 3.25 C-5.83705113 0.01368935 -4.0171805 -0.11005974 0 0 Z " fill="#10100F" transform="translate(331.375,409.75)"/>
<path d="M0 0 C0 0.66 0 1.32 0 2 C0.99 2.33 1.98 2.66 3 3 C-0.28519475 4.09506492 -2.73663415 4.09960608 -6.1875 4.0625 C-7.81751953 4.04896484 -7.81751953 4.04896484 -9.48046875 4.03515625 C-10.31191406 4.02355469 -11.14335937 4.01195312 -12 4 C-12 3.67 -12 3.34 -12 3 C-13.65 2.67 -15.3 2.34 -17 2 C-17 1.67 -17 1.34 -17 1 C-11.29309366 0.00749455 -5.78591511 -0.10477512 0 0 Z " fill="#121312" transform="translate(518,411)"/>
<path d="M0 0 C0.88429688 -0.01417969 1.76859375 -0.02835937 2.6796875 -0.04296875 C5.125 0.1875 5.125 0.1875 8.125 2.1875 C7.465 2.1875 6.805 2.1875 6.125 2.1875 C6.125 2.8475 6.125 3.5075 6.125 4.1875 C0.67806686 4.28438221 -4.51404667 4.31612175 -9.875 3.1875 C-9.235625 2.878125 -8.59625 2.56875 -7.9375 2.25 C-3.6207847 0.02623757 -3.6207847 0.02623757 0 0 Z " fill="#151515" transform="translate(483.875,358.8125)"/>
<path d="M0 0 C0.33 0 0.66 0 1 0 C1 4.95 1 9.9 1 15 C1.66 15 2.32 15 3 15 C3 18.63 3 22.26 3 26 C2.01 26 1.02 26 0 26 C0 17.42 0 8.84 0 0 Z " fill="#080808" transform="translate(656,404)"/>
<path d="M0 0 C9 0 9 0 13 2 C13 2.66 13 3.32 13 4 C10.03 3.505 10.03 3.505 7 3 C7 2.67 7 2.34 7 2 C4.03 1.505 4.03 1.505 1 1 C1 9.25 1 17.5 1 26 C0.67 26 0.34 26 0 26 C0 17.42 0 8.84 0 0 Z " fill="#282828" transform="translate(655,403)"/>
<path d="M0 0 C2.04371546 1.677033 2.92353251 2.53872837 3.36328125 5.19140625 C3.34652344 5.97386719 3.32976562 6.75632812 3.3125 7.5625 C3.30863281 8.34753906 3.30476563 9.13257813 3.30078125 9.94140625 C3 12 3 12 1 14 C-2.42857143 5.57142857 -2.42857143 5.57142857 -2 1 C-1.34 0.67 -0.68 0.34 0 0 Z " fill="#171616" transform="translate(269,343)"/>
<path d="M0 0 C2.6875 0.875 2.6875 0.875 5 2 C2.08149788 3.94566808 0.42377152 4.5152457 -2.9375 5.1875 C-3.79214844 5.36667969 -4.64679687 5.54585938 -5.52734375 5.73046875 C-8.01134859 6.00123705 -9.64449502 5.77059444 -12 5 C-12 4.01 -12 3.02 -12 2 C-13.65 2 -15.3 2 -17 2 C-17 1.67 -17 1.34 -17 1 C-15.41590006 1.11487748 -13.83271037 1.24234508 -12.25 1.375 C-10.92742188 1.47941406 -10.92742188 1.47941406 -9.578125 1.5859375 C-7.00933618 1.99850055 -5.24158985 2.71160957 -3 4 C-3 3.34 -3 2.68 -3 2 C-2.01 1.34 -1.02 0.68 0 0 Z " fill="#414141" transform="translate(530,409)"/>
<path d="M0 0 C4.62 0 9.24 0 14 0 C14 0.99 14 1.98 14 3 C8.06 3.495 8.06 3.495 2 4 C1.34 2.68 0.68 1.36 0 0 Z " fill="#DDDEDE" transform="translate(363,329)"/>
<path d="M0 0 C2.18975773 3.28463659 2.99806563 6.20696275 4 10 C2.35 10 0.7 10 -1 10 C-1.99 7.36 -2.98 4.72 -4 2 C-2.68 2.33 -1.36 2.66 0 3 C0 2.01 0 1.02 0 0 Z " fill="#313131" transform="translate(494,421)"/>
<path d="M0 0 C0.33 0 0.66 0 1 0 C1.10829314 2.89684158 1.18743954 5.78961019 1.25 8.6875 C1.30027344 9.91243164 1.30027344 9.91243164 1.3515625 11.16210938 C1.41764597 15.24276372 1.3127318 17.46232077 -0.78125 21.0625 C-3 23 -3 23 -6.75 23.3125 C-7.8225 23.209375 -8.895 23.10625 -10 23 C-10 22.67 -10 22.34 -10 22 C-8.02 22 -6.04 22 -4 22 C-3.896875 21.360625 -3.79375 20.72125 -3.6875 20.0625 C-3.460625 19.381875 -3.23375 18.70125 -3 18 C-2.01 17.67 -1.02 17.34 0 17 C0 11.39 0 5.78 0 0 Z " fill="#7D7D7E" transform="translate(686,408)"/>
<path d="M0 0 C5.75 -0.125 5.75 -0.125 8 1 C8.625 3.5625 8.625 3.5625 9 6 C6.69 5.67 4.38 5.34 2 5 C1.34 3.35 0.68 1.7 0 0 Z " fill="#272727" transform="translate(506,364)"/>
<path d="M0 0 C1.8871875 0.061875 1.8871875 0.061875 3.8125 0.125 C3.8125 0.455 3.8125 0.785 3.8125 1.125 C1.8325 1.785 -0.1475 2.445 -2.1875 3.125 C-0.8675 3.785 0.4525 4.445 1.8125 5.125 C-4.1275 4.795 -10.0675 4.465 -16.1875 4.125 C-16.1875 3.795 -16.1875 3.465 -16.1875 3.125 C-15.57261719 3.07601563 -14.95773437 3.02703125 -14.32421875 2.9765625 C-13.51597656 2.90179688 -12.70773437 2.82703125 -11.875 2.75 C-11.07449219 2.68039062 -10.27398437 2.61078125 -9.44921875 2.5390625 C-5.74250003 1.86045769 -3.95933286 -0.12981419 0 0 Z " fill="#545454" transform="translate(346.1875,410.875)"/>
<path d="M0 0 C-0.99 0.495 -0.99 0.495 -2 1 C-0.68 1.99 0.64 2.98 2 4 C-1.9492568 3.44894091 -5.34920174 2.61064629 -9 1 C-9.33 1.66 -9.66 2.32 -10 3 C-11.65 2.67 -13.3 2.34 -15 2 C-15.33 2.66 -15.66 3.32 -16 4 C-18.97 3.505 -18.97 3.505 -22 3 C-22 2.67 -22 2.34 -22 2 C-19.08483516 1.46915208 -16.16839443 0.95000945 -13.25 0.4375 C-12.425 0.28603516 -11.6 0.13457031 -10.75 -0.02148438 C-9.95078125 -0.16005859 -9.1515625 -0.29863281 -8.328125 -0.44140625 C-7.5949707 -0.57232666 -6.86181641 -0.70324707 -6.10644531 -0.83813477 C-3.83766713 -1.01247412 -2.16221421 -0.66874807 0 0 Z " fill="#666565" transform="translate(377,371)"/>
<path d="M0 0 C2.01822917 0.06510417 4.03645833 0.13020833 6.0546875 0.1953125 C5.0546875 2.6953125 5.0546875 2.6953125 3.0546875 5.1953125 C-2.0822115 5.7090024 -6.87204538 5.04085702 -11.9453125 4.1953125 C-11.9453125 3.8653125 -11.9453125 3.5353125 -11.9453125 3.1953125 C-10.6665625 3.0715625 -9.3878125 2.9478125 -8.0703125 2.8203125 C-4.56915336 2.48149065 -3.1324247 0.31450047 0 0 Z " fill="#535353" transform="translate(325.9453125,408.8046875)"/>
<path d="M0 0 C1.875 1.5 1.875 1.5 3 3 C2.01 4.485 2.01 4.485 1 6 C-0.65 5.67 -2.3 5.34 -4 5 C-3.01 4.67 -2.02 4.34 -1 4 C-1 3.34 -1 2.68 -1 2 C-3.64 2.66 -6.28 3.32 -9 4 C-8.67 3.01 -8.34 2.02 -8 1 C-5.20129973 -0.39935013 -3.09501208 -0.25265405 0 0 Z " fill="#4C4C4C" transform="translate(682,403)"/>
<path d="M0 0 C0.33 0 0.66 0 1 0 C1.33 5.94 1.66 11.88 2 18 C1.34 18.33 0.68 18.66 0 19 C0 12.73 0 6.46 0 0 Z M-5 19 C-3.35 19 -1.7 19 0 19 C0 19.99 0 20.98 0 22 C-1.98 22 -3.96 22 -6 22 C-5.67 21.01 -5.34 20.02 -5 19 Z " fill="#060706" transform="translate(682,408)"/>
<path d="M0 0 C0.33 0 0.66 0 1 0 C1 2.97 1 5.94 1 9 C0.34 9 -0.32 9 -1 9 C-1.33 9.99 -1.66 10.98 -2 12 C-3.65 12 -5.3 12 -7 12 C-6.360625 11.46375 -5.72125 10.9275 -5.0625 10.375 C-2.61470596 7.55632807 -2.33285388 5.66139268 -2 2 C-1.34 2 -0.68 2 0 2 C0 1.34 0 0.68 0 0 Z " fill="#070807" transform="translate(667,407)"/>
<path d="M0 0 C0.68384766 0.00902344 1.36769531 0.01804687 2.07226562 0.02734375 C3.73583287 0.05061042 5.39921631 0.08646833 7.0625 0.125 C7.0625 0.455 7.0625 0.785 7.0625 1.125 C1.1225 1.62 1.1225 1.62 -4.9375 2.125 C-4.9375 2.455 -4.9375 2.785 -4.9375 3.125 C-8.2375 3.455 -11.5375 3.785 -14.9375 4.125 C-14.9375 3.465 -14.9375 2.805 -14.9375 2.125 C-9.77803135 0.4208322 -5.4949667 -0.09725605 0 0 Z " fill="#20201F" transform="translate(498.9375,381.875)"/>
<path d="M0 0 C-0.99 0.495 -0.99 0.495 -2 1 C-1.01 1.99 -0.02 2.98 1 4 C-1.31 4.33 -3.62 4.66 -6 5 C-5.67 3.68 -5.34 2.36 -5 1 C-5.495 1.165 -5.99 1.33 -6.5 1.5 C-10.03444089 2.20688818 -13.39690701 2.06005155 -17 2 C-17 1.67 -17 1.34 -17 1 C-14.91835982 0.63601378 -12.83459438 0.28416713 -10.75 -0.0625 C-9.00976562 -0.35833984 -9.00976562 -0.35833984 -7.234375 -0.66015625 C-4.37477376 -0.9606216 -2.66674071 -0.9439206 0 0 Z " fill="#656565" transform="translate(337,378)"/>
<path d="M0 0 C1.32 0 2.64 0 4 0 C4 2.64 4 5.28 4 8 C2.68 8 1.36 8 0 8 C0 5.36 0 2.72 0 0 Z " fill="#F4F4F4" transform="translate(660,408)"/>
<path d="M0 0 C3.96 0 7.92 0 12 0 C9.73030256 2.26969744 8.02604513 2.99131829 5 4 C3.68 4 2.36 4 1 4 C0.67 2.68 0.34 1.36 0 0 Z " fill="#ABACAD" transform="translate(538,400)"/>
<path d="M0 0 C0 0.66 0 1.32 0 2 C0.66 2.33 1.32 2.66 2 3 C-1.542799 4.180933 -4.28359861 4.27028374 -8 4 C-8.66 3.01 -9.32 2.02 -10 1 C-6.56484998 0.37542727 -3.50935186 0 0 0 Z " fill="#0F0F0F" transform="translate(332,379)"/>
<path d="M0 0 C2.09065618 3.39731629 2.42098999 6.04269405 2 10 C0.5 11.875 0.5 11.875 -1 13 C-2.17664871 9.47005387 -2.19850603 6.70544587 -2 3 C-1.34 2.01 -0.68 1.02 0 0 Z " fill="#0D0D0D" transform="translate(261,345)"/>
<path d="M0 0 C1.32 0 2.64 0 4 0 C4.6875 2.8125 4.6875 2.8125 5 6 C3.5625 7.875 3.5625 7.875 2 9 C-0.29013653 5.5647952 -0.17842973 4.014669 0 0 Z " fill="#CDCDCC" transform="translate(262,343)"/>
<path d="M0 0 C4.455 0.99 4.455 0.99 9 2 C8.67 3.65 8.34 5.3 8 7 C6.35 6.67 4.7 6.34 3 6 C2.87625 5.195625 2.7525 4.39125 2.625 3.5625 C2.315625 2.2940625 2.315625 2.2940625 2 1 C1.34 0.67 0.68 0.34 0 0 Z " fill="#3D3D3D" transform="translate(499,361)"/>
<path d="M0 0 C-0.9375 2.0625 -0.9375 2.0625 -3 4 C-6.07110598 4.05989746 -8.99011728 3.58052245 -12 3 C-8.16772312 -1.19725563 -5.42060446 -1.08412089 0 0 Z " fill="#3E3E3D" transform="translate(304,406)"/>
<path d="M0 0 C1.32 0 2.64 0 4 0 C4 2.31 4 4.62 4 7 C2.68 7 1.36 7 0 7 C0 4.69 0 2.38 0 0 Z " fill="#F9F9F9" transform="translate(747,419)"/>
<path d="M0 0 C0.99 0 1.98 0 3 0 C3 1.98 3 3.96 3 6 C2.01 5.67 1.02 5.34 0 5 C-0.33 7.31 -0.66 9.62 -1 12 C-1.33 12 -1.66 12 -2 12 C-2.28571429 3.42857143 -2.28571429 3.42857143 0 0 Z " fill="#1D1D1D" transform="translate(172,412)"/>
<path d="M0 0 C3.96 0 7.92 0 12 0 C12.33 0.99 12.66 1.98 13 3 C11.20759337 2.88610125 9.41605165 2.75852313 7.625 2.625 C6.12839844 2.52058594 6.12839844 2.52058594 4.6015625 2.4140625 C2 2 2 2 0 0 Z " fill="#A5A6A9" transform="translate(279,400)"/>
<path d="M0 0 C0 0.33 0 0.66 0 1 C-4.455 1.495 -4.455 1.495 -9 2 C-9 2.99 -9 3.98 -9 5 C-10.65 5 -12.3 5 -14 5 C-14 4.34 -14 3.68 -14 3 C-14.66 2.67 -15.32 2.34 -16 2 C-15.2575 2.04125 -14.515 2.0825 -13.75 2.125 C-11.05102797 2.1998271 -11.05102797 2.1998271 -9.125 1 C-6.07726241 -0.43422946 -3.31810935 -0.12761959 0 0 Z " fill="#0E0E0E" transform="translate(361,374)"/>
<path d="M0 0 C5.75 0.75 5.75 0.75 8 3 C6.68 3.99 5.36 4.98 4 6 C2.68 5.34 1.36 4.68 0 4 C0 2.68 0 1.36 0 0 Z " fill="#383838" transform="translate(514,366)"/>
<path d="M0 0 C1.125 1.5625 1.125 1.5625 2 4 C0.69565217 10.30434783 0.69565217 10.30434783 -2 13 C-5.125 13.125 -5.125 13.125 -8 13 C-8 12.67 -8 12.34 -8 12 C-6.35 12 -4.7 12 -3 12 C-2.67 10.68 -2.34 9.36 -2 8 C-1.67 8 -1.34 8 -1 8 C-0.67 5.36 -0.34 2.72 0 0 Z " fill="#5B5B5C" transform="translate(668,407)"/>
<path d="M0 0 C0.99386719 0.02707031 1.98773438 0.05414063 3.01171875 0.08203125 C4.15060547 0.13423828 4.15060547 0.13423828 5.3125 0.1875 C0.56544723 3.35220185 -3.00521295 3.29677475 -8.6875 3.1875 C-6.10291354 -0.17334451 -4.11082043 -0.14508778 0 0 Z " fill="#0F0F0E" transform="translate(350.6875,411.8125)"/>
<path d="M0 0 C3.26954202 0.56371414 4.82575883 1.49962266 7 4 C5.68 4.99 4.36 5.98 3 7 C2.01 6.34 1.02 5.68 0 5 C-0.1875 2.375 -0.1875 2.375 0 0 Z " fill="#1F1F1E" transform="translate(437,368)"/>
<path d="M0 0 C0.66 0.66 1.32 1.32 2 2 C2.99 2 3.98 2 5 2 C5 3.65 5 5.3 5 7 C4.34 7 3.68 7 3 7 C2.67 7.66 2.34 8.32 2 9 C0.50178941 5.62902617 0 3.79557881 0 0 Z " fill="#151412" transform="translate(274,368)"/>
<path d="M0 0 C2.31 0.33 4.62 0.66 7 1 C5.1875 1.625 5.1875 1.625 3 2 C2.01 1.34 1.02 0.68 0 0 Z M-3 2 C2.75 1.875 2.75 1.875 5 3 C5 3.99 5 4.98 5 6 C2.125 5.6875 2.125 5.6875 -1 5 C-1.66 4.01 -2.32 3.02 -3 2 Z " fill="#424242" transform="translate(378,325)"/>
<path d="M0 0 C2.875 -0.125 2.875 -0.125 6 0 C6.66 0.66 7.32 1.32 8 2 C4.62902617 3.49821059 2.79557881 4 -1 4 C-0.67 2.68 -0.34 1.36 0 0 Z " fill="#1F1F1F" transform="translate(280,402)"/>
<path d="M0 0 C0.33 0 0.66 0 1 0 C1.125 7.75 1.125 7.75 0 10 C-0.99 9.67 -1.98 9.34 -3 9 C-2.44271087 5.65626525 -1.64826111 2.96687001 0 0 Z " fill="#1F1E1D" transform="translate(265,364)"/>
<path d="M0 0 C0.99 0.33 1.98 0.66 3 1 C3.29296875 6.95703125 3.29296875 6.95703125 3 9 C2.01 9.99 1.02 10.98 0 12 C0 8.04 0 4.08 0 0 Z " fill="#303030" transform="translate(258,342)"/>
<path d="M0 0 C-0.33 0.66 -0.66 1.32 -1 2 C-1.66 1.67 -2.32 1.34 -3 1 C-3 1.66 -3 2.32 -3 3 C-6.96 3 -10.92 3 -15 3 C-15 2.67 -15 2.34 -15 2 C-9.92523206 0.73694665 -5.27203646 -0.27036084 0 0 Z " fill="#0E0E0E" transform="translate(286,340)"/>
<path d="M0 0 C1.98 0.495 1.98 0.495 4 1 C4 2.65 4 4.3 4 6 C2.35 6 0.7 6 -1 6 C-0.67 4.02 -0.34 2.04 0 0 Z " fill="#474746" transform="translate(180,425)"/>
<path d="M0 0 C1.32 0 2.64 0 4 0 C4 1.98 4 3.96 4 6 C2.68 6 1.36 6 0 6 C0 4.02 0 2.04 0 0 Z " fill="#F4F4F4" transform="translate(747,408)"/>
<path d="M0 0 C-5.19209404 0.21192221 -9.126739 -0.4087311 -14 -2 C-14 -2.33 -14 -2.66 -14 -3 C-7.97126615 -4.40203113 -5.05965502 -3.37310335 0 0 Z " fill="#30302F" transform="translate(539,411)"/>
<path d="M0 0 C2.64 0 5.28 0 8 0 C8 0.99 8 1.98 8 3 C5.69 3 3.38 3 1 3 C0.67 2.01 0.34 1.02 0 0 Z " fill="#0E0F0F" transform="translate(270,386)"/>
<path d="M0 0 C3.91402949 1.26941497 5.79072873 2.51167694 8 6 C4.62537285 5.45276317 2.91765 4.9451 0 3 C0 2.01 0 1.02 0 0 Z " fill="#F0F1F0" transform="translate(447,381)"/>
<path d="M0 0 C1.65 0 3.3 0 5 0 C5.33 1.32 5.66 2.64 6 4 C4.02 4 2.04 4 0 4 C0 2.66666667 0 1.33333333 0 0 Z " fill="#1C1C1C" transform="translate(519,369)"/>
<path d="M0 0 C1.134375 0.020625 2.26875 0.04125 3.4375 0.0625 C3.4375 0.3925 3.4375 0.7225 3.4375 1.0625 C1.4575 1.3925 -0.5225 1.7225 -2.5625 2.0625 C-2.5625 2.7225 -2.5625 3.3825 -2.5625 4.0625 C-4.2125 4.0625 -5.8625 4.0625 -7.5625 4.0625 C-7.5625 3.4025 -7.5625 2.7425 -7.5625 2.0625 C-8.5525 1.7325 -9.5425 1.4025 -10.5625 1.0625 C-9.1084375 1.0934375 -9.1084375 1.0934375 -7.625 1.125 C-3.88736045 1.04872164 -3.92115709 0.06879223 0 0 Z " fill="#0B0B0B" transform="translate(442.5625,359.9375)"/>
<path d="M0 0 C2 3 2 3 2 7 C1.01 7.33 0.02 7.66 -1 8 C-1.66 6.35 -2.32 4.7 -3 3 C-2.01 2.67 -1.02 2.34 0 2 C0 1.34 0 0.68 0 0 Z " fill="#323232" transform="translate(378,357)"/>
<path d="M0 0 C2.0625 0.4375 2.0625 0.4375 4 1 C4 1.66 4 2.32 4 3 C-0.95 3 -5.9 3 -11 3 C-11 2.67 -11 2.34 -11 2 C-10.28972656 1.93941406 -9.57945312 1.87882812 -8.84765625 1.81640625 C-7.46900391 1.69072266 -7.46900391 1.69072266 -6.0625 1.5625 C-5.14597656 1.48128906 -4.22945313 1.40007812 -3.28515625 1.31640625 C-1.03840268 1.23955024 -1.03840268 1.23955024 0 0 Z " fill="#EBEBEB" transform="translate(378,330)"/>
<path d="M0 0 C0.68707555 2.49064888 1 4.37886292 1 7 C-1.375 7.1875 -1.375 7.1875 -4 7 C-4.66 6.01 -5.32 5.02 -6 4 C-4.02 3.67 -2.04 3.34 0 3 C0 2.01 0 1.02 0 0 Z " fill="#121312" transform="translate(380,367)"/>
<path d="M0 0 C0 2.97 0 5.94 0 9 C-0.33 8.34 -0.66 7.68 -1 7 C-1.66 7 -2.32 7 -3 7 C-3 5.02 -3 3.04 -3 1 C-1 0 -1 0 0 0 Z " fill="#090909" transform="translate(755,418)"/>
<path d="M0 0 C1.41623216 -0.05447047 2.83308191 -0.09300508 4.25 -0.125 C5.03890625 -0.14820313 5.8278125 -0.17140625 6.640625 -0.1953125 C9.20731941 0.0171622 10.7916067 0.71345895 13 2 C13 2.66 13 3.32 13 4 C10.03 3.505 10.03 3.505 7 3 C7 2.67 7 2.34 7 2 C4.69 1.67 2.38 1.34 0 1 C0 0.67 0 0.34 0 0 Z " fill="#7A7B7B" transform="translate(655,403)"/>
<path d="M0 0 C2.79872437 2.52788007 4.45773019 4.20411134 5 8 C4.34 7.67 3.68 7.34 3 7 C3 6.34 3 5.68 3 5 C1.68 5.33 0.36 5.66 -1 6 C-0.67 4.02 -0.34 2.04 0 0 Z " fill="#181818" transform="translate(368,341)"/>
<path d="M0 0 C1.32 0 2.64 0 4 0 C4 1.65 4 3.3 4 5 C2.68 5 1.36 5 0 5 C0 3.35 0 1.7 0 0 Z " fill="#131313" transform="translate(565,463)"/>
<path d="M0 0 C2 2 2 2 2.125 5.125 C2.08375 6.07375 2.0425 7.0225 2 8 C1.01 8.33 0.02 8.66 -1 9 C-0.67 6.03 -0.34 3.06 0 0 Z " fill="#0D0E0E" transform="translate(178,409)"/>
<path d="M0 0 C2.6875 0.875 2.6875 0.875 5 2 C1.55549263 4.29633824 -0.93812283 4.54016485 -5 5 C-4.34 4.67 -3.68 4.34 -3 4 C-3 3.34 -3 2.68 -3 2 C-2.01 1.34 -1.02 0.68 0 0 Z " fill="#555554" transform="translate(530,409)"/>
<path d="M0 0 C2.97 1.98 2.97 1.98 6 4 C5.34 5.32 4.68 6.64 4 8 C1 6 1 6 0.3125 2.875 C0.209375 1.92625 0.10625 0.9775 0 0 Z " fill="#3B3B3A" transform="translate(419,352)"/>
<path d="M0 0 C2.95409701 1.37154504 5.44008376 2.98863724 8 5 C7.67 5.99 7.34 6.98 7 8 C5.8274869 7.04882866 4.66212985 6.08882991 3.5 5.125 C2.8503125 4.59132813 2.200625 4.05765625 1.53125 3.5078125 C1.0259375 3.01023437 0.520625 2.51265625 0 2 C0 1.34 0 0.68 0 0 Z " fill="#EBEBEA" transform="translate(397,342)"/>
<path d="M0 0 C1.9375 0.8125 1.9375 0.8125 4 2 C4.33 2.99 4.66 3.98 5 5 C3.35 5.33 1.7 5.66 0 6 C0 4.02 0 2.04 0 0 Z " fill="#212121" transform="translate(468,437)"/>
<path d="M0 0 C0.66 0 1.32 0 2 0 C2 2.64 2 5.28 2 8 C1.01 8 0.02 8 -1 8 C-0.67 5.36 -0.34 2.72 0 0 Z " fill="#CACACB" transform="translate(175,413)"/>
<path d="M0 0 C0 0.66 0 1.32 0 2 C-0.66 2 -1.32 2 -2 2 C-2 3.98 -2 5.96 -2 8 C-2.33 8 -2.66 8 -3 8 C-3 5.69 -3 3.38 -3 1 C-4.32 0.67 -5.64 0.34 -7 0 C-3.86650268 -1.04449911 -3.01031744 -0.93423645 0 0 Z " fill="#373737" transform="translate(667,407)"/>
<path d="M0 0 C0.61875 0.804375 1.2375 1.60875 1.875 2.4375 C3.74164041 5.03874519 3.74164041 5.03874519 6 6 C6 6.66 6 7.32 6 8 C5.01 8.33 4.02 8.66 3 9 C0.70620251 5.55930376 0 4.27709699 0 0 Z " fill="#3B3A3A" transform="translate(370,349)"/>
<path d="M0 0 C-0.33 0.99 -0.66 1.98 -1 3 C-3.97 2.67 -6.94 2.34 -10 2 C-10 1.67 -10 1.34 -10 1 C-6.59437148 0.22157062 -3.49234244 -0.09978121 0 0 Z " fill="#0E0F0E" transform="translate(298,405)"/>
<path d="M0 0 C-0.33 1.32 -0.66 2.64 -1 4 C-3.31 3.67 -5.62 3.34 -8 3 C-5.22569089 1.15046059 -3.35957737 0 0 0 Z " fill="#2C2C2B" transform="translate(526,378)"/>
<path d="M0 0 C0.99 0.33 1.98 0.66 3 1 C2.34 2.32 1.68 3.64 1 5 C-0.65 4.67 -2.3 4.34 -4 4 C-3.01 3.67 -2.02 3.34 -1 3 C-0.67 2.01 -0.34 1.02 0 0 Z " fill="#323232" transform="translate(682,404)"/>
<path d="M0 0 C0.99 0 1.98 0 3 0 C3.66 1.32 4.32 2.64 5 4 C2.69 4 0.38 4 -2 4 C-2 2 -2 2 0 0 Z " fill="#1D1D1D" transform="translate(498,362)"/>
<path d="M0 0 C2.08954032 4.17908064 2.16552619 4.80410573 1 9 C0.01 9.33 -0.98 9.66 -2 10 C-1.34 6.7 -0.68 3.4 0 0 Z " fill="#2E2E2D" transform="translate(272,349)"/>
</svg>
