<?xml version="1.0" encoding="UTF-8"?>
<svg version="1.1" xmlns="http://www.w3.org/2000/svg" width="360" height="360">
<path d="M0 0 C118.8 0 237.6 0 360 0 C360 118.8 360 237.6 360 360 C241.2 360 122.4 360 0 360 C0 241.2 0 122.4 0 0 Z " fill="#FBFBFB" transform="translate(0,0)"/>
<path d="M0 0 C87.12 0 174.24 0 264 0 C264 118.8 264 237.6 264 360 C232.32 360 200.64 360 168 360 C168 352.08 168 344.16 168 336 C160.08 336 152.16 336 144 336 C144 328.08 144 320.16 144 312 C136.08 312 128.16 312 120 312 C120 304.08 120 296.16 120 288 C112.08 288 104.16 288 96 288 C96 280.08 96 272.16 96 264 C103.92 264 111.84 264 120 264 C119.47479127 256.65359533 119.47479127 256.65359533 118.89135742 249.31176758 C118.45500045 241.73875595 118.45500045 241.73875595 121.23046875 237.9765625 C122.14441406 237.32429687 123.05835938 236.67203125 124 236 C124.99386719 235.13568359 124.99386719 235.13568359 126.0078125 234.25390625 C133.22466824 228.48841079 140.67298432 223.04720615 148.12109375 217.5859375 C153.80062371 213.41909099 159.43554619 209.19445604 165.0625 204.95703125 C167.82359985 202.87855211 170.59585466 200.81600308 173.375 198.76171875 C174.0966333 198.22627441 174.8182666 197.69083008 175.56176758 197.13916016 C176.93418225 196.12123734 178.30886485 195.10636188 179.6862793 194.09521484 C186.35160047 189.44802355 186.35160047 189.44802355 190.8125 182.9375 C191.27676597 178.14008494 190.80966281 175.8416621 188 172 C185.49133937 169.78604272 185.49133937 169.78604272 182.5625 167.75 C181.47509394 166.95986448 180.38785888 166.16949357 179.30078125 165.37890625 C178.7485791 164.98203613 178.19637695 164.58516602 177.62744141 164.17626953 C175.14282211 162.38045559 172.69804059 160.53273989 170.25 158.6875 C169.26 157.945 168.27 157.2025 167.25 156.4375 C143.84375 138.8828125 143.84375 138.8828125 141.78686523 137.34008789 C140.43489266 136.32614897 139.08284256 135.31231341 137.73071289 134.29858398 C134.72360804 132.04390527 131.71733588 129.7881625 128.71484375 127.52734375 C124.10806429 124.06185675 119.48921823 120.62060774 114.8125 117.25 C109.34045654 113.28748577 103.98325998 109.18297913 98.6237793 105.07055664 C88.4804626 97.29158139 78.26586748 89.6138801 67.90625 82.125 C63.54223948 78.93411059 59.22839291 75.67708356 54.90893555 72.42626953 C51.06858701 69.53973007 47.2092993 66.6852465 43.3125 63.875 C39.40264057 61.04894661 35.56308976 58.14215747 31.75 55.1875 C26.50685997 51.12597861 21.18930684 47.17871739 15.83081055 43.27099609 C8.49999615 37.91930225 1.25070829 32.45946892 -6 27 C-5.505 25.515 -5.505 25.515 -5 24 C-3.35 24 -1.7 24 0 24 C0 16.08 0 8.16 0 0 Z " fill="#F7F7F7" transform="translate(96,0)"/>
<path d="M0 0 C4.03668564 2.11253215 7.5540601 4.88164646 11.125 7.6875 C16.01560277 11.4904592 20.96785482 15.18316419 25.9921875 18.80859375 C31.73971824 22.99608043 37.4089037 27.28923783 43.09130859 31.56445312 C46.7698732 34.33114024 50.45382695 37.09063955 54.13671875 39.8515625 C56.09889858 41.3238666 58.05977163 42.79791344 60.01953125 44.2734375 C65.56617551 48.44588107 71.14255352 52.57043316 76.76171875 56.64453125 C87.70754527 64.59450878 98.59361988 72.61809034 109.2890625 80.90234375 C112.829748 83.64203844 116.41134153 86.32371233 120 89 C121.91699571 90.43706117 123.83363087 91.87460337 125.75 93.3125 C126.77609375 94.08207031 127.8021875 94.85164063 128.859375 95.64453125 C131.90625 97.9296875 134.953125 100.21484375 138 102.5 C138.99902344 103.24894531 139.99804688 103.99789062 141.02734375 104.76953125 C142.93746031 106.20274617 144.84641454 107.63751222 146.75390625 109.07421875 C152.13075621 113.11994313 157.53105325 117.13034394 162.9543457 121.11352539 C170.33792472 126.53705492 177.68671503 131.99184764 184.91796875 137.6171875 C187.13617215 139.33214831 189.36373616 141.02265049 191.61328125 142.6953125 C192.21092285 143.14358398 192.80856445 143.59185547 193.42431641 144.05371094 C194.56644851 144.90959836 195.71301508 145.75961279 196.86474609 146.60253906 C199.74926927 148.77703972 201.87173936 150.51074951 203 154 C202.9278556 158.54509714 202.8504993 160.90258154 200.0625 164.5 C199.051875 165.325 198.04125 166.15 197 167 C196.34257812 167.54785156 195.68515625 168.09570312 195.0078125 168.66015625 C183.31560196 178.24619418 170.95634897 187.04485666 158.78295898 196.00292969 C150.84819724 201.84322426 142.95813228 207.73773959 135.12890625 213.71875 C125.91981196 220.75360286 116.69082093 227.74642304 107.32421875 234.5703125 C104.27855356 236.79025627 101.26062902 239.0451849 98.25 241.3125 C93.05027771 245.22808035 87.8090341 249.08493028 82.5625 252.9375 C76.99654563 257.02667218 71.45837245 261.14311575 66 265.375 C61.32996778 268.99545427 56.58937672 272.49335407 51.796875 275.94921875 C48.74286382 278.18854259 45.74265092 280.49240562 42.75 282.8125 C36.95130334 287.30214648 31.06191577 291.65577336 25.13671875 295.9765625 C22.04698984 298.23013971 18.96866649 300.49863472 15.89453125 302.7734375 C15.03037598 303.41249023 14.1662207 304.05154297 13.27587891 304.70996094 C11.57290988 305.96992029 9.8707386 307.23095872 8.16943359 308.49316406 C7.3955127 309.06518555 6.6215918 309.63720703 5.82421875 310.2265625 C5.13416748 310.73783691 4.44411621 311.24911133 3.7331543 311.77587891 C0.81963097 313.8336907 -0.84399181 314.16625302 -4.375 313.9375 C-5.14585938 313.90527344 -5.91671875 313.87304688 -6.7109375 313.83984375 C-10.28192656 312.52966858 -11.19868297 310.27899262 -13 307 C-13.38397324 304.22887237 -13.56303196 301.86974099 -13.53125 299.109375 C-13.5350769 298.36471985 -13.53890381 297.6200647 -13.54284668 296.85284424 C-13.54555708 295.28290449 -13.53825699 293.7129189 -13.52148438 292.14306641 C-13.50018048 289.77010351 -13.52124903 287.40020969 -13.546875 285.02734375 C-13.56403081 275.50136104 -13.1232302 267.09340201 -6.875 259.375 C-5.451875 258.199375 -5.451875 258.199375 -4 257 C-3.2884375 256.40832031 -2.576875 255.81664062 -1.84375 255.20703125 C3.23798041 251.0499828 8.48783241 247.16406946 13.81640625 243.33203125 C17.75635168 240.44596079 21.62798006 237.4762573 25.5 234.5 C30.04576264 231.00766222 34.59337165 227.531671 39.25 224.1875 C44.74877865 220.2320902 50.11951709 216.11385481 55.5 212 C61.59448051 207.34047727 67.70535938 202.72435737 73.9375 198.25 C79.45226681 194.19833459 84.86679862 190.01343569 90.30273438 185.85693359 C94.83451469 182.39646355 99.37396785 178.95846435 104 175.625 C104.80179687 175.03976563 105.60359375 174.45453125 106.4296875 173.8515625 C107.84061164 172.83518249 109.25567996 171.82417382 110.68847656 170.83886719 C112.51627703 169.58010819 114.32059992 168.29200929 116.125 167 C116.69476563 166.62053223 117.26453125 166.24106445 117.8515625 165.85009766 C120.93681008 163.59949272 122.43906409 161.68067394 123.1796875 158 C123.37086989 154.60142362 123.09148573 154.11767247 120.87109375 151.26171875 C119.92363281 150.51535156 118.97617188 149.76898438 118 149 C117.20722656 148.30519531 116.41445312 147.61039063 115.59765625 146.89453125 C109.98984133 142.28903764 104.25147306 137.96948285 98.32324219 133.79321289 C93.8707591 130.64911377 89.54042762 127.37228539 85.23779297 124.02490234 C80.4688379 120.32928161 75.6160787 116.75390637 70.75 113.1875 C63.71560823 108.03002432 56.75798933 102.78399723 49.84375 97.46679688 C46.18129097 94.65455155 42.50036551 91.88233811 38.75 89.1875 C32.29924831 84.54731205 26.01354559 79.69016863 19.70483398 74.85986328 C15.12061453 71.35566112 10.51949267 67.89969737 5.8125 64.5625 C2.32582466 62.0196699 -1.10608488 59.43158471 -4.4375 56.6875 C-5.21996094 56.05199219 -6.00242187 55.41648438 -6.80859375 54.76171875 C-13.59044237 46.21489705 -13.61070964 36.32233884 -13.46655273 25.91845703 C-13.43728062 23.60768222 -13.44604576 21.29916694 -13.45898438 18.98828125 C-13.45275394 17.50519727 -13.44436845 16.02212043 -13.43359375 14.5390625 C-13.43652939 13.85566803 -13.43946503 13.17227356 -13.44248962 12.46817017 C-13.3576424 8.15480522 -12.64118006 5.42603889 -10 2 C-6.27420911 -0.48386059 -4.41288598 -0.3804212 0 0 Z " fill="#020202" transform="translate(85,23)"/>
<path d="M0 0 C7.59 0 15.18 0 23 0 C22.67 5.61 22.34 11.22 22 17 C22.99 16.67 23.98 16.34 25 16 C25.16113281 16.67804688 25.32226562 17.35609375 25.48828125 18.0546875 C28.91469649 29.77919841 37.75366086 35.47399693 47.328125 42.11279297 C51.79124763 45.26519958 56.10764025 48.60567312 60.4375 51.9375 C66.67074067 56.71115743 72.91526835 61.4469438 79.2890625 66.03125 C84.87302038 70.08645861 90.36955605 74.26058478 95.88427734 78.40917969 C99.42026439 81.06790247 102.96032789 83.72118654 106.5 86.375 C107.76043589 87.32028686 109.02085318 88.26559854 110.28125 89.2109375 C110.88066406 89.66049805 111.48007813 90.11005859 112.09765625 90.57324219 C115.3984375 93.04882812 118.69921875 95.52441406 122 98 C121.84660156 98.64324219 121.69320312 99.28648437 121.53515625 99.94921875 C120.84248171 103.89796921 120.64222569 107.81326984 120.4375 111.8125 C120.293125 114.514375 120.14875 117.21625 120 120 C112.08 120 104.16 120 96 120 C96 112.08 96 104.16 96 96 C88.08 96 80.16 96 72 96 C72 88.08 72 80.16 72 72 C64.08 72 56.16 72 48 72 C46.46865627 85.35344794 46.46865627 85.35344794 49.83984375 98.02734375 C52.45297651 100.04601977 55.05204108 101.51805308 58 103 C59.70881632 104.19935555 61.39602477 105.42997575 63.0625 106.6875 C63.96097656 107.33847656 64.85945313 107.98945313 65.78515625 108.66015625 C66.84605469 109.43230469 67.90695313 110.20445312 69 111 C69.69206543 111.50257324 70.38413086 112.00514648 71.09716797 112.52294922 C73.40804373 114.21057826 75.70480059 115.9161283 78 117.625 C79.11387085 118.43263794 79.11387085 118.43263794 80.25024414 119.2565918 C84.43474185 122.39772974 87.19789442 124.91045962 89 130 C89 134.3061194 88.68240369 136.25727987 85.74609375 139.453125 C78.84137776 145.85692988 71.41645642 151.50155453 63.70996094 156.89697266 C57.62074745 161.19319587 51.78074872 165.79974295 45.95288086 170.44213867 C45.22206299 171.01939697 44.49124512 171.59665527 43.73828125 172.19140625 C43.08899658 172.70904541 42.43971191 173.22668457 41.77075195 173.76000977 C38.02198079 176.38513161 34.43733169 176.45903431 30 176 C27.36983839 173.8272578 25.52663106 172.05326212 24 169 C23.87896319 166.75400784 23.8224932 164.50445024 23.79467773 162.25537109 C23.78477814 161.56257553 23.77487854 160.86977997 23.76467896 160.1559906 C23.73304503 157.86184122 23.70829914 155.56767111 23.68359375 153.2734375 C23.66302585 151.68445288 23.64202942 150.09547376 23.62062073 148.50650024 C23.56538309 144.32096805 23.51598131 140.13538634 23.46777344 135.94976807 C23.41757074 131.6800088 23.36187826 127.41032158 23.30664062 123.140625 C23.19903835 114.76047588 23.0981052 106.38026569 23 98 C22.67 105.26 22.34 112.52 22 120 C14.74 120 7.48 120 0 120 C0 112.08 0 104.16 0 96 C-7.92 96 -15.84 96 -24 96 C-24 88.08 -24 80.16 -24 72 C-16.08 72 -8.16 72 0 72 C0 64.08 0 56.16 0 48 C7.92 48 15.84 48 24 48 C24 40.08 24 32.16 24 24 C16.08 24 8.16 24 0 24 C0 16.08 0 8.16 0 0 Z " fill="#F0F0F0" transform="translate(48,48)"/>
<path d="M0 0 C4.9882844 1.28547361 8.73637474 4.99743729 12.65185547 8.20458984 C15.85736411 10.78697823 19.17229507 13.22447059 22.47265625 15.68359375 C23.49770264 16.45316406 23.49770264 16.45316406 24.54345703 17.23828125 C28.42968491 20.15551687 32.34138834 23.03180398 36.28515625 25.87109375 C39.87416382 28.48276189 43.44895365 31.10926665 46.97265625 33.80859375 C47.77832031 34.42089844 48.58398438 35.03320312 49.4140625 35.6640625 C51.68459371 37.89016062 52.52974525 39.58271881 53.41015625 42.62109375 C53.33416528 46.87658831 53.06455846 48.90647744 50.16015625 52.078125 C43.24575104 58.4719855 35.82728193 64.12217973 28.12011719 69.51806641 C22.0309037 73.81428962 16.19090497 78.4208367 10.36303711 83.06323242 C9.63221924 83.64049072 8.90140137 84.21774902 8.1484375 84.8125 C7.49915283 85.33013916 6.84986816 85.84777832 6.1809082 86.38110352 C2.43213704 89.00622536 -1.15251206 89.08012806 -5.58984375 88.62109375 C-8.22000536 86.44835155 -10.06321269 84.67435587 -11.58984375 81.62109375 C-11.69748163 79.30941702 -11.73877576 76.99456909 -11.75097656 74.68041992 C-11.75594147 73.96639511 -11.76090637 73.2523703 -11.76602173 72.51670837 C-11.78065353 70.14915001 -11.78744753 67.78165869 -11.79296875 65.4140625 C-11.79872002 63.7698008 -11.80447775 62.12553912 -11.8102417 60.48127747 C-11.82075503 57.0304025 -11.8265953 53.57955085 -11.83007812 50.12866211 C-11.8355591 45.71008358 -11.85957706 41.2918138 -11.88805008 36.87333202 C-11.90669008 33.47523606 -11.91188281 30.0772142 -11.913414 26.67907143 C-11.91643873 25.05040107 -11.92446125 23.42173197 -11.93759918 21.7931118 C-11.95468617 19.51182083 -11.95277315 17.23128047 -11.94628906 14.94995117 C-11.94993469 13.65248459 -11.95358032 12.35501801 -11.95733643 11.01823425 C-11.56162569 7.36024306 -10.8157713 5.51768366 -8.58984375 2.62109375 C-5.55135814 0.59543668 -3.64721628 -0.11252754 0 0 Z " fill="#020202" transform="translate(83.58984375,135.37890625)"/>
<path d="M0 0 C7.92 0 15.84 0 24 0 C24 7.26 24 14.52 24 22 C23.34 22.33 22.68 22.66 22 23 C21.505 24.485 21.505 24.485 21 26 C19.41210938 27.41943359 19.41210938 27.41943359 17.34375 28.8984375 C16.57675781 29.4538623 15.80976563 30.00928711 15.01953125 30.58154297 C14.18808594 31.17338379 13.35664063 31.76522461 12.5 32.375 C10.75941239 33.63402943 9.01984994 34.89447719 7.28125 36.15625 C6.39824219 36.795625 5.51523438 37.435 4.60546875 38.09375 C0.68913673 40.95907238 -3.15749796 43.91179605 -7 46.875 C-11.3787016 50.24342295 -15.76312883 53.5884432 -20.25 56.8125 C-26.69664829 61.44973627 -32.97668525 66.30560962 -39.28417969 71.12915039 C-44.75150309 75.30434927 -50.24309382 79.42674026 -55.84375 83.421875 C-57.49003248 84.6267629 -59.08597884 85.90072362 -60.65625 87.203125 C-63 89 -63 89 -65 89 C-67.00210098 92.8343809 -68.48368054 96.80997581 -70 100.85546875 C-71 103 -71 103 -73 104 C-73.31330467 106.72220383 -73.51264983 109.3322843 -73.625 112.0625 C-73.74875 114.681875 -73.8725 117.30125 -74 120 C-81.26 120 -88.52 120 -96 120 C-96 112.08 -96 104.16 -96 96 C-88.08 96 -80.16 96 -72 96 C-72 88.08 -72 80.16 -72 72 C-64.08 72 -56.16 72 -48 72 C-48 64.08 -48 56.16 -48 48 C-40.08 48 -32.16 48 -24 48 C-24 40.08 -24 32.16 -24 24 C-16.08 24 -8.16 24 0 24 C0 16.08 0 8.16 0 0 Z " fill="#EDEDED" transform="translate(144,192)"/>
<path d="M0 0 C7.92 0 15.84 0 24 0 C24 7.92 24 15.84 24 24 C31.92 24 39.84 24 48 24 C48 31.92 48 39.84 48 48 C55.92 48 63.84 48 72 48 C72 55.92 72 63.84 72 72 C79.92 72 87.84 72 96 72 C96 79.92 96 87.84 96 96 C88.08 96 80.16 96 72 96 C69.58187196 91.16374392 70.19420537 88.90589684 71.00390625 83.75390625 C70.9988885 80.21638969 70.15308025 78.78819388 68 76 C65.49133937 73.78604272 65.49133937 73.78604272 62.5625 71.75 C61.47509394 70.95986448 60.38785888 70.16949357 59.30078125 69.37890625 C58.7485791 68.98203613 58.19637695 68.58516602 57.62744141 68.17626953 C55.14282211 66.38045559 52.69804059 64.53273989 50.25 62.6875 C49.26 61.945 48.27 61.2025 47.25 60.4375 C39.44791667 54.5859375 31.64583333 48.734375 23.84375 42.8828125 C23.16425293 42.37331055 22.48475586 41.86380859 21.78466797 41.33886719 C20.43947147 40.32972769 19.09473668 39.31997241 17.75048828 38.30957031 C14.64374472 35.9754523 11.53126528 33.6505841 8.3984375 31.3515625 C7.56554199 30.73704224 7.56554199 30.73704224 6.71582031 30.11010742 C5.23232482 29.01661006 3.74520641 27.92803248 2.2578125 26.83984375 C0 25 0 25 -2 22 C-1.34 22 -0.68 22 0 22 C-0.17402344 21.35675781 -0.34804687 20.71351562 -0.52734375 20.05078125 C-1.15138221 16.02289663 -0.85739134 12.2373153 -0.5625 8.1875 C-0.376875 5.485625 -0.19125 2.78375 0 0 Z " fill="#FDFDFD" transform="translate(216,96)"/>
<path d="M0 0 C7.92 0 15.84 0 24 0 C24 7.92 24 15.84 24 24 C31.92 24 39.84 24 48 24 C48 31.92 48 39.84 48 48 C55.92 48 63.84 48 72 48 C72 55.26 72 62.52 72 70 C70.515 70.495 70.515 70.495 69 71 C67.23828125 70.00048828 67.23828125 70.00048828 65.3125 68.4453125 C64.25289062 67.60661621 64.25289062 67.60661621 63.171875 66.75097656 C62.09679687 65.88424316 62.09679687 65.88424316 61 65 C59.69023421 63.99382658 58.37777963 62.99114238 57.0625 61.9921875 C55.70824448 60.9532408 54.35408072 59.9141745 53 58.875 C42.05217819 50.49054111 31.05682118 42.17135156 19.8828125 34.08984375 C16.1823686 31.40727263 12.49723221 28.70409363 8.8125 26 C8.13952881 25.5062085 7.46655762 25.01241699 6.77319336 24.50366211 C5.18199548 23.33595653 3.59097786 22.16800534 2 21 C2.66 20.67 3.32 20.34 4 20 C4 19.34 4 18.68 4 18 C2.68 17.67 1.36 17.34 0 17 C0 11.39 0 5.78 0 0 Z " fill="#ECECEC" transform="translate(144,48)"/>
<path d="M0 0 C7.92 0 15.84 0 24 0 C24 7.92 24 15.84 24 24 C20 26 20 26 17.9375 25.6875 C17.298125 25.460625 16.65875 25.23375 16 25 C12.43528609 23.81176203 9.7441664 23.73725148 6 24 C2.8149643 25.76015131 2.16703028 26.49890916 1 30 C0.84653047 32.65606301 0.74282102 35.29095095 0.68359375 37.94921875 C0.66281265 38.72183548 0.64203156 39.49445221 0.62062073 40.29048157 C0.55528962 42.7560648 0.49631685 45.22175361 0.4375 47.6875 C0.39429913 49.36003691 0.35068434 51.03256319 0.30664062 52.70507812 C0.1996251 56.8032775 0.09831143 60.90158296 0 65 C-0.66 65 -1.32 65 -2 65 C-2 59.72 -2 54.44 -2 49 C-9.26 48.67 -16.52 48.34 -24 48 C-24 40.08 -24 32.16 -24 24 C-16.08 24 -8.16 24 0 24 C0 16.08 0 8.16 0 0 Z " fill="#FEFEFE" transform="translate(72,0)"/>
<path d="M0 0 C0.66 0.33 1.32 0.66 2 1 C2 8.59 2 16.18 2 24 C-5.92 24 -13.84 24 -22 24 C-22 31.92 -22 39.84 -22 48 C-30.25 48 -38.5 48 -47 48 C-46.67 44.37 -46.34 40.74 -46 37 C-46.66 36.67 -47.32 36.34 -48 36 C-41.69835568 31.24736322 -35.37396871 26.53014569 -29 21.875 C-22.67548677 17.25204397 -16.39377142 12.57322987 -10.125 7.875 C-9.238125 7.21097168 -8.35125 6.54694336 -7.4375 5.86279297 C-6.61507812 5.24549316 -5.79265625 4.62819336 -4.9453125 3.9921875 C-4.20812988 3.43901855 -3.47094727 2.88584961 -2.71142578 2.31591797 C-1.06756951 1.11075095 -1.06756951 1.11075095 0 0 Z " fill="#ECECEC" transform="translate(214,240)"/>
<path d="M0 0 C0.33 0 0.66 0 1 0 C1.02505615 1.03406982 1.0501123 2.06813965 1.07592773 3.13354492 C1.1703343 6.98213387 1.27047291 10.83055629 1.37231445 14.67895508 C1.41553784 16.34232681 1.45722146 18.00573932 1.49731445 19.66918945 C1.55532332 22.06474068 1.61892829 24.46008908 1.68359375 26.85546875 C1.70030624 27.5952446 1.71701874 28.33502045 1.73423767 29.09721375 C1.8407276 32.83645932 2.12187752 36.35938544 3 40 C0.39048764 41.30475618 -1.52701285 41.11301572 -4.4453125 41.09765625 C-5.41484863 41.09515869 -6.38438477 41.09266113 -7.38330078 41.09008789 C-8.61806152 41.08098389 -9.85282227 41.07187988 -11.125 41.0625 C-17.003125 41.0315625 -17.003125 41.0315625 -23 41 C-23 33.08 -23 25.16 -23 17 C-15.74 17 -8.48 17 -1 17 C-1.03957157 11.77936725 -1.03957157 11.77936725 -1.09008789 6.55883789 C-1.09723945 4.70566241 -1.0502852 2.85250692 -1 1 C-0.67 0.67 -0.34 0.34 0 0 Z " fill="#FEFEFE" transform="translate(71,295)"/>
<path d="M0 0 C7.92 0 15.84 0 24 0 C24 7.92 24 15.84 24 24 C16.08 24 8.16 24 0 24 C-2.08645743 19.82708514 -2.14990276 18.92865869 -1.5625 14.5625 C-1.16704388 11.56952156 -0.91879905 9.35760683 -1.58984375 6.40234375 C-2 4 -2 4 0 0 Z " fill="#FEFEFE" transform="translate(288,168)"/>
<path d="M0 0 C7.92 0 15.84 0 24 0 C24 7.92 24 15.84 24 24 C21.03 24 18.06 24 15 24 C14.67 24.66 14.34 25.32 14 26 C14 25.34 14 24.68 14 24 C12.56208484 24.14168137 11.1246763 24.28851043 9.6875 24.4375 C8.88699219 24.51871094 8.08648437 24.59992188 7.26171875 24.68359375 C4.83912821 24.95265693 4.83912821 24.95265693 2 26 C0.50463867 24.83276367 0.50463867 24.83276367 -1 23 C-1.2487793 20.5480957 -1.2487793 20.5480957 -1.07421875 17.67578125 C-1.02612061 16.74934814 -0.97802246 15.82291504 -0.9284668 14.8684082 C-0.84894775 13.6949585 -0.76942871 12.52150879 -0.6875 11.3125 C-0.460625 7.579375 -0.23375 3.84625 0 0 Z " fill="#FEFEFE" transform="translate(96,120)"/>
<path d="M0 0 C0.66 0.33 1.32 0.66 2 1 C1.125 4.875 1.125 4.875 0 6 C-0.15714654 7.63256758 -0.25085414 9.27135338 -0.31640625 10.91015625 C-0.35451416 11.800979 -0.39262207 12.69180176 -0.43188477 13.60961914 C-0.49653931 15.31879517 -0.49653931 15.31879517 -0.5625 17.0625 C-0.706875 20.671875 -0.85125 24.28125 -1 28 C-8.92 28 -16.84 28 -25 28 C-25 20.08 -25 12.16 -25 4 C-17.08 3.67 -9.16 3.34 -1 3 C-0.67 2.01 -0.34 1.02 0 0 Z " fill="#EDEDED" transform="translate(73,332)"/>
<path d="M0 0 C7.92 0 15.84 0 24 0 C24 7.92 24 15.84 24 24 C14.1875 24.4375 14.1875 24.4375 11.10620117 24.56811523 C10.30158447 24.60622314 9.49696777 24.64433105 8.66796875 24.68359375 C7.84578857 24.72025146 7.0236084 24.75690918 6.17651367 24.79467773 C3.82094822 24.93427772 3.82094822 24.93427772 1 26 C0.01 24.68 -0.98 23.36 -2 22 C-1.34 22 -0.68 22 0 22 C-0.17402344 21.35675781 -0.34804687 20.71351562 -0.52734375 20.05078125 C-1.15138221 16.02289663 -0.85739134 12.2373153 -0.5625 8.1875 C-0.376875 5.485625 -0.19125 2.78375 0 0 Z " fill="#FEFEFE" transform="translate(216,96)"/>
<path d="M0 0 C0.33 0.66 0.66 1.32 1 2 C2.2684375 1.98259766 2.2684375 1.98259766 3.5625 1.96484375 C5.2640625 1.95130859 5.2640625 1.95130859 7 1.9375 C8.670625 1.92009766 8.670625 1.92009766 10.375 1.90234375 C14.26582388 2.0071612 18.13782083 2.5172276 22 3 C22 10.92 22 18.84 22 27 C14.08 27 6.16 27 -2 27 C-2.33 19.41 -2.66 11.82 -3 4 C-2.34 4 -1.68 4 -1 4 C-0.67 2.68 -0.34 1.36 0 0 Z " fill="#EDEDED" transform="translate(122,309)"/>
<path d="M0 0 C7.92 0 15.84 0 24 0 C24 7.92 24 15.84 24 24 C16.08 24 8.16 24 0 24 C0 16.08 0 8.16 0 0 Z " fill="#EDEDED" transform="translate(336,336)"/>
<path d="M0 0 C7.92 0 15.84 0 24 0 C24 7.92 24 15.84 24 24 C16.08 24 8.16 24 0 24 C0 16.08 0 8.16 0 0 Z " fill="#FFFFFF" transform="translate(312,336)"/>
<path d="M0 0 C7.92 0 15.84 0 24 0 C24 7.92 24 15.84 24 24 C16.08 24 8.16 24 0 24 C0 16.08 0 8.16 0 0 Z " fill="#EDEDED" transform="translate(288,336)"/>
<path d="M0 0 C7.92 0 15.84 0 24 0 C24 7.92 24 15.84 24 24 C16.08 24 8.16 24 0 24 C0 16.08 0 8.16 0 0 Z " fill="#FFFFFF" transform="translate(264,336)"/>
<path d="M0 0 C7.92 0 15.84 0 24 0 C24 7.92 24 15.84 24 24 C16.08 24 8.16 24 0 24 C0 16.08 0 8.16 0 0 Z " fill="#EDEDED" transform="translate(240,336)"/>
<path d="M0 0 C7.92 0 15.84 0 24 0 C24 7.92 24 15.84 24 24 C16.08 24 8.16 24 0 24 C0 16.08 0 8.16 0 0 Z " fill="#FFFFFF" transform="translate(216,336)"/>
<path d="M0 0 C7.92 0 15.84 0 24 0 C24 7.92 24 15.84 24 24 C16.08 24 8.16 24 0 24 C0 16.08 0 8.16 0 0 Z " fill="#EDEDED" transform="translate(192,336)"/>
<path d="M0 0 C7.92 0 15.84 0 24 0 C24 7.92 24 15.84 24 24 C16.08 24 8.16 24 0 24 C0 16.08 0 8.16 0 0 Z " fill="#FFFFFF" transform="translate(168,336)"/>
<path d="M0 0 C7.92 0 15.84 0 24 0 C24 7.92 24 15.84 24 24 C16.08 24 8.16 24 0 24 C0 16.08 0 8.16 0 0 Z " fill="#EDEDED" transform="translate(144,336)"/>
<path d="M0 0 C7.92 0 15.84 0 24 0 C24 7.92 24 15.84 24 24 C16.08 24 8.16 24 0 24 C0 16.08 0 8.16 0 0 Z " fill="#FFFFFF" transform="translate(120,336)"/>
<path d="M0 0 C7.92 0 15.84 0 24 0 C24 7.92 24 15.84 24 24 C16.08 24 8.16 24 0 24 C0 16.08 0 8.16 0 0 Z " fill="#EDEDED" transform="translate(96,336)"/>
<path d="M0 0 C7.92 0 15.84 0 24 0 C24 7.92 24 15.84 24 24 C16.08 24 8.16 24 0 24 C0 16.08 0 8.16 0 0 Z " fill="#FFFFFF" transform="translate(24,336)"/>
<path d="M0 0 C7.92 0 15.84 0 24 0 C24 7.92 24 15.84 24 24 C16.08 24 8.16 24 0 24 C0 16.08 0 8.16 0 0 Z " fill="#EDEDED" transform="translate(0,336)"/>
<path d="M0 0 C7.92 0 15.84 0 24 0 C24 7.92 24 15.84 24 24 C16.08 24 8.16 24 0 24 C0 16.08 0 8.16 0 0 Z " fill="#FFFFFF" transform="translate(336,312)"/>
<path d="M0 0 C7.92 0 15.84 0 24 0 C24 7.92 24 15.84 24 24 C16.08 24 8.16 24 0 24 C0 16.08 0 8.16 0 0 Z " fill="#EDEDED" transform="translate(312,312)"/>
<path d="M0 0 C7.92 0 15.84 0 24 0 C24 7.92 24 15.84 24 24 C16.08 24 8.16 24 0 24 C0 16.08 0 8.16 0 0 Z " fill="#FFFFFF" transform="translate(288,312)"/>
<path d="M0 0 C7.92 0 15.84 0 24 0 C24 7.92 24 15.84 24 24 C16.08 24 8.16 24 0 24 C0 16.08 0 8.16 0 0 Z " fill="#EDEDED" transform="translate(264,312)"/>
<path d="M0 0 C7.92 0 15.84 0 24 0 C24 7.92 24 15.84 24 24 C16.08 24 8.16 24 0 24 C0 16.08 0 8.16 0 0 Z " fill="#FFFFFF" transform="translate(240,312)"/>
<path d="M0 0 C7.92 0 15.84 0 24 0 C24 7.92 24 15.84 24 24 C16.08 24 8.16 24 0 24 C0 16.08 0 8.16 0 0 Z " fill="#EDEDED" transform="translate(216,312)"/>
<path d="M0 0 C7.92 0 15.84 0 24 0 C24 7.92 24 15.84 24 24 C16.08 24 8.16 24 0 24 C0 16.08 0 8.16 0 0 Z " fill="#FFFFFF" transform="translate(192,312)"/>
<path d="M0 0 C7.92 0 15.84 0 24 0 C24 7.92 24 15.84 24 24 C16.08 24 8.16 24 0 24 C0 16.08 0 8.16 0 0 Z " fill="#EDEDED" transform="translate(168,312)"/>
<path d="M0 0 C7.92 0 15.84 0 24 0 C24 7.92 24 15.84 24 24 C16.08 24 8.16 24 0 24 C0 16.08 0 8.16 0 0 Z " fill="#FFFFFF" transform="translate(144,312)"/>
<path d="M0 0 C7.92 0 15.84 0 24 0 C24 7.92 24 15.84 24 24 C16.08 24 8.16 24 0 24 C0 16.08 0 8.16 0 0 Z " fill="#EDEDED" transform="translate(24,312)"/>
<path d="M0 0 C7.92 0 15.84 0 24 0 C24 7.92 24 15.84 24 24 C16.08 24 8.16 24 0 24 C0 16.08 0 8.16 0 0 Z " fill="#FFFFFF" transform="translate(0,312)"/>
<path d="M0 0 C7.92 0 15.84 0 24 0 C24 7.92 24 15.84 24 24 C16.08 24 8.16 24 0 24 C0 16.08 0 8.16 0 0 Z " fill="#EDEDED" transform="translate(336,288)"/>
<path d="M0 0 C7.92 0 15.84 0 24 0 C24 7.92 24 15.84 24 24 C16.08 24 8.16 24 0 24 C0 16.08 0 8.16 0 0 Z " fill="#FFFFFF" transform="translate(312,288)"/>
<path d="M0 0 C7.92 0 15.84 0 24 0 C24 7.92 24 15.84 24 24 C16.08 24 8.16 24 0 24 C0 16.08 0 8.16 0 0 Z " fill="#EDEDED" transform="translate(288,288)"/>
<path d="M0 0 C7.92 0 15.84 0 24 0 C24 7.92 24 15.84 24 24 C16.08 24 8.16 24 0 24 C0 16.08 0 8.16 0 0 Z " fill="#FFFFFF" transform="translate(264,288)"/>
<path d="M0 0 C7.92 0 15.84 0 24 0 C24 7.92 24 15.84 24 24 C16.08 24 8.16 24 0 24 C0 16.08 0 8.16 0 0 Z " fill="#EDEDED" transform="translate(240,288)"/>
<path d="M0 0 C7.92 0 15.84 0 24 0 C24 7.92 24 15.84 24 24 C16.08 24 8.16 24 0 24 C0 16.08 0 8.16 0 0 Z " fill="#FFFFFF" transform="translate(216,288)"/>
<path d="M0 0 C7.92 0 15.84 0 24 0 C24 7.92 24 15.84 24 24 C16.08 24 8.16 24 0 24 C0 16.08 0 8.16 0 0 Z " fill="#EDEDED" transform="translate(192,288)"/>
<path d="M0 0 C7.92 0 15.84 0 24 0 C24 7.92 24 15.84 24 24 C16.08 24 8.16 24 0 24 C0 16.08 0 8.16 0 0 Z " fill="#FFFFFF" transform="translate(168,288)"/>
<path d="M0 0 C7.92 0 15.84 0 24 0 C24 7.92 24 15.84 24 24 C16.08 24 8.16 24 0 24 C0 16.08 0 8.16 0 0 Z " fill="#FFFFFF" transform="translate(24,288)"/>
<path d="M0 0 C7.92 0 15.84 0 24 0 C24 7.92 24 15.84 24 24 C16.08 24 8.16 24 0 24 C0 16.08 0 8.16 0 0 Z " fill="#EDEDED" transform="translate(0,288)"/>
<path d="M0 0 C7.92 0 15.84 0 24 0 C24 7.92 24 15.84 24 24 C16.08 24 8.16 24 0 24 C0 16.08 0 8.16 0 0 Z " fill="#FFFFFF" transform="translate(336,264)"/>
<path d="M0 0 C7.92 0 15.84 0 24 0 C24 7.92 24 15.84 24 24 C16.08 24 8.16 24 0 24 C0 16.08 0 8.16 0 0 Z " fill="#EDEDED" transform="translate(312,264)"/>
<path d="M0 0 C7.92 0 15.84 0 24 0 C24 7.92 24 15.84 24 24 C16.08 24 8.16 24 0 24 C0 16.08 0 8.16 0 0 Z " fill="#FFFFFF" transform="translate(288,264)"/>
<path d="M0 0 C7.92 0 15.84 0 24 0 C24 7.92 24 15.84 24 24 C16.08 24 8.16 24 0 24 C0 16.08 0 8.16 0 0 Z " fill="#EDEDED" transform="translate(264,264)"/>
<path d="M0 0 C7.92 0 15.84 0 24 0 C24 7.92 24 15.84 24 24 C16.08 24 8.16 24 0 24 C0 16.08 0 8.16 0 0 Z " fill="#FFFFFF" transform="translate(240,264)"/>
<path d="M0 0 C7.92 0 15.84 0 24 0 C24 7.92 24 15.84 24 24 C16.08 24 8.16 24 0 24 C0 16.08 0 8.16 0 0 Z " fill="#FFFFFF" transform="translate(192,264)"/>
<path d="M0 0 C7.92 0 15.84 0 24 0 C24 7.92 24 15.84 24 24 C16.08 24 8.16 24 0 24 C0 16.08 0 8.16 0 0 Z " fill="#FFFFFF" transform="translate(48,264)"/>
<path d="M0 0 C7.92 0 15.84 0 24 0 C24 7.92 24 15.84 24 24 C16.08 24 8.16 24 0 24 C0 16.08 0 8.16 0 0 Z " fill="#EDEDED" transform="translate(24,264)"/>
<path d="M0 0 C7.92 0 15.84 0 24 0 C24 7.92 24 15.84 24 24 C16.08 24 8.16 24 0 24 C0 16.08 0 8.16 0 0 Z " fill="#FFFFFF" transform="translate(0,264)"/>
<path d="M0 0 C7.92 0 15.84 0 24 0 C24 7.92 24 15.84 24 24 C16.08 24 8.16 24 0 24 C0 16.08 0 8.16 0 0 Z " fill="#EDEDED" transform="translate(336,240)"/>
<path d="M0 0 C7.92 0 15.84 0 24 0 C24 7.92 24 15.84 24 24 C16.08 24 8.16 24 0 24 C0 16.08 0 8.16 0 0 Z " fill="#FFFFFF" transform="translate(312,240)"/>
<path d="M0 0 C7.92 0 15.84 0 24 0 C24 7.92 24 15.84 24 24 C16.08 24 8.16 24 0 24 C0 16.08 0 8.16 0 0 Z " fill="#EDEDED" transform="translate(288,240)"/>
<path d="M0 0 C7.92 0 15.84 0 24 0 C24 7.92 24 15.84 24 24 C16.08 24 8.16 24 0 24 C0 16.08 0 8.16 0 0 Z " fill="#FFFFFF" transform="translate(264,240)"/>
<path d="M0 0 C7.92 0 15.84 0 24 0 C24 7.92 24 15.84 24 24 C16.08 24 8.16 24 0 24 C0 16.08 0 8.16 0 0 Z " fill="#EDEDED" transform="translate(240,240)"/>
<path d="M0 0 C7.92 0 15.84 0 24 0 C24 7.92 24 15.84 24 24 C16.08 24 8.16 24 0 24 C0 16.08 0 8.16 0 0 Z " fill="#FFFFFF" transform="translate(72,240)"/>
<path d="M0 0 C7.92 0 15.84 0 24 0 C24 7.92 24 15.84 24 24 C16.08 24 8.16 24 0 24 C0 16.08 0 8.16 0 0 Z " fill="#EDEDED" transform="translate(48,240)"/>
<path d="M0 0 C7.92 0 15.84 0 24 0 C24 7.92 24 15.84 24 24 C16.08 24 8.16 24 0 24 C0 16.08 0 8.16 0 0 Z " fill="#FFFFFF" transform="translate(24,240)"/>
<path d="M0 0 C7.92 0 15.84 0 24 0 C24 7.92 24 15.84 24 24 C16.08 24 8.16 24 0 24 C0 16.08 0 8.16 0 0 Z " fill="#EDEDED" transform="translate(0,240)"/>
<path d="M0 0 C7.92 0 15.84 0 24 0 C24 7.92 24 15.84 24 24 C16.08 24 8.16 24 0 24 C0 16.08 0 8.16 0 0 Z " fill="#FFFFFF" transform="translate(336,216)"/>
<path d="M0 0 C7.92 0 15.84 0 24 0 C24 7.92 24 15.84 24 24 C16.08 24 8.16 24 0 24 C0 16.08 0 8.16 0 0 Z " fill="#EDEDED" transform="translate(312,216)"/>
<path d="M0 0 C7.92 0 15.84 0 24 0 C24 7.92 24 15.84 24 24 C16.08 24 8.16 24 0 24 C0 16.08 0 8.16 0 0 Z " fill="#FFFFFF" transform="translate(288,216)"/>
<path d="M0 0 C7.92 0 15.84 0 24 0 C24 7.92 24 15.84 24 24 C16.08 24 8.16 24 0 24 C0 16.08 0 8.16 0 0 Z " fill="#EDEDED" transform="translate(264,216)"/>
<path d="M0 0 C7.92 0 15.84 0 24 0 C24 7.92 24 15.84 24 24 C16.08 24 8.16 24 0 24 C0 16.08 0 8.16 0 0 Z " fill="#EDEDED" transform="translate(24,216)"/>
<path d="M0 0 C7.92 0 15.84 0 24 0 C24 7.92 24 15.84 24 24 C16.08 24 8.16 24 0 24 C0 16.08 0 8.16 0 0 Z " fill="#FFFFFF" transform="translate(0,216)"/>
<path d="M0 0 C7.92 0 15.84 0 24 0 C24 7.92 24 15.84 24 24 C16.08 24 8.16 24 0 24 C0 16.08 0 8.16 0 0 Z " fill="#EDEDED" transform="translate(336,192)"/>
<path d="M0 0 C7.92 0 15.84 0 24 0 C24 7.92 24 15.84 24 24 C16.08 24 8.16 24 0 24 C0 16.08 0 8.16 0 0 Z " fill="#FFFFFF" transform="translate(312,192)"/>
<path d="M0 0 C7.92 0 15.84 0 24 0 C24 7.92 24 15.84 24 24 C16.08 24 8.16 24 0 24 C0 16.08 0 8.16 0 0 Z " fill="#EDEDED" transform="translate(288,192)"/>
<path d="M0 0 C7.92 0 15.84 0 24 0 C24 7.92 24 15.84 24 24 C16.08 24 8.16 24 0 24 C0 16.08 0 8.16 0 0 Z " fill="#FFFFFF" transform="translate(24,192)"/>
<path d="M0 0 C7.92 0 15.84 0 24 0 C24 7.92 24 15.84 24 24 C16.08 24 8.16 24 0 24 C0 16.08 0 8.16 0 0 Z " fill="#EDEDED" transform="translate(0,192)"/>
<path d="M0 0 C7.92 0 15.84 0 24 0 C24 7.92 24 15.84 24 24 C16.08 24 8.16 24 0 24 C0 16.08 0 8.16 0 0 Z " fill="#FFFFFF" transform="translate(336,168)"/>
<path d="M0 0 C7.92 0 15.84 0 24 0 C24 7.92 24 15.84 24 24 C16.08 24 8.16 24 0 24 C0 16.08 0 8.16 0 0 Z " fill="#EDEDED" transform="translate(312,168)"/>
<path d="M0 0 C7.92 0 15.84 0 24 0 C24 7.92 24 15.84 24 24 C16.08 24 8.16 24 0 24 C0 16.08 0 8.16 0 0 Z " fill="#EDEDED" transform="translate(168,168)"/>
<path d="M0 0 C7.92 0 15.84 0 24 0 C24 7.92 24 15.84 24 24 C16.08 24 8.16 24 0 24 C0 16.08 0 8.16 0 0 Z " fill="#FFFFFF" transform="translate(144,168)"/>
<path d="M0 0 C7.92 0 15.84 0 24 0 C24 7.92 24 15.84 24 24 C16.08 24 8.16 24 0 24 C0 16.08 0 8.16 0 0 Z " fill="#EDEDED" transform="translate(24,168)"/>
<path d="M0 0 C7.92 0 15.84 0 24 0 C24 7.92 24 15.84 24 24 C16.08 24 8.16 24 0 24 C0 16.08 0 8.16 0 0 Z " fill="#FFFFFF" transform="translate(0,168)"/>
<path d="M0 0 C7.92 0 15.84 0 24 0 C24 7.92 24 15.84 24 24 C16.08 24 8.16 24 0 24 C0 16.08 0 8.16 0 0 Z " fill="#EDEDED" transform="translate(336,144)"/>
<path d="M0 0 C7.92 0 15.84 0 24 0 C24 7.92 24 15.84 24 24 C16.08 24 8.16 24 0 24 C0 16.08 0 8.16 0 0 Z " fill="#FFFFFF" transform="translate(312,144)"/>
<path d="M0 0 C7.92 0 15.84 0 24 0 C24 7.92 24 15.84 24 24 C16.08 24 8.16 24 0 24 C0 16.08 0 8.16 0 0 Z " fill="#EDEDED" transform="translate(288,144)"/>
<path d="M0 0 C7.92 0 15.84 0 24 0 C24 7.92 24 15.84 24 24 C16.08 24 8.16 24 0 24 C0 16.08 0 8.16 0 0 Z " fill="#FFFFFF" transform="translate(24,144)"/>
<path d="M0 0 C7.92 0 15.84 0 24 0 C24 7.92 24 15.84 24 24 C16.08 24 8.16 24 0 24 C0 16.08 0 8.16 0 0 Z " fill="#EDEDED" transform="translate(0,144)"/>
<path d="M0 0 C7.92 0 15.84 0 24 0 C24 7.92 24 15.84 24 24 C16.08 24 8.16 24 0 24 C0 16.08 0 8.16 0 0 Z " fill="#FFFFFF" transform="translate(336,120)"/>
<path d="M0 0 C7.92 0 15.84 0 24 0 C24 7.92 24 15.84 24 24 C16.08 24 8.16 24 0 24 C0 16.08 0 8.16 0 0 Z " fill="#EDEDED" transform="translate(312,120)"/>
<path d="M0 0 C7.92 0 15.84 0 24 0 C24 7.92 24 15.84 24 24 C16.08 24 8.16 24 0 24 C0 16.08 0 8.16 0 0 Z " fill="#FFFFFF" transform="translate(288,120)"/>
<path d="M0 0 C7.92 0 15.84 0 24 0 C24 7.92 24 15.84 24 24 C16.08 24 8.16 24 0 24 C0 16.08 0 8.16 0 0 Z " fill="#EDEDED" transform="translate(264,120)"/>
<path d="M0 0 C7.92 0 15.84 0 24 0 C24 7.92 24 15.84 24 24 C16.08 24 8.16 24 0 24 C0 16.08 0 8.16 0 0 Z " fill="#EDEDED" transform="translate(24,120)"/>
<path d="M0 0 C7.92 0 15.84 0 24 0 C24 7.92 24 15.84 24 24 C16.08 24 8.16 24 0 24 C0 16.08 0 8.16 0 0 Z " fill="#FFFFFF" transform="translate(0,120)"/>
<path d="M0 0 C7.92 0 15.84 0 24 0 C24 7.92 24 15.84 24 24 C16.08 24 8.16 24 0 24 C0 16.08 0 8.16 0 0 Z " fill="#EDEDED" transform="translate(336,96)"/>
<path d="M0 0 C7.92 0 15.84 0 24 0 C24 7.92 24 15.84 24 24 C16.08 24 8.16 24 0 24 C0 16.08 0 8.16 0 0 Z " fill="#FFFFFF" transform="translate(312,96)"/>
<path d="M0 0 C7.92 0 15.84 0 24 0 C24 7.92 24 15.84 24 24 C16.08 24 8.16 24 0 24 C0 16.08 0 8.16 0 0 Z " fill="#EDEDED" transform="translate(288,96)"/>
<path d="M0 0 C7.92 0 15.84 0 24 0 C24 7.92 24 15.84 24 24 C16.08 24 8.16 24 0 24 C0 16.08 0 8.16 0 0 Z " fill="#FFFFFF" transform="translate(264,96)"/>
<path d="M0 0 C7.92 0 15.84 0 24 0 C24 7.92 24 15.84 24 24 C16.08 24 8.16 24 0 24 C0 16.08 0 8.16 0 0 Z " fill="#EDEDED" transform="translate(240,96)"/>
<path d="M0 0 C7.92 0 15.84 0 24 0 C24 7.92 24 15.84 24 24 C16.08 24 8.16 24 0 24 C0 16.08 0 8.16 0 0 Z " fill="#FFFFFF" transform="translate(72,96)"/>
<path d="M0 0 C7.92 0 15.84 0 24 0 C24 7.92 24 15.84 24 24 C16.08 24 8.16 24 0 24 C0 16.08 0 8.16 0 0 Z " fill="#EDEDED" transform="translate(48,96)"/>
<path d="M0 0 C7.92 0 15.84 0 24 0 C24 7.92 24 15.84 24 24 C16.08 24 8.16 24 0 24 C0 16.08 0 8.16 0 0 Z " fill="#FFFFFF" transform="translate(24,96)"/>
<path d="M0 0 C7.92 0 15.84 0 24 0 C24 7.92 24 15.84 24 24 C16.08 24 8.16 24 0 24 C0 16.08 0 8.16 0 0 Z " fill="#EDEDED" transform="translate(0,96)"/>
<path d="M0 0 C7.92 0 15.84 0 24 0 C24 7.92 24 15.84 24 24 C16.08 24 8.16 24 0 24 C0 16.08 0 8.16 0 0 Z " fill="#FFFFFF" transform="translate(336,72)"/>
<path d="M0 0 C7.92 0 15.84 0 24 0 C24 7.92 24 15.84 24 24 C16.08 24 8.16 24 0 24 C0 16.08 0 8.16 0 0 Z " fill="#EDEDED" transform="translate(312,72)"/>
<path d="M0 0 C7.92 0 15.84 0 24 0 C24 7.92 24 15.84 24 24 C16.08 24 8.16 24 0 24 C0 16.08 0 8.16 0 0 Z " fill="#FFFFFF" transform="translate(288,72)"/>
<path d="M0 0 C7.92 0 15.84 0 24 0 C24 7.92 24 15.84 24 24 C16.08 24 8.16 24 0 24 C0 16.08 0 8.16 0 0 Z " fill="#EDEDED" transform="translate(264,72)"/>
<path d="M0 0 C7.92 0 15.84 0 24 0 C24 7.92 24 15.84 24 24 C16.08 24 8.16 24 0 24 C0 16.08 0 8.16 0 0 Z " fill="#FFFFFF" transform="translate(240,72)"/>
<path d="M0 0 C7.92 0 15.84 0 24 0 C24 7.92 24 15.84 24 24 C16.08 24 8.16 24 0 24 C0 16.08 0 8.16 0 0 Z " fill="#EDEDED" transform="translate(216,72)"/>
<path d="M0 0 C7.92 0 15.84 0 24 0 C24 7.92 24 15.84 24 24 C16.08 24 8.16 24 0 24 C0 16.08 0 8.16 0 0 Z " fill="#FFFFFF" transform="translate(192,72)"/>
<path d="M0 0 C7.92 0 15.84 0 24 0 C24 7.92 24 15.84 24 24 C16.08 24 8.16 24 0 24 C0 16.08 0 8.16 0 0 Z " fill="#FFFFFF" transform="translate(48,72)"/>
<path d="M0 0 C7.92 0 15.84 0 24 0 C24 7.92 24 15.84 24 24 C16.08 24 8.16 24 0 24 C0 16.08 0 8.16 0 0 Z " fill="#EDEDED" transform="translate(24,72)"/>
<path d="M0 0 C7.92 0 15.84 0 24 0 C24 7.92 24 15.84 24 24 C16.08 24 8.16 24 0 24 C0 16.08 0 8.16 0 0 Z " fill="#FFFFFF" transform="translate(0,72)"/>
<path d="M0 0 C7.92 0 15.84 0 24 0 C24 7.92 24 15.84 24 24 C16.08 24 8.16 24 0 24 C0 16.08 0 8.16 0 0 Z " fill="#EDEDED" transform="translate(336,48)"/>
<path d="M0 0 C7.92 0 15.84 0 24 0 C24 7.92 24 15.84 24 24 C16.08 24 8.16 24 0 24 C0 16.08 0 8.16 0 0 Z " fill="#FFFFFF" transform="translate(312,48)"/>
<path d="M0 0 C7.92 0 15.84 0 24 0 C24 7.92 24 15.84 24 24 C16.08 24 8.16 24 0 24 C0 16.08 0 8.16 0 0 Z " fill="#EDEDED" transform="translate(288,48)"/>
<path d="M0 0 C7.92 0 15.84 0 24 0 C24 7.92 24 15.84 24 24 C16.08 24 8.16 24 0 24 C0 16.08 0 8.16 0 0 Z " fill="#FFFFFF" transform="translate(264,48)"/>
<path d="M0 0 C7.92 0 15.84 0 24 0 C24 7.92 24 15.84 24 24 C16.08 24 8.16 24 0 24 C0 16.08 0 8.16 0 0 Z " fill="#EDEDED" transform="translate(240,48)"/>
<path d="M0 0 C7.92 0 15.84 0 24 0 C24 7.92 24 15.84 24 24 C16.08 24 8.16 24 0 24 C0 16.08 0 8.16 0 0 Z " fill="#FFFFFF" transform="translate(216,48)"/>
<path d="M0 0 C7.92 0 15.84 0 24 0 C24 7.92 24 15.84 24 24 C16.08 24 8.16 24 0 24 C0 16.08 0 8.16 0 0 Z " fill="#EDEDED" transform="translate(192,48)"/>
<path d="M0 0 C7.92 0 15.84 0 24 0 C24 7.92 24 15.84 24 24 C16.08 24 8.16 24 0 24 C0 16.08 0 8.16 0 0 Z " fill="#FFFFFF" transform="translate(168,48)"/>
<path d="M0 0 C7.92 0 15.84 0 24 0 C24 7.92 24 15.84 24 24 C16.08 24 8.16 24 0 24 C0 16.08 0 8.16 0 0 Z " fill="#FFFFFF" transform="translate(24,48)"/>
<path d="M0 0 C7.92 0 15.84 0 24 0 C24 7.92 24 15.84 24 24 C16.08 24 8.16 24 0 24 C0 16.08 0 8.16 0 0 Z " fill="#EDEDED" transform="translate(0,48)"/>
<path d="M0 0 C7.92 0 15.84 0 24 0 C24 7.92 24 15.84 24 24 C16.08 24 8.16 24 0 24 C0 16.08 0 8.16 0 0 Z " fill="#FFFFFF" transform="translate(336,24)"/>
<path d="M0 0 C7.92 0 15.84 0 24 0 C24 7.92 24 15.84 24 24 C16.08 24 8.16 24 0 24 C0 16.08 0 8.16 0 0 Z " fill="#EDEDED" transform="translate(312,24)"/>
<path d="M0 0 C7.92 0 15.84 0 24 0 C24 7.92 24 15.84 24 24 C16.08 24 8.16 24 0 24 C0 16.08 0 8.16 0 0 Z " fill="#FFFFFF" transform="translate(288,24)"/>
<path d="M0 0 C7.92 0 15.84 0 24 0 C24 7.92 24 15.84 24 24 C16.08 24 8.16 24 0 24 C0 16.08 0 8.16 0 0 Z " fill="#EDEDED" transform="translate(264,24)"/>
<path d="M0 0 C7.92 0 15.84 0 24 0 C24 7.92 24 15.84 24 24 C16.08 24 8.16 24 0 24 C0 16.08 0 8.16 0 0 Z " fill="#FFFFFF" transform="translate(240,24)"/>
<path d="M0 0 C7.92 0 15.84 0 24 0 C24 7.92 24 15.84 24 24 C16.08 24 8.16 24 0 24 C0 16.08 0 8.16 0 0 Z " fill="#EDEDED" transform="translate(216,24)"/>
<path d="M0 0 C7.92 0 15.84 0 24 0 C24 7.92 24 15.84 24 24 C16.08 24 8.16 24 0 24 C0 16.08 0 8.16 0 0 Z " fill="#FFFFFF" transform="translate(192,24)"/>
<path d="M0 0 C7.92 0 15.84 0 24 0 C24 7.92 24 15.84 24 24 C16.08 24 8.16 24 0 24 C0 16.08 0 8.16 0 0 Z " fill="#EDEDED" transform="translate(168,24)"/>
<path d="M0 0 C7.92 0 15.84 0 24 0 C24 7.92 24 15.84 24 24 C16.08 24 8.16 24 0 24 C0 16.08 0 8.16 0 0 Z " fill="#FFFFFF" transform="translate(144,24)"/>
<path d="M0 0 C7.92 0 15.84 0 24 0 C24 7.92 24 15.84 24 24 C16.08 24 8.16 24 0 24 C0 16.08 0 8.16 0 0 Z " fill="#EDEDED" transform="translate(24,24)"/>
<path d="M0 0 C7.92 0 15.84 0 24 0 C24 7.92 24 15.84 24 24 C16.08 24 8.16 24 0 24 C0 16.08 0 8.16 0 0 Z " fill="#FFFFFF" transform="translate(0,24)"/>
<path d="M0 0 C7.92 0 15.84 0 24 0 C24 7.92 24 15.84 24 24 C16.08 24 8.16 24 0 24 C0 16.08 0 8.16 0 0 Z " fill="#EDEDED" transform="translate(336,0)"/>
<path d="M0 0 C7.92 0 15.84 0 24 0 C24 7.92 24 15.84 24 24 C16.08 24 8.16 24 0 24 C0 16.08 0 8.16 0 0 Z " fill="#FFFFFF" transform="translate(312,0)"/>
<path d="M0 0 C7.92 0 15.84 0 24 0 C24 7.92 24 15.84 24 24 C16.08 24 8.16 24 0 24 C0 16.08 0 8.16 0 0 Z " fill="#EDEDED" transform="translate(288,0)"/>
<path d="M0 0 C7.92 0 15.84 0 24 0 C24 7.92 24 15.84 24 24 C16.08 24 8.16 24 0 24 C0 16.08 0 8.16 0 0 Z " fill="#FFFFFF" transform="translate(264,0)"/>
<path d="M0 0 C7.92 0 15.84 0 24 0 C24 7.92 24 15.84 24 24 C16.08 24 8.16 24 0 24 C0 16.08 0 8.16 0 0 Z " fill="#EDEDED" transform="translate(240,0)"/>
<path d="M0 0 C7.92 0 15.84 0 24 0 C24 7.92 24 15.84 24 24 C16.08 24 8.16 24 0 24 C0 16.08 0 8.16 0 0 Z " fill="#FFFFFF" transform="translate(216,0)"/>
<path d="M0 0 C7.92 0 15.84 0 24 0 C24 7.92 24 15.84 24 24 C16.08 24 8.16 24 0 24 C0 16.08 0 8.16 0 0 Z " fill="#EDEDED" transform="translate(192,0)"/>
<path d="M0 0 C7.92 0 15.84 0 24 0 C24 7.92 24 15.84 24 24 C16.08 24 8.16 24 0 24 C0 16.08 0 8.16 0 0 Z " fill="#FFFFFF" transform="translate(168,0)"/>
<path d="M0 0 C7.92 0 15.84 0 24 0 C24 7.92 24 15.84 24 24 C16.08 24 8.16 24 0 24 C0 16.08 0 8.16 0 0 Z " fill="#EDEDED" transform="translate(144,0)"/>
<path d="M0 0 C7.92 0 15.84 0 24 0 C24 7.92 24 15.84 24 24 C16.08 24 8.16 24 0 24 C0 16.08 0 8.16 0 0 Z " fill="#FFFFFF" transform="translate(120,0)"/>
<path d="M0 0 C7.92 0 15.84 0 24 0 C24 7.92 24 15.84 24 24 C16.08 24 8.16 24 0 24 C0 16.08 0 8.16 0 0 Z " fill="#EDEDED" transform="translate(48,0)"/>
<path d="M0 0 C7.92 0 15.84 0 24 0 C24 7.92 24 15.84 24 24 C16.08 24 8.16 24 0 24 C0 16.08 0 8.16 0 0 Z " fill="#EDEDED" transform="translate(0,0)"/>
<path d="M0 0 C7.92 0 15.84 0 24 0 C24 7.92 24 15.84 24 24 C20.225625 24.020625 16.45125 24.04125 12.5625 24.0625 C11.37084229 24.071604 10.17918457 24.08070801 8.95141602 24.09008789 C7.55427368 24.09383423 7.55427368 24.09383423 6.12890625 24.09765625 C5.17056885 24.10289307 4.21223145 24.10812988 3.22485352 24.11352539 C1 24 1 24 0 23 C-0.08713831 21.29227642 -0.10700007 19.58101351 -0.09765625 17.87109375 C-0.09515869 16.93966553 -0.09266113 16.0082373 -0.09008789 15.04858398 C-0.08098389 13.85692627 -0.07187988 12.66526855 -0.0625 11.4375 C-0.041875 7.663125 -0.02125 3.88875 0 0 Z " fill="#EDEDED" transform="translate(120,24)"/>
<path d="M0 0 C7.59 0 15.18 0 23 0 C22.67 7.92 22.34 15.84 22 24 C14.74 24 7.48 24 0 24 C0 16.08 0 8.16 0 0 Z " fill="#EDEDED" transform="translate(48,192)"/>
<path d="M0 0 C7.26 0 14.52 0 22 0 C22 7.92 22 15.84 22 24 C14.74 24 7.48 24 0 24 C0 16.08 0 8.16 0 0 Z " fill="#EDEDED" transform="translate(48,144)"/>
<path d="M0 0 C1.72206188 2.99126319 2.24179923 5.10685713 2.1953125 8.546875 C2.19031738 9.30838867 2.18532227 10.06990234 2.18017578 10.85449219 C2.15286377 12.28776855 2.15286377 12.28776855 2.125 13.75 C2.08375 16.8025 2.0425 19.855 2 23 C-5.92 23 -13.84 23 -22 23 C-22.04125 19.90625 -22.0825 16.8125 -22.125 13.625 C-22.14320801 12.65127441 -22.16141602 11.67754883 -22.18017578 10.67431641 C-22.1851709 9.90780762 -22.19016602 9.14129883 -22.1953125 8.3515625 C-22.20578613 7.56604004 -22.21625977 6.78051758 -22.22705078 5.97119141 C-22 4 -22 4 -20 2 C-19.2265625 2.99 -19.2265625 2.99 -18.4375 4 C-16.08797821 6.27573029 -16.08797821 6.27573029 -12.6875 6.5 C-7.44404985 5.78902371 -3.78907488 3.78907488 0 0 Z " fill="#ECECEC" transform="translate(94,217)"/>
<path d="M0 0 C7.92 0 15.84 0 24 0 C24.04125 3.42375 24.0825 6.8475 24.125 10.375 C24.14320801 11.45313965 24.16141602 12.5312793 24.18017578 13.64208984 C24.1851709 14.48980957 24.19016602 15.3375293 24.1953125 16.2109375 C24.20578613 17.08024902 24.21625977 17.94956055 24.22705078 18.84521484 C24 21 24 21 22 23 C21.27296875 22.3503125 21.27296875 22.3503125 20.53125 21.6875 C15.74848013 17.70521401 15.74848013 17.70521401 9.8125 16.4375 C6.06655916 16.9901798 4.00024255 17.74981808 1 20 C0 19 0 19 -0.11352539 17.14233398 C-0.10828857 16.35157471 -0.10305176 15.56081543 -0.09765625 14.74609375 C-0.09515869 13.9770874 -0.09266113 13.20808105 -0.09008789 12.41577148 C-0.07643188 10.9415271 -0.07643188 10.9415271 -0.0625 9.4375 C-0.041875 6.323125 -0.02125 3.20875 0 0 Z " fill="#ECECEC" transform="translate(72,120)"/>
<path d="M0 0 C1.66150805 3.3230161 0.81799365 7.00242901 0.5625 10.625 C0.376875 13.38875 0.19125 16.1525 0 19 C-7.26 19 -14.52 19 -22 19 C-20.78022552 14.12090207 -19.49622058 13.50106784 -15.5 10.625 C-14.96407227 10.23578369 -14.42814453 9.84656738 -13.87597656 9.44555664 C-9.33581624 6.17142853 -4.70594175 3.03034128 0 0 Z " fill="#F7F7F7" transform="translate(144,293)"/>
<path d="M0 0 C4.29 0 8.58 0 13 0 C13 7.92 13 15.84 13 24 C8.71 24 4.42 24 0 24 C0 23.01 0 22.02 0 21 C0.639375 20.4225 1.27875 19.845 1.9375 19.25 C4.74887128 16.18304952 4.92896417 14.12007798 5 10 C3.77495275 6.7996736 3.77495275 6.7996736 2 4 C1.34 2.68 0.68 1.36 0 0 Z " fill="#EDEDED" transform="translate(131,168)"/>
<path d="M0 0 C2 2 2 2 2.1953125 5.6953125 C2.1838709 7.17201668 2.15789907 8.64861801 2.125 10.125 C2.08375 12.72375 2.0425 15.3225 2 18 C-5.26 18 -12.52 18 -20 18 C-20 17.01 -20 16.02 -20 15 C-18.27172852 13.39013672 -18.27172852 13.39013672 -15.87890625 11.6796875 C-15.02619141 11.06222656 -14.17347656 10.44476563 -13.29492188 9.80859375 C-11.94237305 8.85146484 -11.94237305 8.85146484 -10.5625 7.875 C-8.79268689 6.60195425 -7.02314118 5.32853665 -5.25390625 4.0546875 C-4.46314697 3.49249512 -3.6723877 2.93030273 -2.85766602 2.35107422 C-1.08008825 1.13207063 -1.08008825 1.13207063 0 0 Z " fill="#EDEDED" transform="translate(238,222)"/>
<path d="M0 0 C7.26 0 14.52 0 22 0 C22 5.28 22 10.56 22 16 C17.05942956 15.01188591 15.41867542 14.13569653 11.5625 11.1875 C8.53442381 8.89598289 5.55508148 6.66393062 2.3125 4.6875 C1.549375 4.130625 0.78625 3.57375 0 3 C0 2.01 0 1.02 0 0 Z " fill="#EBEBEB" transform="translate(218,120)"/>
<path d="M0 0 C0 5.61 0 11.22 0 17 C-4.0528125 17.0309375 -4.0528125 17.0309375 -8.1875 17.0625 C-9.02949951 17.071604 -9.87149902 17.08070801 -10.73901367 17.09008789 C-14.62944463 17.10442325 -18.20130793 16.96680139 -22 16 C-18.91671594 12.74624591 -15.60286844 10.09911906 -12 7.4375 C-10.96875 6.67308594 -9.9375 5.90867188 -8.875 5.12109375 C-7.92625 4.42113281 -6.9775 3.72117188 -6 3 C-4.88625 2.12021484 -4.88625 2.12021484 -3.75 1.22265625 C-2 0 -2 0 0 0 Z " fill="#EBEBEB" transform="translate(120,199)"/>
<path d="M0 0 C6.6 0 13.2 0 20 0 C20.29296875 10.7421875 20.29296875 10.7421875 20 14 C19.01 14.66 18.02 15.32 17 16 C14.37304 14.04428496 11.74877646 12.08498344 9.125 10.125 C8.37863281 9.56941406 7.63226563 9.01382813 6.86328125 8.44140625 C6.14785156 7.90644531 5.43242188 7.37148437 4.6953125 6.8203125 C4.03547363 6.32805176 3.37563477 5.83579102 2.69580078 5.32861328 C1 4 1 4 -1 2 C-0.67 1.34 -0.34 0.68 0 0 Z " fill="#EBEBEB" transform="translate(100,144)"/>
<path d="M0 0 C4.55415254 1.82166102 7.92869525 3.92958982 11.75 6.875 C12.33910156 7.30941406 12.92820313 7.74382812 13.53515625 8.19140625 C16.92625611 10.78735166 17.92817463 11.71269853 19 16 C12.73 16 6.46 16 0 16 C0 10.72 0 5.44 0 0 Z " fill="#F9F9F9" transform="translate(144,128)"/>
<path d="M0 0 C5.94 0 11.88 0 18 0 C16.87359701 5.63201497 16.87359701 5.63201497 13.9453125 7.7109375 C13.33042969 8.15050781 12.71554688 8.59007812 12.08203125 9.04296875 C11.43621094 9.48253906 10.79039062 9.92210937 10.125 10.375 C9.48691406 10.83777344 8.84882813 11.30054688 8.19140625 11.77734375 C6.3203125 13.0859375 6.3203125 13.0859375 3 15 C2.01 14.67 1.02 14.34 0 14 C0 9.38 0 4.76 0 0 Z " fill="#F9F9F9" transform="translate(144,216)"/>
<path d="M0 0 C5.28 0 10.56 0 16 0 C16.1953125 7.6171875 16.1953125 7.6171875 16 10 C15.34 10.66 14.68 11.32 14 12 C12.22750476 10.5645497 10.45706424 9.12656197 8.6875 7.6875 C7.70136719 6.88699219 6.71523437 6.08648437 5.69921875 5.26171875 C3 3 3 3 0 0 Z " fill="#E9E9E9" transform="translate(248,144)"/>
<path d="M0 0 C0.02688151 1.64574566 0.04634123 3.29161413 0.0625 4.9375 C0.07410156 5.85402344 0.08570313 6.77054687 0.09765625 7.71484375 C0 10 0 10 -1 11 C-3.18639453 11.07258946 -5.37500389 11.08373783 -7.5625 11.0625 C-9.35880859 11.04896484 -9.35880859 11.04896484 -11.19140625 11.03515625 C-12.11824219 11.02355469 -13.04507813 11.01195312 -14 11 C-6.80769231 0 -6.80769231 0 0 0 Z " fill="#F5F5F5" transform="translate(168,277)"/>
<path d="M0 0 C4.62 0 9.24 0 14 0 C14 2.97 14 5.94 14 9 C10 10 10 10 7.421875 8.671875 C6.09929687 7.72054687 6.09929687 7.72054687 4.75 6.75 C3.85796875 6.12609375 2.9659375 5.5021875 2.046875 4.859375 C1.37140625 4.24578125 0.6959375 3.6321875 0 3 C0 2.01 0 1.02 0 0 Z " fill="#F5F5F5" transform="translate(154,72)"/>
<path d="M0 0 C0.66 0.66 1.32 1.32 2 2 C2.66 2 3.32 2 4 2 C4 4.64 4 7.28 4 10 C-0.62 10 -5.24 10 -10 10 C-6.79929642 4.66549403 -4.97105395 3.28277148 0 0 Z " fill="#EBEBEB" transform="translate(260,206)"/>
<path d="M0 0 C3.63 0 7.26 0 11 0 C11 0.99 11 1.98 11 3 C9.171875 4.7890625 9.171875 4.7890625 6.75 6.625 C5.96109375 7.23601562 5.1721875 7.84703125 4.359375 8.4765625 C2.15460862 9.90016993 0.56145868 10.56525701 -2 11 C-1.855625 10.28972656 -1.71125 9.57945312 -1.5625 8.84765625 C-1.376875 7.92855469 -1.19125 7.00945312 -1 6.0625 C-0.814375 5.14597656 -0.62875 4.22945312 -0.4375 3.28515625 C0.03133964 1.22408298 0.03133964 1.22408298 0 0 Z " fill="#F5F5F5" transform="translate(120,240)"/>
<path d="M0 0 C3.99500618 1.3697164 6.80009492 3.25722422 10 6 C9.34 7.32 8.68 8.64 8 10 C5.03 9.67 2.06 9.34 -1 9 C-1.09765625 2.84765625 -1.09765625 2.84765625 -1 1 C-0.67 0.67 -0.34 0.34 0 0 Z " fill="#F7F7F7" transform="translate(121,111)"/>
<path d="M0 0 C0.33 0.66 0.66 1.32 1 2 C0.34 1.67 -0.32 1.34 -1 1 C-0.67 0.67 -0.34 0.34 0 0 Z M-3 2 C-2.34 2.33 -1.68 2.66 -1 3 C-1.66666667 4.33333333 -2.33333333 5.66666667 -3 7 C-3.309375 7.721875 -3.61875 8.44375 -3.9375 9.1875 C-5 11 -5 11 -8 12 C-8.99 12.495 -8.99 12.495 -10 13 C-11.67654729 12.72057545 -13.34608154 12.39171753 -15 12 C-11.40945767 8.11024581 -7.26101118 5.10267805 -3 2 Z " fill="#E7E7E7" transform="translate(113,203)"/>
<path d="M0 0 C0.99 0 1.98 0 3 0 C3 0.66 3 1.32 3 2 C5.31 2 7.62 2 10 2 C10 2.99 10 3.98 10 5 C10.66 5.33 11.32 5.66 12 6 C12.72159424 7.64363134 13.39351421 9.31050386 14 11 C8.78555245 8.23315028 4.21628031 5.16501855 0 1 C0 0.67 0 0.34 0 0 Z " fill="#F2F2F2" transform="translate(182,94)"/>
<path d="M0 0 C0.99 0.33 1.98 0.66 3 1 C2.34 1 1.68 1 1 1 C1 2.32 1 3.64 1 5 C0.360625 5.268125 -0.27875 5.53625 -0.9375 5.8125 C-3.33131686 6.88667752 -3.33131686 6.88667752 -4 10 C-5.98 10 -7.96 10 -10 10 C-3.25842697 1.79775281 -3.25842697 1.79775281 0 0 Z " fill="#F2F2F2" transform="translate(196,254)"/>
<path d="M0 0 C0.66 0.33 1.32 0.66 2 1 C2.625 3.0625 2.625 3.0625 3 5 C4.65 4.01 6.3 3.02 8 2 C8.33 3.32 8.66 4.64 9 6 C4.71 6 0.42 6 -4 6 C-4 5.01 -4 4.02 -4 3 C-2 1.3125 -2 1.3125 0 0 Z " fill="#E4E4E4" transform="translate(222,234)"/>
<path d="M0 0 C0.66 1.32 1.32 2.64 2 4 C1.01 4.495 1.01 4.495 0 5 C-0.33 13.25 -0.66 21.5 -1 30 C-1.33 30 -1.66 30 -2 30 C-2.05805933 25.75005737 -2.09361654 21.50021676 -2.125 17.25 C-2.14175781 16.0434375 -2.15851563 14.836875 -2.17578125 13.59375 C-2.18222656 12.43359375 -2.18867187 11.2734375 -2.1953125 10.078125 C-2.20578613 9.00981445 -2.21625977 7.94150391 -2.22705078 6.84082031 C-2.00161519 4.02020895 -1.45848994 2.39212537 0 0 Z " fill="#1A1A1A" transform="translate(74,139)"/>
<path d="M0 0 C0.12375 0.639375 0.2475 1.27875 0.375 1.9375 C0.684375 2.9584375 0.684375 2.9584375 1 4 C1.66 4.33 2.32 4.66 3 5 C-0.75 8 -0.75 8 -3 8 C-3.66 6.68 -4.32 5.36 -5 4 C-3 1 -3 1 0 0 Z " fill="#F1F1F1" transform="translate(228,231)"/>
<path d="M0 0 C0.66 0.33 1.32 0.66 2 1 C-0.97 3.475 -0.97 3.475 -4 6 C-4.66 5.67 -5.32 5.34 -6 5 C-4.02 3.35 -2.04 1.7 0 0 Z M-8 6 C-7.34 6.33 -6.68 6.66 -6 7 C-8.97 9.475 -8.97 9.475 -12 12 C-12.66 11.67 -13.32 11.34 -14 11 C-12.02 9.35 -10.04 7.7 -8 6 Z M-16 12 C-15.34 12.33 -14.68 12.66 -14 13 C-14.99 13 -15.98 13 -17 13 C-16.67 12.67 -16.34 12.34 -16 12 Z " fill="#D7D7D7" transform="translate(190,258)"/>
<path d="M0 0 C0.66 0.33 1.32 0.66 2 1 C1.67 2.98 1.34 4.96 1 7 C-0.98 7 -2.96 7 -5 7 C-4.60196439 4.11424181 -4.20990931 3.17810487 -1.9375 1.25 C-1.298125 0.8375 -0.65875 0.425 0 0 Z " fill="#E5E5E5" transform="translate(95,329)"/>
<path d="M0 0 C3.3 0 6.6 0 10 0 C10 0.66 10 1.32 10 2 C8.35 2 6.7 2 5 2 C4.67 3.32 4.34 4.64 4 6 C2.35 4.68 0.7 3.36 -1 2 C-0.67 1.34 -0.34 0.68 0 0 Z " fill="#E3E3E3" transform="translate(100,144)"/>
<path d="M0 0 C-0.8125 1.9375 -0.8125 1.9375 -2 4 C-2.99 4.33 -3.98 4.66 -5 5 C-5 5.66 -5 6.32 -5 7 C-5.99 7.33 -6.98 7.66 -8 8 C-8.66 7.34 -9.32 6.68 -10 6 C-8.71283353 4.99421411 -7.42011342 3.99553202 -6.125 3 C-5.40570313 2.443125 -4.68640625 1.88625 -3.9453125 1.3125 C-2 0 -2 0 0 0 Z " fill="#F3F3F3" transform="translate(186,264)"/>
<path d="M0 0 C1.5625 1.125 1.5625 1.125 3 3 C2.6875 6.1875 2.6875 6.1875 2 9 C1.01 8.34 0.02 7.68 -1 7 C-1.25 3.9375 -1.25 3.9375 -1 1 C-0.67 0.67 -0.34 0.34 0 0 Z " fill="#DFDFDF" transform="translate(73,281)"/>
<path d="M0 0 C2 2 2 2 2 5 C-0.64 5.33 -3.28 5.66 -6 6 C-4 4 -2 2 0 0 Z " fill="#E0E0E0" transform="translate(238,222)"/>
<path d="M0 0 C0.99 0.33 1.98 0.66 3 1 C0.03716687 3.38672669 -2.94270509 5.7353371 -6 8 C-6.66 7.34 -7.32 6.68 -8 6 C-6.7391988 4.96680187 -5.46596742 3.94875621 -4.1875 2.9375 C-3.47980469 2.36902344 -2.77210938 1.80054688 -2.04296875 1.21484375 C-1.36878906 0.81394531 -0.69460937 0.41304687 0 0 Z " fill="#242424" transform="translate(190,198)"/>
<path d="M0 0 C0.99 0.33 1.98 0.66 3 1 C3 2.65 3 4.3 3 6 C1.35 6 -0.3 6 -2 6 C-2.33 5.01 -2.66 4.02 -3 3 C-2.01 2.01 -1.02 1.02 0 0 Z " fill="#DFDFDF" transform="translate(285,186)"/>
<path d="M0 0 C4.875 1.75 4.875 1.75 6 4 C3 5 3 5 0 5 C-0.99 5.495 -0.99 5.495 -2 6 C-1.49396008 3.83125748 -1.00016187 2.00032373 0 0 Z " fill="#E6E6E6" transform="translate(163,142)"/>
<path d="M0 0 C0.66 0.33 1.32 0.66 2 1 C2 2.65 2 4.3 2 6 C0.02 5.34 -1.96 4.68 -4 4 C-2.68 2.68 -1.36 1.36 0 0 Z " fill="#E4E4E4" transform="translate(214,240)"/>
<path d="M0 0 C1.65 0 3.3 0 5 0 C5 1.65 5 3.3 5 5 C2.13275314 4.42655063 1.1385485 4.1385485 -1 2 C-0.67 1.34 -0.34 0.68 0 0 Z " fill="#E5E5E5" transform="translate(283,168)"/>
<path d="M0 0 C1.32 1.32 2.64 2.64 4 4 C3.67 4.99 3.34 5.98 3 7 C1.35 6.01 -0.3 5.02 -2 4 C-1.34 2.68 -0.68 1.36 0 0 Z " fill="#161616" transform="translate(132,113)"/>
<path d="M0 0 C1.32 0 2.64 0 4 0 C4.33 0.99 4.66 1.98 5 3 C2.29120665 4.35439668 -0.00933268 4.06501451 -3 4 C-3 3.34 -3 2.68 -3 2 C-2.34 2 -1.68 2 -1 2 C-0.67 1.34 -0.34 0.68 0 0 Z " fill="#090909" transform="translate(82,333)"/>
<path d="M0 0 C-0.66 1.65 -1.32 3.3 -2 5 C-4.97 4.505 -4.97 4.505 -8 4 C-4.5 0 -4.5 0 0 0 Z " fill="#DFDFDF" transform="translate(106,211)"/>
<path d="M0 0 C1.32 0.66 2.64 1.32 4 2 C1.69 3.32 -0.62 4.64 -3 6 C-3 3 -3 3 -1.5 1.3125 C-0.7575 0.6628125 -0.7575 0.6628125 0 0 Z " fill="#101010" transform="translate(268,196)"/>
<path d="M0 0 C0.99 0.33 1.98 0.66 3 1 C0.6875 3.5 0.6875 3.5 -2 6 C-2.99 6 -3.98 6 -5 6 C-3.35 4.02 -1.7 2.04 0 0 Z " fill="#DFDFDF" transform="translate(96,265)"/>
<path d="M0 0 C0.66 0.33 1.32 0.66 2 1 C1.67 1.99 1.34 2.98 1 4 C-1.5625 5.1875 -1.5625 5.1875 -4 6 C-4 5.01 -4 4.02 -4 3 C-2 1.3125 -2 1.3125 0 0 Z " fill="#ECECEC" transform="translate(126,193)"/>
<path d="M0 0 C0 0.66 0 1.32 0 2 C-2 4 -2 4 -5 5 C-5.33 5.66 -5.66 6.32 -6 7 C-6.33 6.01 -6.66 5.02 -7 4 C-2.25 0 -2.25 0 0 0 Z " fill="#E5E5E5" transform="translate(279,193)"/>
<path d="M0 0 C0.66 0.33 1.32 0.66 2 1 C2.33 0.67 2.66 0.34 3 0 C3.99 0.99 4.98 1.98 6 3 C2.94736336 3.98120464 1.05263664 3.98120464 -2 3 C-2 2.34 -2 1.68 -2 1 C-1.34 0.67 -0.68 0.34 0 0 Z " fill="#F2F2F2" transform="translate(233,129)"/>
<path d="M0 0 C1.32 0.66 2.64 1.32 4 2 C3.34 2 2.68 2 2 2 C1.67 2.99 1.34 3.98 1 5 C-0.65 4.67 -2.3 4.34 -4 4 C-2.68 2.68 -1.36 1.36 0 0 Z " fill="#D6D6D6" transform="translate(230,228)"/>
<path d="M0 0 C0.66 0.66 1.32 1.32 2 2 C1.67 2.99 1.34 3.98 1 5 C-0.98 5 -2.96 5 -5 5 C-3.35 3.35 -1.7 1.7 0 0 Z " fill="#FCFCFC" transform="translate(191,259)"/>
<path d="M0 0 C1.65 0 3.3 0 5 0 C5 0.66 5 1.32 5 2 C3.02 2.99 3.02 2.99 1 4 C0.01 3.34 -0.98 2.68 -2 2 C-1.34 2 -0.68 2 0 2 C0 1.34 0 0.68 0 0 Z " fill="#F1F1F1" transform="translate(114,203)"/>
</svg>
