<?xml version="1.0" encoding="UTF-8"?>
<svg version="1.1" xmlns="http://www.w3.org/2000/svg" width="602" height="431">
<path d="M0 0 C0.99 0 1.98 0 3 0 C4.10369437 36.4728541 -1.12996282 74.03887643 -26.88671875 101.80859375 C-27.58410156 102.53175781 -28.28148437 103.25492187 -29 104 C-29.70769531 104.75410156 -30.41539062 105.50820312 -31.14453125 106.28515625 C-33 108 -33 108 -35 108 C-35 108.66 -35 109.32 -35 110 C-36.6796875 111.5078125 -36.6796875 111.5078125 -38.875 113.125 C-39.59429688 113.66382813 -40.31359375 114.20265625 -41.0546875 114.7578125 C-43 116 -43 116 -45 116 C-45 116.66 -45 117.32 -45 118 C-47.3359375 119.7265625 -47.3359375 119.7265625 -50.375 121.625 C-51.37273437 122.25664062 -52.37046875 122.88828125 -53.3984375 123.5390625 C-56 125 -56 125 -58 125 C-58 125.66 -58 126.32 -58 127 C-59.65454102 128.21411133 -59.65454102 128.21411133 -62.00390625 129.58203125 C-62.87813232 130.09540039 -63.7523584 130.60876953 -64.65307617 131.13769531 C-65.61318604 131.69038086 -66.5732959 132.24306641 -67.5625 132.8125 C-68.55032471 133.38709961 -69.53814941 133.96169922 -70.5559082 134.55371094 C-73.6993551 136.37719304 -76.84958719 138.18858554 -80 140 C-80.98774414 140.57347168 -81.97548828 141.14694336 -82.99316406 141.73779297 C-95.12739826 148.7826267 -107.35014908 155.29175059 -120.11132812 161.12451172 C-122.45903176 162.21278282 -124.76242628 163.37725793 -127.0625 164.5625 C-132.60666256 167.38408273 -138.32137429 169.83649209 -144.02172852 172.32250977 C-145.15759399 172.82028931 -145.15759399 172.82028931 -146.31640625 173.328125 C-147.00162354 173.6262207 -147.68684082 173.92431641 -148.39282227 174.23144531 C-150.00268972 174.89173447 -150.00268972 174.89173447 -151 176 C-150.9065767 178.45010149 -150.75798898 180.87001127 -150.5625 183.3125 C-147.83721634 217.66453236 -152.84167662 254.20239517 -173 283 C-173.66 283 -174.32 283 -175 283 C-175.185625 283.66 -175.37125 284.32 -175.5625 285 C-177.60808774 289.26905268 -180.57184643 292.74163706 -184 296 C-184.66 296 -185.32 296 -186 296 C-186 296.66 -186 297.32 -186 298 C-187.4609375 299.5078125 -187.4609375 299.5078125 -189.375 301.125 C-190.00148438 301.66382813 -190.62796875 302.20265625 -191.2734375 302.7578125 C-193 304 -193 304 -195 304 C-194.67 302.35 -194.34 300.7 -194 299 C-193.01 298.67 -192.02 298.34 -191 298 C-190.29878498 296.34757157 -189.64073154 294.67680807 -189 293 C-187.90522231 291.27033265 -186.80718997 289.54236124 -185.67431641 287.83740234 C-166.4145495 258.74871267 -161.15338301 224.09121757 -167 190 C-168.57128614 182.34981153 -170.85751036 175.15878379 -174 168 C-174.86562193 165.7961317 -175.72013386 163.58786152 -176.5625 161.375 C-178.01273788 157.57094924 -179.47712391 153.77560984 -181 150 C-169 142 -169 142 -166 142 C-166 141.34 -166 140.68 -166 140 C-163.8671875 138.58984375 -163.8671875 138.58984375 -160.875 136.9375 C-144.99661369 127.93352094 -129.94704627 117.45259117 -115 107 C-114.32743164 106.53013672 -113.65486328 106.06027344 -112.96191406 105.57617188 C-104.68551486 99.78684384 -96.48147819 93.95555299 -88.515625 87.7421875 C-86 86 -86 86 -83.234375 84.9453125 C-82.49703125 84.63335937 -81.7596875 84.32140625 -81 84 C-80.505 82.515 -80.505 82.515 -80 81 C-78.61212734 80.03059197 -77.21657561 79.07020313 -75.78320312 78.16943359 C-72.41956012 75.96353956 -69.35988394 73.35769449 -66.25 70.8125 C-65.54552734 70.23806152 -64.84105469 69.66362305 -64.11523438 69.07177734 C-58.59191217 64.541995 -53.25850053 59.8344279 -48 55 C-46.54721704 53.68135902 -45.08918582 52.36846794 -43.625 51.0625 C-43.01914062 50.51722656 -42.41328125 49.97195312 -41.7890625 49.41015625 C-40 48 -40 48 -37.8515625 46.94140625 C-35.47433172 45.73272984 -34.97038582 44.42596454 -34 42 C-33.34 42 -32.68 42 -32 42 C-31.34 40.68 -30.68 39.36 -30 38 C-29.34 38 -28.68 38 -28 38 C-27.34 36.68 -26.68 35.36 -26 34 C-25.34 34 -24.68 34 -24 34 C-23.7525 33.443125 -23.505 32.88625 -23.25 32.3125 C-21.77075182 29.57589087 -20.06532561 27.32349131 -18 25 C-17.34 25 -16.68 25 -16 25 C-15.72671875 24.42185547 -15.4534375 23.84371094 -15.171875 23.24804688 C-14.01053584 21.02021126 -12.71727055 19.06846838 -11.25 17.03125 C-10.7240625 16.29519531 -10.198125 15.55914062 -9.65625 14.80078125 C-8.55208333 13.26692708 -7.44791667 11.73307292 -6.34375 10.19921875 C-5.55484375 9.09513672 -5.55484375 9.09513672 -4.75 7.96875 C-4.27046875 7.30294922 -3.7909375 6.63714844 -3.296875 5.95117188 C-2.01828972 4.02751721 -0.98618357 2.08633646 0 0 Z " fill="#F3F3F3" transform="translate(578,62)"/>
<path d="M0 0 C3.83203125 0.76367188 3.83203125 0.76367188 5.34375 2.890625 C5.7253125 3.66921875 6.106875 4.4478125 6.5 5.25 C8.35658551 8.86545598 10.42062141 11.84742617 13 15 C13 15.66 13 16.32 13 17 C13.66 17 14.32 17 15 17 C15.66 18.65 16.32 20.3 17 22 C17.66 22 18.32 22 19 22 C20.30567127 23.49481057 21.54251025 25.049816 22.75 26.625 C26.69569653 31.56675998 30.89659954 36.09917443 35.375 40.5625 C35.98182617 41.16980957 36.58865234 41.77711914 37.21386719 42.40283203 C39.74354805 44.90211147 42.02388879 47.01592586 45 49 C45 49.66 45 50.32 45 51 C45.556875 51.226875 46.11375 51.45375 46.6875 51.6875 C49.63702368 53.36155398 51.6084253 55.59788973 54 58 C55.60398026 59.37899953 57.23001794 60.73267806 58.875 62.0625 C59.83277344 62.83722656 60.79054687 63.61195312 61.77734375 64.41015625 C62.55247314 65.03301514 62.55247314 65.03301514 63.34326172 65.66845703 C65.10792849 67.08674359 66.8683568 68.51020043 68.62890625 69.93359375 C75.26906894 75.2881207 81.96072569 80.54983862 88.8125 85.6328125 C91.25909604 87.44976985 93.69512313 89.27809114 96.125 91.1171875 C96.83922119 91.65666016 97.55344238 92.19613281 98.28930664 92.75195312 C99.68819756 93.80887173 101.08588509 94.86738557 102.48217773 95.92773438 C105.26236076 98.02304559 107.95701516 99.97503377 110.97265625 101.7265625 C111.64167969 102.14679688 112.31070313 102.56703125 113 103 C113 103.66 113 104.32 113 105 C114.07121094 105.38671875 114.07121094 105.38671875 115.1640625 105.78125 C118.1853142 107.07963916 120.6609558 108.64502302 123.375 110.5 C124.42300781 111.21027344 125.47101563 111.92054688 126.55078125 112.65234375 C127.10846191 113.03245605 127.66614258 113.41256836 128.24072266 113.80419922 C131.33604553 115.90812531 134.4490414 117.98554223 137.5625 120.0625 C138.51358643 120.69696045 138.51358643 120.69696045 139.48388672 121.34423828 C147.18233559 126.46794182 154.91287407 131.50715226 163 136 C163 136.66 163 137.32 163 138 C163.55945313 138.10570312 164.11890625 138.21140625 164.6953125 138.3203125 C167.42141051 139.12428039 169.46756135 140.36753841 171.875 141.875 C174.75624337 143.66247743 177.46863432 145.21376302 180.5625 146.625 C183 148 183 148 183.78515625 149.75 C184.07797063 152.81656516 183.15325243 154.58121475 181.875 157.375 C167.21471533 190.80859366 162.72540491 226.56671218 175.5078125 261.5 C178.34988722 268.16622761 181.63165028 274.58793917 185 281 C188 286.75112108 188 286.75112108 188 289 C188.66 289 189.32 289 190 289 C191.40234375 290.86328125 191.40234375 290.86328125 192.9375 293.3125 C195.0474402 296.67558798 195.0474402 296.67558798 197.69140625 299.60546875 C199 301 199 301 199 304 C194.43750321 302.57630118 191.5303971 300.03460438 188.25 296.6875 C187.72704346 296.15769531 187.20408691 295.62789063 186.6652832 295.08203125 C181.33949429 289.53911214 177.10691118 283.50128796 173 277 C172.37351563 276.04609375 171.74703125 275.0921875 171.1015625 274.109375 C165.95775111 265.88826159 162.79217033 257.23338962 160 248 C159.80277344 247.34999023 159.60554687 246.69998047 159.40234375 246.03027344 C152.65962096 222.93762668 152.43927086 198.80180268 154 175 C152.94594971 174.54113403 152.94594971 174.54113403 151.87060547 174.07299805 C112.45001023 156.86213664 74.25419699 137.40174922 40.125 111 C39.51164795 110.53110352 38.8982959 110.06220703 38.26635742 109.57910156 C36.80526951 108.4341235 35.39672542 107.22266542 34 106 C34 105.34 34 104.68 34 104 C33.4225 103.773125 32.845 103.54625 32.25 103.3125 C24.18490282 98.60785998 17.65272636 86.47186954 14 78 C13.59007812 77.0615625 13.18015625 76.123125 12.7578125 75.15625 C2.40656404 50.9012536 -0.28863261 26.24686 0 0 Z " fill="#F2F2F2" transform="translate(35,62)"/>
<path d="M0 0 C-3.14052679 1.68588849 -6.29226638 2.80095224 -9.6875 3.875 C-23.17086411 8.34776855 -39.85039278 15.77558917 -48 28 C-48.66 28 -49.32 28 -50 28 C-50.66 29.65 -51.32 31.3 -52 33 C-52.66 33 -53.32 33 -54 33 C-54.27199219 33.73347656 -54.54398438 34.46695313 -54.82421875 35.22265625 C-55.94472515 37.86943382 -57.23851601 40.04122358 -58.8125 42.4375 C-67.52937176 56.91601139 -72.00882371 76.22002162 -69 93 C-68.80749675 94.34992047 -68.61761909 95.70021674 -68.4296875 97.05078125 C-67.14693096 105.73827878 -65.2377194 113.21617713 -61 121 C-60.59652344 121.78761719 -60.19304687 122.57523437 -59.77734375 123.38671875 C-57.3028344 128.07316893 -54.45165471 132.23786126 -51.13671875 136.37109375 C-50 138 -50 138 -50 140 C-49.01 140.33 -48.02 140.66 -47 141 C-45.78778142 142.4633063 -44.57810511 143.92895069 -43.39208984 145.41357422 C-32.4431573 157.89097928 -11.52817597 165.89041431 4.71166992 167.22241211 C7.66538192 167.3398735 10.60646421 167.37973344 13.5625 167.375 C14.61518066 167.37338867 15.66786133 167.37177734 16.75244141 167.37011719 C25.72002903 167.23040527 33.50126123 165.86283806 42 163 C42.89203125 162.72285156 43.7840625 162.44570313 44.703125 162.16015625 C66.57434579 154.50522897 81.35822218 137.09561561 91.203125 116.9296875 C94.22947004 110.45720888 96.46120203 104.34351654 97.25 97.1875 C97.3315332 96.46900879 97.41306641 95.75051758 97.49707031 95.01025391 C98.05685237 89.27310437 98.03617322 83.62832099 97.75 77.875 C97.71165039 77.09406982 97.67330078 76.31313965 97.63378906 75.50854492 C97.32097697 70.76371704 96.46845812 66.55007643 95 62 C94.69320312 61.00097656 94.38640625 60.00195312 94.0703125 58.97265625 C88.5348773 41.93175038 78.47026193 25.36414925 62.6171875 16.12109375 C62.08351563 15.75113281 61.54984375 15.38117188 61 15 C61 14.34 61 13.68 61 13 C59.824375 12.6596875 59.824375 12.6596875 58.625 12.3125 C55.72193727 11.26139108 53.32142841 10.13591931 50.625 8.6875 C43.76159496 5.15053053 36.38492637 3.15317332 29 1 C29 0.67 29 0.34 29 0 C49.17065085 -1.1636914 67.10027998 11.09583641 81.625 23.8125 C90.27096704 31.87878023 96.70606439 40.45870298 102 51 C102.64388672 52.11181641 102.64388672 52.11181641 103.30078125 53.24609375 C114.29880654 72.89272098 115.64680064 99.91106006 110 121.4375 C107.44325942 130.12035804 103.42844028 138.13817383 99 146 C98.48695313 146.91394531 97.97390625 147.82789063 97.4453125 148.76953125 C96.125 151 96.125 151 94 154 C93.34 154 92.68 154 92 154 C91.78214844 154.70511719 91.56429687 155.41023437 91.33984375 156.13671875 C89.67863109 159.6867738 87.33421212 162.1173449 84.5625 164.8125 C84.02463867 165.33875977 83.48677734 165.86501953 82.93261719 166.40722656 C63.63032152 184.93879052 38.62622033 194.08447022 12 194 C-14.71416093 193.06224452 -39.20948171 182.3889225 -57.86328125 163.0703125 C-69.48375043 150.23884099 -77.89901925 134.83560516 -82 118 C-82.22429687 117.09765625 -82.44859375 116.1953125 -82.6796875 115.265625 C-87.45606053 92.10348731 -83.14160702 67.63937037 -72 47 C-71.34 47 -70.68 47 -70 47 C-69.93296875 46.47277344 -69.8659375 45.94554687 -69.796875 45.40234375 C-68.65183339 41.95038006 -66.47753992 39.37911478 -64.25 36.5625 C-63.60417969 35.72235352 -63.60417969 35.72235352 -62.9453125 34.86523438 C-60.18331614 31.32177497 -57.23476194 28.12934088 -54 25 C-53.443125 24.401875 -52.88625 23.80375 -52.3125 23.1875 C-51 22 -51 22 -49 22 C-48.79375 21.42121094 -48.5875 20.84242188 -48.375 20.24609375 C-46.46529899 17.12655375 -44.13058865 15.92682461 -41 14.0625 C-40.4220166 13.71767578 -39.8440332 13.37285156 -39.24853516 13.01757812 C-25.65237113 5 -25.65237113 5 -21 5 C-21 4.34 -21 3.68 -21 3 C-13.90215087 1.18225815 -7.34918342 -0.43230491 0 0 Z " fill="#E9E9E9" transform="translate(294,199)"/>
<path d="M0 0 C3.20547958 1.43024761 5.5354446 3.20433073 8.125 5.5625 C10.86038045 8.07679216 10.86038045 8.07679216 14 10 C14 10.66 14 11.32 14 12 C14.68449219 12.2371875 15.36898437 12.474375 16.07421875 12.71875 C19.60534028 14.26508894 22.66554983 16.30380066 25.8125 18.5 C26.7087207 19.10521484 26.7087207 19.10521484 27.62304688 19.72265625 C29.12143611 20.76039782 30.56615614 21.87475797 32 23 C32 23.66 32 24.32 32 25 C32.54527344 25.09539062 33.09054688 25.19078125 33.65234375 25.2890625 C36.65954699 26.1997297 38.91246333 27.68201699 41.5625 29.375 C65.84415688 44.59754205 91.49830835 57.62394096 118.69921875 66.83203125 C123.18752763 68.42020208 127.58935671 70.20911776 132 72 C131.98428955 73.67002075 131.98428955 73.67002075 131.96826172 75.3737793 C131.93163995 79.56531467 131.90894854 83.75683637 131.89013672 87.94848633 C131.88017406 89.75124502 131.86659904 91.55398796 131.84912109 93.35668945 C131.75077627 103.77256338 131.93289913 113.74210324 134 124 C134.22719727 125.2233606 134.22719727 125.2233606 134.45898438 126.47143555 C137.18195532 140.71666413 141.40182252 160.40182252 152 171 C152 171.99 152 172.98 152 174 C148.8510285 172.63088196 146.9521513 171.1247864 144.75 168.5 C144.22921875 167.8915625 143.7084375 167.283125 143.171875 166.65625 C142 165 142 165 142 163 C141.34 163 140.68 163 140 163 C139.08775982 161.17551964 138.1766393 159.35047491 137.26953125 157.5234375 C136.38752577 155.77028199 135.48774001 154.0260043 134.57421875 152.2890625 C126.64913468 137.01228546 120.69560136 120.35072245 121 103 C119.77990234 102.87044922 119.77990234 102.87044922 118.53515625 102.73828125 C109.26779079 101.60201259 100.73331732 99.36765163 91.85058594 96.56982422 C89.54157654 95.85884428 87.20875727 95.24914439 84.875 94.625 C74.28352146 91.4258674 64.29018759 85.91470209 55 80 C54.11957031 79.46761719 53.23914063 78.93523437 52.33203125 78.38671875 C43.17699335 72.76973499 34.60186632 66.54359171 28 58 C27.195625 57.21625 26.39125 56.4325 25.5625 55.625 C17.11766682 46.97419528 17.11766682 46.97419528 16 41 C15.34 41 14.68 41 14 41 C0.33424868 14.88925926 0.33424868 14.88925926 0 0 Z " fill="#EFEFEF" transform="translate(53,167)"/>
<path d="M0 0 C0.99 0.495 0.99 0.495 2 1 C-1.7684945 20.46445704 -8.91581861 36.30988171 -21 52 C-21.55042969 52.78761719 -22.10085938 53.57523438 -22.66796875 54.38671875 C-23.10753906 54.91910156 -23.54710937 55.45148438 -24 56 C-24.66 56 -25.32 56 -26 56 C-26.31904297 56.81597656 -26.31904297 56.81597656 -26.64453125 57.6484375 C-36.0772391 74.01296237 -58.58137166 83.8028469 -75 91 C-75.98097656 91.43183594 -76.96195312 91.86367188 -77.97265625 92.30859375 C-90.67916482 97.61846806 -104.32357358 101.43153523 -118 103 C-118.13051758 103.69971924 -118.26103516 104.39943848 -118.39550781 105.12036133 C-119.00413346 108.35295226 -119.62698382 111.58265295 -120.25 114.8125 C-120.45496094 115.91271484 -120.65992188 117.01292969 -120.87109375 118.14648438 C-124.47940931 136.6801052 -132.66271993 156.47174419 -145 171 C-145.66 171 -146.32 171 -147 171 C-147 171.66 -147 172.32 -147 173 C-147.99 173.33 -148.98 173.66 -150 174 C-149.51345999 170.27449367 -148.30956342 167.52970297 -146.42285156 164.29736328 C-130.50006287 136.98525462 -127.39415141 103.91030022 -131 73 C-126.1171537 70.40793018 -121.40891227 67.98463776 -116.0625 66.5 C-111.51195114 65.23204521 -107.41775177 63.44964214 -103.15234375 61.43359375 C-100.84140682 60.38264721 -98.54942795 59.40405436 -96.19140625 58.47265625 C-85.72149489 54.33529256 -75.85812887 49.42526814 -65.96875 44.05224609 C-64.32667829 43.17460112 -62.66006668 42.34306771 -60.98828125 41.5234375 C-56.21822329 39.09164324 -51.67786271 36.2717535 -47.1015625 33.49609375 C-46.01101563 32.84447266 -46.01101563 32.84447266 -44.8984375 32.1796875 C-44.24536621 31.78507324 -43.59229492 31.39045898 -42.91943359 30.98388672 C-40.95624739 29.97757275 -39.1538173 29.44609227 -37 29 C-37 28.34 -37 27.68 -37 27 C-35.375 25.9140625 -35.375 25.9140625 -33 24.625 C-27.97886298 21.71991358 -23.37355231 18.42542426 -18.75 14.9375 C-18.07710937 14.43105957 -17.40421875 13.92461914 -16.7109375 13.40283203 C-13.61508726 11.0526473 -10.58649169 8.66502966 -7.640625 6.12890625 C-5 4 -5 4 -3 4 C-2.67 3.01 -2.34 2.02 -2 1 C-1.34 0.67 -0.68 0.34 0 0 Z " fill="#F0F0F0" transform="translate(562,167)"/>
<path d="M0 0 C4.05185428 0.55521035 7.40278927 1.4472274 11.125 3.125 C19.16042596 6.57303726 27.3873475 9.43155916 35.67285156 12.21728516 C37.63700467 12.87790988 39.59641676 13.5526058 41.5546875 14.23046875 C52.72722346 17.79529991 64.38357019 18.75732548 76 20 C79.12121212 31.35353535 79.12121212 31.35353535 80.5 37 C80.74878906 37.99515625 80.99757813 38.9903125 81.25390625 40.015625 C81.7457889 41.98315562 82.23288233 43.95189062 82.71484375 45.921875 C83.85032464 50.3655948 85.07220313 54.41837083 87.1875 58.5 C89 62 89 62 89 65 C85.05952928 63.48375623 83.34697331 61.1483323 80.9375 57.75 C80.26589844 56.81671875 79.59429687 55.8834375 78.90234375 54.921875 C74 47.39219713 74 47.39219713 74 44 C73.30777344 43.97421875 72.61554688 43.9484375 71.90234375 43.921875 C50.13827445 42.66018982 27.39827579 33.0227717 12.15625 17.0703125 C11.6096875 16.42835938 11.063125 15.78640625 10.5 15.125 C9.90832031 14.43019531 9.31664063 13.73539062 8.70703125 13.01953125 C8.14371094 12.35308594 7.58039063 11.68664062 7 11 C6.50886719 10.44699219 6.01773438 9.89398438 5.51171875 9.32421875 C2.93294762 6.38031189 1.20731217 3.73169217 0 0 Z " fill="#E6E6E6" transform="translate(93,254)"/>
<path d="M0 0 C-0.52876417 4.21994481 -3.07849001 6.94781572 -5.75 10.0625 C-6.23879639 10.63250732 -6.72759277 11.20251465 -7.23120117 11.78979492 C-23.67762339 30.47997347 -44.42905709 40.35876388 -69 44 C-70.66613211 44.04220868 -72.33440326 44.05971007 -74 44 C-74.226875 45.010625 -74.45375 46.02125 -74.6875 47.0625 C-75.93397876 51.4565618 -78.12184173 54.47425613 -81 58 C-81.66 58 -82.32 58 -83 58 C-83.103125 58.598125 -83.20625 59.19625 -83.3125 59.8125 C-84.09824033 62.31258286 -84.96918853 63.37535082 -87 65 C-87.66 65 -88.32 65 -89 65 C-88.57004487 61.66784774 -87.57354258 58.96992677 -86.1484375 55.96484375 C-83.87872971 50.93185841 -82.33726167 45.81520513 -80.875 40.5 C-80.49794922 39.17162109 -80.49794922 39.17162109 -80.11328125 37.81640625 C-78.70820047 32.80666797 -77.46994795 27.79656642 -76.43408203 22.69726562 C-76 21 -76 21 -75 20 C-73.51963839 19.76172905 -72.03015002 19.57967722 -70.5390625 19.421875 C-49.05009452 16.98477235 -30.53884394 11.40259579 -10.69335938 3.05273438 C-9.74654297 2.66021484 -8.79972656 2.26769531 -7.82421875 1.86328125 C-6.96916748 1.50532471 -6.11411621 1.14736816 -5.2331543 0.77856445 C-3 0 -3 0 0 0 Z " fill="#E5E5E5" transform="translate(523,254)"/>
<path d="M0 0 C5.24567172 0.38527532 8.06046034 3.21201643 11.8125 6.5625 C12.40998047 7.08263672 13.00746094 7.60277344 13.62304688 8.13867188 C15.08942387 9.41735262 16.54573706 10.70755841 18 12 C17.50951141 16.20521837 16.52366362 17.91034019 13.25 20.5625 C12.52683594 21.15160156 11.80367188 21.74070312 11.05859375 22.34765625 C10.37925781 22.89292969 9.69992187 23.43820312 9 24 C7.6696875 25.2375 7.6696875 25.2375 6.3125 26.5 C4 28 4 28 1.1875 27.75 C0.465625 27.5025 -0.25625 27.255 -1 27 C-0.69381595 23.32579134 -0.24228216 22.21864487 2.5625 19.6875 C3.366875 19.130625 4.17125 18.57375 5 18 C-5.2897939 17.87623959 -11.29131991 20.50623492 -18.66015625 27.59765625 C-22.24634361 31.85298644 -22.81527132 36.40181705 -23.546875 41.80078125 C-25.23041272 53.68713806 -28.72935938 62.1600138 -38 70 C-44.29137453 74.47602197 -51.49106092 75.13006194 -59 76 C-58.18144531 76.60328125 -57.36289062 77.2065625 -56.51953125 77.828125 C-54 80 -54 80 -53.6875 82.75 C-53.790625 83.4925 -53.89375 84.235 -54 85 C-55.69140625 85.73046875 -55.69140625 85.73046875 -58 86 C-60.40234375 84.48828125 -60.40234375 84.48828125 -62.9375 82.3125 C-63.77152344 81.60738281 -64.60554688 80.90226562 -65.46484375 80.17578125 C-66.30144531 79.45777344 -67.13804687 78.73976563 -68 78 C-69.66193369 76.66077188 -71.32722008 75.32565564 -73 74 C-72.81260412 70.34578033 -71.81059268 68.52113905 -69.234375 66.0703125 C-68.08380832 65.07579969 -66.92188302 64.09430368 -65.75 63.125 C-65.17636719 62.61453125 -64.60273438 62.1040625 -64.01171875 61.578125 C-61.32182753 59.3110185 -59.73128612 57.98601365 -56.140625 58.0546875 C-54 59 -54 59 -53 61 C-54.22934015 64.68802044 -55.93859378 65.72356973 -59 68 C-50.7184412 67.9690409 -45.27044569 66.50039095 -39 61 C-38.41089844 60.50242187 -37.82179688 60.00484375 -37.21484375 59.4921875 C-32.26123425 54.25864429 -32.00432336 47.91296319 -31.10083008 41.078125 C-29.62262205 30.32139984 -25.51256957 22.88657314 -17 16 C-10.71548881 11.50724306 -3.51570924 10.87072241 4 10 C3.154375 9.278125 2.30875 8.55625 1.4375 7.8125 C-1 5 -1 5 -0.8125 2.1875 C-0.544375 1.465625 -0.27625 0.74375 0 0 Z " fill="#C3C3C3" transform="translate(337,246)"/>
<path d="M0 0 C7.17742235 3.52298387 14.13702984 10.58177431 17.1328125 18.046875 C18.36453852 22.67836511 19.31718828 27.32553803 20.1328125 32.046875 C21.4528125 30.396875 22.7728125 28.746875 24.1328125 27.046875 C25.7828125 27.376875 27.4328125 27.706875 29.1328125 28.046875 C29.1328125 34.0148501 25.92948114 36.91208164 22.04296875 40.99609375 C19.98233583 43.09795552 19.98233583 43.09795552 18.1328125 46.046875 C15.8671875 46.625 15.8671875 46.625 13.1328125 46.046875 C10.96805339 44.00040874 9.21672371 42.10532927 7.3828125 39.796875 C6.64224609 38.91708984 6.64224609 38.91708984 5.88671875 38.01953125 C3.49989769 35.10957132 1.70154693 32.79215292 1.1328125 29.046875 C1.4628125 28.386875 1.7928125 27.726875 2.1328125 27.046875 C4.3828125 26.734375 4.3828125 26.734375 7.1328125 27.046875 C9.4453125 29.546875 9.4453125 29.546875 11.1328125 32.046875 C11.79321378 24.91454116 10.1063339 20.0071571 6.1328125 14.046875 C2.41586495 9.92365644 -1.78265831 7.27910733 -6.8671875 5.046875 C-6.8671875 3.396875 -6.8671875 1.746875 -6.8671875 0.046875 C-4.29217138 -1.24063306 -2.6940369 -0.83413695 0 0 Z " fill="#BEBEBE" transform="translate(322.8671875,287.953125)"/>
<path d="M0 0 C4.52658722 0.46527639 6.24231602 1.85893155 9.125 5.3125 C10.11886719 6.48232422 10.11886719 6.48232422 11.1328125 7.67578125 C12.05707031 8.82626953 12.05707031 8.82626953 13 10 C13.87205078 11.04994141 13.87205078 11.04994141 14.76171875 12.12109375 C16 14 16 14 15.6875 16.75 C15.460625 17.4925 15.23375 18.235 15 19 C11.32579134 18.69381595 10.21864487 18.24228216 7.6875 15.4375 C7.130625 14.633125 6.57375 13.82875 6 13 C5.3560775 20.40510875 7.81779812 26.39097382 11.625 32.6875 C15.36027973 36.32448289 19.66256914 39.12769368 24 42 C23.67 43.32 23.34 44.64 23 46 C18.72589947 46.64111508 16.40148247 45.90357479 13 43.4375 C2.77354638 35.12728434 -0.36770834 26.94311271 -2 14 C-2.721875 14.845625 -3.44375 15.69125 -4.1875 16.5625 C-7 19 -7 19 -9.8125 18.8125 C-10.534375 18.544375 -11.25625 18.27625 -12 18 C-11.61472468 12.75432828 -8.78798357 9.93953966 -5.4375 6.1875 C-4.91736328 5.59001953 -4.39722656 4.99253906 -3.86132812 4.37695312 C-2.58264738 2.91057613 -1.29244159 1.45426294 0 0 Z " fill="#BFBFBF" transform="translate(279,244)"/>
<path d="M0 0 C5.13204273 0.43453792 7.49517832 1.83724063 11.1875 5.375 C12.02667969 6.16648437 12.86585938 6.95796875 13.73046875 7.7734375 C14.47941406 8.50820313 15.22835938 9.24296875 16 10 C16.92232422 10.76183594 16.92232422 10.76183594 17.86328125 11.5390625 C19 13 19 13 19.0234375 14.8984375 C17.52335578 17.97875798 15.3052616 19.5215926 12.625 21.625 C11.64789063 22.40101563 10.67078125 23.17703125 9.6640625 23.9765625 C7.81983053 25.37731347 5.92692767 26.71538155 4 28 C1.8125 27.625 1.8125 27.625 0 27 C-0.33 25.68 -0.66 24.36 -1 23 C1.97 20.525 1.97 20.525 5 18 C3.41058594 17.96132813 3.41058594 17.96132813 1.7890625 17.921875 C0.40099999 17.8656022 -0.98701925 17.80825467 -2.375 17.75 C-3.42300781 17.72873047 -3.42300781 17.72873047 -4.4921875 17.70703125 C-6.5234375 17.609375 -6.5234375 17.609375 -10 17 C-11.4765625 14.953125 -11.4765625 14.953125 -12 13 C-9.15385976 10.15385976 -6.19630858 10.54420924 -2.375 10.375 C-1.66859375 10.33632813 -0.9621875 10.29765625 -0.234375 10.2578125 C1.50998524 10.16352276 3.25495691 10.08067109 5 10 C3.02 8.35 1.04 6.7 -1 5 C-0.67 3.35 -0.34 1.7 0 0 Z " fill="#C2C2C2" transform="translate(354,275)"/>
<path d="M0 0 C0.68578125 0.27070313 1.3715625 0.54140625 2.078125 0.8203125 C2.408125 1.8103125 2.738125 2.8003125 3.078125 3.8203125 C-1.671875 8.6953125 -1.671875 8.6953125 -3.921875 9.8203125 C1.358125 10.1503125 6.638125 10.4803125 12.078125 10.8203125 C12.408125 12.4703125 12.738125 14.1203125 13.078125 15.8203125 C11.08195946 17.81647804 7.26110537 17.23014677 4.515625 17.3828125 C3.44924805 17.44758789 3.44924805 17.44758789 2.36132812 17.51367188 C0.60050588 17.62003027 -1.1606582 17.72070096 -2.921875 17.8203125 C-2.11621094 18.43648438 -1.31054688 19.05265625 -0.48046875 19.6875 C2.078125 21.8203125 2.078125 21.8203125 3.015625 23.9453125 C3.03625 24.5640625 3.056875 25.1828125 3.078125 25.8203125 C2.418125 26.4803125 1.758125 27.1403125 1.078125 27.8203125 C-4.06481501 27.75636831 -7.10556908 24.49825123 -10.734375 21.2578125 C-11.33185547 20.73767578 -11.92933594 20.21753906 -12.54492188 19.68164062 C-14.01129887 18.40295988 -15.46761206 17.11275409 -16.921875 15.8203125 C-16.73447912 12.16609283 -15.73246768 10.34145155 -13.15625 7.890625 C-12.00568332 6.89611219 -10.84375802 5.91461618 -9.671875 4.9453125 C-9.09824219 4.43484375 -8.52460938 3.924375 -7.93359375 3.3984375 C-3.636084 -0.22360944 -3.636084 -0.22360944 0 0 Z " fill="#DCDCDC" transform="translate(259.921875,275.1796875)"/>
<path d="M0 0 C3.2106239 1.3329305 4.66068602 3.56135911 6.7890625 6.2734375 C7.95308594 7.73910156 7.95308594 7.73910156 9.140625 9.234375 C13.19305833 14.56981811 13.19305833 14.56981811 12.9765625 17.0234375 C12.7084375 17.6421875 12.4403125 18.2609375 12.1640625 18.8984375 C11.1740625 19.2284375 10.1840625 19.5584375 9.1640625 19.8984375 C7.1640625 17.8984375 5.1640625 15.8984375 3.1640625 13.8984375 C2.8340625 18.8484375 2.5040625 23.7984375 2.1640625 28.8984375 C0.5140625 29.2284375 -1.1359375 29.5584375 -2.8359375 29.8984375 C-4.83210304 27.90227196 -4.24577177 24.08141787 -4.3984375 21.3359375 C-4.44162109 20.62501953 -4.48480469 19.91410156 -4.52929688 19.18164062 C-4.63565527 17.42081838 -4.73632596 15.6596543 -4.8359375 13.8984375 C-5.45210938 14.70410156 -6.06828125 15.50976562 -6.703125 16.33984375 C-8.8359375 18.8984375 -8.8359375 18.8984375 -10.9609375 19.8359375 C-11.5796875 19.8565625 -12.1984375 19.8771875 -12.8359375 19.8984375 C-13.4959375 19.2384375 -14.1559375 18.5784375 -14.8359375 17.8984375 C-14.69249993 13.0721852 -11.93344411 10.12188124 -8.8984375 6.6484375 C-8.21491211 5.83632812 -8.21491211 5.83632812 -7.51757812 5.0078125 C-3.09594087 -0.17126481 -3.09594087 -0.17126481 0 0 Z " fill="#CCCCCC" transform="translate(308.8359375,224.1015625)"/>
<path d="M0 0 C1.65 0.33 3.3 0.66 5 1 C5.33 5.95 5.66 10.9 6 16 C7.32 14.35 8.64 12.7 10 11 C12.125 10.0625 12.125 10.0625 14 10 C14.66 10.66 15.32 11.32 16 12 C15.79717139 16.60264922 13.70643567 18.86406322 10.625 22.125 C9.83351563 22.97320312 9.04203125 23.82140625 8.2265625 24.6953125 C6.50078995 26.48163847 4.76758841 28.25521918 3 30 C-1.96923742 28.61865963 -4.38931144 25.60008095 -7.375 21.625 C-8.06916016 20.75875 -8.06916016 20.75875 -8.77734375 19.875 C-12.00650819 15.65298799 -12.00650819 15.65298799 -11.9765625 12.6484375 C-11 11 -11 11 -8 10 C-6 12 -4 14 -2 16 C-1.93941406 14.92878906 -1.87882812 13.85757812 -1.81640625 12.75390625 C-1.73201463 11.35675609 -1.64736594 9.95962143 -1.5625 8.5625 C-1.50352539 7.50192383 -1.50352539 7.50192383 -1.44335938 6.41992188 C-1.11328125 1.11328125 -1.11328125 1.11328125 0 0 Z " fill="#DADADA" transform="translate(306,324)"/>
<path d="M0 0 C0.33 0 0.66 0 1 0 C0.56073961 5.76818254 -0.049454 11.42751431 -1.0625 17.125 C-5.35946827 45.13729699 2.04360329 72.33593277 15 97 C18 102.75112108 18 102.75112108 18 105 C18.66 105 19.32 105 20 105 C21.40234375 106.86328125 21.40234375 106.86328125 22.9375 109.3125 C25.0474402 112.67558798 25.0474402 112.67558798 27.69140625 115.60546875 C29 117 29 117 29 120 C24.43721059 118.57620987 21.53102987 116.03421455 18.25 112.6875 C17.72921875 112.1613208 17.2084375 111.6351416 16.671875 111.09301758 C11.33851334 105.55295547 7.10382698 99.49339712 3 93 C2.26910156 91.85917969 2.26910156 91.85917969 1.5234375 90.6953125 C0.375 88.8125 0.375 88.8125 -1 86 C-0.505 85.01 -0.505 85.01 0 84 C0.45375 84.804375 0.9075 85.60875 1.375 86.4375 C2.74725665 89.08856572 2.74725665 89.08856572 5 90 C6.31963987 86.0410804 5.7380794 83.92793498 3.96484375 80.234375 C1.84818697 75.33264351 0.5323704 70.10790133 -1 65 C-1.33 64.01 -1.66 63.02 -2 62 C-2.20115648 59.8571247 -2.36346671 57.71046116 -2.5 55.5625 C-2.72020082 51.29600139 -2.72020082 51.29600139 -3.50488281 47.11743164 C-6.82588798 32.91473056 -4.59561173 13.78683519 0 0 Z " fill="#ABABAB" transform="translate(205,246)"/>
<path d="M0 0 C-3.14052679 1.68588849 -6.29226638 2.80095224 -9.6875 3.875 C-23.17086411 8.34776855 -39.85039278 15.77558917 -48 28 C-48.66 28 -49.32 28 -50 28 C-50.99 30.475 -50.99 30.475 -52 33 C-52.66 33 -53.32 33 -54 33 C-54.39832031 34.07314453 -54.39832031 34.07314453 -54.8046875 35.16796875 C-56.02914099 38.06904319 -57.47983063 40.63015864 -59.125 43.3125 C-59.66382813 44.19550781 -60.20265625 45.07851562 -60.7578125 45.98828125 C-61.16773438 46.65214844 -61.57765625 47.31601563 -62 48 C-63 45 -63 45 -61.5625 41.8125 C-61.046875 40.884375 -60.53125 39.95625 -60 39 C-60.33 38.67 -60.66 38.34 -61 38 C-61.61875 38.680625 -61.61875 38.680625 -62.25 39.375 C-64.06408095 41.05950374 -65.75285627 41.99265971 -68 43 C-64.44431004 35.11317706 -58.16809665 26.89528551 -51 22 C-50.34 22 -49.68 22 -49 22 C-48.690625 21.13181641 -48.690625 21.13181641 -48.375 20.24609375 C-46.46529899 17.12655375 -44.13058865 15.92682461 -41 14.0625 C-40.4220166 13.71767578 -39.8440332 13.37285156 -39.24853516 13.01757812 C-25.65237113 5 -25.65237113 5 -21 5 C-21 4.34 -21 3.68 -21 3 C-13.90215087 1.18225815 -7.34918342 -0.43230491 0 0 Z " fill="#989898" transform="translate(294,199)"/>
<path d="M0 0 C0.68707555 2.49064888 1 4.37886292 1 7 C2.96756452 6.96877057 2.96756452 6.96877057 5 6 C6.3045656 3.00384054 6.3045656 3.00384054 7 0 C9.01151655 6.03454966 4.04141728 12.89742293 1.3515625 18.328125 C-2.22291807 25.15360373 -5.96862354 32.11899797 -11 38 C-11.66 38 -12.32 38 -13 38 C-13 38.66 -13 39.32 -13 40 C-14.485 40.495 -14.485 40.495 -16 41 C-15.42164101 36.57142261 -13.58929318 33.28877544 -11.375 29.5 C-6.14248989 20.19868813 -3.10272477 10.16759382 0 0 Z " fill="#A7A7A7" transform="translate(428,300)"/>
<path d="M0 0 C17.07425974 -0.98505345 34.31134716 8.03719841 47 19 C47.66 19.99 48.32 20.98 49 22 C47.02 21.34 45.04 20.68 43 20 C43.43570313 20.4125 43.87140625 20.825 44.3203125 21.25 C48.72116319 25.51749158 52.45604196 30.00211045 56 35 C55.505 35.99 55.505 35.99 55 37 C54.32195312 36.154375 53.64390625 35.30875 52.9453125 34.4375 C43.807555 23.20176909 43.807555 23.20176909 32 15 C32 14.34 32 13.68 32 13 C31.21625 12.773125 30.4325 12.54625 29.625 12.3125 C26.72193727 11.26139108 24.32142841 10.13591931 21.625 8.6875 C14.76159496 5.15053053 7.38492637 3.15317332 0 1 C0 0.67 0 0.34 0 0 Z " fill="#545454" transform="translate(323,199)"/>
<path d="M0 0 C0.33 0 0.66 0 1 0 C1 2.64 1 5.28 1 8 C9.46115538 7.70569894 17.1872852 6.45213421 25.34936523 4.28417969 C30.70093934 2.90031311 30.70093934 2.90031311 34 4 C24.95652897 7.33180512 14.71867384 10.38948884 5 10 C4.773125 11.010625 4.54625 12.02125 4.3125 13.0625 C3.06602124 17.4565618 0.87815827 20.47425613 -2 24 C-2.66 24 -3.32 24 -4 24 C-4.103125 24.598125 -4.20625 25.19625 -4.3125 25.8125 C-5.09824033 28.31258286 -5.96918853 29.37535082 -8 31 C-8.66 31 -9.32 31 -10 31 C-9.58281179 27.76679138 -8.64914724 25.1554872 -7.25 22.25 C-3.96237203 15.15500876 -2.10367109 7.50941605 0 0 Z " fill="#919191" transform="translate(444,288)"/>
<path d="M0 0 C-5.33333333 2.66666667 -10.66666667 5.33333333 -16 8 C-15.9278125 9.01578125 -15.855625 10.0315625 -15.78125 11.078125 C-15.68728981 12.46873581 -15.59355203 13.85936167 -15.5 15.25 C-15.45230469 15.91257813 -15.40460938 16.57515625 -15.35546875 17.2578125 C-13.70190768 42.29745161 -15.47560501 69.83917157 -26 93 C-26.99 93.495 -26.99 93.495 -28 94 C-27.68333593 89.09170697 -27.18543997 85.06765876 -25.1875 80.5625 C-23.14819788 75.80660929 -21.93250135 71.03403482 -20.8125 66 C-20.64580811 65.26467041 -20.47911621 64.52934082 -20.30737305 63.77172852 C-18.38447232 54.83473382 -17.84803881 45.95906221 -17.90234375 36.8359375 C-17.90446617 35.45881088 -17.90446617 35.45881088 -17.90663147 34.05386353 C-17.9121678 31.16087392 -17.92470781 28.26796567 -17.9375 25.375 C-17.94252325 23.39713655 -17.9470847 21.41927186 -17.95117188 19.44140625 C-17.96211627 14.62757347 -17.97933582 9.81380046 -18 5 C-17.06051514 4.69280029 -16.12103027 4.38560059 -15.15307617 4.0690918 C-11.62933814 2.87432224 -8.38797702 1.33816494 -5.05078125 -0.29296875 C-3 -1 -3 -1 0 0 Z " fill="#575757" transform="translate(443,230)"/>
<path d="M0 0 C2.74359382 2.74359382 2.70857305 5.00602604 3.375 8.8125 C5.30216031 19.1518086 8.15018293 28.64678136 13 38 C13 38.99 13 39.98 13 41 C9.05952928 39.48375623 7.34697331 37.1483323 4.9375 33.75 C4.26589844 32.81671875 3.59429687 31.8834375 2.90234375 30.921875 C-2 23.39219713 -2 23.39219713 -2 20 C-2.7734375 19.95101563 -3.546875 19.90203125 -4.34375 19.8515625 C-10.46001367 19.41252377 -16.10692791 18.69992464 -22 17 C-22 16.67 -22 16.34 -22 16 C-15.84765625 15.90234375 -15.84765625 15.90234375 -14 16 C-13.67 16.33 -13.34 16.66 -13 17 C-10.98405418 17.23427778 -8.961526 17.41336124 -6.9375 17.5625 C-5.83277344 17.64628906 -4.72804687 17.73007812 -3.58984375 17.81640625 C-2.73519531 17.87699219 -1.88054687 17.93757813 -1 18 C-0.67 19.32 -0.34 20.64 0 22 C0.66 22 1.32 22 2 22 C2.15389027 18.22968843 2.05913372 15.20327215 1 11.5625 C-0.15272655 7.45591167 -0.14883663 4.24184388 0 0 Z " fill="#919191" transform="translate(169,278)"/>
<path d="M0 0 C0.33 0.66 0.66 1.32 1 2 C-0.14453125 4.3828125 -0.14453125 4.3828125 -1.8125 7.125 C-2.35519531 8.03507812 -2.89789063 8.94515625 -3.45703125 9.8828125 C-3.96621094 10.58148438 -4.47539062 11.28015625 -5 12 C-5.66 12 -6.32 12 -7 12 C-7.185625 12.66 -7.37125 13.32 -7.5625 14 C-9.60808774 18.26905268 -12.57184643 21.74163706 -16 25 C-16.66 25 -17.32 25 -18 25 C-18 25.66 -18 26.32 -18 27 C-19.4609375 28.5078125 -19.4609375 28.5078125 -21.375 30.125 C-22.00148438 30.66382813 -22.62796875 31.20265625 -23.2734375 31.7578125 C-25 33 -25 33 -27 33 C-26.67 31.35 -26.34 29.7 -26 28 C-25.01 27.67 -24.02 27.34 -23 27 C-22.2954819 25.34897715 -21.63846624 23.67767192 -21 22 C-19.55239655 19.50107632 -17.96401119 17.09832791 -16.375 14.6875 C-15.95476562 14.04232422 -15.53453125 13.39714844 -15.1015625 12.73242188 C-14.07161759 11.15239276 -13.03634372 9.57583953 -12 8 C-11.67 9.32 -11.34 10.64 -11 12 C-9.35 11.67 -7.7 11.34 -6 11 C-5.34 8.69 -4.68 6.38 -4 4 C-3.34 4 -2.68 4 -2 4 C-1.34 2.68 -0.68 1.36 0 0 Z " fill="#898989" transform="translate(410,333)"/>
<path d="M0 0 C-3.14052679 1.68588849 -6.29226638 2.80095224 -9.6875 3.875 C-20.03669071 7.29973219 -28.83832381 12.16598054 -38 18 C-38.33 17.34 -38.66 16.68 -39 16 C-40.093125 16.61875 -41.18625 17.2375 -42.3125 17.875 C-42.92738281 18.22304687 -43.54226562 18.57109375 -44.17578125 18.9296875 C-45.81982289 19.89428581 -47.41400588 20.94267059 -49 22 C-47.48390378 17.74545499 -44.78753088 16.3180461 -41 14.0625 C-40.4220166 13.71767578 -39.8440332 13.37285156 -39.24853516 13.01757812 C-25.65237113 5 -25.65237113 5 -21 5 C-21 4.34 -21 3.68 -21 3 C-13.90215087 1.18225815 -7.34918342 -0.43230491 0 0 Z " fill="#6C6C6C" transform="translate(294,199)"/>
<path d="M0 0 C3.4616815 0.43271019 6.52807008 1.14086967 9.75 2.4375 C19.04314512 6.02975984 28.2474029 6.32468882 38.125 6.25 C40.04953003 6.23984863 40.04953003 6.23984863 42.01293945 6.22949219 C60.04829138 6.10115793 60.04829138 6.10115793 77.08203125 0.70703125 C79 0 79 0 82 1 C73.07378336 4.87778264 64.77202442 8.03861777 55 9 C53.78957031 9.13277344 52.57914062 9.26554687 51.33203125 9.40234375 C35.79840354 10.76709485 14.9387778 10.33277692 1.5234375 1.33984375 C1.02070313 0.89769531 0.51796875 0.45554687 0 0 Z " fill="#757575" transform="translate(267,383)"/>
<path d="M0 0 C0.33 0 0.66 0 1 0 C0.56073961 5.76818254 -0.049454 11.42751431 -1.0625 17.125 C-4.34937681 38.5524259 -0.71034113 60.87600966 7 81 C7.61365542 82.80930944 8.2192577 84.62139505 8.8125 86.4375 C9.204375 87.613125 9.59625 88.78875 10 90 C3.24123182 83.83477803 1.4919917 73.44703291 -1 65 C-1.33 64.01 -1.66 63.02 -2 62 C-2.20115648 59.8571247 -2.36346671 57.71046116 -2.5 55.5625 C-2.72020082 51.29600139 -2.72020082 51.29600139 -3.50488281 47.11743164 C-6.82588798 32.91473056 -4.59561173 13.78683519 0 0 Z " fill="#5E5E5E" transform="translate(205,246)"/>
<path d="M0 0 C1.96797574 2.95196361 2.98697086 5.48953366 4.1875 8.8125 C8.63966715 21.31901915 8.63966715 21.31901915 16 32 C16 32.99 16 33.98 16 35 C12.8510285 33.63088196 10.9521513 32.1247864 8.75 29.5 C8.22921875 28.8915625 7.7084375 28.283125 7.171875 27.65625 C6 26 6 26 6 24 C5.34 24 4.68 24 4 24 C3.02890359 22.05780718 2.05818268 20.11544495 1.08984375 18.171875 C0.15822495 16.31531568 -0.79383293 14.4690365 -1.75 12.625 C-3 10 -3 10 -3 8 C-2.34 8 -1.68 8 -1 8 C-0.34 10.31 0.32 12.62 1 15 C1.66 15 2.32 15 3 15 C2.7834375 14.25234375 2.566875 13.5046875 2.34375 12.734375 C2.0653125 11.74953125 1.786875 10.7646875 1.5 9.75 C1.2215625 8.77546875 0.943125 7.8009375 0.65625 6.796875 C0 4 0 4 0 0 Z " fill="#737373" transform="translate(189,306)"/>
<path d="M0 0 C1.35602585 0.26136553 2.70974092 0.53472143 4.0625 0.8125 C5.19365234 1.03873047 5.19365234 1.03873047 6.34765625 1.26953125 C9.71527492 2.1969903 12.80166144 3.60492767 16 5 C15.98428955 6.67002075 15.98428955 6.67002075 15.96826172 8.3737793 C15.93163995 12.56531467 15.90894854 16.75683637 15.89013672 20.94848633 C15.88017406 22.75124502 15.86659904 24.55398796 15.84912109 26.35668945 C15.75080761 36.76924395 15.93105369 46.74450268 18 57 C18.2067334 58.0624292 18.4134668 59.1248584 18.62646484 60.21948242 C18.98473297 62.03498822 19.35185128 63.8487849 19.73046875 65.66015625 C20.00937702 68.08140337 19.7491916 69.69929106 19 72 C18.34219798 70.19180934 17.69944792 68.37814157 17.0625 66.5625 C16.52302734 65.04849609 16.52302734 65.04849609 15.97265625 63.50390625 C13.85734671 55.88369479 13.85908305 48.13833973 13.90234375 40.27734375 C13.9037587 39.29125626 13.90517365 38.30516876 13.90663147 37.28919983 C13.9121823 34.17193432 13.9247254 31.05474342 13.9375 27.9375 C13.94252136 25.81054792 13.94708315 23.6835947 13.95117188 21.55664062 C13.96213558 16.37106546 13.97936575 11.18554533 14 6 C13.22567627 5.85506104 12.45135254 5.71012207 11.65356445 5.56079102 C8.93381722 4.98601326 6.70535876 4.10247943 4.1875 2.9375 C3.39730469 2.57527344 2.60710937 2.21304688 1.79296875 1.83984375 C1.20128906 1.56269531 0.60960937 1.28554687 0 1 C0 0.67 0 0.34 0 0 Z " fill="#595959" transform="translate(169,234)"/>
<path d="M0 0 C0.96854473 3.05569043 0.97503246 4.92591001 0.125 8 C-3.14261631 21.46787802 -2.18552154 35.51395087 -1 49.1875 C-0.90460938 50.33025391 -0.80921875 51.47300781 -0.7109375 52.65039062 C-0.47800271 55.43396138 -0.24095912 58.21711439 0 61 C-8.35979255 48.46031118 -6.29531182 26.13109112 -3.625 12 C-2.75731676 7.79305098 -1.71607289 3.93950647 0 0 Z " fill="#787878" transform="translate(215,263)"/>
<path d="M0 0 C0.99 0.495 0.99 0.495 2 1 C-13.36205331 14.96550301 -40.54645519 31.30081292 -61.88671875 32.109375 C-62.58410156 32.07328125 -63.28148437 32.0371875 -64 32 C-60.99382731 28.99382731 -58.17618402 29.40414684 -54 29 C-54 28.34 -54 27.68 -54 27 C-53.20335937 26.81824219 -52.40671875 26.63648438 -51.5859375 26.44921875 C-46.01098063 25.12669248 -41.03412204 23.80974253 -36 21 C-34.29720821 20.26964593 -32.59412784 19.53994209 -30.88842773 18.81640625 C-19.58847166 13.93120223 -9.46539908 7.88783257 0 0 Z " fill="#646464" transform="translate(523,234)"/>
<path d="M0 0 C3.20547958 1.43024761 5.5354446 3.20433073 8.125 5.5625 C10.86038045 8.07679216 10.86038045 8.07679216 14 10 C13.67 10.66 13.34 11.32 13 12 C10.525 11.01 10.525 11.01 8 10 C8 9.34 8 8.68 8 8 C7.01 8.33 6.02 8.66 5 9 C5.99355092 17.49708476 8.11234885 24.39877162 12 32 C12.40089844 32.81339844 12.80179688 33.62679687 13.21484375 34.46484375 C14.12942018 36.31677966 15.06243537 38.15959536 16 40 C15.01 40.495 15.01 40.495 14 41 C0.33424868 14.88925926 0.33424868 14.88925926 0 0 Z " fill="#878787" transform="translate(53,167)"/>
<path d="M0 0 C1.38501934 4.39448151 0.11869105 7.64736248 -1.3125 11.875 C-1.53873047 12.56980469 -1.76496094 13.26460938 -1.99804688 13.98046875 C-2.65485806 15.99065167 -3.32532747 17.99575116 -4 20 C-4.38542969 21.15757812 -4.77085937 22.31515625 -5.16796875 23.5078125 C-5.44253906 24.33023437 -5.71710938 25.15265625 -6 26 C-5.34 26 -4.68 26 -4 26 C-5.49671541 30.49014624 -7.83368341 34.47848764 -11 38 C-11.66 38 -12.32 38 -13 38 C-13 38.66 -13 39.32 -13 40 C-14.485 40.495 -14.485 40.495 -16 41 C-15.42164101 36.57142261 -13.58929318 33.28877544 -11.375 29.5 C-6.14248989 20.19868813 -3.10272477 10.16759382 0 0 Z " fill="#727272" transform="translate(428,300)"/>
<path d="M0 0 C0.66 0 1.32 0 2 0 C3.02072189 3.37588307 3.12904378 6.46236866 3.1328125 9.98046875 C3.13410156 11.14513672 3.13539063 12.30980469 3.13671875 13.50976562 C3.13285156 14.72341797 3.12898438 15.93707031 3.125 17.1875 C3.12886719 18.38181641 3.13273437 19.57613281 3.13671875 20.80664062 C3.12214873 34.04350356 2.2677725 46.0747292 -6 57 C-7 55 -7 55 -6.29296875 52.79296875 C-5.92816406 51.93316406 -5.56335938 51.07335937 -5.1875 50.1875 C-4.83042969 49.33542969 -4.47335937 48.48335938 -4.10546875 47.60546875 C-3.39966523 45.94196717 -2.67847927 44.2848528 -1.9375 42.63671875 C-0.76573062 39.34111737 -0.2317359 36.08020936 0.1875 32.625 C0.31874268 31.55004272 0.31874268 31.55004272 0.45263672 30.45336914 C1.49693821 20.32108194 0.67993305 10.13583993 0 0 Z " fill="#636363" transform="translate(391,264)"/>
<path d="M0 0 C-5.26322777 2.45855991 -10.36691325 4.56176509 -16 6 C-15.75443359 7.60875 -15.75443359 7.60875 -15.50390625 9.25 C-14.80655056 14.82884555 -14.89183323 20.38649965 -14.9375 26 C-14.94201172 27.06089844 -14.94652344 28.12179687 -14.95117188 29.21484375 C-14.96286157 31.80995598 -14.97924724 34.40494709 -15 37 C-15.66 37 -16.32 37 -17 37 C-17.02505615 36.41621582 -17.0501123 35.83243164 -17.07592773 35.23095703 C-17.19356199 32.52883687 -17.31551273 29.82692701 -17.4375 27.125 C-17.47681641 26.2071875 -17.51613281 25.289375 -17.55664062 24.34375 C-17.83776388 18.2022881 -18.32318013 12.11047926 -19 6 C-3.90989226 -1.95494613 -3.90989226 -1.95494613 0 0 Z " fill="#838383" transform="translate(450,234)"/>
<path d="M0 0 C5.94 0 11.88 0 18 0 C18 0.33 18 0.66 18 1 C13.05 1.33 8.1 1.66 3 2 C5.475 3.98 5.475 3.98 8 6 C8.9375 8.125 8.9375 8.125 9 10 C8.34 10.66 7.68 11.32 7 12 C2.55762647 11.76854861 0.35479514 9.91570289 -2.8125 6.9375 C-3.60269531 6.20402344 -4.39289063 5.47054688 -5.20703125 4.71484375 C-5.79871094 4.14894531 -6.39039063 3.58304687 -7 3 C-4 3 -4 3 -1 5 C-0.67 3.35 -0.34 1.7 0 0 Z " fill="#A1A1A1" transform="translate(254,291)"/>
<path d="M0 0 C5.61 0.33 11.22 0.66 17 1 C17.28875 2.44375 17.5775 3.8875 17.875 5.375 C18.05804688 6.28507812 18.24109375 7.19515625 18.4296875 8.1328125 C18.79714772 9.98018098 19.15711132 11.82906436 19.5078125 13.6796875 C19.67023438 14.52789062 19.83265625 15.37609375 20 16.25 C20.2165625 17.40242188 20.2165625 17.40242188 20.4375 18.578125 C21.10698207 21.46061724 22.04429657 24.19964841 23 27 C24.01100729 30.28972295 25.00644519 33.58387486 26 36.87890625 C26.93178768 39.96986596 26.93178768 39.96986596 28.1875 42.71484375 C29 45 29 45 28 48 C21.47622219 33.886894 16.72377471 19.74484147 17 4 C15.53626953 3.81824219 15.53626953 3.81824219 14.04296875 3.6328125 C12.77066406 3.46523438 11.49835938 3.29765625 10.1875 3.125 C8.29064453 2.88136719 8.29064453 2.88136719 6.35546875 2.6328125 C3 2 3 2 0 0 Z " fill="#616161" transform="translate(157,266)"/>
<path d="M0 0 C0.53625 0.17015625 1.0725 0.3403125 1.625 0.515625 C4.40768479 1.37606043 7.20302345 2.1872034 10 3 C11.12792969 3.34804688 12.25585938 3.69609375 13.41796875 4.0546875 C25.19394676 7.39833307 36.80311162 7.81403272 49 8 C49 8.66 49 9.32 49 10 C44.83346814 10.08777806 40.66717724 10.14065272 36.5 10.1875 C35.32695312 10.21263672 34.15390625 10.23777344 32.9453125 10.26367188 C26.19411003 10.32056403 21.11179269 9.80453486 15 7 C13.65171515 6.52087501 12.29728819 6.05871234 10.9375 5.61328125 C9.96103516 5.2894043 9.96103516 5.2894043 8.96484375 4.95898438 C8.31644531 4.74564453 7.66804688 4.53230469 7 4.3125 C6.32066406 4.08755859 5.64132812 3.86261719 4.94140625 3.63085938 C3.29473524 3.08583446 1.64743545 2.54270986 0 2 C0 1.34 0 0.68 0 0 Z " fill="#717171" transform="translate(270,359)"/>
<path d="M0 0 C0.99 0.495 0.99 0.495 2 1 C2.625 4.0625 2.625 4.0625 3 7 C3.66 7 4.32 7 5 7 C6.83165639 17.38483758 7.19274824 27.58980988 7.1875 38.125 C7.18814453 39.3936792 7.18878906 40.6623584 7.18945312 41.96948242 C7.1573392 47.44527188 7.01481291 52.60554813 6 58 C5.67 58 5.34 58 5 58 C5.01047363 57.27635254 5.02094727 56.55270508 5.03173828 55.80712891 C5.54238427 29.58584906 5.54238427 29.58584906 0.5859375 3.96875 C0 2 0 2 0 0 Z " fill="#525252" transform="translate(408,239)"/>
<path d="M0 0 C0.33 0.66 0.66 1.32 1 2 C0.34 2 -0.32 2 -1 2 C-0.34414811 5.60992379 -0.34414811 5.60992379 1 9 C-0.109375 11.27734375 -0.109375 11.27734375 -1.75 13.9375 C-2.28109375 14.81277344 -2.8121875 15.68804687 -3.359375 16.58984375 C-4.77381657 18.66772578 -6.15172324 20.3131691 -8 22 C-7.32829194 18.1936543 -6.27253436 14.64793184 -5 11 C-5.5775 11.61875 -6.155 12.2375 -6.75 12.875 C-8.80249821 14.81347053 -10.43366582 15.90014249 -13 17 C-11.32771693 13.24645158 -8.96257948 10.07364758 -6.5 6.8125 C-6.09652344 6.26658203 -5.69304687 5.72066406 -5.27734375 5.15820312 C-2.24790737 1.12395368 -2.24790737 1.12395368 0 0 Z " fill="#919191" transform="translate(239,225)"/>
<path d="M0 0 C-5.33333333 2.66666667 -10.66666667 5.33333333 -16 8 C-15.9278125 9.01578125 -15.855625 10.0315625 -15.78125 11.078125 C-14.1831039 34.3662078 -14.1831039 34.3662078 -17 40 C-17.495 22.675 -17.495 22.675 -18 5 C-16.02 4.34 -14.04 3.68 -12 3 C-9.66072306 1.94415411 -7.35646487 0.83398888 -5.05078125 -0.29296875 C-3 -1 -3 -1 0 0 Z " fill="#595959" transform="translate(443,230)"/>
<path d="M0 0 C0.68449219 0.27714844 1.36898438 0.55429687 2.07421875 0.83984375 C2.40421875 1.82984375 2.73421875 2.81984375 3.07421875 3.83984375 C-1.55078125 8.71484375 -1.55078125 8.71484375 -4.92578125 9.83984375 C-4.92578125 9.17984375 -4.92578125 8.51984375 -4.92578125 7.83984375 C-6.24578125 7.83984375 -7.56578125 7.83984375 -8.92578125 7.83984375 C-10.69987933 9.76007078 -10.69987933 9.76007078 -11.92578125 11.83984375 C-13.24578125 11.50984375 -14.56578125 11.17984375 -15.92578125 10.83984375 C-13.87834445 8.96627421 -11.81566384 7.11718313 -9.73828125 5.27734375 C-8.87106445 4.47780273 -8.87106445 4.47780273 -7.98632812 3.66210938 C-3.58061432 -0.19600158 -3.58061432 -0.19600158 0 0 Z " fill="#B4B4B4" transform="translate(259.92578125,275.16015625)"/>
<path d="M0 0 C0.66 0 1.32 0 2 0 C0.63471987 4.91650058 -1.58107145 8.7305669 -4.5625 12.8125 C-5.00142578 13.41980957 -5.44035156 14.02711914 -5.89257812 14.65283203 C-9.75541257 19.88317638 -13.94066504 24.8783866 -19 29 C-19.66 29 -20.32 29 -21 29 C-21 29.66 -21 30.32 -21 31 C-22.75 32.5078125 -22.75 32.5078125 -25 34.125 C-25.7425 34.66382813 -26.485 35.20265625 -27.25 35.7578125 C-27.8275 36.16773438 -28.405 36.57765625 -29 37 C-29.66 36.67 -30.32 36.34 -31 36 C-29.47005208 34.79557292 -27.94010417 33.59114583 -26.41015625 32.38671875 C-24.72844923 30.94316909 -24.72844923 30.94316909 -24 28 C-23.25492188 27.71125 -22.50984375 27.4225 -21.7421875 27.125 C-13.01817834 23.54591932 -4.46305256 10.78493267 -0.8125 2.2109375 C-0.544375 1.48132813 -0.27625 0.75171875 0 0 Z " fill="#5D5D5D" transform="translate(564,141)"/>
<path d="M0 0 C7.02947132 1.35182141 11.34616099 4.96333652 15.875 10.1875 C16.37257813 10.74630859 16.87015625 11.30511719 17.3828125 11.88085938 C18.59680732 13.24660354 19.79958756 14.62230245 21 16 C20.67 16.66 20.34 17.32 20 18 C18.56770833 16.73046875 17.13541667 15.4609375 15.703125 14.19140625 C14.0818986 12.8759816 14.0818986 12.8759816 12.125 12.68359375 C8.81110693 11.61754359 6.96479602 9.05602913 4.75 6.5 C4.29109375 5.98824219 3.8321875 5.47648438 3.359375 4.94921875 C0 1.15992374 0 1.15992374 0 0 Z " fill="#898989" transform="translate(365,218)"/>
<path d="M0 0 C0.98120464 3.05263664 0.98120464 4.94736336 0 8 C0.8971875 7.1028125 0.8971875 7.1028125 1.8125 6.1875 C3.54166667 4.45833333 5.27083333 2.72916667 7 1 C6.55946315 5.84590538 4.25494123 9.48141867 1 13 C0.34 13 -0.32 13 -1 13 C-1.103125 13.598125 -1.20625 14.19625 -1.3125 14.8125 C-2.09824033 17.31258286 -2.96918853 18.37535082 -5 20 C-5.66 20 -6.32 20 -7 20 C-6.4431852 15.6846853 -4.78601902 12.13582499 -2.98828125 8.2265625 C-1.79618892 5.54082088 -0.8637147 2.80707276 0 0 Z " fill="#777777" transform="translate(441,299)"/>
<path d="M0 0 C2.24505709 3.36758564 2.49070662 5.40069275 3 9.375 C3.54348977 13.59675086 4.32546692 17.09275615 6 21 C6.48195172 22.95993698 6.96327195 24.92005224 7.43359375 26.8828125 C8.62607391 31.34022111 10.37850794 35.60164286 12.25 39.8125 C13 42 13 42 12 45 C7.66567653 35.66276061 4.18798005 26.31692527 1.75 16.3125 C1.5746875 15.61189453 1.399375 14.91128906 1.21875 14.18945312 C0.09145095 9.35752211 -0.15588575 4.9605074 0 0 Z " fill="#676767" transform="translate(191,285)"/>
<path d="M0 0 C1.65 0.33 3.3 0.66 5 1 C5.33 5.95 5.66 10.9 6 16 C6.99 15.34 7.98 14.68 9 14 C8 16 7 18 6 20 C5.01 20 4.02 20 3 20 C3 14.06 3 8.12 3 2 C2.01 2 1.02 2 0 2 C0 7.61 0 13.22 0 19 C-0.66 18.67 -1.32 18.34 -2 18 C-1.85980308 15.18711295 -1.71312045 12.37483115 -1.5625 9.5625 C-1.52318359 8.76005859 -1.48386719 7.95761719 -1.44335938 7.13085938 C-1.11328125 1.11328125 -1.11328125 1.11328125 0 0 Z " fill="#A0A0A0" transform="translate(306,324)"/>
<path d="M0 0 C3.29696105 1.09898702 4.04670589 1.94597387 6.1875 4.5625 C6.71730469 5.20316406 7.24710938 5.84382813 7.79296875 6.50390625 C8.19128906 6.99761719 8.58960938 7.49132812 9 8 C8.67 6.35 8.34 4.7 8 3 C8.66 3 9.32 3 10 3 C11.40234375 4.86328125 11.40234375 4.86328125 12.9375 7.3125 C15.0474402 10.67558798 15.0474402 10.67558798 17.69140625 13.60546875 C19 15 19 15 19 18 C14.0751578 16.5252783 11.29522999 13.71535453 7.8125 10.125 C7.01295898 9.33029297 7.01295898 9.33029297 6.19726562 8.51953125 C3.58880523 5.87497895 1.37194741 3.48457808 0 0 Z " fill="#5E5E5E" transform="translate(215,348)"/>
<path d="M0 0 C0.33 0.66 0.66 1.32 1 2 C0.06421005 4.35981813 -0.93347808 6.69631264 -2 9 C-1.34 9.33 -0.68 9.66 0 10 C-0.33 10.66 -0.66 11.32 -1 12 C-1.66 12 -2.32 12 -3 12 C-3 12.66 -3 13.32 -3 14 C-4.4609375 15.5078125 -4.4609375 15.5078125 -6.375 17.125 C-7.00148438 17.66382813 -7.62796875 18.20265625 -8.2734375 18.7578125 C-10 20 -10 20 -12 20 C-11.67 18.35 -11.34 16.7 -11 15 C-10.01 14.67 -9.02 14.34 -8 14 C-7.27887023 12.35616482 -6.62000326 10.6845825 -6 9 C-4.99958424 7.36978883 -3.95760047 5.76433112 -2.875 4.1875 C-2.33617187 3.39730469 -1.79734375 2.60710937 -1.2421875 1.79296875 C-0.83226562 1.20128906 -0.42234375 0.60960937 0 0 Z " fill="#787878" transform="translate(395,346)"/>
<path d="M0 0 C2.25 -0.3125 2.25 -0.3125 5 0 C7.3125 2.5 7.3125 2.5 9 5 C8.67 5.66 8.34 6.32 8 7 C7.67 7 7.34 7 7 7 C7 8.32 7 9.64 7 11 C6.67 11.66 6.34 12.32 6 13 C5.01216806 11.92456217 4.03506057 10.83926783 3.0625 9.75 C2.51722656 9.14671875 1.97195313 8.5434375 1.41015625 7.921875 C-0.08349746 5.88620291 -0.67563067 4.49198024 -1 2 C-0.67 1.34 -0.34 0.68 0 0 Z " fill="#A8A8A8" transform="translate(325,315)"/>
<path d="M0 0 C0.66 0.33 1.32 0.66 2 1 C-0.88906434 4.55498342 -3.74046852 7.92373846 -7.3125 10.8125 C-10.03075197 12.71869511 -10.03075197 12.71869511 -11 15 C-13.32156597 15.40729228 -15.6568787 15.74438677 -18 16 C-16.86942958 12.60828875 -15.93512225 12.19061532 -13.03125 10.3828125 C-8.4429194 7.2592182 -4.26210842 3.54922908 0 0 Z " fill="#989898" transform="translate(515,130)"/>
<path d="M0 0 C0.66 0.33 1.32 0.66 2 1 C1.20099966 5.33142291 0.08800666 9.56416268 -1.0625 13.8125 C-1.24876953 14.50537109 -1.43503906 15.19824219 -1.62695312 15.91210938 C-2.08321198 17.60845641 -2.54140954 19.3042818 -3 21 C-4.19126781 17.42619658 -3.7349445 15.49116698 -3.0625 11.8125 C-2.86785156 10.72582031 -2.67320312 9.63914063 -2.47265625 8.51953125 C-2.23869141 7.27236328 -2.23869141 7.27236328 -2 6 C-3.98 6.66 -5.96 7.32 -8 8 C-6.625 6 -6.625 6 -5 4 C-4.34 4 -3.68 4 -3 4 C-2.67 3.01 -2.34 2.02 -2 1 C-1.34 0.67 -0.68 0.34 0 0 Z " fill="#6F6F6F" transform="translate(562,167)"/>
<path d="M0 0 C3.31853376 4.97780064 4.45110081 9.78317709 5.53515625 15.59765625 C5.95282673 17.75620538 6.44497908 19.87323843 7 22 C5 22 5 22 3.5625 20.71484375 C-0.07310447 16.57934366 -1.89696689 13.40486223 -3 8 C-2.34 8 -1.68 8 -1 8 C-0.34 10.31 0.32 12.62 1 15 C1.66 15 2.32 15 3 15 C2.7834375 14.25234375 2.566875 13.5046875 2.34375 12.734375 C2.0653125 11.74953125 1.786875 10.7646875 1.5 9.75 C1.2215625 8.77546875 0.943125 7.8009375 0.65625 6.796875 C0 4 0 4 0 0 Z " fill="#878787" transform="translate(189,306)"/>
<path d="M0 0 C2.125 0.9375 2.125 0.9375 4 2 C3.84518205 4.70931419 3.51827919 6.46584039 1.59765625 8.4453125 C0.10228292 9.67679642 -1.4462924 10.8429837 -3 12 C-3.66 10.68 -4.32 9.36 -5 8 C-4.2575 7.38125 -4.2575 7.38125 -3.5 6.75 C-1.56613908 4.87797662 -1.56613908 4.87797662 -2 1 C-1.34 0.67 -0.68 0.34 0 0 Z " fill="#AFAFAF" transform="translate(318,334)"/>
<path d="M0 0 C7.94758065 1.76612903 7.94758065 1.76612903 10.8125 5.125 C11.204375 5.74375 11.59625 6.3625 12 7 C10.02 6.34 8.04 5.68 6 5 C6.43570312 5.4125 6.87140625 5.825 7.3203125 6.25 C11.72116319 10.51749158 15.45604196 15.00211045 19 20 C18.67 20.66 18.34 21.32 18 22 C17.28714844 21.154375 16.57429688 20.30875 15.83984375 19.4375 C14.87254161 18.2915436 13.90508327 17.14571904 12.9375 16 C12.43887451 15.40928711 11.94024902 14.81857422 11.42651367 14.20996094 C8.05276431 10.22136685 4.63313749 6.27956311 1.14453125 2.390625 C0 1 0 1 0 0 Z " fill="#555555" transform="translate(360,214)"/>
<path d="M0 0 C0.33 0.99 0.66 1.98 1 3 C1.66 3 2.32 3 3 3 C3.31453125 4.19496094 3.6290625 5.38992188 3.953125 6.62109375 C6.57249157 16.76400004 6.57249157 16.76400004 10.375 26.5 C10.91125 27.655 11.4475 28.81 12 30 C11.67 30.66 11.34 31.32 11 32 C5.54918583 21.91599379 1.07163052 11.5200281 0 0 Z " fill="#717171" transform="translate(203,304)"/>
<path d="M0 0 C3.37462715 0.54723683 5.08235 1.0549 8 3 C8 3.66 8 4.32 8 5 C8.598125 5.103125 9.19625 5.20625 9.8125 5.3125 C12 6 12 6 13.3125 7.375 C15.40810499 9.39298999 17.57022544 10.42984859 20.1875 11.6875 C21.08855469 12.12449219 21.98960938 12.56148437 22.91796875 13.01171875 C23.60503906 13.33785156 24.29210937 13.66398438 25 14 C25 14.66 25 15.32 25 16 C19.15791108 14.50202848 14.86020494 11.41527915 10 8 C9.07574219 7.36835938 8.15148437 6.73671875 7.19921875 6.0859375 C1.94712385 2.47558655 1.94712385 2.47558655 0 1 C0 0.67 0 0.34 0 0 Z " fill="#7E7E7E" transform="translate(90,183)"/>
<path d="M0 0 C-3.21614733 1.71990613 -6.47817444 2.91520792 -9.9375 4.0625 C-11.46697266 4.57490234 -11.46697266 4.57490234 -13.02734375 5.09765625 C-15.67907004 5.90258236 -18.27443082 6.51311195 -21 7 C-21 5.68 -21 4.36 -21 3 C-13.90215087 1.18225815 -7.34918342 -0.43230491 0 0 Z " fill="#2A2A2A" transform="translate(294,199)"/>
<path d="M0 0 C2.74086097 1.29229191 5.10066034 2.71563986 7.5 4.5625 C8.180625 5.08199219 8.86125 5.60148438 9.5625 6.13671875 C10.7690625 7.05904297 10.7690625 7.05904297 12 8 C14.16541153 9.62671234 16.33193768 11.25183291 18.5 12.875 C21.25 14.9375 21.25 14.9375 24 17 C23.01 17.33 22.02 17.66 21 18 C19.3515625 16.85546875 19.3515625 16.85546875 17.625 15.1875 C14.85095203 12.64217903 12.545566 11.31692451 9 10 C8.34 9.01 7.68 8.02 7 7 C5.7625 6.566875 5.7625 6.566875 4.5 6.125 C2 5 2 5 0.6875 2.375 C0.460625 1.59125 0.23375 0.8075 0 0 Z " fill="#666666" transform="translate(115,142)"/>
<path d="M0 0 C0.99 0.495 0.99 0.495 2 1 C2.4140625 3.06640625 2.4140625 3.06640625 2.625 5.5625 C2.69976562 6.38878906 2.77453125 7.21507813 2.8515625 8.06640625 C2.92503906 9.02353516 2.92503906 9.02353516 3 10 C3.66 10 4.32 10 5 10 C5.48009262 12.06228466 5.95903544 14.12483701 6.4375 16.1875 C6.70433594 17.33605469 6.97117187 18.48460938 7.24609375 19.66796875 C7.87312201 22.43923875 8.45899177 25.21091874 9 28 C6.21994469 25.63037069 5.36876115 23.62654191 4.4375 20.125 C3.70382363 17.45918115 3.01070645 15.02379211 1.875 12.5 C0.46078173 8.45937637 0.31359568 4.25004673 0 0 Z " fill="#757575" transform="translate(40,109)"/>
<path d="M0 0 C3.76419087 5.6462863 4.44179226 11.38964515 5 18 C4.34 18 3.68 18 3 18 C1.5393715 15.35261084 1 14.10551666 1 11 C0.34 11 -0.32 11 -1 11 C-2.0257259 6.58937864 -2.03684712 4.07369424 0 0 Z " fill="#E4E4E4" transform="translate(187,303)"/>
<path d="M0 0 C0.66 0.33 1.32 0.66 2 1 C0 4 0 4 -1.95703125 4.47265625 C-4.61278771 5.15817656 -5.14903824 6.21527746 -6.6875 8.4375 C-9.74748378 12.27624572 -12.4892223 13.06349195 -17.2421875 13.80859375 C-17.82226562 13.87175781 -18.40234375 13.93492187 -19 14 C-15.53233124 10.17483962 -11.54420806 7.54245288 -7.25 4.75 C-6.20392578 4.06164062 -6.20392578 4.06164062 -5.13671875 3.359375 C-3.42725789 2.23534594 -1.71400488 1.11708776 0 0 Z " fill="#929292" transform="translate(456,174)"/>
<path d="M0 0 C0.33 0 0.66 0 1 0 C1.70471351 9.33745406 -1.38197331 17.57617901 -7 25 C-8 23 -8 23 -7.29296875 20.79296875 C-6.92816406 19.93316406 -6.56335938 19.07335937 -6.1875 18.1875 C-5.83042969 17.33542969 -5.47335937 16.48335938 -5.10546875 15.60546875 C-4.74066406 14.74566406 -4.37585938 13.88585937 -4 13 C-2.71340646 9.91783085 -1.64610484 6.93715612 -0.875 3.6875 C-0.58625 2.470625 -0.2975 1.25375 0 0 Z " fill="#777777" transform="translate(392,296)"/>
<path d="M0 0 C4.50090351 0.54506354 7.25724456 2.28887456 10.9375 4.875 C14.84724186 7.60929689 18.68555105 9.95529841 23 12 C22.01 12.495 22.01 12.495 21 13 C18.31821727 11.87490136 15.77497849 10.6883239 13.1875 9.375 C12.47529297 9.03082031 11.76308594 8.68664062 11.02929688 8.33203125 C6.54769087 6.08500955 3.34162666 3.74209666 0 0 Z " fill="#737373" transform="translate(115,278)"/>
<path d="M0 0 C2 1 4 2 6 3 C6 3.99 6 4.98 6 6 C4.92621094 6.04898437 3.85242188 6.09796875 2.74609375 6.1484375 C1.30987358 6.22353398 -0.12632319 6.29907876 -1.5625 6.375 C-2.26697266 6.4059375 -2.97144531 6.436875 -3.69726562 6.46875 C-8.41295741 6.72952558 -12.50385496 7.54658123 -17 9 C-13.879322 4.96147553 -9.38942822 4.33429202 -4.54296875 3.65625 C-2.36346303 3.40912494 -0.18530062 3.18830255 2 3 C1.34 2.01 0.68 1.02 0 0 Z " fill="#787878" transform="translate(339,253)"/>
<path d="M0 0 C0.99 0 1.98 0 3 0 C3.33 1.32 3.66 2.64 4 4 C3.67 4 3.34 4 3 4 C2.67 8.95 2.34 13.9 2 19 C0.35 19.33 -1.3 19.66 -3 20 C-2.01 19.67 -1.02 19.34 0 19 C0 12.73 0 6.46 0 0 Z " fill="#9A9A9A" transform="translate(309,234)"/>
<path d="M0 0 C0.66 0.33 1.32 0.66 2 1 C0.355285 2.69455485 -1.30520233 4.35630176 -3 6 C-3.55429687 6.53882813 -4.10859375 7.07765625 -4.6796875 7.6328125 C-8.34088318 11.00111252 -10.82968317 12.74778942 -16 13 C-11.3126338 7.82773385 -5.68271819 4.01074507 0 0 Z " fill="#7C7C7C" transform="translate(547,179)"/>
<path d="M0 0 C0.33 0 0.66 0 1 0 C1.06058594 0.69867188 1.12117188 1.39734375 1.18359375 2.1171875 C1.26738281 3.02726562 1.35117187 3.93734375 1.4375 4.875 C1.51871094 5.77992187 1.59992187 6.68484375 1.68359375 7.6171875 C1.86989285 10.01110861 1.86989285 10.01110861 3 12 C3.15004973 13.3734635 3.24838006 14.7528526 3.31640625 16.1328125 C3.35830078 16.93847656 3.40019531 17.74414062 3.44335938 18.57421875 C3.48267578 19.41597656 3.52199219 20.25773437 3.5625 21.125 C3.62727539 22.39923828 3.62727539 22.39923828 3.69335938 23.69921875 C3.79954236 25.79928223 3.90028497 27.89961948 4 30 C-0.53629719 25.46370281 -0.00468592 16.15410491 -0.125 9.9609375 C-0.125 6.63804637 -0.09086315 3.32155297 0 0 Z " fill="#626262" transform="translate(36,79)"/>
<path d="M0 0 C0 4.21226525 -2.37561148 5.97603335 -5.125 8.875 C-5.8365625 9.65037109 -5.8365625 9.65037109 -6.5625 10.44140625 C-9.82296629 13.93979846 -13.27388379 17.00362762 -17 20 C-17.66 19.67 -18.32 19.34 -19 19 C-18.375 17.1875 -18.375 17.1875 -17 15 C-16.1028125 14.5875 -15.205625 14.175 -14.28125 13.75 C-10.3510016 11.65386752 -8.00904866 9.13934418 -5.125 5.8125 C-4.62742187 5.25369141 -4.12984375 4.69488281 -3.6171875 4.11914062 C-2.40319268 2.75339646 -1.20041244 1.37769755 0 0 Z " fill="#646464" transform="translate(519,259)"/>
<path d="M0 0 C0.99 0.495 0.99 0.495 2 1 C2.625 4.0625 2.625 4.0625 3 7 C3.66 7 4.32 7 5 7 C5.95261487 11.76307437 6.08333357 16.1666528 6 21 C5.34 21 4.68 21 4 21 C2.57584088 14.01556007 1.25397873 7.01694482 0 0 Z " fill="#818181" transform="translate(408,239)"/>
<path d="M0 0 C4 1 4 1 5.4140625 2.92578125 C5.81367187 3.71339844 6.21328125 4.50101562 6.625 5.3125 C7.02976562 6.09238281 7.43453125 6.87226562 7.8515625 7.67578125 C8.23054688 8.44277344 8.60953125 9.20976563 9 10 C9.56847656 11.13501953 9.56847656 11.13501953 10.1484375 12.29296875 C10.42945313 12.85628906 10.71046875 13.41960937 11 14 C7.71573897 12.94434467 6.42848444 11.38339648 4.75 8.5 C3 5 3 5 3 3 C2.34 3 1.68 3 1 3 C1 6.3 1 9.6 1 13 C0.67 13 0.34 13 0 13 C0 8.71 0 4.42 0 0 Z " fill="#5A5A5A" transform="translate(35,62)"/>
<path d="M0 0 C0.33 0.66 0.66 1.32 1 2 C-0.07421875 4.3125 -0.07421875 4.3125 -1.6875 7 C-2.20699219 7.886875 -2.72648437 8.77375 -3.26171875 9.6875 C-5.07933398 12.10554093 -6.28333596 12.82371248 -9 14 C-10.01241685 15.32392972 -11.01439389 16.65599167 -12 18 C-12.66 18 -13.32 18 -14 18 C-13.6875 15.625 -13.6875 15.625 -13 13 C-10 11 -10 11 -6 11 C-5.34 8.69 -4.68 6.38 -4 4 C-3.34 4 -2.68 4 -2 4 C-1.34 2.68 -0.68 1.36 0 0 Z " fill="#A7A7A7" transform="translate(410,333)"/>
<path d="M0 0 C1 3 1 3 0.0625 5.1875 C-0.4634375 6.0846875 -0.4634375 6.0846875 -1 7 C-0.34 7.33 0.32 7.66 1 8 C-0.375 10.5 -0.375 10.5 -2 13 C-2.66 13 -3.32 13 -4 13 C-4 13.66 -4 14.32 -4 15 C-4.99 15.33 -5.98 15.66 -7 16 C-6.40165275 11.85701333 -4.99335715 8.81805623 -2.9375 5.1875 C-2.11572266 3.72376953 -2.11572266 3.72376953 -1.27734375 2.23046875 C-0.85582031 1.49441406 -0.43429687 0.75835937 0 0 Z " fill="#686868" transform="translate(419,325)"/>
<path d="M0 0 C-1.89192475 0.98669759 -3.78871978 1.9640602 -5.6875 2.9375 C-6.74324219 3.48277344 -7.79898437 4.02804688 -8.88671875 4.58984375 C-11.66234047 5.8470576 -14.00272126 6.56069569 -17 7 C-17 9.64 -17 12.28 -17 15 C-17.33 15 -17.66 15 -18 15 C-18 11.7 -18 8.4 -18 5 C-17.195625 4.7525 -16.39125 4.505 -15.5625 4.25 C-11.91341514 2.96961935 -8.52105391 1.40320942 -5.05078125 -0.29296875 C-3 -1 -3 -1 0 0 Z " fill="#6A6A6A" transform="translate(443,230)"/>
<path d="M0 0 C6.95638946 -0.40133016 13.40509232 0.6996962 20 3 C20.33 3.66 20.66 4.32 21 5 C13.42733125 5.5939348 7.12481267 3.43286286 0 1 C0 0.67 0 0.34 0 0 Z " fill="#303030" transform="translate(323,199)"/>
<path d="M0 0 C4.60189933 5.29218422 6.96585327 12.38902312 9 19 C6 18 6 18 4.90234375 16.36328125 C0 5.94331984 0 5.94331984 0 0 Z " fill="#6E6E6E" transform="translate(227,309)"/>
<path d="M0 0 C0.78375 0.04125 1.5675 0.0825 2.375 0.125 C2.75718767 1.78114657 3.08895102 3.44957024 3.375 5.125 C2.375 6.125 2.375 6.125 -0.1875 6.1875 C-1.3940625 6.1565625 -1.3940625 6.1565625 -2.625 6.125 C-3.285 4.805 -3.945 3.485 -4.625 2.125 C-2.625 0.125 -2.625 0.125 0 0 Z " fill="#9F9F9F" transform="translate(335.625,285.875)"/>
<path d="M0 0 C4.56454251 0.54339792 7.9728176 1.79463821 12 4 C10 5 10 5 6.875 4.0625 C5.92625 3.711875 4.9775 3.36125 4 3 C4 3.66 4 4.32 4 5 C4.66 5 5.32 5 6 5 C7.6875 7.375 7.6875 7.375 9 10 C8.67 10.66 8.34 11.32 8 12 C1.48063781 4.88610478 1.48063781 4.88610478 0 0 Z " fill="#656565" transform="translate(93,254)"/>
<path d="M0 0 C-0.4979837 3.73487777 -0.87491756 5.81237635 -3 9 C-5.125 9.6875 -5.125 9.6875 -7 10 C-7 8.02 -7 6.04 -7 4 C-6.34 4 -5.68 4 -5 4 C-5 3.34 -5 2.68 -5 2 C-2 0 -2 0 0 0 Z " fill="#A9A9A9" transform="translate(245,223)"/>
<path d="M0 0 C1.8125 0.0625 1.8125 0.0625 4 1 C5.8125 4.375 5.8125 4.375 7 8 C6.67 8.99 6.34 9.98 6 11 C4.80040625 9.74057614 3.61560557 8.46704714 2.4375 7.1875 C1.44556641 6.12595703 1.44556641 6.12595703 0.43359375 5.04296875 C-0.03949219 4.36878906 -0.51257813 3.69460938 -1 3 C-0.67 2.01 -0.34 1.02 0 0 Z " fill="#D0D0D0" transform="translate(218,346)"/>
<path d="M0 0 C0.66 0 1.32 0 2 0 C0.94636617 8.21107745 -2.05109645 14.77276143 -6 22 C-7 20 -7 20 -6.29296875 17.86328125 C-5.92816406 17.02152344 -5.56335938 16.17976563 -5.1875 15.3125 C-3.47896672 11.23558611 -2.13233987 7.26805028 -1 3 C-0.67 2.01 -0.34 1.02 0 0 Z " fill="#626262" transform="translate(401,319)"/>
<path d="M0 0 C1.67542976 0.28604898 3.34385343 0.61781233 5 1 C5 2.65 5 4.3 5 6 C3.34385343 6.38218767 1.67542976 6.71395102 0 7 C-1 6 -1 6 -1.125 3.5 C-1 1 -1 1 0 0 Z " fill="#A7A7A7" transform="translate(306,313)"/>
<path d="M0 0 C1.2065625 0.0309375 1.2065625 0.0309375 2.4375 0.0625 C2.81968767 1.71864657 3.15145102 3.38707024 3.4375 5.0625 C2.4375 6.0625 2.4375 6.0625 -0.125 6.125 C-1.3315625 6.0940625 -1.3315625 6.0940625 -2.5625 6.0625 C-2.94468767 4.40635343 -3.27645102 2.73792976 -3.5625 1.0625 C-2.5625 0.0625 -2.5625 0.0625 0 0 Z " fill="#A5A5A5" transform="translate(280.5625,285.9375)"/>
<path d="M0 0 C1.67542976 0.28604898 3.34385343 0.61781233 5 1 C5 2.65 5 4.3 5 6 C3.34385343 6.38218767 1.67542976 6.71395102 0 7 C-1 6 -1 6 -1.125 3.5 C-1 1 -1 1 0 0 Z " fill="#A6A6A6" transform="translate(306,258)"/>
<path d="M0 0 C2.72870404 2.72870404 2.88749276 5.1208197 3.6875 8.875 C3.95949219 10.10992187 4.23148438 11.34484375 4.51171875 12.6171875 C4.94294217 15.60470337 5.03786862 17.22770664 4 20 C1.44672896 13.16088115 -0.5644718 7.33813334 0 0 Z " fill="#6F6F6F" transform="translate(184,286)"/>
<path d="M0 0 C0.66 0.33 1.32 0.66 2 1 C-0.62368232 5.17845703 -3.24345739 8.72506542 -7 12 C-7.99 12 -8.98 12 -10 12 C-9.34 10.68 -8.68 9.36 -8 8 C-7.34 8 -6.68 8 -6 8 C-5.34 6.68 -4.68 5.36 -4 4 C-3.34 4 -2.68 4 -2 4 C-1.34 2.68 -0.68 1.36 0 0 Z " fill="#868686" transform="translate(552,96)"/>
<path d="M0 0 C0.66 0 1.32 0 2 0 C2 0.66 2 1.32 2 2 C3.1446875 2.0928125 3.1446875 2.0928125 4.3125 2.1875 C7.88086963 3.26630942 8.19243904 4.83676831 10 8 C11.65261839 9.02304948 13.31791365 10.02616054 15 11 C15.33 11.99 15.66 12.98 16 14 C10.64018405 12.53823201 7.68097132 8.90776102 4 5 C3.195625 4.21625 2.39125 3.4325 1.5625 2.625 C0 1 0 1 0 0 Z " fill="#565656" transform="translate(237,361)"/>
<path d="M0 0 C1.85649701 3.71299401 0.00499015 8.12443453 -1 12 C-1.88016543 14.42259125 -2.88601966 16.67076837 -4 19 C-5.28807507 15.13577478 -4.22968518 12.71025702 -3 9 C-2.73445313 8.18917969 -2.46890625 7.37835938 -2.1953125 6.54296875 C-1.472944 4.35866401 -0.74084851 2.17809461 0 0 Z " fill="#8B8B8B" transform="translate(420,305)"/>
<path d="M0 0 C3.93673644 1.31224548 6.22719294 2.91910327 9 6 C7.68 6 6.36 6 5 6 C5.99 7.485 5.99 7.485 7 9 C3.88801935 7.50163895 0.9465385 5.80066242 -2 4 C-1 2 -1 2 0 1 C0 0.67 0 0.34 0 0 Z " fill="#525252" transform="translate(357,210)"/>
<path d="M0 0 C1.46184058 0.22860058 2.91955419 0.48370392 4.375 0.75 C5.59316406 0.95882812 5.59316406 0.95882812 6.8359375 1.171875 C9 2 9 2 10.2890625 4.078125 C10.64097656 5.02945313 10.64097656 5.02945313 11 6 C6.64477147 5.49357808 3.55760365 4.61588503 0 2 C0 1.34 0 0.68 0 0 Z " fill="#7F7F7F" transform="translate(348,207)"/>
<path d="M0 0 C2.72957339 2.35735884 3.88893396 4.58133526 5 8 C5 8.99 5 9.98 5 11 C1.63279613 9.60667426 0.0140476 8.0210714 -2 5 C-1 3 -1 3 0 2 C0 1.34 0 0.68 0 0 Z " fill="#4B4B4B" transform="translate(177,308)"/>
<path d="M0 0 C1.32 0 2.64 0 4 0 C4 0.66 4 1.32 4 2 C4.66 2.0825 5.32 2.165 6 2.25 C9.99039163 3.24759791 13.38549643 5.07166683 17 7 C17 7.66 17 8.32 17 9 C10.83643195 7.3341708 5.51740344 4.12194714 0 1 C0 0.67 0 0.34 0 0 Z " fill="#666666" transform="translate(129,207)"/>
<path d="M0 0 C4.52276476 0.88488876 6.69309175 2.84340576 10 6 C10 6.99 10 7.98 10 9 C6.78956118 7.61811547 4.95063635 6.07578097 2.75 3.375 C2.22921875 2.74335938 1.7084375 2.11171875 1.171875 1.4609375 C0.78515625 0.97882813 0.3984375 0.49671875 0 0 Z " fill="#DCDCDC" transform="translate(365,218)"/>
<path d="M0 0 C0.66 0.33 1.32 0.66 2 1 C1.01 2.485 1.01 2.485 0 4 C-1.32 4 -2.64 4 -4 4 C-4 4.66 -4 5.32 -4 6 C-4.78375 6.268125 -5.5675 6.53625 -6.375 6.8125 C-9.28114923 7.84814432 -9.28114923 7.84814432 -11 11 C-11 9.68 -11 8.36 -11 7 C-8.6640625 5.04296875 -8.6640625 5.04296875 -5.625 3.1875 C-4.62726563 2.56230469 -3.62953125 1.93710938 -2.6015625 1.29296875 C-1.74304688 0.86628906 -0.88453125 0.43960938 0 0 Z " fill="#5F5F5F" transform="translate(409,204)"/>
<path d="M0 0 C0.66 0.33 1.32 0.66 2 1 C-0.226105 5.03481531 -3.03320804 6.06804839 -7.16015625 7.58203125 C-9 8 -9 8 -11 7 C-9.21475351 5.80286983 -7.4215972 4.61752721 -5.625 3.4375 C-4.62726563 2.77621094 -3.62953125 2.11492187 -2.6015625 1.43359375 C-1.74304688 0.96050781 -0.88453125 0.48742187 0 0 Z " fill="#7E7E7E" transform="translate(435,188)"/>
<path d="M0 0 C2.47223763 2.47223763 2.58009771 3.96806683 3.1875 7.375 C3.36667969 8.33148438 3.54585937 9.28796875 3.73046875 10.2734375 C3.98745577 12.87310329 3.81960325 14.54700305 3 17 C0.70657253 11.10261508 -0.34548714 6.33393082 0 0 Z " fill="#636363" transform="translate(169,278)"/>
<path d="M0 0 C3.32635882 1.52572656 4.95563002 2.93344504 7 6 C4.525 5.01 4.525 5.01 2 4 C2.33 7.3 2.66 10.6 3 14 C0.81005752 10.71508627 0.64722661 9.16904361 0.375 5.3125 C0.30023438 4.31863281 0.22546875 3.32476562 0.1484375 2.30078125 C0.09945312 1.54152344 0.05046875 0.78226563 0 0 Z " fill="#4C4C4C" transform="translate(53,167)"/>
<path d="M0 0 C0 0.66 0 1.32 0 2 C-0.99 2.33 -1.98 2.66 -3 3 C-4.02104551 3.97850195 -5.0206121 4.97980427 -6 6 C-9 8 -9 8 -11.1875 7.625 C-11.785625 7.41875 -12.38375 7.2125 -13 7 C-9.375 4 -9.375 4 -6 4 C-6 3.34 -6 2.68 -6 2 C-2.25 0 -2.25 0 0 0 Z " fill="#747474" transform="translate(531,192)"/>
<path d="M0 0 C0.66 0.33 1.32 0.66 2 1 C0.73657512 2.48549956 -0.5360103 3.96321189 -1.8125 5.4375 C-2.52019531 6.26121094 -3.22789062 7.08492188 -3.95703125 7.93359375 C-6 10 -6 10 -9 11 C-7.59155282 7.78475695 -5.89655214 5.67816132 -3.375 3.25 C-2.74335938 2.63640625 -2.11171875 2.0228125 -1.4609375 1.390625 C-0.73777344 0.70226562 -0.73777344 0.70226562 0 0 Z " fill="#8F8F8F" transform="translate(320,262)"/>
<path d="M0 0 C-0.33 0.66 -0.66 1.32 -1 2 C-3.06640625 2.6328125 -3.06640625 2.6328125 -5.5625 3.125 C-6.38878906 3.29257813 -7.21507812 3.46015625 -8.06640625 3.6328125 C-8.70449219 3.75398437 -9.34257812 3.87515625 -10 4 C-9 1 -9 1 -6.6875 -0.25 C-3.90126985 -1.0275526 -2.66561622 -0.98726527 0 0 Z " fill="#737373" transform="translate(274,205)"/>
<path d="M0 0 C1.98 0.66 3.96 1.32 6 2 C6 2.66 6 3.32 6 4 C6.598125 4.103125 7.19625 4.20625 7.8125 4.3125 C10 5 10 5 13 8 C10.03 7.01 7.06 6.02 4 5 C4 4.34 4 3.68 4 3 C2.68 2.67 1.36 2.34 0 2 C0 1.34 0 0.68 0 0 Z " fill="#696969" transform="translate(192,196)"/>
<path d="M0 0 C0.33 0.66 0.66 1.32 1 2 C1.66 2.33 2.32 2.66 3 3 C1.37660195 4.70884005 -0.29319053 6.37446717 -2 8 C-2.66 8 -3.32 8 -4 8 C-3.67 6.35 -3.34 4.7 -3 3 C-2.01 2.67 -1.02 2.34 0 2 C0 1.34 0 0.68 0 0 Z " fill="#545454" transform="translate(387,358)"/>
<path d="M0 0 C7.94758065 1.76612903 7.94758065 1.76612903 10.8125 5.125 C11.204375 5.74375 11.59625 6.3625 12 7 C11.443125 6.690625 10.88625 6.38125 10.3125 6.0625 C8.02746716 4.88121024 8.02746716 4.88121024 5.4375 4.625 C2.37531929 3.83982546 1.61716363 2.63853013 0 0 Z " fill="#949494" transform="translate(360,214)"/>
<path d="M0 0 C0.66 0.33 1.32 0.66 2 1 C1 4 1 4 -0.77734375 5.203125 C-1.49019531 5.54859375 -2.20304687 5.8940625 -2.9375 6.25 C-4.00291016 6.78367188 -4.00291016 6.78367188 -5.08984375 7.328125 C-6.03537109 7.66070312 -6.03537109 7.66070312 -7 8 C-7.66 7.67 -8.32 7.34 -9 7 C-6.03 4.69 -3.06 2.38 0 0 Z " fill="#7A7A7A" transform="translate(477,159)"/>
<path d="M0 0 C0.66 0 1.32 0 2 0 C2 0.66 2 1.32 2 2 C3.32 1.67 4.64 1.34 6 1 C6.99 3.64 7.98 6.28 9 9 C7.68 8.34 6.36 7.68 5 7 C5 6.34 5 5.68 5 5 C4.360625 4.731875 3.72125 4.46375 3.0625 4.1875 C1 3 1 3 0 0 Z " fill="#737373" transform="translate(64,161)"/>
<path d="M0 0 C-0.375 1.9375 -0.375 1.9375 -1 4 C-1.99 4.495 -1.99 4.495 -3 5 C-3 4.34 -3 3.68 -3 3 C-5.31 3.33 -7.62 3.66 -10 4 C-6.64877401 1.34213111 -4.39380802 0 0 0 Z " fill="#545454" transform="translate(523,254)"/>
<path d="M0 0 C0.33 1.32 0.66 2.64 1 4 C0.01 4.33 -0.98 4.66 -2 5 C-2.103125 5.763125 -2.20625 6.52625 -2.3125 7.3125 C-3 10 -3 10 -6 13 C-5.01 10.03 -4.02 7.06 -3 4 C-2.34 4 -1.68 4 -1 4 C-0.67 2.68 -0.34 1.36 0 0 Z " fill="#696969" transform="translate(225,242)"/>
<path d="M0 0 C4.8274799 1.41292095 8.7162359 3.42974154 13 6 C13 6.66 13 7.32 13 8 C7.73691968 6.58795406 4.2437012 4.31008693 0 1 C0 0.67 0 0.34 0 0 Z " fill="#5F5F5F" transform="translate(102,191)"/>
<path d="M0 0 C0.66 0.33 1.32 0.66 2 1 C0.02 3.31 -1.96 5.62 -4 8 C-5.32 7.67 -6.64 7.34 -8 7 C-5.36 4.69 -2.72 2.38 0 0 Z " fill="#848484" transform="translate(515,130)"/>
<path d="M0 0 C0.66 0 1.32 0 2 0 C2 1.65 2 3.3 2 5 C1.236875 5.28875 0.47375 5.5775 -0.3125 5.875 C-3.15029308 6.96269013 -3.15029308 6.96269013 -6 9 C-4.4722133 5.56247993 -2.49818944 2.81046312 0 0 Z " fill="#7A7A7A" transform="translate(560,87)"/>
<path d="M0 0 C0.66 0.33 1.32 0.66 2 1 C-1.0657052 5.65987191 -3.58657319 6.85485202 -9 8 C-6.14723863 5.06799526 -3.34920216 2.35684596 0 0 Z " fill="#6F6F6F" transform="translate(488,151)"/>
<path d="M0 0 C2.73704754 2.73704754 3.16182449 5.26044774 4 9 C3.625 11.4375 3.625 11.4375 3 13 C0.89172945 9.83759418 0.66182535 8.49342531 0.375 4.8125 C0.30023438 3.91144531 0.22546875 3.01039063 0.1484375 2.08203125 C0.09945312 1.39496094 0.05046875 0.70789063 0 0 Z " fill="#676767" transform="translate(173,295)"/>
<path d="M0 0 C2.64 0 5.28 0 8 0 C5.60490662 2.89932357 3.68754757 3.50168276 0 4 C0 2.68 0 1.36 0 0 Z " fill="#424242" transform="translate(273,202)"/>
<path d="M0 0 C0.95465783 2.16967689 1.14401212 3.56328793 0.3984375 5.82421875 C-0.35870385 7.5684743 -1.17609198 9.28627131 -2 11 C-2.66 11 -3.32 11 -4 11 C-3.48964169 6.6109185 -2.47785723 3.66291938 0 0 Z " fill="#E8E8E8" transform="translate(426,315)"/>
<path d="M0 0 C0.66 0.33 1.32 0.66 2 1 C1.01 1.33 0.02 1.66 -1 2 C-1 2.99 -1 3.98 -1 5 C-3.31 5.66 -5.62 6.32 -8 7 C-5.42215154 4.35247996 -3.08351902 2.05567935 0 0 Z " fill="#6D6D6D" transform="translate(466,167)"/>
<path d="M0 0 C1.65 0 3.3 0 5 0 C6.32 2.31 7.64 4.62 9 7 C5.18315774 5.44499019 2.80804268 2.96404505 0 0 Z " fill="#7B7B7B" transform="translate(73,170)"/>
<path d="M0 0 C1.32 0 2.64 0 4 0 C4 0.66 4 1.32 4 2 C4.928125 2.2165625 4.928125 2.2165625 5.875 2.4375 C8 3 8 3 10 4 C10 4.66 10 5.32 10 6 C5.56909529 4.79157144 3.01887244 3.48331435 0 0 Z " fill="#7B7B7B" transform="translate(105,244)"/>
<path d="M0 0 C2 1.8125 2 1.8125 4 4 C4 4.99 4 5.98 4 7 C0.83884224 5.63016497 0.0072908 5.0109362 -2 2 C-1.34 2 -0.68 2 0 2 C0 1.34 0 0.68 0 0 Z " fill="#434343" transform="translate(201,334)"/>
<path d="M0 0 C2.0625 0.4375 2.0625 0.4375 4 1 C3.67 1.66 3.34 2.32 3 3 C2.34 3 1.68 3 1 3 C1 4.65 1 6.3 1 8 C-0.5625 6.75 -0.5625 6.75 -2 5 C-1.74853421 2.86254078 -1.54074221 1.54074221 0 0 Z " fill="#828282" transform="translate(296,334)"/>
<path d="M0 0 C0.99 0 1.98 0 3 0 C3 3 3 3 1.625 4.6875 C0 6 0 6 -2 6 C-1.125 1.125 -1.125 1.125 0 0 Z " fill="#393939" transform="translate(436,313)"/>
<path d="M0 0 C0.66 0.33 1.32 0.66 2 1 C0.35 2.98 -1.3 4.96 -3 7 C-4.32 6.67 -5.64 6.34 -7 6 C-4.69 4.02 -2.38 2.04 0 0 Z " fill="#929292" transform="translate(251,280)"/>
<path d="M0 0 C0.33 0.66 0.66 1.32 1 2 C0.67 2.99 0.34 3.98 0 5 C1.32 5.33 2.64 5.66 4 6 C2.35 6.33 0.7 6.66 -1 7 C-1.625 4.625 -1.625 4.625 -2 2 C-1.34 1.34 -0.68 0.68 0 0 Z " fill="#7A7A7A" transform="translate(269,256)"/>
<path d="M0 0 C0.6875 1.8125 0.6875 1.8125 1 4 C-0.4375 5.75 -0.4375 5.75 -2 7 C-2.99 6.67 -3.98 6.34 -5 6 C-3.35 4.02 -1.7 2.04 0 0 Z " fill="#9D9D9D" transform="translate(301,230)"/>
<path d="M0 0 C0 0.66 0 1.32 0 2 C-1.65 2.33 -3.3 2.66 -5 3 C-5.33 3.99 -5.66 4.98 -6 6 C-7.32 5.67 -8.64 5.34 -10 5 C-8.71186658 4.16121545 -7.41936744 3.32913217 -6.125 2.5 C-5.40570312 2.0359375 -4.68640625 1.571875 -3.9453125 1.09375 C-2 0 -2 0 0 0 Z " fill="#666666" transform="translate(518,200)"/>
<path d="M0 0 C2 3 2 3 2 5 C1.34 5 0.68 5 0 5 C0 5.66 0 6.32 0 7 C-0.99 7.33 -1.98 7.66 -3 8 C-2.45276317 4.62537285 -1.9451 2.91765 0 0 Z " fill="#3F3F3F" transform="translate(415,333)"/>
<path d="M0 0 C-0.56371414 3.26954202 -1.49962266 4.82575883 -4 7 C-4 5.02 -4 3.04 -4 1 C-2 0 -2 0 0 0 Z " fill="#E9E9E9" transform="translate(242,226)"/>
<path d="M0 0 C0.928125 0.20625 1.85625 0.4125 2.8125 0.625 C1.8125 2.625 1.8125 2.625 -1.25 3.75 C-2.7040625 4.183125 -2.7040625 4.183125 -4.1875 4.625 C-4.8475 3.635 -5.5075 2.645 -6.1875 1.625 C-3.1875 -0.375 -3.1875 -0.375 0 0 Z " fill="#505050" transform="translate(266.1875,207.375)"/>
<path d="M0 0 C0.66 0 1.32 0 2 0 C2 0.66 2 1.32 2 2 C3.65 2.33 5.3 2.66 7 3 C7 3.99 7 4.98 7 6 C2.32307692 4.52307692 2.32307692 4.52307692 0.6875 1.875 C0.460625 1.25625 0.23375 0.6375 0 0 Z " fill="#929292" transform="translate(237,361)"/>
<path d="M0 0 C2.83374881 3.20336822 3.5205537 5.78087253 4 10 C3.01 9.67 2.02 9.34 1 9 C0.67 6.03 0.34 3.06 0 0 Z " fill="#676767" transform="translate(197,326)"/>
<path d="M0 0 C0.66 0.33 1.32 0.66 2 1 C-0.57404971 4.86107457 -2.61020259 4.94319692 -7 6 C-4.74259377 3.66475218 -2.7194239 1.81294927 0 0 Z " fill="#6A6A6A" transform="translate(456,174)"/>
<path d="" fill="#191919" transform="translate(0,0)"/>
<path d="" fill="#1E1E1E" transform="translate(0,0)"/>
</svg>
