<?xml version="1.0" standalone="no"?>
<!DOCTYPE svg PUBLIC "-//W3C//DTD SVG 20010904//EN"
 "http://www.w3.org/TR/2001/REC-SVG-20010904/DTD/svg10.dtd">
<svg version="1.0" xmlns="http://www.w3.org/2000/svg"
 width="512.000000pt" height="512.000000pt" viewBox="0 0 512.000000 512.000000"
 preserveAspectRatio="xMidYMid meet">

<g transform="translate(0.000000,512.000000) scale(0.100000,-0.100000)"
fill="#000000" stroke="none">
<path d="M2430 4954 c-247 -32 -485 -123 -665 -256 -164 -121 -338 -333 -418
-508 -83 -182 -116 -322 -123 -520 -9 -222 29 -422 115 -606 l38 -81 -102 -6
c-56 -4 -130 -16 -166 -27 -142 -44 -275 -156 -336 -282 -26 -52 -239 -731
-474 -1503 -28 -93 -63 -208 -77 -255 -21 -68 -26 -106 -26 -190 -1 -141 30
-233 115 -347 l40 -53 -71 0 c-62 0 -74 -3 -95 -25 -33 -32 -33 -78 0 -110
l24 -25 2351 0 2351 0 24 25 c33 32 33 78 0 110 -21 22 -33 25 -95 25 l-70 0
39 50 c85 108 126 235 119 375 -4 82 -19 137 -161 600 -344 1124 -395 1284
-426 1343 -37 69 -113 150 -186 198 -89 59 -219 94 -352 94 l-62 0 39 83 c138
295 157 674 49 987 -115 334 -358 610 -674 768 -180 89 -353 132 -560 137 -71
2 -146 1 -165 -1z m320 -173 c30 -8 25 -9 -36 -10 -160 -2 -355 -54 -517 -138
-219 -113 -397 -287 -522 -510 -26 -45 -60 -94 -76 -108 -36 -29 -99 -48 -134
-39 -29 7 -29 10 12 109 156 377 527 652 949 705 76 10 269 4 324 -9z m-428
-587 c60 -20 124 -74 115 -97 -9 -23 -39 -21 -83 5 -27 16 -53 22 -100 22 -81
0 -144 -37 -189 -108 -40 -66 -43 -159 -6 -223 44 -77 -6 -104 -59 -31 -106
146 -56 349 105 424 60 28 149 32 217 8z m685 -22 c46 -24 110 -91 128 -136
35 -84 26 -190 -22 -264 -31 -48 -51 -58 -70 -39 -12 12 -10 21 12 63 23 42
26 59 23 120 -4 87 -34 139 -104 180 -70 41 -135 43 -213 9 -43 -20 -65 -25
-72 -18 -20 20 -4 47 42 76 79 48 191 52 276 9z m623 -55 c154 -335 147 -710
-22 -1039 -82 -160 -164 -257 -374 -441 -183 -160 -361 -376 -487 -590 -83
-142 -103 -166 -145 -184 -71 -30 -128 7 -193 125 -46 85 -118 195 -187 287
-32 42 -37 52 -18 35 44 -39 191 -225 263 -333 l65 -99 30 29 c16 15 41 48 55
73 164 288 335 503 556 697 148 132 201 185 255 258 101 138 175 291 219 455
20 76 26 127 30 260 6 193 -8 298 -61 453 -18 53 -31 97 -29 97 2 0 22 -37 43
-83z m-1372 -40 c2 -10 -3 -17 -12 -17 -18 0 -29 16 -21 31 9 14 29 6 33 -14z
m697 4 c49 -22 72 -48 58 -62 -7 -7 -22 -2 -48 15 -48 33 -102 34 -155 4 -46
-27 -63 -18 -30 17 42 45 111 55 175 26z m-747 -8 c5 -17 -26 -29 -40 -15 -6
6 -7 15 -3 22 9 14 37 9 43 -7z m112 -9 c0 -8 -9 -14 -20 -14 -19 0 -27 19
-14 33 10 9 34 -4 34 -19z m-170 -14 c0 -5 -11 -26 -25 -46 -31 -46 -33 -107
-5 -149 23 -35 25 -45 7 -45 -21 0 -44 30 -57 75 -14 48 -2 107 31 149 20 25
49 35 49 16z m890 -70 c0 -11 -7 -20 -15 -20 -8 0 -15 9 -15 20 0 11 7 20 15
20 8 0 15 -9 15 -20z m-701 -49 c107 -79 125 -86 221 -86 96 0 114 7 221 86
71 52 109 61 141 32 31 -28 22 -65 -33 -137 -70 -94 -92 -146 -92 -226 0 -81
21 -132 92 -219 60 -75 68 -119 26 -147 -34 -22 -58 -14 -142 50 -85 64 -127
80 -208 80 -81 0 -119 -15 -216 -84 -45 -33 -91 -60 -102 -60 -28 0 -67 39
-67 66 0 13 23 53 51 89 71 93 93 146 93 225 0 79 -22 132 -93 226 -54 71 -61
96 -35 132 25 37 67 29 143 -27z m711 -11 c0 -11 -7 -20 -15 -20 -8 0 -15 9
-15 20 0 11 7 20 15 20 8 0 15 -9 15 -20z m-10 -54 c0 -18 -16 -29 -30 -21
-13 8 -1 35 16 35 8 0 14 -6 14 -14z m-1606 -96 c60 -36 73 -77 80 -250 7
-182 30 -308 80 -442 20 -53 36 -99 36 -103 0 -3 -14 -5 -31 -3 -29 3 -37 12
-80 92 -78 147 -124 310 -136 481 -6 89 3 245 14 245 3 0 20 -9 37 -20z m645
-304 c9 -11 6 -24 -14 -61 -30 -57 -34 -148 -9 -200 26 -56 83 -104 142 -121
61 -18 105 -13 169 18 74 37 105 -9 36 -54 -53 -34 -98 -48 -158 -48 -226 0
-356 242 -234 434 30 47 48 56 68 32z m1041 -28 c66 -90 74 -193 24 -295 -78
-161 -280 -202 -431 -87 -36 27 -41 45 -19 63 11 9 24 6 61 -14 55 -29 144
-34 198 -11 39 16 91 66 114 110 26 48 23 141 -5 199 -13 26 -21 54 -18 62 10
28 45 16 76 -27z m-70 -128 c17 -64 -24 -170 -66 -170 -20 0 -17 14 11 56 31
45 32 97 4 143 -11 18 -17 41 -14 50 5 13 10 12 30 -12 14 -15 29 -45 35 -67z
m-937 44 c9 -10 -4 -34 -19 -34 -8 0 -14 9 -14 20 0 19 19 27 33 14z m-15 -71
c-2 -10 -10 -18 -18 -18 -8 0 -16 8 -18 18 -2 12 3 17 18 17 15 0 20 -5 18
-17z m12 -57 c0 -21 -21 -31 -30 -15 -5 7 -6 17 -4 21 9 14 34 9 34 -6z m41
-58 c40 -30 127 -32 158 -4 25 23 61 15 40 -10 -31 -37 -103 -57 -157 -42 -46
13 -92 45 -92 64 0 20 16 17 51 -8z m689 -34 c0 -16 -26 -19 -35 -4 -3 6 -4
14 0 20 8 13 35 1 35 -16z m110 1 c0 -8 -7 -15 -15 -15 -8 0 -15 7 -15 15 0 8
7 15 15 15 8 0 15 -7 15 -15z m-50 -10 c0 -8 -9 -15 -20 -15 -11 0 -20 7 -20
15 0 8 9 15 20 15 11 0 20 -7 20 -15z m-1361 -380 c34 -41 108 -114 164 -163
226 -197 408 -411 541 -635 50 -85 66 -121 66 -150 0 -109 83 -177 218 -177
70 0 119 21 135 59 7 17 34 44 59 61 25 17 53 42 62 55 l16 25 217 0 217 0
343 342 c252 252 346 352 354 378 7 19 40 65 75 103 35 37 64 74 64 82 0 25
19 17 65 -29 62 -62 79 -102 155 -349 l67 -218 -354 -352 c-195 -194 -367
-360 -382 -369 -55 -35 -138 -48 -311 -48 -275 0 -309 -16 -555 -264 -254
-254 -265 -279 -265 -588 l0 -189 -912 3 -913 3 -88 44 c-100 49 -141 91 -190
191 -29 58 -32 73 -32 155 0 78 6 108 44 225 23 74 50 160 60 190 l17 55 102
3 c114 3 112 4 87 -67 l-14 -41 302 0 c276 0 305 2 332 19 17 10 75 80 129
155 130 180 128 179 261 192 65 6 73 9 111 48 37 37 43 50 59 131 16 80 27
216 28 360 1 115 -65 180 -261 255 -117 45 -150 54 -227 59 -49 3 -95 10 -102
14 -7 4 -26 34 -44 67 -54 102 -126 140 -266 140 l-85 0 7 28 c18 75 109 180
192 222 70 35 143 48 274 49 l116 1 62 -75z m205 41 c37 -49 32 -56 -9 -16
-19 19 -35 38 -35 42 0 18 19 6 44 -26z m2171 13 c4 -6 -17 -32 -46 -59 l-54
-49 -139 -1 -140 0 26 28 c13 15 35 42 47 60 l22 32 139 0 c88 0 141 -4 145
-11z m-2878 -453 c1 -1 -61 -207 -139 -458 l-140 -455 -101 -6 c-56 -4 -102
-5 -103 -4 -2 1 49 169 112 372 63 204 128 414 145 467 l30 97 97 -6 c53 -3
98 -6 99 -7z m3554 -986 c164 -536 173 -569 172 -645 -1 -167 -95 -302 -256
-369 -52 -21 -55 -21 -957 -21 l-905 -1 805 6 805 5 63 23 c71 25 123 56 177
103 109 96 172 280 146 425 -6 32 -68 245 -138 472 l-126 413 -301 -299 c-166
-164 -317 -308 -336 -319 -78 -46 -126 -55 -345 -62 l-210 -6 -70 -33 c-60
-29 -93 -56 -232 -195 -132 -133 -167 -174 -193 -227 l-31 -65 3 80 c5 122 24
153 207 336 167 167 205 192 307 209 33 6 127 10 210 10 177 0 244 15 340 79
34 22 190 170 369 350 170 171 312 307 316 303 4 -4 85 -261 180 -572z"/>
<path d="M2630 3705 c-26 -32 13 -81 48 -59 34 22 22 74 -18 74 -10 0 -23 -7
-30 -15z"/>
</g>
</svg>
