<?xml version="1.0" encoding="UTF-8"?>
<svg version="1.1" xmlns="http://www.w3.org/2000/svg" width="860" height="860">
<path d="M0 0 C2.9375 1.75 2.9375 1.75 5 4 C5 5.32 5 6.64 5 8 C5.8533342 7.99333817 6.7066684 7.98667633 7.58586121 7.97981262 C15.63400417 7.91966168 23.68207147 7.87400534 31.73038769 7.84456348 C35.86796356 7.82891818 40.00535343 7.80770083 44.14282227 7.77368164 C48.13691851 7.74104741 52.13083602 7.72313844 56.12505531 7.71536827 C57.64767584 7.70983203 59.17028675 7.699021 60.69283104 7.68280983 C62.8282307 7.66098086 64.9628951 7.65803526 67.09838867 7.65942383 C68.3130632 7.65276199 69.52773773 7.64610016 70.77922058 7.63923645 C74.33499725 8.03752346 76.16816564 8.8490445 79 11 C81.34168764 14.51253146 81.49623677 15.86469356 81 20 C79.20006226 22.69990662 77.916227 24.5418865 75 26 C72.78397356 26.09195619 70.56509793 26.11750018 68.34716797 26.11352539 C67.32260498 26.11374443 67.32260498 26.11374443 66.27734375 26.1139679 C64.0155929 26.11327023 61.753924 26.10548465 59.4921875 26.09765625 C57.92562912 26.09579155 56.35907016 26.09436789 54.79251099 26.09336853 C50.66610102 26.08954743 46.53972616 26.0797206 42.41333008 26.06866455 C38.20394363 26.0584417 33.99455153 26.05386903 29.78515625 26.04882812 C21.52341958 26.03809798 13.2617182 26.02050446 5 26 C5 32.93 5 39.86 5 47 C8.3 47 11.6 47 15 47 C19.37962299 49.18981149 22.39404749 51.84977934 25 56 C25.38387712 58.32555239 25.7228513 60.65932827 26 63 C35.28440811 63.07790928 44.5673458 63.10727925 53.8520298 63.07515812 C58.16373446 63.06175651 62.47408933 63.06489923 66.78564453 63.10620117 C70.94900996 63.14546907 75.1102495 63.14082097 79.27363205 63.10607719 C80.85961559 63.10049013 82.44573621 63.11056947 84.03151321 63.13676643 C92.72906121 63.58295366 92.72906121 63.58295366 100.24565125 60.03883362 C101.77458371 57.74849806 102.87834352 55.50780792 104 53 C105.71109674 50.78475686 107.58800604 48.79442322 109.5625 46.8125 C110.06773193 46.30420654 110.57296387 45.79591309 111.09350586 45.2722168 C119.25914162 37.47427852 129.33680333 33.86505107 140.50366211 33.80712891 C141.80676834 33.79486267 141.80676834 33.79486267 143.13619995 33.78234863 C146.01657427 33.75750373 148.89689909 33.74097498 151.77734375 33.7265625 C153.25669497 33.71857698 153.25669497 33.71857698 154.76593208 33.71043015 C159.99279121 33.68369406 165.2196265 33.66432634 170.4465332 33.64990234 C174.75794869 33.63659951 179.0688868 33.6088151 183.38012695 33.56787109 C188.59672853 33.51833274 193.8128993 33.49375444 199.02972603 33.48667526 C201.00990054 33.47999495 202.99006668 33.46485773 204.97010612 33.44078445 C222.51606189 33.23974669 234.26798025 36.58100634 247.1875 48.875 C256 57.91346154 256 57.91346154 256 63 C280.09 63 304.18 63 329 63 C329.33 60.69 329.66 58.38 330 56 C332.08315058 51.02358471 335.09660465 49.10145515 340 47 C343.3 47 346.6 47 350 47 C350 40.07 350 33.14 350 26 C347.8753833 26.02618408 345.7507666 26.05236816 343.56176758 26.0793457 C336.5370754 26.16224488 329.51236145 26.21744349 322.48730946 26.25906086 C318.22849945 26.28513973 313.97019117 26.32050551 309.71166992 26.37719727 C305.6008328 26.43157963 301.49047782 26.46143341 297.3793087 26.47438622 C295.8119822 26.48361508 294.24468168 26.50163749 292.67756081 26.52865028 C290.47953192 26.56502658 288.28348721 26.56994225 286.08520508 26.56762695 C284.83500076 26.57873001 283.58479645 26.58983307 282.29670715 26.60127258 C278.08798027 25.83366055 276.64365967 24.29060516 274 21 C272.875 18.0625 272.875 18.0625 273 15 C274.7667738 12.02073438 276.857576 9.571212 280 8 C282.21602644 7.90804381 284.43490207 7.88249982 286.65283203 7.88647461 C287.67739502 7.88625557 287.67739502 7.88625557 288.72265625 7.8860321 C290.9844071 7.88672977 293.246076 7.89451535 295.5078125 7.90234375 C297.07437088 7.90420845 298.64092984 7.90563211 300.20748901 7.90663147 C304.33389898 7.91045257 308.46027384 7.9202794 312.58666992 7.93133545 C316.79605637 7.9415583 321.00544847 7.94613097 325.21484375 7.95117188 C333.47657862 7.96190202 341.73828495 7.97897358 350 8 C350.13277344 7.21238281 350.26554687 6.42476563 350.40234375 5.61328125 C351 3 351 3 352.5625 1.1875 C356.05947274 -0.51615338 359.18229666 -0.72120884 363 0 C365.96858157 2.20740681 366.82865791 3.48597373 368 7 C368.8533342 7.00586624 369.7066684 7.01173248 370.58586121 7.01777649 C378.63421881 7.07571976 386.68229939 7.14780584 394.73038769 7.23571491 C398.86784601 7.28041111 403.00520603 7.31966875 407.14282227 7.34643555 C411.13710423 7.37247624 415.13100779 7.41288368 419.12505531 7.46318626 C420.64759928 7.47984988 422.1702087 7.49136733 423.69283104 7.49761391 C425.82841886 7.50726088 427.96303975 7.53532493 430.09838867 7.56762695 C431.3130632 7.57873001 432.52773773 7.58983307 433.77922058 7.60127258 C437.94059686 8.11644441 440.7646462 9.42773153 443.375 12.75 C444.32835544 16.18207959 443.91654656 18.57822616 443 22 C440.283434 24.79739769 438.61885481 25.90144223 434.74125671 26.51898193 C433.50881729 26.52786438 432.27637787 26.53674683 431.0065918 26.54589844 C429.98137169 26.56140495 429.98137169 26.56140495 428.93544006 26.57722473 C426.68979045 26.60658159 424.4450449 26.60815028 422.19921875 26.609375 C420.63693022 26.6243616 419.07465751 26.64108976 417.5124054 26.65948486 C413.41070821 26.70311739 409.30922473 26.72314818 405.20733643 26.73822021 C401.01765325 26.75780624 396.82820036 26.79977451 392.63867188 26.83984375 C384.42581337 26.91510163 376.21312163 26.96334979 368 27 C368 33.27 368 39.54 368 46 C370.97 46.33 373.94 46.66 377 47 C382.28294713 49.79099094 386.0860914 53.2582742 388 59 C388.25296037 63.58922445 388.27095175 68.18084876 388.29516602 72.77612305 C388.30662772 74.28793745 388.32698655 75.79971326 388.35668945 77.3112793 C388.56388406 87.86431432 387.78935899 96.20450978 381.875 105.25 C373.8153913 112.95919093 365.86973157 115.57349513 354.87890625 115.34765625 C346.98630056 114.64026259 341.10062026 111.00072972 336 105 C335.29875 104.236875 334.5975 103.47375 333.875 102.6875 C330.30317343 97.56788192 328.81843002 92.99406251 328.921875 86.73046875 C328.9331543 85.84125732 328.94443359 84.9520459 328.95605469 84.03588867 C328.97055664 83.36404541 328.98505859 82.69220215 329 82 C328.4323291 82.08975098 327.8646582 82.17950195 327.27978516 82.27197266 C315.52876494 84.12181959 303.77101956 85.90320285 291.9921875 87.56640625 C291.04558258 87.70028748 290.09897766 87.8341687 289.12368774 87.97210693 C284.34827963 88.64672929 279.57226366 89.31664828 274.79541016 89.98095703 C273.01984161 90.23068651 271.24428756 90.48051907 269.46875 90.73046875 C268.64277313 90.843871 267.81679626 90.95727325 266.96578979 91.07411194 C262.85704447 91.5933967 262.85704447 91.5933967 259 93 C258.22738495 94.56259223 257.50572865 96.15060558 256.8125 97.75 C253.76629413 104.02160032 250.29889618 106.84838533 243.77734375 109.125 C242.86082031 109.41375 241.94429688 109.7025 241 110 C241.66644531 110.76441406 242.33289063 111.52882813 243.01953125 112.31640625 C248.27651018 118.40338386 253.33609751 124.59887723 258.125 131.0625 C258.59784424 131.69293213 259.07068848 132.32336426 259.55786133 132.97290039 C262.90172624 137.54660763 262.90172624 137.54660763 263.46435547 140.14233398 C263.64111816 140.75536377 263.81788086 141.36839355 264 142 C265.99054876 142.69437747 267.99255385 143.35610218 270 144 C275.02548271 147.41732824 278.17866935 151.1343813 280 157 C280.97855587 163.31211481 281.1485498 169.59137766 281.14526367 175.96679688 C281.15030159 177.39548851 281.15030159 177.39548851 281.15544128 178.8530426 C281.16487462 181.97495864 281.16689027 185.09682064 281.16796875 188.21875 C281.17118566 190.40393088 281.17455006 192.58911155 281.17805481 194.77429199 C281.18402632 199.34351094 281.18589665 203.91271102 281.18530273 208.48193359 C281.185201 214.3223843 281.19887345 220.16271373 281.21607494 226.00313568 C281.22721683 230.51227367 281.2292213 235.02138249 281.22869301 239.53053284 C281.22986904 241.68339965 281.23426954 243.83626732 281.24202538 245.98912048 C281.25187338 249.00390034 281.24892868 252.01841864 281.24291992 255.03320312 C281.24853943 255.91242935 281.25415894 256.79165558 281.25994873 257.69752502 C281.21030783 267.54841272 279.46516076 275.36339956 273 283 C266.99833977 288.65752834 260.20280638 290.24652573 252.03067017 290.26069641 C251.36542025 290.26452196 250.70017033 290.26834751 250.01476133 290.27228898 C247.80484311 290.28253649 245.59518874 290.27864272 243.38525391 290.2746582 C241.79293072 290.27900927 240.20060963 290.28419374 238.60829163 290.29014587 C234.29623218 290.30350507 229.98426056 290.30411795 225.67218447 290.30158257 C222.06646313 290.30051071 218.46075941 290.30540179 214.85504186 290.310188 C206.34507954 290.32127267 197.83516136 290.32172653 189.32519531 290.31567383 C180.55978316 290.30963508 171.79453156 290.3219449 163.02914679 290.3432439 C155.49091275 290.36088436 147.95272971 290.36685738 140.4144758 290.36360615 C135.91778913 290.36179695 131.42121699 290.36439314 126.9245491 290.37832069 C122.69406527 290.39093416 118.46383093 290.38892182 114.23335075 290.37590981 C112.68584418 290.37355207 111.13831986 290.37624979 109.59083366 290.38453293 C98.41509053 290.44001256 89.23279887 289.96664555 80.7265625 281.96875 C76.08584348 276.67707039 73.88643006 270.50652143 73.85955811 263.51741028 C73.85384796 262.62460358 73.84813782 261.73179687 73.84225464 260.81193542 C73.84057785 259.35392265 73.84057785 259.35392265 73.83886719 257.86645508 C73.83390228 256.83669556 73.82893738 255.80693604 73.82382202 254.74597168 C73.80921046 251.33715141 73.80239941 247.9283777 73.796875 244.51953125 C73.79112195 242.1478424 73.78536423 239.77615355 73.77960205 237.40446472 C73.76909439 232.42873925 73.76325043 227.45302993 73.75976562 222.47729492 C73.75428681 216.11314822 73.73027067 209.7492161 73.70179367 203.3851366 C73.68313339 198.48395676 73.67795984 193.5828282 73.67642975 188.68161583 C73.67340947 186.33615638 73.66540213 183.9906977 73.65224457 181.64527321 C73.63511645 178.35685734 73.63708125 175.06896043 73.64355469 171.78051758 C73.6343399 170.81863022 73.62512512 169.85674286 73.6156311 168.8657074 C73.66129022 161.43037187 74.7001839 153.74436282 79.9375 148.0625 C80.42089844 147.51722656 80.90429688 146.97195312 81.40234375 146.41015625 C84.21017431 143.93185104 86.23969262 143 90 143 C90.23847656 142.29746094 90.47695313 141.59492188 90.72265625 140.87109375 C92.22554565 137.4930396 94.14845681 134.966838 96.4375 132.0625 C96.87054443 131.50981445 97.30358887 130.95712891 97.74975586 130.38769531 C98.67533927 129.20778716 99.60356076 128.02994451 100.53417969 126.85400391 C102.05316208 124.93275935 103.56266617 123.00436888 105.0703125 121.07421875 C112.76605225 111.23394775 112.76605225 111.23394775 114 110 C113.33613281 109.76925781 112.67226563 109.53851563 111.98828125 109.30078125 C103.39416156 106.12660274 99.1309574 102.10891637 95 94 C95 93.34 95 92.68 95 92 C93.7315625 91.85304688 92.463125 91.70609375 91.15625 91.5546875 C77.3360047 89.90878619 63.57460539 87.94457561 49.8125 85.875 C48.91966309 85.74107849 48.02682617 85.60715698 47.10693359 85.46917725 C44.53585258 85.08284197 41.9651139 84.69432384 39.39453125 84.3046875 C38.23489616 84.12981812 38.23489616 84.12981812 37.05183411 83.95141602 C33.34756087 83.38608351 29.66619615 82.77664815 26 82 C26.0825 83.258125 26.165 84.51625 26.25 85.8125 C26.25 92.73910657 23.84735971 98.92106714 20.3125 104.8125 C12.77923914 111.93855757 5.3526805 115.49173361 -5.05078125 115.50195312 C-13.87512663 115.21977929 -21.04559262 111.481065 -27.0625 105.125 C-32.0131571 99.30514356 -33.46458892 92.43877547 -33.3984375 84.9921875 C-33.40130768 84.26307159 -33.40417786 83.53395569 -33.40713501 82.78274536 C-33.40916039 81.25505793 -33.40373838 79.72734364 -33.39111328 78.19970703 C-33.37498913 75.87343127 -33.3910366 73.54888008 -33.41015625 71.22265625 C-33.40817445 69.72916287 -33.40433209 68.23567056 -33.3984375 66.7421875 C-33.40451019 66.05454315 -33.41058289 65.3668988 -33.4168396 64.65841675 C-33.34062949 59.38433651 -32.10575821 55.25578679 -28.46484375 51.35546875 C-21.88225102 46.32172137 -21.90382119 47 -12 47 C-12 40.07 -12 33.14 -12 26 C-15.1414856 26.03927612 -15.1414856 26.03927612 -18.34643555 26.0793457 C-25.27134102 26.16224871 -32.1962686 26.217445 -39.12153912 26.25906086 C-43.31981881 26.28513862 -47.51758945 26.32050223 -51.71557617 26.37719727 C-55.76805932 26.43158381 -59.82005333 26.46143425 -63.87287331 26.47438622 C-65.41787223 26.48361434 -66.96284483 26.50163536 -68.50763512 26.52865028 C-70.67453914 26.56503239 -72.83943076 26.56994204 -75.0065918 26.56762695 C-76.23903122 26.57873001 -77.47147064 26.58983307 -78.74125671 26.60127258 C-82.91252897 25.83162876 -84.36572598 24.2482338 -87 21 C-88 18.5 -88 18.5 -88 16 C-86.33289819 12.31482759 -84.46532333 10.05859682 -81 8 C-77.8994751 7.63923645 -77.8994751 7.63923645 -74.21191406 7.65942383 C-73.20154335 7.65876671 -73.20154335 7.65876671 -72.17076111 7.65809631 C-69.95208396 7.66018054 -67.73416957 7.68349301 -65.515625 7.70703125 C-63.97434909 7.71262854 -62.43306783 7.71689801 -60.89178467 7.71989441 C-56.84089344 7.73133282 -52.79032639 7.76079111 -48.73956299 7.79400635 C-44.60376368 7.82472902 -40.46791185 7.83840443 -36.33203125 7.85351562 C-28.22120562 7.885662 -20.11064317 7.93684593 -12 8 C-11.86851562 7.21238281 -11.73703125 6.42476563 -11.6015625 5.61328125 C-11 3 -11 3 -9.375 1.1875 C-6.01623433 -0.49188284 -3.71022229 -0.45564133 0 0 Z " fill="#1B2222" transform="translate(253,82)"/>
<path d="M0 0 C0.99386719 0.3403125 1.98773437 0.680625 3.01171875 1.03125 C20.79666298 7.77176664 33.85986899 21.4946287 41.64453125 38.6171875 C48.99498482 57.30047296 47.68290594 77.39963946 39.875 95.6875 C38.62217887 98.47739302 37.32104066 101.24183312 36 104 C35.68853027 104.65564941 35.37706055 105.31129883 35.05615234 105.98681641 C26.57301871 123.56742462 15.11135246 139.57621766 3.5625 155.25 C2.99039795 156.0330249 2.4182959 156.8160498 1.82885742 157.62280273 C-0.61332164 160.93203183 -3.05543362 164.13577892 -5.87109375 167.13671875 C-12.34561831 174.37889365 -12.8085396 180.12046882 -12.46044922 189.49975586 C-12.33780566 191.66846808 -12.1733058 193.8347473 -12 196 C-10.79988281 196.03738281 -9.59976563 196.07476563 -8.36328125 196.11328125 C49.08435493 198.24010823 49.08435493 198.24010823 65.734375 214.51171875 C69.46427861 218.89780911 70.64553869 223.04440295 70.3984375 228.69921875 C69.49560629 233.91262645 66.96830906 237.46712622 62.828125 240.69140625 C56.91367536 244.44915371 50.66970789 246.92979197 44 249 C42.92492187 249.33902344 41.84984375 249.67804688 40.7421875 250.02734375 C20.98363164 255.78120892 -0.07503853 257.22702731 -20.5625 257.25 C-21.27533142 257.25133942 -21.98816284 257.25267883 -22.72259521 257.25405884 C-48.41626706 257.24369877 -85.35984446 256.90776326 -105.9453125 239.33984375 C-109.63423689 235.42815823 -111.65867135 231.39919865 -112 226 C-111.78706529 221.16730796 -110.25592586 217.86861761 -107 214.3125 C-102.80379092 210.50562991 -98.20303291 208.16288868 -93 206 C-91.7625 205.47792969 -91.7625 205.47792969 -90.5 204.9453125 C-74.56064548 198.96805455 -55.91220997 196.76630432 -38.9375 196.9375 C-38.07189453 196.94201172 -37.20628906 196.94652344 -36.31445312 196.95117188 C-34.20960461 196.96280087 -32.10479242 196.98072927 -30 197 C-29.31839094 180.25337851 -29.31839094 180.25337851 -37.15234375 166.08203125 C-37.60593262 165.60459473 -38.05952148 165.1271582 -38.52685547 164.63525391 C-41.5306152 161.30095117 -44.10494267 157.62008949 -46.75 154 C-47.64211182 152.79053711 -47.64211182 152.79053711 -48.55224609 151.55664062 C-68.15382727 124.80377117 -92.93054525 90.32236943 -88.3125 55.375 C-84.78728295 36.138054 -75.47569418 19.52493507 -59.37890625 8.07421875 C-41.43300157 -2.94228459 -20.25672494 -7.02610879 0 0 Z " fill="#1A2121" transform="translate(641,517)"/>
<path d="M0 0 C15.13652784 12.98476653 22.79119398 28.83086945 25 48.45703125 C26.25971318 79.75303062 5.59136401 108.39952675 -12.375 132.125 C-13.26203613 133.29820801 -13.26203613 133.29820801 -14.16699219 134.49511719 C-31.84359568 157.77073045 -31.84359568 157.77073045 -38.375 162.125 C-42.50932739 162.67624365 -45.34045079 162.20132984 -48.71484375 159.6640625 C-52.75807406 155.91575017 -56.01211012 151.47339268 -59.375 147.125 C-59.95072754 146.39039551 -60.52645508 145.65579102 -61.11962891 144.89892578 C-110.89391468 81.33469397 -110.89391468 81.33469397 -107.375 42.125 C-104.69997574 24.50889673 -94.92005941 8.76681653 -80.71875 -1.86328125 C-55.76911168 -18.60391501 -24.05871421 -18.43029942 0 0 Z " fill="#E8EDEE" transform="translate(208.375,478.875)"/>
<path d="M0 0 C2.32839846 2.15129433 4.58944533 4.28637111 6.74609375 6.61328125 C7.2771875 7.13921875 7.80828125 7.66515625 8.35546875 8.20703125 C16.85539176 17.08305705 21.65654122 28.61892067 23.74609375 40.61328125 C23.89949219 41.48082031 24.05289063 42.34835938 24.2109375 43.2421875 C28.51416319 75.68560818 5.73607525 105.88042813 -12.25390625 130.61328125 C-12.83640137 131.42039551 -13.41889648 132.22750977 -14.01904297 133.05908203 C-31.46564827 157.21915226 -31.46564827 157.21915226 -36.25390625 159.61328125 C-39.4634247 160.05380339 -42.02552595 160.276889 -44.953125 158.6953125 C-50.18775736 154.53445088 -53.87490267 148.98989199 -57.76953125 143.62304688 C-60.15877168 140.38814109 -62.62967206 137.21663009 -65.0871582 134.03344727 C-72.19843551 124.79844008 -79.13615985 115.5404577 -85.25390625 105.61328125 C-85.74375 104.81954102 -86.23359375 104.02580078 -86.73828125 103.20800781 C-99.74344673 81.88951564 -108.79983722 59.60296217 -103.19140625 34.17578125 C-98.01878909 17.28658477 -87.66011868 2.84339181 -72.3046875 -6.10546875 C-49.00337248 -18.27824279 -20.59182128 -17.55559811 0 0 Z " fill="#E7ECED" transform="translate(769.25390625,182.38671875)"/>
<path d="M0 0 C0.84049393 0.00037766 1.68098785 0.00075531 2.54695129 0.00114441 C3.88628975 0.03985405 3.88628975 0.03985405 5.25268555 0.0793457 C6.1778447 0.08642044 7.10300385 0.09349518 8.05619812 0.1007843 C11.00143432 0.1286988 13.94474602 0.19143138 16.8894043 0.25512695 C18.89002782 0.28021365 20.89068124 0.30302617 22.89135742 0.32348633 C27.78727746 0.37851587 32.68176497 0.46476794 37.5769043 0.56762695 C37.57832932 1.1829277 37.57975433 1.79822845 37.58122253 2.43217468 C37.60091946 8.84032688 37.6551931 15.24752653 37.72949219 21.65527344 C37.75267944 24.04615442 37.76706958 26.43713766 37.77246094 28.828125 C37.78174468 32.26668066 37.82272598 35.70362639 37.86987305 39.1418457 C37.8659404 40.20972824 37.86200775 41.27761078 37.85795593 42.37785339 C37.96417102 48.48655398 37.96417102 48.48655398 40.91186523 53.73144531 C45.71831475 57.04303443 50.97469765 56.81616337 56.63891602 56.05688477 C62.22986746 54.64541252 66.43200637 50.34937673 70.5769043 46.56762695 C72.23551686 45.22428786 73.89965738 43.88762633 75.5769043 42.56762695 C78.35608687 43.71240191 80.45575219 45.23943606 82.72143555 47.16918945 C90.60702606 53.76323057 95.82051885 56.80440581 106.3347168 56.44262695 C110.60406174 55.2904182 111.93070927 54.13810029 114.5769043 50.56762695 C115.33148731 46.76438644 115.29817921 43.0096107 115.28393555 39.1418457 C115.30661751 37.48775444 115.30661751 37.48775444 115.32975769 35.80024719 C115.37267763 32.28499979 115.38147734 28.77061042 115.3894043 25.25512695 C115.41254509 22.86903636 115.43790954 20.48296623 115.46557617 18.09692383 C115.52847104 12.25381677 115.56337111 6.41104559 115.5769043 0.56762695 C121.6274955 0.49345891 127.67782195 0.43901608 133.72875977 0.40283203 C135.78707488 0.38774745 137.84535788 0.36727708 139.90356445 0.34130859 C142.86246673 0.3049111 145.82094397 0.28789729 148.7800293 0.2746582 C150.15992035 0.25143242 150.15992035 0.25143242 151.56768799 0.22773743 C152.4282782 0.22751083 153.28886841 0.22728424 154.17553711 0.22705078 C154.93054504 0.22038895 155.68555298 0.21372711 156.46343994 0.2068634 C159.23559093 0.68006326 160.5174448 1.66802502 162.5769043 3.56762695 C163.08026886 5.59665585 163.08026886 5.59665585 163.08483887 7.96360779 C163.09611816 8.86226562 163.10739746 9.76092346 163.11901855 10.68681335 C163.11092163 11.67027237 163.10282471 12.65373138 163.09448242 13.66699219 C163.1014917 14.70463715 163.10850098 15.7422821 163.11572266 16.81137085 C163.13336334 20.2499244 163.121657 23.68765842 163.1081543 27.1262207 C163.11084765 29.51131855 163.11472877 31.89641532 163.11975098 34.2815094 C163.12565445 39.28429603 163.11705618 44.28679728 163.09838867 49.28955078 C163.07561141 55.70704362 163.08870973 62.12386691 163.11267853 68.54133511 C163.12712385 73.46809444 163.12253602 78.39469473 163.11216736 83.32145882 C163.10949595 85.68778627 163.1127843 88.05412809 163.12208557 90.42043877 C163.13222853 93.72697125 163.1167798 97.03241586 163.09448242 100.33886719 C163.10257935 101.32030197 163.11067627 102.30173676 163.11901855 103.31291199 C163.10773926 104.21438965 163.09645996 105.11586731 163.08483887 106.04466248 C163.08333076 106.82613364 163.08182266 107.60760481 163.08026886 108.41275692 C162.35066145 111.53615746 161.14851121 112.68044441 158.5769043 114.56762695 C155.55025482 115.07099152 155.55025482 115.07099152 151.93469238 115.07556152 C151.26847791 115.08180149 150.60226344 115.08804145 149.91586065 115.0944705 C147.68467607 115.11041875 145.45458125 115.09779033 143.22338867 115.08520508 C141.62339134 115.09062543 140.02339901 115.0977476 138.42341614 115.10644531 C134.07835738 115.1246921 129.73367821 115.11760566 125.38861275 115.10492897 C120.84341527 115.09480828 116.2982505 115.10419206 111.75305176 115.11047363 C104.11989501 115.11775276 96.48689302 115.1081554 88.85375977 115.08911133 C80.02633115 115.06734204 71.19927206 115.07439323 62.3718524 115.09641695 C54.79551894 115.11456342 47.21929679 115.11713297 39.64294863 115.10666227 C35.11673709 115.10042318 30.5906993 115.09960308 26.0644989 115.11280823 C21.80935539 115.1243552 17.55468873 115.11636242 13.29959679 115.0932312 C11.73710103 115.08793789 10.17456521 115.08946855 8.61208534 115.09828186 C6.48055223 115.10919732 4.3505514 115.09552518 2.21911621 115.07556152 C0.4294128 115.07329937 0.4294128 115.07329937 -1.39644623 115.07099152 C-5.03302563 114.46618901 -6.17480439 113.42446454 -8.4230957 110.56762695 C-9.56589755 108.28202325 -9.5581485 106.99135687 -9.57699585 104.45048523 C-9.58559631 103.58830383 -9.59419678 102.72612244 -9.60305786 101.83781433 C-9.60731781 100.88973404 -9.61157776 99.94165375 -9.6159668 98.96484375 C-9.62414429 97.96796539 -9.63232178 96.97108704 -9.64074707 95.94400024 C-9.66562221 92.6349549 -9.68212181 89.32595249 -9.6965332 86.0168457 C-9.70185688 84.88856668 -9.70718056 83.76028767 -9.71266556 82.59781837 C-9.73940529 76.62690535 -9.75877831 70.65601331 -9.77319336 64.68505859 C-9.78985068 58.5108798 -9.83463576 52.3372338 -9.8855648 46.16325665 C-9.91918262 41.4217923 -9.9307648 36.68045531 -9.93642044 31.93888283 C-9.94314712 29.66265601 -9.95840567 27.38643799 -9.98231125 25.11032677 C-10.01384978 21.92597094 -10.01401622 18.74306407 -10.0065918 15.55859375 C-10.02299713 14.61658615 -10.03940247 13.67457855 -10.05630493 12.70402527 C-10.01350748 8.22469644 -9.87504391 6.18534107 -7.16307068 2.47866821 C-4.40021065 0.55166539 -3.29200762 -0.04972821 0 0 Z " fill="#E8EDEE" transform="translate(353.423095703125,239.432373046875)"/>
<path d="M0 0 C10.50467892 9.96015993 16.55990053 23.89437427 17 38.25 C16.16671759 71.30353559 -11.18046939 103.16521713 -30.02246094 128.18603516 C-31.16493229 129.73714974 -32.24389959 131.33459938 -33.3125 132.9375 C-33.9725 132.9375 -34.6325 132.9375 -35.3125 132.9375 C-36.57080078 131.57421875 -36.57080078 131.57421875 -38.0078125 129.625 C-38.82233887 128.52466431 -38.82233887 128.52466431 -39.65332031 127.40209961 C-40.24209961 126.58878174 -40.83087891 125.77546387 -41.4375 124.9375 C-42.05206055 124.09388916 -42.66662109 123.25027832 -43.29980469 122.38110352 C-87.90247 60.61796077 -87.90247 60.61796077 -85.3125 30.9375 C-82.12016951 16.77958587 -75.35718567 4.42461626 -63.3125 -4.0625 C-42.75675977 -16.02503861 -18.8314781 -14.83920474 0 0 Z " fill="#E7ECED" transform="translate(654.3125,543.0625)"/>
<path d="M0 0 C15.13652784 12.98476653 22.79119398 28.83086945 25 48.45703125 C26.25971318 79.75303062 5.59136401 108.39952675 -12.375 132.125 C-13.26203613 133.29820801 -13.26203613 133.29820801 -14.16699219 134.49511719 C-31.84359568 157.77073045 -31.84359568 157.77073045 -38.375 162.125 C-42.50932739 162.67624365 -45.34045079 162.20132984 -48.71484375 159.6640625 C-52.75807406 155.91575017 -56.01211012 151.47339268 -59.375 147.125 C-59.95072754 146.39039551 -60.52645508 145.65579102 -61.11962891 144.89892578 C-110.89391468 81.33469397 -110.89391468 81.33469397 -107.375 42.125 C-104.69997574 24.50889673 -94.92005941 8.76681653 -80.71875 -1.86328125 C-55.76911168 -18.60391501 -24.05871421 -18.43029942 0 0 Z M-81.375 22.125 C-90.30644203 33.0979145 -91.77989231 45.916108 -90.70019531 59.54296875 C-89.82162438 66.5187692 -87.33860908 72.7951501 -84.375 79.125 C-84.04822266 79.8257666 -83.72144531 80.5265332 -83.38476562 81.24853516 C-78.11937123 92.26825343 -71.53562888 102.26123371 -64.375 112.125 C-63.80523437 112.91261719 -63.23546875 113.70023438 -62.6484375 114.51171875 C-56.09659416 123.54532093 -49.49299075 132.52593665 -42.375 141.125 C-38.44042631 139.81347544 -37.48678661 137.99633069 -35 134.6875 C-34.35405884 133.82946777 -34.35405884 133.82946777 -33.69506836 132.95410156 C-32.24519376 131.01819675 -30.80918115 129.07255546 -29.375 127.125 C-28.60325439 126.08351807 -28.60325439 126.08351807 -27.81591797 125.02099609 C0.35320254 87.84116626 0.35320254 87.84116626 7.625 43.125 C5.93677498 34.12775371 2.45697016 27.13577264 -3.375 20.125 C-3.89835937 19.48949219 -4.42171875 18.85398437 -4.9609375 18.19921875 C-13.0206481 9.33353709 -24.63072159 3.55618544 -36.54296875 2.8125 C-55.25706426 2.09380207 -68.88374683 8.0905384 -81.375 22.125 Z " fill="#192121" transform="translate(208.375,478.875)"/>
<path d="M0 0 C2.32839846 2.15129433 4.58944533 4.28637111 6.74609375 6.61328125 C7.2771875 7.13921875 7.80828125 7.66515625 8.35546875 8.20703125 C16.85539176 17.08305705 21.65654122 28.61892067 23.74609375 40.61328125 C23.89949219 41.48082031 24.05289063 42.34835938 24.2109375 43.2421875 C28.51416319 75.68560818 5.73607525 105.88042813 -12.25390625 130.61328125 C-12.83640137 131.42039551 -13.41889648 132.22750977 -14.01904297 133.05908203 C-31.46564827 157.21915226 -31.46564827 157.21915226 -36.25390625 159.61328125 C-39.4634247 160.05380339 -42.02552595 160.276889 -44.953125 158.6953125 C-50.18775736 154.53445088 -53.87490267 148.98989199 -57.76953125 143.62304688 C-60.15877168 140.38814109 -62.62967206 137.21663009 -65.0871582 134.03344727 C-72.19843551 124.79844008 -79.13615985 115.5404577 -85.25390625 105.61328125 C-85.74375 104.81954102 -86.23359375 104.02580078 -86.73828125 103.20800781 C-99.74344673 81.88951564 -108.79983722 59.60296217 -103.19140625 34.17578125 C-98.01878909 17.28658477 -87.66011868 2.84339181 -72.3046875 -6.10546875 C-49.00337248 -18.27824279 -20.59182128 -17.55559811 0 0 Z M-77.25390625 19.61328125 C-86.87783273 32.03359392 -88.60477796 44.30448692 -87.25390625 59.61328125 C-82.39505871 89.16363077 -58.12663749 115.78503582 -40.25390625 138.61328125 C-35.74941226 134.40457955 -32.18869653 129.71420609 -28.56640625 124.73828125 C-27.94991211 123.89475098 -27.33341797 123.0512207 -26.69824219 122.18212891 C0.15074149 86.70672104 0.15074149 86.70672104 7.74609375 44.61328125 C5.0252795 30.79664639 -1.46069684 18.78881637 -13.25390625 10.61328125 C-34.95586209 -2.53572986 -60.02033048 0.65038472 -77.25390625 19.61328125 Z " fill="#1A2122" transform="translate(769.25390625,182.38671875)"/>
<path d="M0 0 C0.80732574 -0.00511093 1.61465149 -0.01022186 2.44644165 -0.01548767 C5.10255446 -0.02933309 7.75840628 -0.0284306 10.41455078 -0.02612305 C12.27011206 -0.03001298 14.12567244 -0.03434826 15.98123169 -0.03910828 C19.86642343 -0.0465598 23.75152428 -0.04628712 27.63671875 -0.04101562 C32.60194599 -0.03522486 37.56679973 -0.0521477 42.53196526 -0.0753603 C46.36339473 -0.09013241 50.19473499 -0.09096457 54.0261879 -0.08785057 C55.85611841 -0.08836211 57.68605413 -0.09356835 59.51595688 -0.10366249 C62.08119323 -0.11607615 64.64571161 -0.10920587 67.2109375 -0.09765625 C67.95821106 -0.10529999 68.70548462 -0.11294373 69.47540283 -0.12081909 C78.22862387 -0.03423539 85.33644921 3.36537909 91.73486328 9.2746582 C96.00570057 14.17856208 99.98061696 19.0361322 100.00048828 25.7512207 C100.00306641 26.5865332 100.00564453 27.4218457 100.00830078 28.2824707 C100.00056641 29.14614258 99.99283203 30.00981445 99.98486328 30.8996582 C99.99259766 31.77106445 100.00033203 32.6424707 100.00830078 33.5402832 C100.00572266 34.37301758 100.00314453 35.20575195 100.00048828 36.0637207 C99.99823242 36.82378418 99.99597656 37.58384766 99.99365234 38.36694336 C99.73486328 40.2746582 99.73486328 40.2746582 97.73486328 42.2746582 C95.47412682 42.52075386 95.47412682 42.52075386 92.59701538 42.51516724 C91.50884018 42.51791656 90.42066498 42.52066589 89.29951477 42.52349854 C88.10046005 42.51630798 86.90140533 42.50911743 85.66601562 42.50170898 C84.40751297 42.50200104 83.14901031 42.50229309 81.85237122 42.50259399 C78.39593156 42.50316916 74.93962998 42.49138845 71.48322248 42.47744608 C67.87306888 42.46496597 64.26291232 42.46377037 60.65274048 42.46139526 C53.81395318 42.45517247 46.97522963 42.4387509 40.13647044 42.41869628 C32.35181693 42.39636209 24.56716042 42.38535011 16.78248286 42.37530541 C0.76657232 42.35438533 -15.24927407 42.31919389 -31.26513672 42.2746582 C-31.30911528 39.21720858 -31.34129819 36.16039669 -31.36669922 33.1027832 C-31.38031494 32.24056152 -31.39393066 31.37833984 -31.40795898 30.48999023 C-31.46442282 21.42971602 -29.04443308 15.50970665 -22.90185547 8.84106445 C-16.04720514 2.28088598 -9.54208284 -0.03146416 0 0 Z " fill="#E8EDEF" transform="translate(396.26513671875,131.725341796875)"/>
<path d="M0 0 C1.01771484 0.00451172 2.03542969 0.00902344 3.08398438 0.01367188 C5.57688509 0.02537563 8.06966074 0.04177152 10.5625 0.0625 C10.72685547 1.11050781 10.72685547 1.11050781 10.89453125 2.1796875 C11.05308594 3.08976563 11.21164062 3.99984375 11.375 4.9375 C11.52582031 5.84242188 11.67664063 6.74734375 11.83203125 7.6796875 C12.39301301 10.40662478 12.39301301 10.40662478 15.5625 12.0625 C20.89718429 12.44714895 20.89718429 12.44714895 25.5625 10.0625 C26.36048218 7.64642583 26.36048218 7.64642583 26.75 4.9375 C26.90855469 4.02742187 27.06710937 3.11734375 27.23046875 2.1796875 C27.34003906 1.48101563 27.44960938 0.78234375 27.5625 0.0625 C33.56369193 0.00126335 39.56128639 0.00818466 45.5625 0.0625 C46.69558594 0.06636719 47.82867188 0.07023438 48.99609375 0.07421875 C57.03391986 0.36522619 64.62360352 2.04473829 72.4375 3.875 C73.50814697 4.12330566 74.57879395 4.37161133 75.68188477 4.62744141 C81.79930757 6.13013412 87.05240287 8.00207256 92.5625 11.0625 C91.5625 14.0625 91.5625 14.0625 88.7109375 15.5625 C87.45984683 16.07908921 86.20133618 16.57792763 84.9375 17.0625 C84.25727783 17.32522705 83.57705566 17.5879541 82.8762207 17.85864258 C75.90663476 20.44900133 68.91300151 21.98227427 61.5625 23.0625 C60.68851563 23.19785156 59.81453125 23.33320312 58.9140625 23.47265625 C45.25708632 25.52675429 31.72826254 26.35306479 17.9375 26.375 C16.88724136 26.38024185 16.88724136 26.38024185 15.81576538 26.3855896 C5.58647411 26.4139997 -4.32112101 25.54821033 -14.4375 24.0625 C-15.49453125 23.91127686 -16.5515625 23.76005371 -17.640625 23.60424805 C-47.22736411 19.20415627 -47.22736411 19.20415627 -53.4375 12.0625 C-38.02636195 2.41811038 -17.86171424 -0.15107501 0 0 Z " fill="#E7EBEC" transform="translate(600.4375,730.9375)"/>
<path d="M0 0 C7.38406121 4.2705879 11.7411238 10.2947476 15.5 17.8125 C16.24628785 27.5355645 16.78248754 36.7436666 10.5 44.8125 C5.51781072 50.18344327 0.18905478 54.31470914 -7.234375 55.31640625 C-17.25639977 55.6521255 -23.7364728 54.08446837 -31.33203125 47.13671875 C-38.24358388 39.82157181 -39.07054833 32.20020276 -38.84765625 22.44140625 C-38.09494904 14.58449611 -34.45618698 7.9968269 -28.5 2.8125 C-19.86011057 -3.38125014 -9.70286377 -4.54821739 0 0 Z " fill="#161D1E" transform="translate(631.5,556.1875)"/>
<path d="M0 0 C5.44828588 2.49539811 9.07303228 6.19816096 11.65234375 11.6484375 C13.84915328 18.1909008 13.44988378 25.23129097 10.609375 31.5 C8.02856039 36.08076212 4.67571873 39.5598343 0.828125 43.109375 C-1.84202548 45.68808197 -4.11483093 48.43079956 -6.453125 51.3125 C-4.66455078 51.36857422 -4.66455078 51.36857422 -2.83984375 51.42578125 C-1.273406 51.49144032 0.29299884 51.55788768 1.859375 51.625 C2.64505859 51.64755859 3.43074219 51.67011719 4.24023438 51.69335938 C4.99755859 51.72880859 5.75488281 51.76425781 6.53515625 51.80078125 C7.57990112 51.84005737 7.57990112 51.84005737 8.64575195 51.88012695 C11.07665289 52.43298756 12.00453686 53.3889363 13.546875 55.3125 C13.9453125 57.25 13.9453125 57.25 13.921875 59.3125 C13.93347656 60.3334375 13.93347656 60.3334375 13.9453125 61.375 C13.42664521 63.89714682 12.52308807 64.69432092 10.546875 66.3125 C7.62876203 66.5986263 4.92861052 66.70896919 2.01171875 66.67578125 C0.76002647 66.67652901 0.76002647 66.67652901 -0.51695251 66.67729187 C-2.27963647 66.6749526 -4.04232384 66.6652327 -5.80493164 66.64868164 C-8.50892854 66.6250585 -11.21194157 66.62812533 -13.91601562 66.63476562 C-15.62761007 66.62918988 -17.33920035 66.62208065 -19.05078125 66.61328125 C-19.86225113 66.61419266 -20.67372101 66.61510406 -21.50978088 66.61604309 C-27.22208937 66.54353563 -27.22208937 66.54353563 -29.453125 64.3125 C-30.33889185 60.09530915 -30.45902292 55.99109216 -28.203125 52.2265625 C-26.37327322 50.15103617 -24.44043843 48.23759551 -22.453125 46.3125 C-20.9842592 44.6970142 -19.52634491 43.07151965 -18.078125 41.4375 C-15.69629005 38.79374505 -13.30957296 36.1548136 -10.9140625 33.5234375 C-10.10195313 32.62882812 -9.28984375 31.73421875 -8.453125 30.8125 C-7.710625 29.9978125 -6.968125 29.183125 -6.203125 28.34375 C-3.78912066 25.54178067 -3.29890832 23.93372555 -3.265625 20.3125 C-3.25144531 19.61125 -3.23726562 18.91 -3.22265625 18.1875 C-3.28800177 16.06725062 -3.28800177 16.06725062 -5.453125 14.3125 C-8.41058992 13.72904524 -8.41058992 13.72904524 -11.453125 14.3125 C-13.74913026 17.16271343 -14.63607653 19.80443868 -15.453125 23.3125 C-17.59889137 23.33935938 -19.74475145 23.35883088 -21.890625 23.375 C-23.08558594 23.38660156 -24.28054688 23.39820313 -25.51171875 23.41015625 C-28.453125 23.3125 -28.453125 23.3125 -29.453125 22.3125 C-30.00848379 15.98140985 -29.12102014 11.56681605 -25.453125 6.3125 C-18.45441557 -1.0791851 -9.79133452 -2.74406827 0 0 Z " fill="#141C1C" transform="translate(737.453125,205.6875)"/>
<path d="M0 0 C15.18 0 30.36 0 46 0 C46 12.87 46 25.74 46 39 C39.74761103 35.4272063 35.34752032 31.87817505 30.16015625 27.046875 C26.74466465 24.83461592 24.96141551 24.25124271 20.9831543 24.50683594 C17.3417948 25.41235683 15.02360417 27.69877098 12.375 30.25 C11.3021738 31.23731107 10.22667154 32.22172266 9.1484375 33.203125 C8.68614746 33.64301758 8.22385742 34.08291016 7.74755859 34.53613281 C5.32503748 36.5653919 2.62939754 38.2470683 0 40 C0 26.8 0 13.6 0 0 Z " fill="#E5E9EB" transform="translate(407,240)"/>
<path d="M0 0 C3.02770963 2.05066467 4.90940709 4.65599074 7 7.625 C7.57959473 8.388125 8.15918945 9.15125 8.75634766 9.9375 C9.94522853 11.50574165 11.12059881 13.08431747 12.28222656 14.67285156 C14.41366593 17.56041269 16.64906277 20.35471114 18.89453125 23.15380859 C25 30.76752144 25 30.76752144 25 32 C5.53 32 -13.94 32 -34 32 C-34 22.76 -34 13.52 -34 4 C-31.69 3.896875 -29.38 3.79375 -27 3.6875 C-22.71278154 3.4510523 -18.72073838 3.20598012 -14.75 1.4375 C-9.95957616 -0.6836715 -5.12977142 -0.96876488 0 0 Z " fill="#E7ECEE" transform="translate(472,191)"/>
<path d="M0 0 C4.71163201 0.0605025 8.35750535 0.53897527 12.68359375 2.46875 C18.96273727 5.26275116 18.96273727 5.26275116 30.87109375 5.53125 C30.87109375 14.44125 30.87109375 23.35125 30.87109375 32.53125 C11.73109375 32.53125 -7.40890625 32.53125 -27.12890625 32.53125 C-23.75768718 26.91255156 -23.75768718 26.91255156 -21.45703125 24.296875 C-20.71247681 23.44198486 -20.71247681 23.44198486 -19.95288086 22.56982422 C-19.43346924 21.97959473 -18.91405762 21.38936523 -18.37890625 20.78125 C-10.58359008 11.91225147 -10.58359008 11.91225147 -3.73046875 2.3203125 C-2.12890625 0.53125 -2.12890625 0.53125 0 0 Z " fill="#E9EEEF" transform="translate(391.12890625,190.46875)"/>
<path d="M0 0 C0.87785156 -0.00515625 1.75570312 -0.0103125 2.66015625 -0.015625 C4.9375 0.25 4.9375 0.25 6.9375 2.25 C7.20492554 4.86204529 7.20492554 4.86204529 7.22802734 8.21264648 C7.2471669 10.08985634 7.2471669 10.08985634 7.26669312 12.00498962 C7.26975033 13.37702277 7.27197833 14.74905798 7.2734375 16.12109375 C7.279862 17.52352537 7.28659009 18.92595563 7.29360962 20.3283844 C7.3055941 23.26981718 7.30928924 26.21113241 7.30810547 29.15258789 C7.30790217 32.92359907 7.33520917 36.69385752 7.36964989 40.46469021 C7.3918768 43.36175505 7.39594433 46.2586375 7.39488602 49.15577888 C7.39724816 50.54607807 7.40610622 51.93638181 7.42155075 53.32659721 C7.44112236 55.27028603 7.43287296 57.21419501 7.42333984 59.15795898 C7.42618988 60.26445297 7.42903992 61.37094696 7.43197632 62.51097107 C6.9375 65.25 6.9375 65.25 5.03213501 67.10365295 C2.79876244 68.32592797 1.46575571 68.682562 -1.0625 68.6875 C-1.7225 68.70683594 -2.3825 68.72617187 -3.0625 68.74609375 C-6.18290711 67.97208652 -7.15160589 66.86065469 -9.0625 64.25 C-9.62842785 60.91070469 -9.52718034 57.61267107 -9.453125 54.234375 C-9.44746521 53.26340881 -9.44180542 52.29244263 -9.43597412 51.29205322 C-9.41360311 48.19419831 -9.36340473 45.09750467 -9.3125 42 C-9.29243597 39.89845422 -9.27418503 37.79689028 -9.2578125 35.6953125 C-9.2137358 30.5464283 -9.14470258 25.39841097 -9.0625 20.25 C-9.64773437 20.57484375 -10.23296875 20.8996875 -10.8359375 21.234375 C-13.99786107 22.67665593 -16.63421593 22.50394697 -20.0625 22.25 C-22.0625 20.25 -22.0625 20.25 -22.61328125 16.4609375 C-22.54727092 13.92040074 -22.41095225 12.67670352 -20.79052734 10.69238281 C-19.00895911 9.27476868 -17.19104812 8.06448959 -15.25 6.875 C-14.60740234 6.45089844 -13.96480469 6.02679688 -13.30273438 5.58984375 C-11.57157384 4.45248025 -9.81797166 3.34946886 -8.0625 2.25 C-4.81167327 0.08278218 -3.77017847 -0.02221018 0 0 Z " fill="#1A2121" transform="translate(170.0625,502.75)"/>
<path d="M0 0 C8.25 0 16.5 0 25 0 C25.10807762 4.20902296 25.1873684 8.41526202 25.25 12.625 C25.30027344 14.40970703 25.30027344 14.40970703 25.3515625 16.23046875 C25.47320088 27.11710408 25.47320088 27.11710408 21 32 C20.443125 32.61875 19.88625 33.2375 19.3125 33.875 C15.55699178 35.702004 12.07321491 35.86256316 8 35 C4.07635973 32.68512503 1.45026592 30.35079777 0 26 C-0.08291953 24.0079697 -0.10738177 22.01326287 -0.09765625 20.01953125 C-0.09443359 18.85615234 -0.09121094 17.69277344 -0.08789062 16.49414062 C-0.07951172 15.27919922 -0.07113281 14.06425781 -0.0625 12.8125 C-0.05798828 11.58595703 -0.05347656 10.35941406 -0.04882812 9.09570312 C-0.03703076 6.06378135 -0.01909514 3.0318846 0 0 Z " fill="#E8EDEE" transform="translate(599,145)"/>
<path d="M0 0 C8.25 0 16.5 0 25 0 C25.10807762 4.20902296 25.1873684 8.41526202 25.25 12.625 C25.30027344 14.40970703 25.30027344 14.40970703 25.3515625 16.23046875 C25.47320088 27.11710408 25.47320088 27.11710408 21 32 C20.443125 32.61875 19.88625 33.2375 19.3125 33.875 C15.55699178 35.702004 12.07321491 35.86256316 8 35 C4.07635973 32.68512503 1.45026592 30.35079777 0 26 C-0.08291953 24.0079697 -0.10738177 22.01326287 -0.09765625 20.01953125 C-0.09443359 18.85615234 -0.09121094 17.69277344 -0.08789062 16.49414062 C-0.07951172 15.27919922 -0.07113281 14.06425781 -0.0625 12.8125 C-0.05798828 11.58595703 -0.05347656 10.35941406 -0.04882812 9.09570312 C-0.03703076 6.06378135 -0.01909514 3.0318846 0 0 Z " fill="#E8EDEF" transform="translate(237,145)"/>
<path d="M0 0 C2.58455285 1.89533875 2.96275506 2.88826517 4 6 C4.28396542 9.95358196 4.2775766 13.91235775 4.3125 17.875 C4.34150391 18.96425781 4.37050781 20.05351562 4.40039062 21.17578125 C4.46436449 29.21680381 4.46436449 29.21680381 2.10546875 33.1953125 C-0.40036282 35.34316814 -1.52948115 35.93726415 -4.8125 36.375 C-8.12501657 35.98529217 -9.67300069 35.34233422 -11.95922852 32.91259766 C-14.38813707 28.44905798 -13.66265031 22.93713969 -13.5625 18 C-13.57345703 16.824375 -13.58441406 15.64875 -13.59570312 14.4375 C-13.51292065 4.72435671 -13.51292065 4.72435671 -9 0 C-5.85000502 -1.57499749 -3.36459118 -0.70833498 0 0 Z " fill="#212828" transform="translate(746,412)"/>
<path d="M0 0 C2.88145848 2.24113437 4.66062074 3.81644536 5.67871094 7.36694336 C6.23174216 11.89919394 5.1258722 16.11927333 4.25 20.5625 C4.07984375 21.50802734 3.9096875 22.45355469 3.734375 23.42773438 C3.5590625 24.33974609 3.38375 25.25175781 3.203125 26.19140625 C3.04489258 27.01842041 2.88666016 27.84543457 2.72363281 28.69750977 C1.90205371 31.31165029 0.80698332 32.95290597 -1 35 C-3.65372799 36.06593258 -6.1582685 36.22157751 -9 36 C-11.9375 34.5 -11.9375 34.5 -14 32 C-15.33353997 26.20650967 -14.74610647 21.1480255 -13.8125 15.375 C-13.69841797 14.54226563 -13.58433594 13.70953125 -13.46679688 12.8515625 C-12.68495523 7.86682593 -11.72347038 4.65840002 -8 1 C-5.11138291 -0.44430855 -3.20352299 -0.37688506 0 0 Z " fill="#1F2626" transform="translate(742,462)"/>
<path d="M0 0 C1.15371094 -0.03738281 2.30742187 -0.07476563 3.49609375 -0.11328125 C7.20867258 0.40222333 8.29752585 1.39427089 10.5625 4.3125 C11.5625 6.6875 11.5625 6.6875 11.5625 9.3125 C9.73677458 13.19216651 8.57762984 14.93864144 4.5078125 16.4375 C0.03112465 17.57418639 -4.46366577 17.87709409 -9.0625 18.125 C-9.89523437 18.18880859 -10.72796875 18.25261719 -11.5859375 18.31835938 C-16.41250827 18.59119896 -19.54987172 18.55219023 -23.4375 15.3125 C-25.4375 12.3125 -25.4375 12.3125 -25.25 8.8125 C-24.18218085 4.21266367 -24.18218085 4.21266367 -21.4375 2.3125 C-14.65706509 0.05235503 -7.09118671 0.20725807 0 0 Z " fill="#1C2323" transform="translate(457.4375,705.6875)"/>
<path d="M0 0 C3.9375 0.5625 3.9375 0.5625 6.4375 2.0625 C8.50645128 5.51075214 8.63714751 8.68205603 7.9375 12.5625 C6.24336098 14.98948025 4.8431085 16.69380743 2.75 18.6875 C1.77603213 19.66796965 0.80337065 20.64973879 -0.16796875 21.6328125 C-0.65056152 22.10887939 -1.1331543 22.58494629 -1.63037109 23.07543945 C-3.10272589 24.60426882 -4.41686331 26.20320971 -5.73828125 27.86328125 C-8.0625 30.5625 -8.0625 30.5625 -11.0625 31.625 C-14.68639432 31.5495022 -16.25338061 30.82540173 -19.0625 28.5625 C-21.09913238 25.97042242 -21.06548182 24.63564222 -20.9296875 21.3046875 C-19.90446901 16.88054645 -17.93651715 14.54520374 -14.8125 11.4375 C-14.33425781 10.93863281 -13.85601562 10.43976563 -13.36328125 9.92578125 C-12.40989883 8.93622714 -11.4469856 7.95575926 -10.47436523 6.98510742 C-9.10037285 5.60066101 -7.7776468 4.16592043 -6.45703125 2.73046875 C-4.01471517 0.51923641 -3.21117383 -0.10852874 0 0 Z " fill="#1D2425" transform="translate(225.0625,288.4375)"/>
<path d="M0 0 C3.32878632 2.46040728 4.79301948 3.89610387 5.5625 8 C4.83023015 11.90543919 3.8779303 13.22101199 1 16 C-2.36251171 17.4971032 -5.82204847 18.43565802 -9.375 19.375 C-10.30828125 19.64699219 -11.2415625 19.91898438 -12.203125 20.19921875 C-17.09773275 21.55112882 -20.99836246 22.53352094 -26 21 C-28.56510573 19.31243044 -29.7514063 18.13144984 -30.41796875 15.09765625 C-30.68747035 11.18624112 -30.68747035 11.18624112 -30 9 C-25.94097146 4.66384903 -21.13312507 3.6137096 -15.5625 2.25 C-14.72912109 2.02957031 -13.89574219 1.80914063 -13.03710938 1.58203125 C-8.64377646 0.46372833 -4.56354948 -0.48328058 0 0 Z " fill="#1E2525" transform="translate(513,695)"/>
<path d="M0 0 C3.94758328 1.89599255 7.42487578 4.48015383 11 7 C11.88300781 7.58652344 12.76601563 8.17304687 13.67578125 8.77734375 C17.52820299 11.48694182 19.65134533 13.09666745 21.375 17.5625 C20.86783216 22.21153849 19.53773902 23.97818126 16 27 C9.66302753 27.89426862 6.31129478 25.84917462 1.375 22.3125 C0.73304688 21.87744141 0.09109375 21.44238281 -0.5703125 20.99414062 C-10.27814215 14.28022155 -10.27814215 14.28022155 -11.6640625 9.90234375 C-11.59079955 6.21721713 -11.28095141 4.33053107 -8.875 1.5 C-5.49868679 -0.26155472 -3.76838358 -0.34088228 0 0 Z " fill="#1F2627" transform="translate(259,649)"/>
<path d="M0 0 C0.66306152 0.05075684 1.32612305 0.10151367 2.00927734 0.15380859 C4.15544942 0.3257191 6.29561009 0.53137514 8.4375 0.75 C9.46665527 0.84196655 9.46665527 0.84196655 10.51660156 0.93579102 C13.82725518 1.33063587 15.78495859 1.82845402 18.4140625 3.92578125 C20.31959397 6.41799113 20.92336128 7.85781249 21 11 C19.61442213 13.83713564 18.22998296 15.77001704 16 18 C7.42884231 18.89392442 -2.75696076 18.54706689 -11 16 C-13.70013589 13.27317414 -14.86693055 11.79841672 -15.5 8 C-13.94255569 -1.34466588 -7.89296081 -0.68914093 0 0 Z " fill="#1B2223" transform="translate(397,705)"/>
<path d="M0 0 C3.00871644 0.61162819 4.21137446 1.88408419 5.90234375 4.38671875 C7.7696079 9.43875832 5.86079192 13.55917713 4.15234375 18.38671875 C3.88679687 19.18078125 3.62125 19.97484375 3.34765625 20.79296875 C-0.11697743 30.88413482 -0.11697743 30.88413482 -3.91015625 33.76171875 C-6.97435857 34.63720513 -9.03898274 34.21510949 -12.09765625 33.38671875 C-15.86584491 31.12580555 -15.86584491 31.12580555 -16.69921875 28.46875 C-16.76057848 22.52708263 -15.37677299 17.53319731 -13.34765625 12.01171875 C-13.09580566 11.32182861 -12.84395508 10.63193848 -12.58447266 9.92114258 C-9.9229124 3.14452825 -7.40137457 -0.39970179 0 0 Z " fill="#1F2626" transform="translate(730.09765625,511.61328125)"/>
<path d="M0 0 C0.74121094 0.19207031 1.48242188 0.38414062 2.24609375 0.58203125 C7.01896075 1.94448341 9.57785297 3.32618846 12.25 7.75 C13.00156183 11.75832976 12.57591851 13.23939433 10.375 16.6875 C6.52125494 19.23097174 4.79445564 19.17468967 0.34765625 18.45703125 C-3.50532103 17.57760012 -7.32247294 16.64007648 -11.125 15.5625 C-11.81505127 15.37896973 -12.50510254 15.19543945 -13.21606445 15.00634766 C-16.95369483 13.86003732 -18.70523772 12.80395517 -21.22265625 9.76953125 C-22.75 6.75 -22.75 6.75 -22.8125 3.625 C-18.94533885 -6.83908311 -8.25595956 -2.36094048 0 0 Z " fill="#202727" transform="translate(355.75,697.25)"/>
<path d="M0 0 C3.36758418 1.31402541 6.50879386 2.9728957 9.6875 4.6875 C10.96850586 5.34008789 10.96850586 5.34008789 12.27539062 6.00585938 C20.11873168 10.16474014 20.11873168 10.16474014 22 15 C22 18.93559391 21.48997956 20.4680222 18.8125 23.375 C15.33987743 25.38140415 13.98500462 25.4717879 10 25 C6.78914675 23.64580778 3.81984211 21.94117314 0.8125 20.1875 C0.00619141 19.73568359 -0.80011719 19.28386719 -1.63085938 18.81835938 C-8.70400424 14.79084131 -8.70400424 14.79084131 -11 12 C-11.65341537 7.58944623 -11.51318284 5.7093998 -8.875 2.0625 C-5.33230913 -0.47899562 -4.29688208 -0.52914853 0 0 Z " fill="#1E2626" transform="translate(300,675)"/>
<path d="M0 0 C2.9375 2.125 2.9375 2.125 5 5 C4.80181179 10.95298658 2.66285424 15.16777547 -0.25 20.1875 C-0.63285156 20.88552734 -1.01570313 21.58355469 -1.41015625 22.30273438 C-3.73632357 26.39103178 -5.91132756 29.46265665 -10 32 C-13.49672962 31.93971156 -15.8982551 31.69777177 -18.875 29.8125 C-20.54283188 27.12543752 -20.80955591 25.17528902 -21 22 C-20.1116892 19.15865245 -18.77789003 16.61872806 -17.375 14 C-16.85873047 12.97132813 -16.85873047 12.97132813 -16.33203125 11.921875 C-8.90244999 -2.4438098 -8.90244999 -2.4438098 0 0 Z " fill="#202728" transform="translate(199,329)"/>
<path d="M0 0 C3.32878632 2.46040728 4.79301948 3.89610387 5.5625 8 C4.84196268 11.84286572 3.74008962 13.19193916 1 16 C-1.84811913 17.70836412 -4.82249171 19.01308815 -7.875 20.3125 C-8.66519531 20.67150391 -9.45539062 21.03050781 -10.26953125 21.40039062 C-14.61720503 23.299333 -18.16736041 24.66557312 -23 24 C-25.875 21.9375 -25.875 21.9375 -28 19 C-28.5625 15.4375 -28.5625 15.4375 -28 12 C-24.68621033 7.63698933 -20.00889611 5.88029394 -15.125 3.75 C-14.33480469 3.38648438 -13.54460938 3.02296875 -12.73046875 2.6484375 C-8.37987406 0.72288311 -4.85050273 -0.68255577 0 0 Z " fill="#1E2526" transform="translate(558,677)"/>
<path d="M0 0 C3.30810521 0.80034803 4.89931977 2.93782291 6.9375 5.46875 C8.49644953 7.18032396 10.05925794 8.88838763 11.625 10.59375 C17.82423621 17.44937593 17.82423621 17.44937593 18.3125 21.84375 C17.86722154 26.14810843 17.27661332 27.71398151 13.9375 30.46875 C9.94023656 31.25509691 7.61726491 31.57366203 4.1796875 29.3125 C2.2467959 27.47850053 0.60794929 25.5463713 -1.0625 23.46875 C-1.866875 22.50324219 -2.67125 21.53773438 -3.5 20.54296875 C-9.94960589 12.50509257 -9.94960589 12.50509257 -10.41015625 8.27734375 C-9.63258087 1.99558313 -6.31228382 -0.46413852 0 0 Z " fill="#1C2324" transform="translate(639.0625,288.53125)"/>
<path d="M0 0 C2.46784422 1.8638264 4.523375 4.05128899 6.625 6.3125 C7.18445313 6.89451172 7.74390625 7.47652344 8.3203125 8.07617188 C9.40382293 9.20440267 10.48071364 10.33903788 11.55004883 11.48071289 C12.77641634 12.76572469 14.06399571 13.99189022 15.36328125 15.203125 C17 17 17 17 17.5625 20.4375 C17 24 17 24 14.9375 27 C12 29 12 29 8.6875 29.25 C3.63501124 27.53729195 0.75321107 24.69811806 -3 21 C-4.22396484 19.88431641 -4.22396484 19.88431641 -5.47265625 18.74609375 C-6.28605469 17.98425781 -7.09945312 17.22242188 -7.9375 16.4375 C-8.68902344 15.73496094 -9.44054687 15.03242187 -10.21484375 14.30859375 C-12.39238274 11.49256411 -12.79058316 9.52677004 -13 6 C-11.76356597 3.13667909 -10.66847461 1.50711867 -8.1875 -0.375 C-5.00994562 -1.28287268 -3.19683483 -0.91065974 0 0 Z " fill="#1A2122" transform="translate(224,616)"/>
<path d="M0 0 C4.22744366 3.58856954 6.76056742 7.5519927 9.3125 12.375 C9.67150391 13.00921875 10.03050781 13.6434375 10.40039062 14.296875 C12.74066227 18.66538206 13.51767352 21.94035767 13 27 C11.4375 29.9375 11.4375 29.9375 9 32 C5.09020248 32.63978505 2.96431599 32.60445009 -0.41796875 30.484375 C-3.77633368 27.25302841 -5.72115802 23.78617626 -7.875 19.6875 C-8.29007813 18.95337891 -8.70515625 18.21925781 -9.1328125 17.46289062 C-11.72113418 12.60115974 -12.5239218 9.52685004 -11 4 C-7.97037274 0.04831227 -4.8704316 -0.57299195 0 0 Z " fill="#1E2525" transform="translate(670,329)"/>
<path d="M0 0 C4.33950209 1.31003837 4.33950209 1.31003837 6.3125 4 C7.17321775 6.74911522 7.88089157 9.38585367 8.5 12.1875 C8.67724609 12.91775391 8.85449219 13.64800781 9.03710938 14.40039062 C10.17729802 19.37055655 10.6954788 23.90091087 10.3125 29 C7.75 32.0625 7.75 32.0625 4.3125 34 C0.6875 34.125 0.6875 34.125 -2.6875 33 C-8.16740673 27.48953617 -8.58623362 20.34958628 -9.6875 13 C-9.88279297 11.72189453 -9.88279297 11.72189453 -10.08203125 10.41796875 C-10.41152846 6.41036314 -9.72890374 5.04948251 -7.125 1.9375 C-3.6875 0 -3.6875 0 0 0 Z " fill="#212728" transform="translate(736.6875,362)"/>
<path d="M0 0 C3.22843982 1.79897005 6.01854517 4.04058691 8.875 6.375 C9.64585937 6.97828125 10.41671875 7.5815625 11.2109375 8.203125 C16.82573342 12.65146684 16.82573342 12.65146684 18 15 C18.40820726 18.67386532 18.24841035 20.55286137 16.4375 23.8125 C13.15838273 26.75529755 11.40307483 26.99554795 7 27 C3.92884887 25.47537559 1.3921738 23.41894864 -1.25 21.25 C-1.95640625 20.69828125 -2.6628125 20.1465625 -3.390625 19.578125 C-11.86666137 12.90003574 -11.86666137 12.90003574 -12.5 8.625 C-12 5 -12 5 -9.9375 2.0625 C-6.13284047 -0.60885669 -4.60035234 -0.62668776 0 0 Z " fill="#1F2626" transform="translate(606,258)"/>
<path d="M0 0 C2.9375 2.0625 2.9375 2.0625 5 5 C5.484375 8.328125 5.484375 8.328125 5 12 C3.12051007 14.26318165 1.54705968 15.86684469 -0.6875 17.6875 C-1.21794922 18.14705078 -1.74839844 18.60660156 -2.29492188 19.08007812 C-3.8437135 20.41222896 -5.41975199 21.70547949 -7 23 C-7.87140625 23.75925781 -8.7428125 24.51851563 -9.640625 25.30078125 C-13.38944459 28.00067615 -15.46492714 27.57588227 -20 27 C-22.5 25.5 -22.5 25.5 -24 23 C-24.77403846 17.58173077 -24.77403846 17.58173077 -24 15 C-21.83203125 12.578125 -21.83203125 12.578125 -19 10 C-18.05382812 9.11699219 -17.10765625 8.23398437 -16.1328125 7.32421875 C-15.14023438 6.45410156 -14.14765625 5.58398438 -13.125 4.6875 C-12.63386719 4.23310547 -12.14273438 3.77871094 -11.63671875 3.31054688 C-7.75104838 -0.04525935 -5.05063372 -0.64552478 0 0 Z " fill="#1D2424" transform="translate(262,258)"/>
<path d="M0 0 C4.83818972 3.87356622 6.31384193 7.67822774 7.875 13.4375 C8.21144531 14.54448242 8.21144531 14.54448242 8.5546875 15.67382812 C9.81699831 20.11163957 10.28053773 23.44319287 9 28 C7.375 30.375 7.375 30.375 5 32 C1.5625 32.5625 1.5625 32.5625 -2 32 C-6.85576379 28.1661097 -8.317899 24.30680527 -9.875 18.5625 C-10.09929688 17.82451172 -10.32359375 17.08652344 -10.5546875 16.32617188 C-11.81233764 11.90474561 -12.33415289 8.53070194 -11 4 C-7.59825854 0.3066807 -4.98779194 -0.93521099 0 0 Z " fill="#202728" transform="translate(690,372)"/>
<path d="M0 0 C4.14182881 0.862881 5.56226471 2.18349135 8 5.625 C9.04384982 11.26178903 7.46489879 15.98920675 5.75 21.375 C5.54584473 22.0251709 5.34168945 22.6753418 5.13134766 23.34521484 C3.77042078 27.31912133 2.3515413 30.04738331 -1 32.625 C-4.63019782 33.07877473 -7.02317947 33.06199866 -10.375 31.5625 C-12.79191004 28.68079957 -12.74699645 26.35680239 -13 22.625 C-12.55585927 19.65954397 -11.7550652 16.86274082 -10.875 14 C-10.67390625 13.26265625 -10.4728125 12.5253125 -10.265625 11.765625 C-8.58271057 6.10859939 -6.24517975 1.30107911 0 0 Z " fill="#192121" transform="translate(175,371.375)"/>
<path d="M0 0 C3.67738373 2.00730553 6.80136481 4.92464035 8 9 C8.68666102 15.06550567 7.43816222 18.16798823 4 23 C1.25954574 25.23563374 -0.44867355 25.91788755 -3.9375 26.4375 C-7.92360781 25.86805603 -9.93107163 24.59153951 -13 22 C-16.09705551 17.70408429 -16.41634453 14.2693928 -15.65234375 9.1875 C-14.57124277 5.56225119 -12.69409757 3.62838787 -10 1 C-6.76755038 -0.61622481 -3.49426864 -0.58454308 0 0 Z " fill="#E4E9EA" transform="translate(624,570)"/>
<path d="M0 0 C2.3125 1.125 2.3125 1.125 4 3 C5.13064092 7.72749233 5.01541262 12.25161759 4.6875 17.0625 C4.65205078 17.75666016 4.61660156 18.45082031 4.58007812 19.16601562 C4.26586552 24.10431224 3.68194569 28.13117145 0.3125 31.875 C-3.17162742 33.56998091 -5.32852169 33.0489938 -9 32 C-11.36441047 29.87203058 -12.84317556 28.23026069 -13.25488281 25.00048828 C-13.24151097 22.66710218 -13.08744072 20.38607042 -12.875 18.0625 C-12.82601562 17.27681641 -12.77703125 16.49113281 -12.7265625 15.68164062 C-11.94624331 5.08526069 -11.94624331 5.08526069 -8.25 1.125 C-5.26438331 -0.36780834 -3.30066087 -0.41258261 0 0 Z " fill="#1E2626" transform="translate(169,418)"/>
<path d="M0 0 C2.84659713 2.13494785 3.85173536 3.53543748 4.9375 6.9375 C5.01497747 10.73389596 4.25386192 11.97006604 2 15 C-0.890625 17.01953125 -0.890625 17.01953125 -4.25 18.8125 C-5.34828125 19.41707031 -6.4465625 20.02164062 -7.578125 20.64453125 C-11.3659893 22.14497521 -13.96215649 22.40620222 -18 22 C-21.68351539 19.41370196 -22.81727257 17.93024874 -23.6875 13.5 C-22.96245492 9.80886142 -22.15912564 8.44305744 -19.11328125 6.26953125 C-5.54640795 -1.88062369 -5.54640795 -1.88062369 0 0 Z " fill="#1D2425" transform="translate(297,237)"/>
<path d="M0 0 C3.0703125 1.35546875 3.0703125 1.35546875 6.125 3.1875 C7.64480469 4.07501953 7.64480469 4.07501953 9.1953125 4.98046875 C12.10514058 7.07570708 14.01672964 9.0203498 16 12 C16 15.61556077 15.44102079 17.39563818 13.3125 20.3125 C10.39057364 22.44471654 8.61250311 22.78876772 5 23 C1.67578125 21.671875 1.67578125 21.671875 -1.6875 19.75 C-2.80511719 19.12609375 -3.92273438 18.5021875 -5.07421875 17.859375 C-9.4174491 15.09919122 -9.4174491 15.09919122 -11 13 C-11.64003318 8.03974283 -11.78789129 6.11231711 -8.875 2 C-5.42424958 -0.40052203 -4.12537185 -0.41756813 0 0 Z " fill="#1F2627" transform="translate(571,237)"/>
<path d="M0 0 C0.66 0.33 1.32 0.66 2 1 C2.09264072 9.16230905 2.16373412 17.32439882 2.20724869 25.48710346 C2.22813259 29.27731698 2.25646381 33.06717109 2.30175781 36.85717773 C2.34518858 40.51412174 2.36913106 44.17071986 2.37950897 47.82790184 C2.38690548 49.2238122 2.40134928 50.61970341 2.42292023 52.01546669 C2.45191117 53.96886389 2.45363352 55.92260844 2.45410156 57.8762207 C2.46298401 58.9887471 2.47186646 60.1012735 2.48101807 61.24751282 C2 64 2 64 0.09881592 65.86003113 C-3.42457449 67.7737556 -6.02654696 67.31535342 -10 67 C-10.99 66.34 -11.98 65.68 -13 65 C-13.32279968 62.97518921 -13.32279968 62.97518921 -13.2487793 60.45849609 C-13.22853195 59.51767181 -13.20828461 58.57684753 -13.18742371 57.60751343 C-13.15006607 56.58976837 -13.11270844 55.57202332 -13.07421875 54.5234375 C-13.04777786 53.48305328 -13.02133698 52.44266907 -12.99409485 51.37075806 C-12.90611973 48.03826875 -12.79704334 44.70684344 -12.6875 41.375 C-12.62426338 39.11983015 -12.56239661 36.86462144 -12.50195312 34.609375 C-12.35054509 29.07236727 -12.18179498 23.53608879 -12 18 C-11.67 18 -11.34 18 -11 18 C-10.67 32.85 -10.34 47.7 -10 63 C-7.03 63.33 -4.06 63.66 -1 64 C-1.00222061 63.21295181 -1.00444122 62.42590363 -1.00672913 61.61500549 C-1.02673113 54.2130967 -1.04197366 46.81120092 -1.05181217 39.40927219 C-1.0570402 35.60348423 -1.06413638 31.79771852 -1.07543945 27.99194336 C-1.0862712 24.32207456 -1.09227744 20.65222722 -1.09487724 16.98234367 C-1.09673097 15.57925008 -1.1003506 14.17615771 -1.10573006 12.7730732 C-1.11294419 10.8143032 -1.11340809 8.8555118 -1.11352539 6.89672852 C-1.115746 5.77976089 -1.11796661 4.66279327 -1.12025452 3.51197815 C-1 1 -1 1 0 0 Z " fill="#2B3131" transform="translate(175,504)"/>
<path d="M0 0 C4.62 0 9.24 0 14 0 C14 0.66 14 1.32 14 2 C10.04 2 6.08 2 2 2 C2 9.92 2 17.84 2 26 C7.92066406 25.83951172 7.92066406 25.83951172 13.9609375 25.67578125 C17.77010855 25.58286613 21.57936618 25.49515711 25.38867188 25.40795898 C28.04277943 25.34440215 30.69676239 25.27540559 33.35058594 25.20092773 C37.15800925 25.095008 40.96544742 25.00845002 44.7734375 24.92578125 C46.56254044 24.8697448 46.56254044 24.8697448 48.38778687 24.81257629 C49.48877716 24.79232895 50.58976746 24.7720816 51.72412109 24.7512207 C52.69674896 24.72679398 53.66937683 24.70236725 54.67147827 24.67720032 C55.43989044 24.78372421 56.20830261 24.89024811 57 25 C57.66 25.99 58.32 26.98 59 28 C39.53 28 20.06 28 0 28 C0 18.76 0 9.52 0 0 Z " fill="#D3D6D6" transform="translate(438,195)"/>
<path d="M0 0 C8.25 0 16.5 0 25 0 C25 8.58 25 17.16 25 26 C24.34 26.33 23.68 26.66 23 27 C23 18.75 23 10.5 23 2 C15.74 2 8.48 2 1 2 C1 9.59 1 17.18 1 25 C0.67 25 0.34 25 0 25 C0 16.75 0 8.5 0 0 Z " fill="#E3E4E4" transform="translate(237,145)"/>
<path d="M0 0 C6.72375 -0.04125 13.4475 -0.0825 20.375 -0.125 C22.49728027 -0.14320801 24.61956055 -0.16141602 26.80615234 -0.18017578 C28.48274482 -0.18601537 30.15934012 -0.19111219 31.8359375 -0.1953125 C32.71096924 -0.20554443 33.58600098 -0.21577637 34.48754883 -0.22631836 C36.65967622 -0.22694924 38.83137959 -0.12338291 41 0 C41.66 0.66 42.32 1.32 43 2 C42.01 2.33 41.02 2.66 40 3 C39.505 2.505 39.505 2.505 39 2 C36.19045466 1.83984087 33.40206554 1.74041894 30.58984375 1.68359375 C29.84383911 1.66494263 29.09783447 1.6462915 28.32922363 1.6270752 C25.53210736 1.55857613 22.73478864 1.49855624 19.9375 1.4375 C13.688125 1.293125 7.43875 1.14875 1 1 C1 15.19 1 29.38 1 44 C0.67 44 0.34 44 0 44 C0 29.48 0 14.96 0 0 Z " fill="#E3E7E8" transform="translate(471,240)"/>
<path d="M0 0 C3.90122084 5.85183126 2.20445261 13.53720097 1 20.1875 C0.67651719 21.79368202 0.34689431 23.3987111 0 25 C-0.66 25 -1.32 25 -2 25 C-3.0480473 22.27507702 -3.0517984 21.14676212 -2.0625 18.34375 C-0.86910112 14.58805351 -0.55658542 11.02908644 -0.375 7.125 C-0.33632813 6.43664062 -0.29765625 5.74828125 -0.2578125 5.0390625 C-0.16451834 3.35976754 -0.08121762 1.67992233 0 0 Z " fill="#D4D7D7" transform="translate(669,573)"/>
<path d="M0 0 C1.485 0.99 1.485 0.99 3 2 C3.29638672 4.12304688 3.29638672 4.12304688 3.1796875 6.71875 C3.1384375 7.65074219 3.0971875 8.58273437 3.0546875 9.54296875 C2.99539062 10.51878906 2.93609375 11.49460937 2.875 12.5 C2.83890625 13.47582031 2.8028125 14.45164062 2.765625 15.45703125 C2.48099677 20.87245782 2.48099677 20.87245782 2 23 C1.01 23.66 0.02 24.32 -1 25 C-1.02917228 21.77085248 -1.04685663 18.54173917 -1.0625 15.3125 C-1.07087891 14.40048828 -1.07925781 13.48847656 -1.08789062 12.54882812 C-1.09111328 11.66259766 -1.09433594 10.77636719 -1.09765625 9.86328125 C-1.10289307 9.05157471 -1.10812988 8.23986816 -1.11352539 7.40356445 C-0.9929791 4.85135327 -0.559949 2.48973863 0 0 Z " fill="#545A5B" transform="translate(102,516)"/>
<path d="M0 0 C2.9375 0.5 2.9375 0.5 6.9375 3.5 C3.3075 3.5 -0.3225 3.5 -4.0625 3.5 C-4.7225 6.8 -5.3825 10.1 -6.0625 13.5 C-6.7225 13.17 -7.3825 12.84 -8.0625 12.5 C-8.4872346 8.1677071 -8.53298413 6.15037512 -5.9375 2.5625 C-3.0625 0.5 -3.0625 0.5 0 0 Z " fill="#393D3D" transform="translate(297.0625,674.5)"/>
<path d="M0 0 C0.66 0.66 1.32 1.32 2 2 C1.01 2.33 0.02 2.66 -1 3 C-0.9278125 3.61488281 -0.855625 4.22976563 -0.78125 4.86328125 C-0.6884375 5.67152344 -0.595625 6.47976563 -0.5 7.3125 C-0.4071875 8.11300781 -0.314375 8.91351563 -0.21875 9.73828125 C0 12 0 12 0 15 C-2 14 -2 14 -4 12 C-4.39296656 8.90538837 -4.61866635 6.95651131 -4 4 C-2 1.5 -2 1.5 0 0 Z " fill="#323637" transform="translate(242,269)"/>
<path d="M0 0 C0.66 0 1.32 0 2 0 C2.34548714 6.33393082 1.29342747 11.10261508 -1 17 C-3.56687367 13.1496895 -2.83288724 11.41430237 -2 7 C-1.34 7 -0.68 7 0 7 C0 4.69 0 2.38 0 0 Z " fill="#393E3E" transform="translate(181,377)"/>
<path d="M0 0 C1.60725635 3.21451269 1.05748185 6.43612536 1 10 C0.01 10.495 0.01 10.495 -1 11 C-1.33 8.03 -1.66 5.06 -2 2 C-7.94 1.67 -13.88 1.34 -20 1 C-20 0.67 -20 0.34 -20 0 C-17.22949974 -0.1946838 -14.45886998 -0.38102792 -11.6875 -0.5625 C-10.90181641 -0.61857422 -10.11613281 -0.67464844 -9.30664062 -0.73242188 C-8.1706543 -0.80493164 -8.1706543 -0.80493164 -7.01171875 -0.87890625 C-6.31522217 -0.9260376 -5.61872559 -0.97316895 -4.90112305 -1.02172852 C-3 -1 -3 -1 0 0 Z " fill="#222828" transform="translate(750,259)"/>
<path d="M0 0 C0.66 0.99 1.32 1.98 2 3 C-0.99738941 4.99825961 -1.63347508 5.27550398 -5 5.25 C-5.680625 5.25515625 -6.36125 5.2603125 -7.0625 5.265625 C-9 5 -9 5 -12 3 C-12 2.34 -12 1.68 -12 1 C-8.04 1.33 -4.08 1.66 0 2 C0 1.34 0 0.68 0 0 Z " fill="#2A2F30" transform="translate(174,566)"/>
<path d="M0 0 C-1.78857422 0.09087891 -1.78857422 0.09087891 -3.61328125 0.18359375 C-5.17969925 0.26801149 -6.74610488 0.35265887 -8.3125 0.4375 C-9.09818359 0.47681641 -9.88386719 0.51613281 -10.69335938 0.55664062 C-11.45068359 0.59853516 -12.20800781 0.64042969 -12.98828125 0.68359375 C-13.68477783 0.72025146 -14.38127441 0.75690918 -15.09887695 0.79467773 C-17.2216572 0.95581153 -17.2216572 0.95581153 -20 2 C-20.99 1.34 -21.98 0.68 -23 0 C-15.51262671 -2.02556958 -7.062127 -4.07243937 0 0 Z " fill="#D8DBDC" transform="translate(737,187)"/>
<path d="M0 0 C1.875 1.5 1.875 1.5 3 3 C-0.41099168 3 -3.63088314 2.50854594 -7 2 C-7.2165625 2.928125 -7.2165625 2.928125 -7.4375 3.875 C-8 6 -8 6 -9 8 C-9.66 8 -10.32 8 -11 8 C-10.67842796 5.02545866 -10.37860258 3.40664722 -8.3125 1.1875 C-5.30660842 -0.35606595 -3.33699345 -0.42599916 0 0 Z " fill="#272B2A" transform="translate(169,418)"/>
<path d="M0 0 C0 0.66 0 1.32 0 2 C-1.32 2 -2.64 2 -4 2 C-4.2475 2.61875 -4.495 3.2375 -4.75 3.875 C-6.20628639 6.35068687 -7.37812506 6.95125002 -10 8 C-9.67372714 4.98197607 -9.38918764 3.40308719 -7.25 1.1875 C-4.62847443 -0.19608294 -2.92325122 -0.24360427 0 0 Z " fill="#363B3C" transform="translate(344,694)"/>
<path d="M0 0 C0.66 0 1.32 0 2 0 C2.28875 1.0725 2.5775 2.145 2.875 3.25 C3.72820109 6.09400364 4.5636503 8.43508983 6 11 C6.66 11 7.32 11 8 11 C7.67 11.99 7.34 12.98 7 14 C0.04828326 7.23122318 0.04828326 7.23122318 -0.125 2.8125 C-0.08375 1.884375 -0.0425 0.95625 0 0 Z " fill="#353A3A" transform="translate(629,294)"/>
<path d="M0 0 C0 0.99 0 1.98 0 3 C-4.95 3 -9.9 3 -15 3 C-15 2.34 -15 1.68 -15 1 C-13.43784452 0.83013455 -11.8752548 0.66426036 -10.3125 0.5 C-9.44238281 0.4071875 -8.57226562 0.314375 -7.67578125 0.21875 C-5.10276661 0.00840136 -2.58015636 -0.03719144 0 0 Z " fill="#1E2424" transform="translate(412,293)"/>
<path d="M0 0 C2.29141286 -0.05384521 4.58318188 -0.09272087 6.875 -0.125 C8.78925781 -0.15980469 8.78925781 -0.15980469 10.7421875 -0.1953125 C14 0 14 0 16 2 C14.27665979 3.72334021 12.0331379 3.21271834 9.6875 3.25 C8.72199219 3.27578125 7.75648438 3.3015625 6.76171875 3.328125 C3.63246324 2.95633227 2.30890577 2.08404796 0 0 Z " fill="#3C4243" transform="translate(450,706)"/>
<path d="M0 0 C0.66 0.33 1.32 0.66 2 1 C1.45730469 1.51949219 0.91460937 2.03898437 0.35546875 2.57421875 C-4.99529043 7.75654302 -4.99529043 7.75654302 -9 14 C-9.99 13.67 -10.98 13.34 -12 13 C-10.56354149 11.39490066 -9.12579294 9.79095576 -7.6875 8.1875 C-6.88699219 7.29417969 -6.08648437 6.40085937 -5.26171875 5.48046875 C-3.54775419 3.60073214 -1.82122396 1.77407253 0 0 Z " fill="#424545" transform="translate(125,479)"/>
<path d="M0 0 C1.875 1.5 1.875 1.5 3 3 C1.08322011 3 -0.83371496 2.98105193 -2.75 2.9375 C-6.23763296 3.00456986 -9.55847457 3.44935593 -13 4 C-8.71831554 0.60418129 -5.50586983 -0.45882249 0 0 Z " fill="#404343" transform="translate(558,677)"/>
<path d="M0 0 C0.99 0 1.98 0 3 0 C3 0.99 3 1.98 3 3 C6.96 3 10.92 3 15 3 C15 3.33 15 3.66 15 4 C7.25863399 4.10920422 -0.31395526 3.97159933 -8 3 C-8 2.67 -8 2.34 -8 2 C-5.36 2 -2.72 2 0 2 C0 1.34 0 0.68 0 0 Z " fill="#6F7474" transform="translate(398,719)"/>
<path d="M0 0 C0.66 0.33 1.32 0.66 2 1 C1.67 1.33 1.34 1.66 1 2 C0.6068352 3.67884238 0.25914548 5.36850045 -0.0625 7.0625 C-0.32740234 8.44115234 -0.32740234 8.44115234 -0.59765625 9.84765625 C-0.73042969 10.55792969 -0.86320312 11.26820313 -1 12 C-1.66 11.67 -2.32 11.34 -3 11 C-3.36923077 3.49230769 -3.36923077 3.49230769 -1.5 1 C-1.005 0.67 -0.51 0.34 0 0 Z " fill="#363B3C" transform="translate(486,701)"/>
<path d="M0 0 C0.66 0 1.32 0 2 0 C1.4375 1.9375 1.4375 1.9375 0 4 C-4.01254067 5.13562472 -6.12514122 5.40950836 -9.9375 3.625 C-10.618125 3.08875 -11.29875 2.5525 -12 2 C-12 1.67 -12 1.34 -12 1 C-10.35 1 -8.7 1 -7 1 C-7 1.33 -7 1.66 -7 2 C-4.58354218 2.16687448 -4.58354218 2.16687448 -2 2 C-1.34 1.34 -0.68 0.68 0 0 Z " fill="#464A4A" transform="translate(238,640)"/>
<path d="M0 0 C0.33 0 0.66 0 1 0 C1 1.98 1 3.96 1 6 C1.66 6 2.32 6 3 6 C3 6.66 3 7.32 3 8 C5.97 8.495 5.97 8.495 9 9 C7.25 10.125 7.25 10.125 5 11 C1.68920881 9.92886167 0.99115765 8.98673647 -1 6 C-1.1875 3.375 -1.1875 3.375 -1 1 C-0.67 0.67 -0.34 0.34 0 0 Z " fill="#383D3D" transform="translate(157,439)"/>
<path d="M0 0 C1.875 1.5 1.875 1.5 3 3 C0.16032769 3 -2.23735711 2.59732819 -5 2 C-5 2.66 -5 3.32 -5 4 C-5.99 4.33 -6.98 4.66 -8 5 C-8.33 4.01 -8.66 3.02 -9 2 C-5.53076119 -0.31282587 -4.07794425 -0.42478586 0 0 Z " fill="#494D4D" transform="translate(742,462)"/>
<path d="M0 0 C-0.66 3.3 -1.32 6.6 -2 10 C-2.99 10.33 -3.98 10.66 -5 11 C-5.36637589 4.64948454 -5.36637589 4.64948454 -3.625 1.5625 C-2 0 -2 0 0 0 Z " fill="#353A3A" transform="translate(599,259)"/>
<path d="M0 0 C0 0.66 0 1.32 0 2 C-3.96697886 3.80317221 -7.6822542 4.49202991 -12 5 C-7.80991378 1.48938722 -5.59849738 0 0 0 Z " fill="#2D3131" transform="translate(708,173)"/>
<path d="M0 0 C1.875 1.5 1.875 1.5 3 3 C1.26949157 3 -0.46112047 2.99260235 -2.19140625 2.96484375 C-3.36509766 2.95130859 -3.36509766 2.95130859 -4.5625 2.9375 C-5.34753906 2.92589844 -6.13257813 2.91429687 -6.94140625 2.90234375 C-9.06503723 2.86404829 -9.06503723 2.86404829 -11 4 C-11.66 3.34 -12.32 2.68 -13 2 C-8.54695356 0.57502514 -4.72944312 -0.53743672 0 0 Z " fill="#3D4040" transform="translate(513,695)"/>
<path d="M0 0 C0.99 0.33 1.98 0.66 3 1 C2.67 1.33 2.34 1.66 2 2 C1.72046781 4.0587768 1.55265649 6.11728432 1.37890625 8.1875 C1.25386719 8.785625 1.12882813 9.38375 1 10 C0.01 10.495 0.01 10.495 -1 11 C-2.23076923 4.6 -2.23076923 4.6 -1.0625 1.5625 C-0.711875 1.046875 -0.36125 0.53125 0 0 Z " fill="#303333" transform="translate(660,331)"/>
<path d="M0 0 C1.61949011 2.57213134 2.04408751 3.67669159 1.625 6.75 C1.41875 7.4925 1.2125 8.235 1 9 C1.99 9.33 2.98 9.66 4 10 C3.67 10.99 3.34 11.98 3 13 C0 11 0 11 -0.75 7.625 C-0.95630523 4.63357422 -0.99560417 2.76556715 0 0 Z " fill="#393D3D" transform="translate(163,390)"/>
<path d="M0 0 C1.875 1.5 1.875 1.5 3 3 C-0.33333333 3 -3.66666667 3 -7 3 C-7.33 3.66 -7.66 4.32 -8 5 C-8.66 5 -9.32 5 -10 5 C-7.68925392 -0.11665204 -5.56678732 -0.45443162 0 0 Z " fill="#3D4141" transform="translate(178,372)"/>
<path d="M0 0 C0.66 0.33 1.32 0.66 2 1 C1.57742724 2.4835001 1.13643678 3.96176424 0.6875 5.4375 C0.44386719 6.26121094 0.20023437 7.08492187 -0.05078125 7.93359375 C-0.36402344 8.61550781 -0.67726563 9.29742187 -1 10 C-1.99 10.33 -2.98 10.66 -4 11 C-4.49230769 4.6 -4.49230769 4.6 -2 1.5625 C-1.34 1.046875 -0.68 0.53125 0 0 Z " fill="#4B5050" transform="translate(278,243)"/>
<path d="M0 0 C0.66 0 1.32 0 2 0 C2.33 2.64 2.66 5.28 3 8 C2.01 8.33 1.02 8.66 0 9 C-1.125 2.25 -1.125 2.25 0 0 Z " fill="#333737" transform="translate(433,711)"/>
<path d="M0 0 C0 0.66 0 1.32 0 2 C-1.7015625 2.680625 -1.7015625 2.680625 -3.4375 3.375 C-7.04721692 4.57095806 -7.04721692 4.57095806 -8 7 C-8.66 7 -9.32 7 -10 7 C-8.54054054 2.37837838 -8.54054054 2.37837838 -6.125 0.6875 C-4 0 -4 0 0 0 Z " fill="#3F4243" transform="translate(222,615)"/>
<path d="M0 0 C1.10844919 3.32534757 0.84454356 5.62182575 0 9 C0.66 9 1.32 9 2 9 C1.67 9.99 1.34 10.98 1 12 C0.34 11.67 -0.32 11.34 -1 11 C-2.36817102 4.95724466 -2.36817102 4.95724466 -1.0625 1.5625 C-0.711875 1.046875 -0.36125 0.53125 0 0 Z " fill="#444848" transform="translate(206,305)"/>
<path d="M0 0 C1.80411967 2.75924185 2.0127245 3.88972103 1.625 7.25 C1.41875 8.1575 1.2125 9.065 1 10 C0.34 10 -0.32 10 -1 10 C-2.46726798 6.18510326 -1.43336419 3.70988378 0 0 Z " fill="#DBDFE0" transform="translate(668,588)"/>
<path d="M0 0 C2.64 0 5.28 0 8 0 C8.66 1.32 9.32 2.64 10 4 C6.7 3.67 3.4 3.34 0 3 C0 2.01 0 1.02 0 0 Z " fill="#C4C8CA" transform="translate(166,500)"/>
<path d="M0 0 C0.66 0 1.32 0 2 0 C2 0.66 2 1.32 2 2 C2.99 2.33 3.98 2.66 5 3 C5 5.31 5 7.62 5 10 C2.35534962 6.8745041 1.15585285 3.91211733 0 0 Z " fill="#393D3D" transform="translate(565,623)"/>
<path d="M0 0 C2.5 0.75 2.5 0.75 5.5 2.75 C5.5 3.41 5.5 4.07 5.5 4.75 C4.448125 4.2859375 4.448125 4.2859375 3.375 3.8125 C0.41063343 2.71697322 -2.37698108 2.18577008 -5.5 1.75 C-2.5 -0.25 -2.5 -0.25 0 0 Z " fill="#464949" transform="translate(294.5,236.25)"/>
<path d="M0 0 C0.99 0.66 1.98 1.32 3 2 C-0.465 4.97 -0.465 4.97 -4 8 C-4.66 7.67 -5.32 7.34 -6 7 C-4.02 4.69 -2.04 2.38 0 0 Z " fill="#E1E4E5" transform="translate(389,191)"/>
<path d="M0 0 C2.97 0.33 5.94 0.66 9 1 C9 1.66 9 2.32 9 3 C6.03 3 3.06 3 0 3 C0 2.01 0 1.02 0 0 Z " fill="#232828" transform="translate(565,751)"/>
<path d="M0 0 C0.99 0 1.98 0 3 0 C2.43628586 3.26954202 1.50037734 4.82575883 -1 7 C-1.66 6.34 -2.32 5.68 -3 5 C-1.6875 2.5 -1.6875 2.5 0 0 Z " fill="#DBDEDF" transform="translate(628,586)"/>
<path d="M0 0 C0.66 0 1.32 0 2 0 C3.05404945 3.98196457 2.84098656 6.98195309 2 11 C1.67 11 1.34 11 1 11 C0.67 7.37 0.34 3.74 0 0 Z " fill="#515455" transform="translate(745,467)"/>
<path d="M0 0 C4.87685861 1.35468295 6.48592381 3.71675909 9 8 C8.01 8.495 8.01 8.495 7 9 C6.401875 8.21625 5.80375 7.4325 5.1875 6.625 C3.08914751 3.85425677 3.08914751 3.85425677 0 2 C0 1.34 0 0.68 0 0 Z " fill="#303334" transform="translate(639,289)"/>
<path d="M0 0 C0 0.66 0 1.32 0 2 C-0.66 2 -1.32 2 -2 2 C-2.33 2.99 -2.66 3.98 -3 5 C-5.5625 6.1875 -5.5625 6.1875 -8 7 C-3.53191489 0 -3.53191489 0 0 0 Z " fill="#353939" transform="translate(223,289)"/>
<path d="M0 0 C-3.20336822 2.83374881 -5.78087253 3.5205537 -10 4 C-10 3.34 -10 2.68 -10 2 C-6.49223216 0.39644899 -3.85645121 -0.22036864 0 0 Z " fill="#434646" transform="translate(696,761)"/>
<path d="M0 0 C0.6875 1.75 0.6875 1.75 1 4 C-0.4375 6.25 -0.4375 6.25 -2 8 C-4.31 7.67 -6.62 7.34 -9 7 C-9 6.67 -9 6.34 -9 6 C-7.88625 5.7525 -6.7725 5.505 -5.625 5.25 C-1.95384802 4.38994661 -1.95384802 4.38994661 -0.5625 1.875 C-0.376875 1.25625 -0.19125 0.6375 0 0 Z " fill="#C7CCCD" transform="translate(627,738)"/>
<path d="M0 0 C0.66 0 1.32 0 2 0 C0.6302836 3.99500618 -1.25722422 6.80009492 -4 10 C-3.43697042 6.05879291 -2.3208055 3.2491277 0 0 Z " fill="#474A4B" transform="translate(666,636)"/>
<path d="M0 0 C6.4 -0.49230769 6.4 -0.49230769 9.4375 2 C10.2109375 2.99 10.2109375 2.99 11 4 C8 4 8 4 5 2 C3.34450469 1.61500109 1.6777567 1.27206865 0 1 C0 0.67 0 0.34 0 0 Z " fill="#323637" transform="translate(246,82)"/>
<path d="M0 0 C0.66 0 1.32 0 2 0 C2 0.66 2 1.32 2 2 C2.66 2 3.32 2 4 2 C4.625 3.875 4.625 3.875 5 6 C4.34 6.66 3.68 7.32 3 8 C0 2.25 0 2.25 0 0 Z " fill="#313637" transform="translate(561,615)"/>
<path d="M0 0 C0.6875 1.6875 0.6875 1.6875 1 4 C-0.3125 6.75 -0.3125 6.75 -2 9 C-2.66 9 -3.32 9 -4 9 C-2.94124926 5.59687262 -1.99097846 2.98646769 0 0 Z " fill="#363B3B" transform="translate(563,545)"/>
<path d="M0 0 C-1.98 0.33 -3.96 0.66 -6 1 C-6.33 1.99 -6.66 2.98 -7 4 C-8.65 3.67 -10.3 3.34 -12 3 C-4.82142857 -1.78571429 -4.82142857 -1.78571429 0 0 Z " fill="#4A4F50" transform="translate(605,517)"/>
<path d="M0 0 C0.6875 1.6875 0.6875 1.6875 1 4 C-0.3125 6.75 -0.3125 6.75 -2 9 C-2.66 9 -3.32 9 -4 9 C-2.80100302 5.9168649 -1.52299523 2.93720508 0 0 Z " fill="#363A3A" transform="translate(111,495)"/>
<path d="M0 0 C5.53846154 -0.36923077 5.53846154 -0.36923077 7.875 1.5 C8.24625 1.995 8.6175 2.49 9 3 C5.88772805 3 3.05847848 2.54372951 0 2 C0 1.34 0 0.68 0 0 Z " fill="#2D3031" transform="translate(163,418)"/>
<path d="M0 0 C5.53846154 -0.36923077 5.53846154 -0.36923077 7.875 1.5 C8.24625 1.995 8.6175 2.49 9 3 C5.88772805 3 3.05847848 2.54372951 0 2 C0 1.34 0 0.68 0 0 Z " fill="#464A4A" transform="translate(684,372)"/>
<path d="M0 0 C0.99 0.33 1.98 0.66 3 1 C2.34 2.32 1.68 3.64 1 5 C0.34 5 -0.32 5 -1 5 C-1 5.66 -1 6.32 -1 7 C-1.66 7 -2.32 7 -3 7 C-1.125 2.25 -1.125 2.25 0 0 Z " fill="#353939" transform="translate(586,133)"/>
<path d="M0 0 C0.66 0 1.32 0 2 0 C2.625 2.3125 2.625 2.3125 3 5 C2.34 5.99 1.68 6.98 1 8 C-0.35439668 5.29120665 -0.06501451 2.99066732 0 0 Z " fill="#464B4B" transform="translate(415,711)"/>
<path d="M0 0 C3.93774177 -0.36630156 5.56539771 -0.30233203 8.875 2 C9.926875 2.99 9.926875 2.99 11 4 C9.35 4 7.7 4 6 4 C5.67 3.01 5.34 2.02 5 1 C3.35 1 1.7 1 0 1 C0 0.67 0 0.34 0 0 Z " fill="#666969" transform="translate(565,237)"/>
</svg>
