<?xml version="1.0" encoding="UTF-8"?>
<svg version="1.1" xmlns="http://www.w3.org/2000/svg" width="860" height="860">
<path d="M0 0 C2.78804177 0.98097766 4.37431137 2.14092712 6.59375 4.078125 C19.47613393 14.40515081 35.87025219 18.55582193 52.02734375 20.43359375 C54.53125 20.890625 54.53125 20.890625 57.53125 22.890625 C57.91893005 25.08024597 57.91893005 25.08024597 57.93530273 27.83666992 C57.94798691 28.86922409 57.96067108 29.90177826 57.97373962 30.96562195 C57.97080399 32.08942764 57.96786835 33.21323334 57.96484375 34.37109375 C57.9700856 35.53127518 57.97532745 36.6914566 57.98072815 37.88679504 C57.98716741 40.35412801 57.98578692 42.8214916 57.97729492 45.28881836 C57.96888559 49.01799522 57.99735718 52.74558805 58.02929688 56.47460938 C58.10702152 82.56542443 52.27043012 101.65096937 33.84375 121.015625 C25.40531046 129.14104669 10.43022095 142.58280103 -1.85546875 142.96484375 C-4.38525809 142.27745182 -6.23144944 141.26798593 -8.46875 139.890625 C-9.54898438 139.25898437 -10.62921875 138.62734375 -11.7421875 137.9765625 C-19.51057127 133.28418575 -26.66624847 127.90238989 -33.46875 121.890625 C-34.17515625 121.26800781 -34.8815625 120.64539063 -35.609375 120.00390625 C-51.3580002 105.2163192 -58.42733826 86.31476236 -59.328125 65.05981445 C-59.55960543 56.86179024 -59.45603752 48.66400677 -59.26965332 40.46618652 C-59.23576735 38.95968299 -59.20605112 37.45307979 -59.18054199 35.94641113 C-59.14119546 33.81899675 -59.08155307 31.6931432 -59.015625 29.56640625 C-58.98307617 28.32802002 -58.95052734 27.08963379 -58.91699219 25.8137207 C-58.76907227 24.84909912 -58.62115234 23.88447754 -58.46875 22.890625 C-54.95309369 20.54685413 -51.85613771 20.18216504 -47.78125 19.578125 C-32.27611262 17.03627198 -15.41871692 12.84461699 -4.28515625 1.11328125 C-2.46875 -0.109375 -2.46875 -0.109375 0 0 Z " fill="#FBFBFB" transform="translate(430.46875,379.109375)"/>
<path d="M0 0 C1.81287677 0.70486669 3.62628685 1.40836303 5.44018555 2.1105957 C9.39659269 3.64328087 13.35068854 5.18175232 17.30371094 6.72314453 C28.00486821 10.88716319 38.74161525 14.95868274 49.47232056 19.04577637 C56.38572509 21.67988336 63.29764827 24.31788915 70.20706177 26.96244812 C74.52311491 28.61428233 78.83923848 30.26469437 83.16870117 31.88110352 C84.91050659 32.53550415 84.91050659 32.53550415 86.6875 33.203125 C88.08548828 33.72181152 88.08548828 33.72181152 89.51171875 34.25097656 C94.40026009 36.37363267 97.7135959 39.29150393 99.8125 44.25 C100.93650887 49.91978407 100.95535083 55.76221809 100.92602539 61.52368164 C100.92617142 62.29552795 100.92631744 63.06737427 100.9264679 63.86260986 C100.92577898 66.37848866 100.91803513 68.89429061 100.91015625 71.41015625 C100.90828843 73.16849222 100.90686625 74.92682872 100.90586853 76.68516541 C100.90207198 81.28658515 100.8922665 85.88797274 100.88116455 90.48937988 C100.87088853 95.19538946 100.86635771 99.90140429 100.86132812 104.60742188 C100.85064136 113.82162862 100.83359977 123.03581162 100.8125 132.25 C102.03767334 132.26401855 102.03767334 132.26401855 103.28759766 132.27832031 C107.00483506 132.33215507 110.720832 132.41577994 114.4375 132.5 C115.72269531 132.51417969 117.00789063 132.52835938 118.33203125 132.54296875 C130.37059162 132.85484855 130.37059162 132.85484855 134.8125 137.25 C136.56671686 140.15445356 137.05940498 142.27615365 137.03955078 145.65136719 C137.03939972 146.5119574 137.03924866 147.37254761 137.03909302 148.25921631 C137.02877045 149.17914368 137.01844788 150.09907104 137.0078125 151.046875 C137.00356766 152.47003021 137.00356766 152.47003021 136.99923706 153.92193604 C136.98805448 156.94808639 136.9629533 159.9739393 136.9375 163 C136.92746772 165.05338114 136.9183423 167.10676692 136.91015625 169.16015625 C136.88812141 174.19021854 136.85360462 179.22005886 136.8125 184.25 C134.8325 184.25 132.8525 184.25 130.8125 184.25 C130.78744385 183.0539917 130.7623877 181.8579834 130.73657227 180.62573242 C130.64246148 176.19202805 130.54224964 171.758479 130.44018555 167.32495117 C130.3968506 165.40539175 130.35517448 163.48579415 130.31518555 161.56616211 C130.25744822 158.80831386 130.19376365 156.05065759 130.12890625 153.29296875 C130.10383751 152.00376778 130.10383751 152.00376778 130.07826233 150.68852234 C130.05831711 149.88791885 130.03837189 149.08731537 130.01782227 148.26245117 C130.00227798 147.5585173 129.9867337 146.85458344 129.97071838 146.12931824 C129.86768396 144.02300917 129.86768396 144.02300917 128.8125 141.25 C127.89436523 141.23018066 126.97623047 141.21036133 126.03027344 141.18994141 C122.61578175 141.11173045 119.20172298 141.02503416 115.78759766 140.93261719 C114.31144464 140.89439334 112.83520057 140.85952897 111.35888672 140.828125 C109.23371906 140.78233014 107.10917458 140.72436163 104.984375 140.6640625 C103.7065918 140.6326416 102.42880859 140.6012207 101.11230469 140.56884766 C98.00582573 140.26868033 96.47799263 139.70636625 93.8125 138.25 C93.80441315 137.11882751 93.79632629 135.98765503 93.78799438 134.82220459 C93.71055428 124.16886085 93.62282032 113.51564515 93.52497292 102.86246872 C93.47499878 97.38538909 93.42866874 91.90832886 93.390625 86.43115234 C93.35378646 81.1466921 93.30743022 75.86239367 93.25443649 70.57807159 C93.23588497 68.56065963 93.22077982 66.54321298 93.20915604 64.52574921 C93.1923067 61.70286949 93.16327462 58.88036098 93.13134766 56.05761719 C93.12918747 55.22108109 93.12702728 54.38454498 93.12480164 53.5226593 C93.09476146 48.06276012 93.09476146 48.06276012 90.8125 43.25 C88.93730054 42.0465575 88.93730054 42.0465575 86.625 41.234375 C85.27003418 40.70154907 85.27003418 40.70154907 83.88769531 40.15795898 C82.87288086 39.77583252 81.85806641 39.39370605 80.8125 39 C79.72291992 38.57726807 78.63333984 38.15453613 77.51074219 37.71899414 C74.33165327 36.49039522 71.1477572 35.27591331 67.96118164 34.06695557 C64.92059299 32.91088583 61.88395507 31.74458784 58.84695435 30.57913208 C50.05898948 27.20747703 41.25980635 23.86618382 32.45608521 20.53591919 C26.46599887 18.26632717 20.48717662 15.96914235 14.51452637 13.65406799 C10.40439917 12.0625452 6.29030354 10.4814438 2.17565918 8.90164185 C0.19801904 8.13945583 -1.77784902 7.37265433 -3.75183105 6.6010437 C-6.50967046 5.5237939 -9.27344584 4.46334283 -12.0390625 3.40625 C-12.84874481 3.08519791 -13.65842712 2.76414581 -14.49264526 2.43336487 C-23.58266601 -0.99834283 -29.88263733 0.05290916 -38.66796875 3.58984375 C-39.57804688 3.94334396 -40.488125 4.29684418 -41.42578125 4.66105652 C-44.4137378 5.82444908 -47.39414323 7.0060493 -50.375 8.1875 C-52.46530664 9.00461633 -54.55621827 9.82018653 -56.64770508 10.63427734 C-59.88996854 11.89641061 -63.13184622 13.15943885 -66.37187195 14.42730713 C-78.5804731 19.20217935 -90.85292728 23.8050805 -103.12753296 28.4069519 C-108.28964224 30.34363072 -113.44651744 32.29313766 -118.59613037 34.26281738 C-120.39475654 34.94800427 -122.19540712 35.62789128 -123.99761963 36.30358887 C-126.79151189 37.35299013 -129.57783258 38.42060652 -132.36328125 39.4921875 C-133.22028122 39.80987091 -134.07728119 40.12755432 -134.96025085 40.4548645 C-135.74849747 40.76221527 -136.53674408 41.06956604 -137.34887695 41.38623047 C-138.04382767 41.65031708 -138.73877838 41.91440369 -139.45478821 42.18649292 C-141.84475933 43.65341386 -142.32686569 44.55635184 -143.1875 47.25 C-143.38218455 50.20644029 -143.46779631 53.0695801 -143.45874023 56.02587891 C-143.46396698 56.91082535 -143.46919373 57.79577179 -143.47457886 58.70753479 C-143.48481128 60.62654473 -143.49059794 62.54558237 -143.49246025 64.46461868 C-143.49612017 67.49846662 -143.51283454 70.5319866 -143.53321838 73.56576538 C-143.58868144 82.19026615 -143.61938781 90.81481446 -143.64379883 99.43945312 C-143.65963311 104.71556643 -143.68980323 109.99144494 -143.72856331 115.26743698 C-143.74024487 117.28092338 -143.74614393 119.29445167 -143.74624443 121.30797195 C-143.74643551 124.11653587 -143.76462843 126.92444711 -143.78686523 129.73291016 C-143.78228806 130.57035263 -143.77771088 131.4077951 -143.772995 132.27061462 C-143.80223083 134.58169556 -143.80223083 134.58169556 -144.1875 138.25 C-147.87456641 140.70804427 -149.79313494 140.51591375 -154.19140625 140.55859375 C-155.58529089 140.58374017 -156.979171 140.60913838 -158.37304688 140.63476562 C-160.56761638 140.66357997 -162.76210776 140.68760314 -164.95678711 140.70629883 C-167.07705885 140.72788826 -169.19644033 140.76730358 -171.31640625 140.80859375 C-173.22015015 140.82877563 -173.22015015 140.82877563 -175.16235352 140.84936523 C-176.16065186 140.98157471 -177.1589502 141.11378418 -178.1875 141.25 C-180.19417234 144.26000852 -180.44241971 144.88492456 -180.50634766 148.26245117 C-180.52621735 149.06305466 -180.54608704 149.86365814 -180.56655884 150.68852234 C-180.58388565 151.97772331 -180.58388565 151.97772331 -180.6015625 153.29296875 C-180.62092865 154.1765657 -180.6402948 155.06016266 -180.6602478 155.97053528 C-180.72002805 158.79275866 -180.76642266 161.61502286 -180.8125 164.4375 C-180.85068122 166.35092925 -180.88973304 168.26434133 -180.9296875 170.17773438 C-181.02572832 174.86835021 -181.1097651 179.55904652 -181.1875 184.25 C-183.1675 184.25 -185.1475 184.25 -187.1875 184.25 C-187.2866017 178.23605117 -187.35907916 172.22258085 -187.40722656 166.20800781 C-187.4273042 164.1633272 -187.45457225 162.11870373 -187.48925781 160.07421875 C-187.53794519 157.13006463 -187.56050744 154.18667166 -187.578125 151.2421875 C-187.59877014 150.3325827 -187.61941528 149.42297791 -187.64068604 148.48580933 C-187.64263862 142.92492285 -187.0393653 139.57764419 -183.1875 135.25 C-179.67846592 132.91349013 -176.59886579 133.01832135 -172.453125 133.0546875 C-171.15761719 133.06113281 -169.86210937 133.06757813 -168.52734375 133.07421875 C-167.16405981 133.09092807 -165.80077856 133.10785794 -164.4375 133.125 C-163.05860015 133.1350366 -161.67969335 133.14416127 -160.30078125 133.15234375 C-156.92951118 133.17591907 -153.55859364 133.2088273 -150.1875 133.25 C-150.19638245 132.14832489 -150.20526489 131.04664978 -150.2144165 129.91159058 C-150.29554093 119.52391925 -150.35548401 109.13631228 -150.39474869 98.74839592 C-150.4156138 93.40797588 -150.44391212 88.0678118 -150.48925781 82.72753906 C-150.53275346 77.57282117 -150.5566452 72.41834932 -150.56700897 67.26346207 C-150.57439363 65.29787448 -150.5888142 63.33230019 -150.61042023 61.36681747 C-150.63950353 58.61127487 -150.64345393 55.85674588 -150.64160156 53.10107422 C-150.65598267 52.29043015 -150.67036377 51.47978607 -150.68518066 50.64457703 C-150.64691856 45.3762848 -149.62068197 42.46379437 -146.1875 38.25 C-142.65558045 34.8077205 -137.97732908 33.47437601 -133.4296875 31.80078125 C-132.11097656 31.30629486 -132.11097656 31.30629486 -130.765625 30.80181885 C-127.86675531 29.71613421 -124.96463406 28.63942472 -122.0625 27.5625 C-119.00163967 26.41845807 -115.94163867 25.27213638 -112.88162231 24.12583923 C-110.78122961 23.3392947 -108.68053813 22.55354759 -106.57955933 21.76856995 C-96.93778945 18.16489405 -87.3202246 14.49941493 -77.70635986 10.82208252 C-75.07547328 9.81745397 -72.44308643 8.81687301 -69.81005859 7.81787109 C-68.11034192 7.17287698 -66.41063471 6.52785791 -64.7109375 5.8828125 C-63.89418549 5.57286346 -63.07743347 5.26291443 -62.2359314 4.943573 C-57.77185369 3.24564838 -53.31888799 1.52301748 -48.87747192 -0.23332214 C-46.97576389 -0.98347365 -45.07094006 -1.72497136 -43.16455078 -2.46313477 C-40.94536266 -3.32435178 -38.73203372 -4.20093033 -36.52685547 -5.09741211 C-23.06008529 -10.2637467 -12.6998345 -5.0128787 0 0 Z " fill="#373737" transform="translate(455.1875,251.75)"/>
<path d="M0 0 C0.06949668 12.30007173 0.12280969 24.60009678 0.15543652 36.90032482 C0.17109539 42.61176168 0.19233796 48.32306425 0.22631836 54.03442383 C0.25890352 59.54573703 0.27685134 65.05692104 0.28463173 70.56832314 C0.29017672 72.6714818 0.30100466 74.77463335 0.31719017 76.87773705 C0.33895298 79.82253705 0.34196737 82.76680249 0.34057617 85.71166992 C0.35675491 87.01718559 0.35675491 87.01718559 0.3732605 88.34907532 C0.34941644 93.01045694 0.21539921 96.34529391 -3 100 C-8.74010749 103.93203934 -14.61000897 103.41923619 -21.2980957 103.38095093 C-22.54855588 103.3856309 -23.79901606 103.39031087 -25.08736897 103.39513266 C-28.55119322 103.40764483 -32.0147692 103.40147142 -35.4785943 103.39217401 C-39.21689687 103.3853847 -42.95515683 103.39586415 -46.69345093 103.40411377 C-54.01397632 103.41745458 -61.33440945 103.41457183 -68.65493846 103.40587585 C-74.60440882 103.39910108 -80.55385331 103.39818169 -86.50332642 103.4014473 C-87.35004168 103.401907 -88.19675694 103.40236669 -89.06913024 103.40284032 C-90.78920866 103.4037995 -92.50928707 103.40477214 -94.22936547 103.4057581 C-110.35906881 103.41431301 -126.488721 103.40447627 -142.61841595 103.388357 C-156.4588524 103.37495372 -170.29921336 103.37728179 -184.13964844 103.39111328 C-200.21158052 103.40716731 -216.28346778 103.41348903 -232.35540676 103.40427649 C-234.06916236 103.40332084 -235.78291797 103.40237773 -237.49667358 103.4014473 C-238.7614789 103.40075306 -238.7614789 103.40075306 -240.05183583 103.40004479 C-245.99425445 103.39745437 -251.93664463 103.40182702 -257.87905884 103.40888596 C-265.12075115 103.41729918 -272.3623459 103.41502458 -279.60402703 103.39904372 C-283.29895284 103.39115859 -286.99371598 103.38807346 -290.68864059 103.39799118 C-294.6932035 103.40857746 -298.69735555 103.39593835 -302.7019043 103.38095093 C-303.87096471 103.38764309 -305.04002512 103.39433526 -306.2445116 103.40123022 C-311.88130072 103.36017697 -316.18636629 103.29812957 -321 100 C-324.76826301 95.70523169 -324.40849287 91.22500756 -324.34057617 85.8034668 C-324.34101425 84.88590103 -324.34145233 83.96833527 -324.34190369 83.02296448 C-324.33981812 79.99816412 -324.31649776 76.97392197 -324.29296875 73.94921875 C-324.28737198 71.84886477 -324.28310226 69.74850688 -324.28010559 67.64814758 C-324.26866326 62.12593736 -324.23920114 56.60396466 -324.20599365 51.08184814 C-324.17527971 45.44457207 -324.16159741 39.80725754 -324.14648438 34.16992188 C-324.11433102 23.11317701 -324.06314189 12.05660828 -324 1 C-321.04830933 2.45526123 -321.04830933 2.45526123 -318 5 C-317.38511348 8.15564494 -317.1803822 10.55700953 -317.22705078 13.71582031 C-317.21642105 14.59422577 -317.20579132 15.47263123 -317.19483948 16.37765503 C-317.16675517 19.2783921 -317.18085611 22.1773138 -317.1953125 25.078125 C-317.18406443 27.0902465 -317.1701847 29.10235487 -317.15377808 31.11444092 C-317.11768884 36.40820105 -317.11737307 41.70138427 -317.12445068 46.99523926 C-317.12536252 52.39797332 -317.09252033 57.80048993 -317.0625 63.203125 C-317.00858961 73.80214374 -316.99246176 84.40085934 -317 95 C-277.77964351 95.02286485 -238.55928789 95.04049745 -199.33892608 95.05106533 C-194.7136623 95.05231611 -190.08839853 95.05361042 -185.46313477 95.05493164 C-184.08186421 95.05532511 -184.08186421 95.05532511 -182.67268919 95.05572652 C-167.74215314 95.06008354 -152.81162091 95.06797126 -137.88108713 95.0771528 C-122.57280456 95.08648845 -107.26452399 95.09205542 -91.95623869 95.09408849 C-82.50232797 95.09546391 -73.04842807 95.09981547 -63.59452068 95.10791647 C-57.1207478 95.11318284 -50.64698055 95.11480455 -44.17320568 95.11350138 C-40.43240714 95.11285783 -36.69162758 95.11387742 -32.95083237 95.11920547 C-28.90491749 95.12492637 -24.85904358 95.12300119 -20.81312561 95.12025452 C-19.61762638 95.12316736 -18.42212714 95.1260802 -17.19040066 95.12908131 C-16.11552377 95.12709026 -15.04064689 95.12509921 -13.93319798 95.12304783 C-12.9979468 95.12342755 -12.06269563 95.12380727 -11.09910351 95.1241985 C-9.01252359 95.23389281 -9.01252359 95.23389281 -8 94 C-7.06665863 88.87401809 -6.85446614 83.84416939 -6.8581543 78.6496582 C-6.85467987 77.84551483 -6.85120544 77.04137146 -6.84762573 76.21286011 C-6.84031293 74.47887667 -6.8349439 72.74488415 -6.83133507 71.01088905 C-6.82412781 68.26615041 -6.80843335 65.52158622 -6.78999329 62.77690125 C-6.73769717 54.97751118 -6.68949277 47.17822413 -6.67407227 39.37866211 C-6.66400382 34.59824703 -6.63472147 29.81828293 -6.59275246 25.03804588 C-6.5804346 23.2188069 -6.57532263 21.39950431 -6.57755089 19.58022499 C-6.57989825 17.04037645 -6.55778651 14.50183084 -6.5300293 11.9621582 C-6.53663071 11.21142532 -6.54323212 10.46069244 -6.55003357 9.68721008 C-6.48713249 6.18710535 -6.24510719 4.32083206 -4.09187317 1.50236511 C-2 0 -2 0 0 0 Z " fill="#444444" transform="translate(592,603)"/>
<path d="M0 0 C2.78804177 0.98097766 4.37431137 2.14092712 6.59375 4.078125 C19.47613393 14.40515081 35.87025219 18.55582193 52.02734375 20.43359375 C54.53125 20.890625 54.53125 20.890625 57.53125 22.890625 C57.91893005 25.08024597 57.91893005 25.08024597 57.93530273 27.83666992 C57.94798691 28.86922409 57.96067108 29.90177826 57.97373962 30.96562195 C57.97080399 32.08942764 57.96786835 33.21323334 57.96484375 34.37109375 C57.9700856 35.53127518 57.97532745 36.6914566 57.98072815 37.88679504 C57.98716741 40.35412801 57.98578692 42.8214916 57.97729492 45.28881836 C57.96888559 49.01799522 57.99735718 52.74558805 58.02929688 56.47460938 C58.10702152 82.56542443 52.27043012 101.65096937 33.84375 121.015625 C25.40531046 129.14104669 10.43022095 142.58280103 -1.85546875 142.96484375 C-4.38525809 142.27745182 -6.23144944 141.26798593 -8.46875 139.890625 C-9.54898438 139.25898437 -10.62921875 138.62734375 -11.7421875 137.9765625 C-19.51057127 133.28418575 -26.66624847 127.90238989 -33.46875 121.890625 C-34.17515625 121.26800781 -34.8815625 120.64539063 -35.609375 120.00390625 C-51.3580002 105.2163192 -58.42733826 86.31476236 -59.328125 65.05981445 C-59.55960543 56.86179024 -59.45603752 48.66400677 -59.26965332 40.46618652 C-59.23576735 38.95968299 -59.20605112 37.45307979 -59.18054199 35.94641113 C-59.14119546 33.81899675 -59.08155307 31.6931432 -59.015625 29.56640625 C-58.98307617 28.32802002 -58.95052734 27.08963379 -58.91699219 25.8137207 C-58.76907227 24.84909912 -58.62115234 23.88447754 -58.46875 22.890625 C-54.95309369 20.54685413 -51.85613771 20.18216504 -47.78125 19.578125 C-32.27611262 17.03627198 -15.41871692 12.84461699 -4.28515625 1.11328125 C-2.46875 -0.109375 -2.46875 -0.109375 0 0 Z M-4.09375 9.453125 C-9.84621873 14.56373932 -17.38482409 17.11460533 -24.46875 19.890625 C-25.6554126 20.37378174 -26.8420752 20.85693848 -28.06469727 21.35473633 C-32.92319497 23.17035418 -37.88183403 24.12802514 -42.96875 25.078125 C-44.34546875 25.34399414 -44.34546875 25.34399414 -45.75 25.61523438 C-47.98846875 26.04660596 -50.22794433 26.47159434 -52.46875 26.890625 C-52.57116915 33.75491413 -52.64063765 40.61900229 -52.68847656 47.48388672 C-52.70844464 49.8133887 -52.73562879 52.14284153 -52.77050781 54.47216797 C-53.14760646 73.0589698 -53.14760646 73.0589698 -48.46875 90.890625 C-48.06873779 91.92002197 -48.06873779 91.92002197 -47.66064453 92.97021484 C-43.76877118 102.12095266 -37.33484265 108.94230369 -30.46875 115.890625 C-29.89640625 116.53515625 -29.3240625 117.1796875 -28.734375 117.84375 C-22.06704665 125.19843179 -11.70362617 132.27104937 -2.46875 135.890625 C2.59045168 135.76920416 6.4289643 133.60202738 10.65625 131.015625 C11.30787109 130.62068848 11.95949219 130.22575195 12.63085938 129.81884766 C19.35211289 125.60085124 24.91152854 120.45083353 30.53125 114.890625 C31.20800781 114.27445312 31.88476562 113.65828125 32.58203125 113.0234375 C43.95302087 102.48447151 50.71190744 86.57680157 51.70594788 71.18571472 C51.7603666 68.33260976 51.75672769 65.48626296 51.7265625 62.6328125 C51.72231766 61.08921555 51.72231766 61.08921555 51.71798706 59.51443481 C51.70689479 56.26470744 51.68181115 53.01526746 51.65625 49.765625 C51.64620603 47.54687901 51.63708267 45.32812866 51.62890625 43.109375 C51.60699149 37.70302885 51.57362499 32.29684747 51.53125 26.890625 C50.96499405 26.78189056 50.3987381 26.67315613 49.81532288 26.56112671 C47.21062171 26.05829172 44.60728009 25.54872313 42.00390625 25.0390625 C41.11336548 24.86818115 40.22282471 24.6972998 39.30529785 24.52124023 C24.95356482 21.69632926 11.65307884 16.58657834 0.53125 6.890625 C-1.84162237 6.65777943 -1.84162237 6.65777943 -4.09375 9.453125 Z " fill="#313131" transform="translate(430.46875,379.109375)"/>
<path d="M0 0 C2.125 0.9375 2.125 0.9375 4 2 C4.02505615 2.7520874 4.0501123 3.5041748 4.07592773 4.27905273 C4.19150514 7.66539196 4.31440345 11.05142613 4.4375 14.4375 C4.47681641 15.62150391 4.51613281 16.80550781 4.55664062 18.02539062 C4.59853516 19.15009766 4.64042969 20.27480469 4.68359375 21.43359375 C4.72025146 22.47572021 4.75690918 23.51784668 4.79467773 24.59155273 C4.73515341 26.9499826 4.73515341 26.9499826 6 28 C7.34909388 28.09725103 8.70323738 28.12555393 10.05583191 28.12584114 C10.93502194 28.12844889 11.81421198 28.13105664 12.72004414 28.13374341 C13.69696815 28.13151268 14.67389215 28.12928196 15.68041992 28.12698364 C17.224226 28.12932363 17.224226 28.12932363 18.79922009 28.13171089 C22.27631719 28.13572573 25.75337126 28.13252937 29.23046875 28.12939453 C31.71172105 28.13074836 34.19297314 28.13252818 36.67422485 28.13470459 C42.73107049 28.13880503 48.78789899 28.1381856 54.84474397 28.13529195 C59.7650985 28.13303812 64.68544955 28.13272531 69.60580444 28.13381577 C70.65425467 28.13404561 70.65425467 28.13404561 71.72388572 28.13428011 C73.14360245 28.13459982 74.56331919 28.13492403 75.98303592 28.1352527 C89.31127898 28.13810764 102.63951517 28.13482025 115.96775711 28.12945233 C127.4163337 28.12498428 138.86490015 28.12576021 150.31347656 28.13037109 C163.59241179 28.13571661 176.87134099 28.13783295 190.15027714 28.13475883 C191.56491661 28.13444026 192.97955608 28.13412589 194.39419556 28.13381577 C195.09031564 28.13366149 195.78643573 28.13350721 196.50365037 28.13334826 C201.42092259 28.13248304 206.33819101 28.1339461 211.25546265 28.13629532 C217.86765478 28.13938469 224.47983065 28.13720088 231.09202194 28.13140106 C233.52656395 28.13007272 235.96110757 28.13046882 238.39564896 28.13266373 C241.70364827 28.13537234 245.01158483 28.13199765 248.31958008 28.12698364 C249.29650409 28.12921436 250.2734281 28.13144509 251.27995586 28.13374341 C252.59874092 28.12983178 252.59874092 28.12983178 253.94416809 28.12584114 C254.70876248 28.12567879 255.47335688 28.12551644 256.2611208 28.12534916 C258.0296316 28.18851374 258.0296316 28.18851374 259 27 C259.15786308 25.14825294 259.25107356 23.2909089 259.31640625 21.43359375 C259.35830078 20.30888672 259.40019531 19.18417969 259.44335938 18.02539062 C259.50233398 16.24938477 259.50233398 16.24938477 259.5625 14.4375 C259.60568359 13.24962891 259.64886719 12.06175781 259.69335938 10.83789062 C259.79983546 7.89205216 259.90184841 4.9461257 260 2 C261.875 0.9375 261.875 0.9375 264 0 C264.66 0.33 265.32 0.66 266 1 C266.1455841 5.54132797 266.23417333 10.08205341 266.3125 14.625 C266.35439453 15.91019531 266.39628906 17.19539062 266.43945312 18.51953125 C266.57761356 29.18551697 266.57761356 29.18551697 263.66796875 32.8359375 C260.2836708 35.58103423 257.93514372 36.12451156 253.71203899 36.13142776 C252.83195036 36.13526891 251.95186172 36.13911005 251.04510373 36.1430676 C250.077416 36.14220112 249.10972827 36.14133463 248.11271667 36.14044189 C247.0853316 36.14341302 246.05794653 36.14638414 244.99942857 36.1494453 C241.54021963 36.15815032 238.08104522 36.15964207 234.62182617 36.16113281 C232.14839097 36.16575969 229.67495648 36.17078417 227.20152283 36.17617798 C220.47010601 36.18931604 213.73870276 36.19578616 207.0072763 36.20018864 C202.80456081 36.20295084 198.60184762 36.20718815 194.39913368 36.21169281 C182.76419691 36.22388553 171.12926198 36.23418489 159.49431896 36.2375679 C158.74959566 36.23778747 158.00487236 36.23800703 157.23758169 36.23823325 C156.49107185 36.23845153 155.74456201 36.23866981 154.97543067 36.2388947 C153.46270573 36.23933817 151.94998079 36.23978473 150.43725586 36.24023438 C149.31170903 36.24056652 149.31170903 36.24056652 148.16342387 36.24090537 C136.00410404 36.24485361 123.84484412 36.2623084 111.68554743 36.2855939 C99.20330412 36.30930501 86.72109087 36.32176964 74.23882467 36.32293582 C67.22986896 36.32385271 60.22099132 36.32960847 53.21205711 36.34775543 C46.6203155 36.36476204 40.028696 36.36641083 33.4369297 36.35761642 C31.01576974 36.35684394 28.59460193 36.36121641 26.17346191 36.37107468 C22.87154118 36.38373218 19.5701509 36.37795077 16.26823425 36.36749268 C14.82674091 36.37957728 14.82674091 36.37957728 13.35612649 36.39190602 C8.16946219 36.35341199 4.44733624 35.98108359 0 33 C-2.270338 29.594493 -2.30528889 28.14153311 -2.44921875 24.125 C-2.49240234 22.97515625 -2.53558594 21.8253125 -2.58007812 20.640625 C-2.61552734 19.43921875 -2.65097656 18.2378125 -2.6875 17 C-2.73455078 15.79859375 -2.78160156 14.5971875 -2.83007812 13.359375 C-3.13613688 4.40841065 -3.13613688 4.40841065 -2 1 C-1.34 0.67 -0.68 0.34 0 0 Z " fill="#474646" transform="translate(298,643)"/>
<path d="M0 0 C2.86463614 1.35256762 5.3623072 2.91128268 7.9375 4.75 C21.67913001 13.87408713 36.90412264 17.38926874 53 20 C53.07688808 26.43709545 53.12894632 32.8740699 53.16479492 39.31152344 C53.17976019 41.49548772 53.20013972 43.67942259 53.22631836 45.86328125 C53.57386084 75.62927218 53.57386084 75.62927218 46.5 89.125 C46.16105713 89.78749756 45.82211426 90.44999512 45.47290039 91.13256836 C41.70809256 98.11019144 36.60887748 103.47623447 31 109 C30.14341797 109.96099609 30.14341797 109.96099609 29.26953125 110.94140625 C22.62138733 118.30734463 12.22904711 125.38270905 3 129 C-11.7094688 128.4093348 -26.16550402 112.80272267 -35.67382812 102.51708984 C-46.59477458 90.02394529 -51.35500994 74.56259882 -51.1953125 58.28125 C-51.1924826 57.18276733 -51.18965271 56.08428467 -51.18673706 54.95251465 C-51.17560486 51.468229 -51.15051298 47.98420704 -51.125 44.5 C-51.11496121 42.1276079 -51.10583694 39.75521174 -51.09765625 37.3828125 C-51.07568834 31.58845276 -51.04228046 25.79424523 -51 20 C-50.17516365 19.84868118 -50.17516365 19.84868118 -49.33366394 19.69430542 C-34.51713416 17.00291146 -34.51713416 17.00291146 -20.3125 12.125 C-19.07137451 11.60945557 -19.07137451 11.60945557 -17.80517578 11.08349609 C-11.21011291 8.26860988 -5.10998427 5.10998427 0 0 Z M-4.9375 10.0625 C-10.2310311 13.19164968 -15.55460295 15.59815295 -21.3125 17.75 C-22.04525146 18.03109619 -22.77800293 18.31219238 -23.53295898 18.60180664 C-30.83873653 21.24365256 -38.38120179 22.59578812 -46 24 C-46.12498147 30.27637737 -46.21498315 36.55200706 -46.2746582 42.8293457 C-46.29957325 44.95805503 -46.33351819 47.0866809 -46.37719727 49.21508789 C-46.83860153 72.30158603 -42.26449762 87.98438882 -26 105 C-25.20529297 105.90685547 -25.20529297 105.90685547 -24.39453125 106.83203125 C-20.5691538 111.03109595 -16.12063223 114.14886458 -11.4375 117.3125 C-10.79989746 117.745625 -10.16229492 118.17875 -9.50537109 118.625 C-5.8278417 121.04174385 -2.39507706 123.24323176 2 124 C18.83183766 117.9071193 35.23668646 100.62130164 43 85 C47.04093649 75.62295507 48.15548752 67.04428203 48.09765625 56.91015625 C48.0962413 55.96563095 48.09482635 55.02110565 48.09336853 54.04795837 C48.0878036 51.05277237 48.07525767 48.05766313 48.0625 45.0625 C48.05748046 43.02278754 48.05291835 40.98307391 48.04882812 38.94335938 C48.03784567 33.96221034 48.0206054 28.98111815 48 24 C46.7205249 23.74387939 45.4410498 23.48775879 44.12280273 23.22387695 C42.41383889 22.8748095 40.70493927 22.52542748 38.99609375 22.17578125 C37.7365387 21.92495789 37.7365387 21.92495789 36.45153809 21.66906738 C24.75266332 19.25789218 14.40798572 14.6268413 4.29296875 8.3203125 C0.22141545 5.97587466 -1.21591231 7.68757378 -4.9375 10.0625 Z " fill="#F0F0EF" transform="translate(429,386)"/>
<path d="M0 0 C2.68037438 1.37306335 5.35933589 2.74797905 8.02270508 4.15380859 C20.13445568 10.49474466 32.24539543 14.10028706 45.70703125 16.38671875 C45.75685434 22.30915126 45.79294938 28.23145895 45.81689453 34.15405273 C45.82688789 36.16449105 45.84048713 38.17491508 45.85791016 40.18530273 C46.04082205 61.84960224 43.80670898 77.76100975 28.70703125 94.38671875 C27.918125 95.28003906 27.12921875 96.17335938 26.31640625 97.09375 C19.23941533 104.66867292 8.33565386 114.69855718 -2.29296875 116.38671875 C-20.65298108 108.44507119 -36.41334818 92.22495561 -44.72973633 74.2878418 C-49.24604054 62.45934334 -48.86235624 50.9669098 -48.60546875 38.44921875 C-48.58033073 36.30145853 -48.55752738 34.15366965 -48.53710938 32.00585938 C-48.48260611 26.79875807 -48.39664267 21.59306362 -48.29296875 16.38671875 C-47.33559814 16.21438721 -46.37822754 16.04205566 -45.3918457 15.86450195 C-37.45289285 14.36801255 -30.01168013 12.56899305 -22.48046875 9.57421875 C-21.58392578 9.22891113 -20.68738281 8.88360352 -19.76367188 8.52783203 C-14.1700882 6.31549013 -9.07654754 3.83885898 -4.23046875 0.22265625 C-2.29296875 -0.61328125 -2.29296875 -0.61328125 0 0 Z M-10.60546875 10.07421875 C-21.08378105 15.51740407 -31.73664187 18.94983756 -43.29296875 21.38671875 C-43.36798465 26.29391258 -43.42197285 31.20076146 -43.45776367 36.10839844 C-43.47270799 37.7725202 -43.49307098 39.43660358 -43.51928711 41.10058594 C-43.79381802 58.99354145 -41.14882059 74.9291567 -28.79296875 88.82421875 C-27.30386659 90.35572415 -25.80478272 91.87762877 -24.29296875 93.38671875 C-23.75285156 93.99773437 -23.21273438 94.60875 -22.65625 95.23828125 C-18.98594381 99.28763669 -14.74335707 102.35051939 -10.23046875 105.38671875 C-9.34548706 106.00268921 -9.34548706 106.00268921 -8.44262695 106.63110352 C-5.58869979 108.47776227 -3.66718221 109.38815619 -0.2421875 109.375 C14.2748728 104.51034271 27.79726415 89.58689007 34.70703125 76.38671875 C36.23174949 73.1064101 37.56812746 69.81962306 38.70703125 66.38671875 C39.05000244 65.36602295 39.39297363 64.34532715 39.74633789 63.29370117 C40.96570909 58.97946658 40.96020234 54.84706314 40.90234375 50.390625 C40.89951385 49.55707993 40.89668396 48.72353485 40.89376831 47.86473083 C40.88265414 45.22607515 40.8575664 42.58777027 40.83203125 39.94921875 C40.8219901 38.15039556 40.81286624 36.351567 40.8046875 34.55273438 C40.7827436 30.1639292 40.74827512 25.77538327 40.70703125 21.38671875 C40.16401367 21.26143799 39.62099609 21.13615723 39.06152344 21.00708008 C13.17981026 14.96929151 13.17981026 14.96929151 2.42578125 7.3046875 C-2.37011178 4.74324463 -6.39623802 7.8051053 -10.60546875 10.07421875 Z " fill="#242423" transform="translate(431.29296875,393.61328125)"/>
<path d="M0 0 C0.71003174 0.27835693 1.42006348 0.55671387 2.15161133 0.84350586 C3.31599731 1.32315796 3.31599731 1.32315796 4.50390625 1.8125 C6.3502498 2.54299558 8.19660511 3.27346145 10.04296875 4.00390625 C11.65413574 4.64996826 11.65413574 4.64996826 13.29785156 5.30908203 C20.40263654 8.15239299 27.54054724 10.9125288 34.67028809 13.69247437 C37.37662023 14.74910747 40.08152527 15.80932251 42.78613281 16.87036133 C50.44687953 19.87201789 58.10795988 22.85765881 65.83984375 25.671875 C67.50019653 26.27721069 67.50019653 26.27721069 69.1940918 26.89477539 C71.155082 27.60309763 73.11982448 28.30116626 75.08911133 28.98608398 C81.50092677 31.29952567 86.11486115 33.82013084 89.94140625 39.6875 C92.1509124 45.52319565 91.4511331 52.6938633 91.06640625 58.8125 C90.73640625 59.4725 90.40640625 60.1325 90.06640625 60.8125 C88.41640625 60.8125 86.76640625 60.8125 85.06640625 60.8125 C83.27505827 57.22980403 83.77797939 52.73175126 83.72460938 48.75390625 C83.59939039 45.59139896 83.47203338 43.35182329 81.5390625 40.78173828 C78.24450207 38.15793058 74.86399847 36.91150881 70.9296875 35.484375 C70.11353973 35.17796585 69.29739197 34.8715567 68.45651245 34.55586243 C65.76751135 33.5483121 63.07328325 32.55557402 60.37890625 31.5625 C56.57775712 30.14377325 52.77929571 28.71789956 48.98046875 27.29296875 C48.00492538 26.92832016 47.02938202 26.56367157 46.02427673 26.18797302 C39.10591897 23.59690514 32.2156776 20.94005821 25.33984375 18.23828125 C24.40208603 17.86994171 23.46432831 17.50160217 22.49815369 17.12210083 C18.85454221 15.6892313 15.21181078 14.25419938 11.57144165 12.81311035 C9.06459798 11.82117338 6.55588556 10.83409651 4.046875 9.84765625 C3.30911835 9.55361404 2.57136169 9.25957184 1.81124878 8.95661926 C-5.84980474 5.95211815 -9.48142671 5.58529738 -17.16796875 8.65234375 C-17.98265625 8.965737 -18.79734375 9.27913025 -19.63671875 9.60202026 C-22.32389016 10.63921909 -25.0036163 11.69436711 -27.68359375 12.75 C-29.55069323 13.47526797 -31.4182125 14.19945611 -33.28613281 14.92260742 C-37.1858149 16.43496417 -41.08233208 17.95510687 -44.9765625 19.48144531 C-50.85151117 21.78334127 -56.73566693 24.06099631 -62.62109375 26.3359375 C-66.30910635 27.76430503 -69.99645072 29.19438951 -73.68359375 30.625 C-74.56462769 30.96643036 -75.44566162 31.30786072 -76.35339355 31.65963745 C-78.85533697 32.63059122 -81.35564424 33.6056371 -83.85546875 34.58203125 C-84.58805908 34.86577606 -85.32064941 35.14952087 -86.07543945 35.44186401 C-93.59897401 37.82709732 -93.59897401 37.82709732 -98.93359375 42.8125 C-99.19866771 46.46831171 -99.37845174 50.11796633 -99.5390625 53.77929688 C-99.83290165 59.7118079 -99.83290165 59.7118079 -100.93359375 60.8125 C-102.5997649 60.85313832 -104.2674747 60.855221 -105.93359375 60.8125 C-108.46757515 55.7445372 -107.54547158 46.96004105 -106.47265625 41.44140625 C-104.54150168 36.34088623 -100.48700023 33.04986829 -95.71087646 30.73538208 C-93.0521476 29.64861364 -90.37468161 28.64294477 -87.67578125 27.66015625 C-86.16860535 27.09430817 -86.16860535 27.09430817 -84.63098145 26.51702881 C-81.36091475 25.291805 -78.08499529 24.08316971 -74.80859375 22.875 C-71.41408142 21.61044699 -68.02097739 20.34217298 -64.62808228 19.07328796 C-62.35023753 18.22146629 -60.07189508 17.37097435 -57.7930603 16.52180481 C-50.79765242 13.90905411 -43.83653651 11.22406841 -36.90234375 8.453125 C-36.07115021 8.12239487 -35.23995667 7.79166473 -34.38357544 7.45091248 C-31.27525288 6.21322179 -28.16725661 4.97556039 -25.06976318 3.71096802 C-22.99506479 2.86444738 -20.91442678 2.03439612 -18.83203125 1.20703125 C-17.68395996 0.74143799 -16.53588867 0.27584473 -15.35302734 -0.20385742 C-10.24166511 -1.6742043 -5.04485293 -2.04020306 0 0 Z " fill="#3C3C3C" transform="translate(437.93359375,269.1875)"/>
<path d="M0 0 C7.92 0 15.84 0 24 0 C24 0.99 24 1.98 24 3 C21.36 3 18.72 3 16 3 C16 3.66 16 4.32 16 5 C19.63 5 23.26 5 27 5 C27.66 3.68 28.32 2.36 29 1 C32.18276076 -0.59138038 35.5353388 -0.39713508 39 0 C41.5 1.375 41.5 1.375 43 3 C43 3.66 43 4.32 43 5 C46.63 5 50.26 5 54 5 C54 4.34 54 3.68 54 3 C51.36 3 48.72 3 46 3 C46 2.01 46 1.02 46 0 C53.59 0 61.18 0 69 0 C69 0.99 69 1.98 69 3 C66.36 3 63.72 3 61 3 C61 4.98 61 6.96 61 9 C55.70987333 10.57578241 50.39795989 11.84941444 45 13 C45.433125 13.36609375 45.86625 13.7321875 46.3125 14.109375 C49.2854684 16.99976095 50.86426769 18.9314407 51.3984375 23.13671875 C51.37731586 26.11134924 51.26269149 29.03742374 51 32 C49.0625 32.5625 49.0625 32.5625 47 33 C45.38823236 31.38823236 45.80261291 29.47332361 45.6875 27.25 C45.35691699 23.91063247 44.95047908 21.89476804 43.5 18.8125 C40.60292091 16.71211766 39.9278699 16.8153957 36.5 17.1875 C35.7471875 17.32542969 34.994375 17.46335937 34.21875 17.60546875 C32 18 32 18 28 18 C25.0987596 20.84148946 24.57375817 23.27887575 24.3125 27.25 C24.24675781 28.14203125 24.18101562 29.0340625 24.11328125 29.953125 C24.07589844 30.62859375 24.03851563 31.3040625 24 32 C22.02 32.495 22.02 32.495 20 33 C19.13859655 19.02612175 19.13859655 19.02612175 22.5 15.125 C23.325 14.42375 24.15 13.7225 25 13 C24.030625 12.896875 23.06125 12.79375 22.0625 12.6875 C17.51406161 12.05370121 13.30582896 10.55244173 9 9 C9 7.02 9 5.04 9 3 C6.36 3 3.72 3 1 3 C0.67 2.01 0.34 1.02 0 0 Z " fill="#2B2B2B" transform="translate(395,438)"/>
<path d="M0 0 C1.98 0 3.96 0 6 0 C6.33 42.9 6.66 85.8 7 130 C6.01 130 5.02 130 4 130 C4 129.34 4 128.68 4 128 C2.68 127.34 1.36 126.68 0 126 C0 84.42 0 42.84 0 0 Z " fill="#2E2E2E" transform="translate(268,453)"/>
<path d="M0 0 C1.98 0 3.96 0 6 0 C6.11677831 15.96806388 6.20496088 31.93598935 6.25906086 47.90437698 C6.28484764 55.31872071 6.3200067 62.73279918 6.37719727 70.14697266 C6.42701836 76.60884773 6.45928758 83.07053073 6.47044247 89.53259254 C6.47696364 92.95463064 6.4922985 96.37611922 6.52865028 99.79798126 C6.56481384 103.61728339 6.56995034 107.43543773 6.56762695 111.25488281 C6.58560333 112.39064255 6.60357971 113.52640228 6.62210083 114.69657898 C6.57131685 122.38393432 6.57131685 122.38393432 3.46452332 125.73406982 C2.65123062 126.15182678 1.83793793 126.56958374 1 127 C0.34 126.67 -0.32 126.34 -1 126 C-0.67 84.42 -0.34 42.84 0 0 Z " fill="#2F2F30" transform="translate(586,454)"/>
<path d="M0 0 C1.7421875 0.78515625 1.7421875 0.78515625 3.875 2.0625 C9.45627434 5.30382735 15.21154725 8.14984814 21 11 C21.99 10.34 22.98 9.68 24 9 C26.15625 9.05859375 26.15625 9.05859375 28.5 9.4375 C31.65380677 9.93685274 32.87980059 10.04006647 36 9 C38.18584749 8.90532635 40.37460867 8.87011086 42.5625 8.875 C43.71878906 8.87242187 44.87507812 8.86984375 46.06640625 8.8671875 C49 9 49 9 51 10 C50.67 11.65 50.34 13.3 50 15 C45.05 15.33 40.1 15.66 35 16 C34.67 17.98 34.34 19.96 34 22 C31.56176198 25.70051168 29.03412905 27.88037687 25.25 30.125 C21.69641746 32.28304608 18.24155663 34.50899075 14.86328125 36.9296875 C13.7964209 37.68934814 13.7964209 37.68934814 12.70800781 38.46435547 C11.29288982 39.4772244 9.88446952 40.49952598 8.48339844 41.53173828 C7.83016602 41.99563965 7.17693359 42.45954102 6.50390625 42.9375 C5.63487671 43.56978516 5.63487671 43.56978516 4.74829102 44.21484375 C3 45 3 45 0.84350586 44.81640625 C0.23514893 44.54699219 -0.37320801 44.27757812 -1 44 C-1.495 42.515 -1.495 42.515 -2 41 C1.03915994 37.7343642 4.2626037 35.36213585 8 32.9375 C12.20541399 30.20890603 12.20541399 30.20890603 16.25 27.25390625 C18 26 18 26 20 26 C19.525625 25.2575 19.05125 24.515 18.5625 23.75 C17 21 17 21 16.62280273 18.97119141 C15.80372811 16.37879292 14.84641296 15.96040658 12.47265625 14.7109375 C11.76302734 14.32679688 11.05339844 13.94265625 10.32226562 13.546875 C9.57654297 13.16015625 8.83082031 12.7734375 8.0625 12.375 C6.59355915 11.59394718 5.12604382 10.81020581 3.66015625 10.0234375 C2.67994507 9.51176025 2.67994507 9.51176025 1.67993164 8.98974609 C0 8 0 8 -2 6 C-2.125 3.375 -2.125 3.375 -2 1 C-1.34 0.67 -0.68 0.34 0 0 Z " fill="#363636" transform="translate(632,422)"/>
<path d="M0 0 C0.495 1.485 0.495 1.485 1 3 C-2.63611029 7.00248642 -6.29102122 9.38344154 -11.125 11.8125 C-17.01004477 14.9278643 -17.01004477 14.9278643 -20.375 20.5 C-20.58125 21.655 -20.7875 22.81 -21 24 C-14.05611112 29.08250422 -7.06910642 34.09302808 0 39 C-0.33 40.32 -0.66 41.64 -1 43 C-2.7355957 43.65844727 -2.7355957 43.65844727 -5 44 C-7.05541992 43.01538086 -7.05541992 43.01538086 -9.23046875 41.46484375 C-10.03419922 40.90216797 -10.83792969 40.33949219 -11.66601562 39.75976562 C-12.49810547 39.15841797 -13.33019531 38.55707031 -14.1875 37.9375 C-15.82646288 36.7794382 -17.46578465 35.62188416 -19.10546875 34.46484375 C-19.91290527 33.88718262 -20.7203418 33.30952148 -21.55224609 32.71435547 C-24.66812228 30.53206117 -27.86357053 28.48460014 -31.08325195 26.45922852 C-33.31959146 24.75669365 -34.63713816 23.47484595 -36 21 C-36 18.69 -36 16.38 -36 14 C-41.28 14 -46.56 14 -52 14 C-52.33 12.68 -52.66 11.36 -53 10 C-49.26954282 7.55042661 -46.27928297 7.96410571 -41.9375 8.375 C-35.99867577 9.19748433 -35.99867577 9.19748433 -30.1875 8.375 C-28 8 -28 8 -25.34375 9.2109375 C-20.61231363 10.32746805 -18.3414277 8.65699538 -14.3125 6.25 C-13.64927734 5.87617188 -12.98605469 5.50234375 -12.30273438 5.1171875 C-3.29321809 0 -3.29321809 0 0 0 Z " fill="#343333" transform="translate(228,423)"/>
<path d="M0 0 C7.92 0 15.84 0 24 0 C24 0.99 24 1.98 24 3 C21.36 3 18.72 3 16 3 C16 3.66 16 4.32 16 5 C19.63 5 23.26 5 27 5 C27.66 3.68 28.32 2.36 29 1 C32.21451269 -0.60725635 35.43612536 -0.05748185 39 0 C39.495 2.475 39.495 2.475 40 5 C37 5 34 5 31 5 C30.83574831 9.11920091 30.83574831 9.11920091 31.8125 13.0625 C31.874375 13.701875 31.93625 14.34125 32 15 C29.6875 17.625 29.6875 17.625 27 20 C24.50494038 22.49505962 24.64051624 23.67328888 24.375 27.125 C24.30023438 28.03507812 24.22546875 28.94515625 24.1484375 29.8828125 C24.09945313 30.58148438 24.05046875 31.28015625 24 32 C22.02 32.495 22.02 32.495 20 33 C19.13859655 19.02612175 19.13859655 19.02612175 22.5 15.125 C23.325 14.42375 24.15 13.7225 25 13 C24.030625 12.896875 23.06125 12.79375 22.0625 12.6875 C17.51406161 12.05370121 13.30582896 10.55244173 9 9 C9 7.02 9 5.04 9 3 C6.36 3 3.72 3 1 3 C0.67 2.01 0.34 1.02 0 0 Z " fill="#262626" transform="translate(395,438)"/>
<path d="M0 0 C1.65 0.99 3.3 1.98 5 3 C5.4563228 6.02931741 5.5764287 8.4865891 5.47583008 11.51049805 C5.46680664 12.37900391 5.4577832 13.24750977 5.44848633 14.14233398 C5.41268349 17.01637147 5.34123963 19.88837124 5.26953125 22.76171875 C5.23777243 24.75279929 5.20823441 26.74391639 5.18083191 28.73506165 C5.1026903 33.97828751 4.99433108 39.22047318 4.87976074 44.4630127 C4.76819202 49.81162958 4.6850833 55.16067935 4.59960938 60.50976562 C4.42765897 71.00713214 4.22379599 81.50361982 4 92 C3.34 92 2.68 92 2 92 C2 92.66 2 93.32 2 94 C1.34 94 0.68 94 0 94 C0 62.98 0 31.96 0 0 Z " fill="#2C2C2C" transform="translate(268,604)"/>
<path d="M0 0 C6.34786429 1.96206714 10.08653751 7.54686466 13.4375 13.0625 C15.04180148 16.88226542 15.68068741 19.92831411 15.4375 24.0625 C13.7875 24.3925 12.1375 24.7225 10.4375 25.0625 C10.12296875 24.33804687 9.8084375 23.61359375 9.484375 22.8671875 C6.08243846 15.10236006 6.08243846 15.10236006 1.4375 8.0625 C0.4475 7.7325 -0.5425 7.4025 -1.5625 7.0625 C-3.21744384 8.04174989 -3.21744384 8.04174989 -4.77734375 9.58984375 C-5.38126953 10.13447266 -5.98519531 10.67910156 -6.60742188 11.24023438 C-7.23197266 11.82095703 -7.85652344 12.40167969 -8.5 13 C-9.72997221 14.14312059 -10.96799408 15.27765613 -12.21484375 16.40234375 C-12.76132568 16.91144287 -13.30780762 17.42054199 -13.87084961 17.94506836 C-15.5625 19.0625 -15.5625 19.0625 -19.5625 19.0625 C-20.37890625 17.40625 -20.37890625 17.40625 -20.5625 15.0625 C-18.93264839 12.99862832 -17.40187283 11.34081166 -15.5 9.5625 C-15.02111328 9.08941406 -14.54222656 8.61632812 -14.04882812 8.12890625 C-5.74268749 0.1007489 -5.74268749 0.1007489 0 0 Z " fill="#333334" transform="translate(659.5625,457.9375)"/>
<path d="M0 0 C4.88245363 1.91363567 8.45821618 6.21711077 12.1328125 9.8359375 C12.72191406 10.34125 13.31101563 10.8465625 13.91796875 11.3671875 C15.3203125 12.5859375 15.3203125 12.5859375 17.1328125 14.8359375 C16.9453125 17.6484375 16.9453125 17.6484375 16.1328125 19.8359375 C11.6765234 19.40641566 9.11364208 16.30085 6.0703125 13.3359375 C2.09952123 9.34769882 2.09952123 9.34769882 -2.8671875 6.8359375 C-8.52989646 12.0395079 -10.95396768 17.89969982 -13.8671875 24.8359375 C-15.1871875 24.8359375 -16.5071875 24.8359375 -17.8671875 24.8359375 C-19.52459151 19.72366315 -18.10272063 15.58391269 -15.8671875 10.8359375 C-6.90934066 -1.06964688 -6.90934066 -1.06964688 0 0 Z " fill="#373737" transform="translate(201.8671875,458.1640625)"/>
<path d="M0 0 C0.99 0.66 1.98 1.32 3 2 C2.4740625 2.928125 2.4740625 2.928125 1.9375 3.875 C1.628125 4.57625 1.31875 5.2775 1 6 C1.33 6.66 1.66 7.32 2 8 C1.06800781 7.7525 0.13601563 7.505 -0.82421875 7.25 C-6.2831171 6.46917546 -10.87629642 8.91514383 -15.8125 11 C-17.69129356 11.77743182 -19.57268962 12.54861381 -21.45703125 13.3125 C-22.28178955 13.65925781 -23.10654785 14.00601562 -23.95629883 14.36328125 C-26 15 -26 15 -28 14 C-27.484375 13.21625 -26.96875 12.4325 -26.4375 11.625 C-25.963125 10.75875 -25.48875 9.8925 -25 9 C-25.33 8.34 -25.66 7.68 -26 7 C-23.17286523 5.81598629 -20.3398265 4.65284493 -17.5 3.5 C-16.70851563 3.16613281 -15.91703125 2.83226562 -15.1015625 2.48828125 C-9.80471364 0.36085835 -5.71330251 -0.54648981 0 0 Z " fill="#434242" transform="translate(434,268)"/>
<path d="M0 0 C7.59 0 15.18 0 23 0 C23 0.99 23 1.98 23 3 C20.36 3 17.72 3 15 3 C15 4.98 15 6.96 15 9 C9.70987333 10.57578241 4.39795989 11.84941444 -1 13 C-1 12.01 -1 11.02 -1 10 C-0.01 10 0.98 10 2 10 C2 9.34 2 8.68 2 8 C0.35 7.67 -1.3 7.34 -3 7 C-3 6.67 -3 6.34 -3 6 C0.63 6 4.26 6 8 6 C8 5.01 8 4.02 8 3 C5.36 3 2.72 3 0 3 C0 2.01 0 1.02 0 0 Z " fill="#201F1F" transform="translate(441,438)"/>
<path d="M0 0 C1.05574219 0.40605469 1.05574219 0.40605469 2.1328125 0.8203125 C1.63718131 5.40490099 -0.07301106 7.73079413 -3.1171875 11.1328125 C-3.88546875 12.01582031 -4.65375 12.89882813 -5.4453125 13.80859375 C-7.8671875 15.8203125 -7.8671875 15.8203125 -10.6640625 16.11328125 C-11.39109375 16.01660156 -12.118125 15.91992188 -12.8671875 15.8203125 C-13.6875 13.6875 -13.6875 13.6875 -13.8671875 10.8203125 C-12.21355872 8.54884439 -10.74268191 6.85487534 -8.7421875 4.9453125 C-8.25492188 4.43484375 -7.76765625 3.924375 -7.265625 3.3984375 C-3.5838355 -0.22460004 -3.5838355 -0.22460004 0 0 Z " fill="#393939" transform="translate(597.8671875,581.1796875)"/>
<path d="M0 0 C1.67542976 0.28604898 3.34385343 0.61781233 5 1 C5.33 1.99 5.66 2.98 6 4 C4.35537435 5.69446279 2.6925153 7.35414553 1 9 C0.43410156 9.56203125 -0.13179687 10.1240625 -0.71484375 10.703125 C-2.42069379 12.30072635 -4.02865352 13.74264917 -6 15 C-8.9375 14.875 -8.9375 14.875 -11 14 C-11.30859375 11.765625 -11.30859375 11.765625 -11 9 C-8.84765625 6.796875 -8.84765625 6.796875 -6.0625 4.75 C-4.68771484 3.72132813 -4.68771484 3.72132813 -3.28515625 2.671875 C-2.15400391 1.84429688 -2.15400391 1.84429688 -1 1 C-0.67 0.67 -0.34 0.34 0 0 Z " fill="#3C3C3C" transform="translate(574,601)"/>
<path d="M0 0 C4.25537105 0.37632533 6.28881781 1.74360892 9.25 4.75 C10.27867187 5.76320313 10.27867187 5.76320313 11.328125 6.796875 C13.21162598 9.27887162 13.81523397 10.90003669 14 14 C13.34 14.66 12.68 15.32 12 16 C8.05427566 15.76393102 5.96156443 13.42611914 3.25 10.75 C2.45078125 9.98171875 1.6515625 9.2134375 0.828125 8.421875 C-1 6 -1 6 -1.328125 3.265625 C-1 1 -1 1 0 0 Z " fill="#404040" transform="translate(585,262)"/>
<path d="M0 0 C0.763125 0.20625 1.52625 0.4125 2.3125 0.625 C2.17578125 2.8515625 2.17578125 2.8515625 1.3125 5.625 C-1.26953125 7.8984375 -1.26953125 7.8984375 -4.5 10 C-5.55832031 10.70898438 -6.61664062 11.41796875 -7.70703125 12.1484375 C-10.6875 13.625 -10.6875 13.625 -13.07421875 13.3515625 C-13.87279297 12.99191406 -13.87279297 12.99191406 -14.6875 12.625 C-15.0175 11.305 -15.3475 9.985 -15.6875 8.625 C-14.08362733 7.4995809 -12.47939084 6.37468028 -10.875 5.25 C-9.98167969 4.62351562 -9.08835937 3.99703125 -8.16796875 3.3515625 C-2.79303997 -0.38972651 -2.79303997 -0.38972651 0 0 Z " fill="#404040" transform="translate(554.6875,618.375)"/>
<path d="M0 0 C2.68217769 0.06470165 5.32572676 0.19120115 8 0.375 C8.75023437 0.41882813 9.50046875 0.46265625 10.2734375 0.5078125 C15.87159146 0.87159146 15.87159146 0.87159146 17 2 C17.04063832 3.66617115 17.042721 5.33388095 17 7 C13.93340511 8.53329744 10.83302714 7.91489344 7.5 7.6875 C6.81035156 7.65205078 6.12070312 7.61660156 5.41015625 7.58007812 C0.24262741 7.24262741 0.24262741 7.24262741 -2 5 C-1.46428571 1.46428571 -1.46428571 1.46428571 0 0 Z " fill="#3E3E3E" transform="translate(408,655)"/>
<path d="M0 0 C0.625 2.375 0.625 2.375 1 5 C-1.8196626 7.8196626 -4.71110705 7.53045667 -8.5 7.75 C-9.18964844 7.80542969 -9.87929688 7.86085938 -10.58984375 7.91796875 C-12.38971634 8.03375003 -14.19657805 8.02481773 -16 8 C-16.66 7.34 -17.32 6.68 -18 6 C-17.625 3.375 -17.625 3.375 -17 1 C-11.33357449 -0.22517308 -5.76291482 -0.09228867 0 0 Z " fill="#3E3D3E" transform="translate(452,655)"/>
<path d="M0 0 C3.7296596 0.38057751 6.87972164 1.6556767 10.25 3.25 C11.55710937 3.84554687 11.55710937 3.84554687 12.890625 4.453125 C15 6 15 6 15.859375 8.609375 C15.90578125 9.39828125 15.9521875 10.1871875 16 11 C15.67 11.33 15.34 11.66 15 12 C8.99512281 11.74979678 3.73634225 9.77077892 -1 6 C-1.8828125 3.95703125 -1.8828125 3.95703125 -2 2 C-1.34 1.34 -0.68 0.68 0 0 Z " fill="#383838" transform="translate(328,632)"/>
<path d="M0 0 C3.57350549 1.35171729 6.31367763 3.72957912 9.25 6.125 C10.14203125 6.84945312 11.0340625 7.57390625 11.953125 8.3203125 C12.62859375 8.87460937 13.3040625 9.42890625 14 10 C13.67 11.65 13.34 13.3 13 15 C7.76410369 14.5777503 5.38289599 13.04304886 1.625 9.4375 C0.75101562 8.61121094 -0.12296875 7.78492188 -1.0234375 6.93359375 C-1.67570312 6.29550781 -2.32796875 5.65742187 -3 5 C-2.625 3.0625 -2.625 3.0625 -2 1 C-1.34 0.67 -0.68 0.34 0 0 Z " fill="#3C3C3C" transform="translate(282,601)"/>
<path d="M0 0 C3.58401694 -0.4717536 4.84750871 -0.10371877 7.89453125 1.96875 C8.85746094 2.8040625 9.82039062 3.639375 10.8125 4.5 C11.78832031 5.3353125 12.76414062 6.170625 13.76953125 7.03125 C14.87361328 8.00578125 14.87361328 8.00578125 16 9 C15.67 10.65 15.34 12.3 15 14 C14.01 14.33 13.02 14.66 12 15 C9.37109375 13.26953125 9.37109375 13.26953125 6.4375 10.8125 C5.46683594 10.01457031 4.49617187 9.21664062 3.49609375 8.39453125 C1.28027292 6.26886902 -0.05238792 4.8923846 -1 2 C-0.67 1.34 -0.34 0.68 0 0 Z " fill="#3E3D3D" transform="translate(563,244)"/>
<path d="M0 0 C6.17296201 0.39401885 11.36077898 2.56049795 17 5 C17 6.65 17 8.3 17 10 C12.9154674 11.72251754 9.63026304 10.07280563 5.75 8.5625 C5.1003125 8.31951172 4.450625 8.07652344 3.78125 7.82617188 C2.18383183 7.22714006 0.59139406 6.61485679 -1 6 C-1.042721 4.33388095 -1.04063832 2.66617115 -1 1 C-0.67 0.67 -0.34 0.34 0 0 Z " fill="#403F3F" transform="translate(353,643)"/>
<path d="M0 0 C4.59467678 0.47250222 6.58211447 2.0901791 9.75 5.375 C10.52859375 6.16648437 11.3071875 6.95796875 12.109375 7.7734375 C14 10 14 10 15 13 C14.01 14.485 14.01 14.485 13 16 C8.23448355 15.55906253 6.28221401 13.74881421 3.125 10.25 C2.32320313 9.38890625 1.52140625 8.5278125 0.6953125 7.640625 C-1 5 -1 5 -0.7578125 2.171875 C-0.50773437 1.45515625 -0.25765625 0.7384375 0 0 Z " fill="#393838" transform="translate(260,582)"/>
<path d="M0 0 C0.33 1.32 0.66 2.64 1 4 C-10.14717061 11.24704392 -10.14717061 11.24704392 -14.8125 10.625 C-15.534375 10.41875 -16.25625 10.2125 -17 10 C-16.86328125 7.7109375 -16.86328125 7.7109375 -16 5 C-13.41796875 3.1640625 -13.41796875 3.1640625 -10.1875 1.625 C-9.12917969 1.10164062 -8.07085938 0.57828125 -6.98046875 0.0390625 C-3.9909469 -1.00315613 -2.86841002 -1.18070146 0 0 Z " fill="#383838" transform="translate(532,633)"/>
<path d="M0 0 C4.56228495 1.90786461 8.41129831 4.59231747 12.4375 7.4375 C12.1075 9.0875 11.7775 10.7375 11.4375 12.4375 C8.4375 13.4375 8.4375 13.4375 5.30078125 11.9609375 C4.11044932 11.2560482 2.92703302 10.53937846 1.75 9.8125 C1.14349609 9.46832031 0.53699219 9.12414062 -0.08789062 8.76953125 C-1.82421875 7.7109375 -1.82421875 7.7109375 -4.5625 5.4375 C-4.95703125 2.6640625 -4.95703125 2.6640625 -4.5625 0.4375 C-2.5625 -0.5625 -2.5625 -0.5625 0 0 Z " fill="#3D3C3C" transform="translate(306.5625,618.5625)"/>
<path d="M0 0 C2.38671875 0.109375 2.38671875 0.109375 5 1 C6.58203125 3.328125 6.58203125 3.328125 7.8125 6.25 C8.23144531 7.20390625 8.65039062 8.1578125 9.08203125 9.140625 C9.9862882 11.95728921 10.18731099 14.06724507 10 17 C8.35 17.33 6.7 17.66 5 18 C3.98758753 16.11076602 2.99052575 14.21330056 2 12.3125 C1.443125 11.25675781 0.88625 10.20101562 0.3125 9.11328125 C-0.97105783 6.06865152 -1.37480076 4.25022536 -1 1 C-0.67 0.67 -0.34 0.34 0 0 Z " fill="#3F3E3E" transform="translate(215,513)"/>
<path d="M0 0 C2.2578125 -0.359375 2.2578125 -0.359375 5 0 C7.0546875 2.484375 7.0546875 2.484375 8.875 5.75 C9.49117187 6.81734375 10.10734375 7.8846875 10.7421875 8.984375 C12 12 12 12 11.6953125 14.390625 C11.46585938 14.92171875 11.23640625 15.4528125 11 16 C9.68 16.33 8.36 16.66 7 17 C-1 5 -1 5 -0.625 2.3125 C-0.41875 1.549375 -0.2125 0.78625 0 0 Z " fill="#414040" transform="translate(619,305)"/>
<path d="M0 0 C6.58199519 0.04555014 12.14583762 1.00787256 18 4 C17.67 5.32 17.34 6.64 17 8 C12.76674194 9.18594057 9.89604576 8.71869389 5.6875 7.5625 C4.61886719 7.27503906 3.55023438 6.98757812 2.44921875 6.69140625 C1.64097656 6.46324219 0.83273437 6.23507813 0 6 C-0.38218767 4.34385343 -0.71395102 2.67542976 -1 1 C-0.67 0.67 -0.34 0.34 0 0 Z " fill="#434343" transform="translate(463,200)"/>
<path d="M0 0 C0.66 1.32 1.32 2.64 2 4 C0.07521348 6.58532212 -1.07721065 7.0179944 -4.28515625 7.765625 C-5.53167969 7.92546875 -6.77820313 8.0853125 -8.0625 8.25 C-9.93615234 8.50523437 -9.93615234 8.50523437 -11.84765625 8.765625 C-15 9 -15 9 -17 8 C-17 6.35 -17 4.7 -17 3 C-11.30450379 0.96589421 -6.06118674 -0.1782702 0 0 Z " fill="#414141" transform="translate(397,198)"/>
<path d="M0 0 C1.32 0.33 2.64 0.66 4 1 C4.73046875 2.64453125 4.73046875 2.64453125 5 5 C3.48828125 7.76171875 3.48828125 7.76171875 1.3125 10.6875 C0.60738281 11.66074219 -0.09773437 12.63398437 -0.82421875 13.63671875 C-2.99108398 15.99031563 -3.85323212 16.82113109 -7 17 C-7.66 16.67 -8.32 16.34 -9 16 C-9.4717536 12.41598306 -9.10371877 11.15249129 -7.03125 8.10546875 C-6.1959375 7.14253906 -5.360625 6.17960938 -4.5 5.1875 C-3.6646875 4.21167969 -2.829375 3.23585938 -1.96875 2.23046875 C-1.3190625 1.49441406 -0.669375 0.75835938 0 0 Z " fill="#3B3B3B" transform="translate(613,559)"/>
<path d="M0 0 C1.86328125 0.20703125 1.86328125 0.20703125 4 1 C6.84657231 5.79850761 8.41838323 11.47464064 9 17 C7.02 17.99 7.02 17.99 5 19 C1.24824283 16.49882856 0.99908254 14.86975804 -0.3125 10.625 C-0.86357422 8.91183594 -0.86357422 8.91183594 -1.42578125 7.1640625 C-2 4 -2 4 -1.10546875 1.5859375 C-0.74066406 1.06257813 -0.37585938 0.53921875 0 0 Z " fill="#424241" transform="translate(206,487)"/>
<path d="M0 0 C0.66 0.66 1.32 1.32 2 2 C1.46428571 5.53571429 1.46428571 5.53571429 0 7 C-2.69654854 7.07319621 -5.36691458 7.09242537 -8.0625 7.0625 C-8.82111328 7.05798828 -9.57972656 7.05347656 -10.36132812 7.04882812 C-12.24091871 7.0370068 -14.12046899 7.01907078 -16 7 C-16.33 5.35 -16.66 3.7 -17 2 C-11.38329484 0.04636342 -5.95018369 -0.73969377 0 0 Z " fill="#1A1A1A" transform="translate(424,196)"/>
<path d="M0 0 C2.265625 -0.27734375 2.265625 -0.27734375 5 0 C6.984375 1.93359375 6.984375 1.93359375 8.75 4.4375 C9.34296875 5.26121094 9.9359375 6.08492187 10.546875 6.93359375 C11.02640625 7.61550781 11.5059375 8.29742188 12 9 C12.33 9.33 12.66 9.66 13 10 C13.04063832 11.66617115 13.042721 13.33388095 13 15 C11.35 15.33 9.7 15.66 8 16 C6.46301977 14.09450404 4.94608746 12.17776407 3.4375 10.25 C2.99986328 9.71117187 2.56222656 9.17234375 2.11132812 8.6171875 C-1.04983376 4.53505719 -1.04983376 4.53505719 -0.77734375 1.609375 C-0.52082031 1.07828125 -0.26429688 0.5471875 0 0 Z " fill="#3E3D3E" transform="translate(242,561)"/>
<path d="M0 0 C1.15628906 -0.00515625 2.31257812 -0.0103125 3.50390625 -0.015625 C6.4375 0.25 6.4375 0.25 8.4375 2.25 C8.1075 3.9 7.7775 5.55 7.4375 7.25 C2.1575 7.25 -3.1225 7.25 -8.5625 7.25 C-8.8925 5.6 -9.2225 3.95 -9.5625 2.25 C-5.97967765 -0.13854824 -4.24856967 -0.01898802 0 0 Z " fill="#1E1E1E" transform="translate(612.5625,440.75)"/>
<path d="M0 0 C3.53969809 1.31169663 6.59937388 2.85998982 9.75 4.9375 C10.52859375 5.44152344 11.3071875 5.94554687 12.109375 6.46484375 C14 8 14 8 15 11 C14.01 11.99 13.02 12.98 12 14 C7.08515521 11.65484563 2.3537364 9.29184947 -2 6 C-2.33 5.01 -2.66 4.02 -3 3 C-2.01 2.01 -1.02 1.02 0 0 Z " fill="#404040" transform="translate(542,228)"/>
<path d="M0 0 C5.68898176 0.73248692 10.83506276 2.5823698 16 5 C16 6.65 16 8.3 16 10 C12.16905403 11.45279835 9.65799654 10.5027187 5.875 9.1875 C4.82054687 8.83042969 3.76609375 8.47335938 2.6796875 8.10546875 C0 7 0 7 -2 5 C-1.46428571 1.46428571 -1.46428571 1.46428571 0 0 Z " fill="#424142" transform="translate(491,206)"/>
<path d="M0 0 C0.33 0.99 0.66 1.98 1 3 C-1.96263924 7.44395887 -5.93982885 7.88583388 -11 9 C-14.625 9.1875 -14.625 9.1875 -17 9 C-17.33 7.35 -17.66 5.7 -18 4 C-4.30107527 -2.15053763 -4.30107527 -2.15053763 0 0 Z " fill="#3F3F3F" transform="translate(371,204)"/>
<path d="M0 0 C2.27076842 -0.02699725 4.54162821 -0.04639453 6.8125 -0.0625 C8.07707031 -0.07410156 9.34164063 -0.08570313 10.64453125 -0.09765625 C14 0 14 0 17 1 C17.75 2.9375 17.75 2.9375 18 5 C17.67 5.66 17.34 6.32 17 7 C4.33029613 7.3690205 4.33029613 7.3690205 -1 5 C-0.67 3.35 -0.34 1.7 0 0 Z " fill="#3E3E3E" transform="translate(436,197)"/>
<path d="M0 0 C0.33 1.65 0.66 3.3 1 5 C-1.90161233 6.93440822 -3.53721622 7.51284158 -6.875 8.1875 C-7.71804688 8.36667969 -8.56109375 8.54585937 -9.4296875 8.73046875 C-12.19159533 9.0200913 -14.3205621 8.67706227 -17 8 C-17.33 7.01 -17.66 6.02 -18 5 C-16 2 -16 2 -13.57421875 1.26953125 C-12.62160156 1.11871094 -11.66898437 0.96789062 -10.6875 0.8125 C-9.74261719 0.65394531 -8.79773438 0.49539063 -7.82421875 0.33203125 C-5.18272398 0.02148207 -2.65626256 -0.06289875 0 0 Z " fill="#424242" transform="translate(479,651)"/>
<path d="M0 0 C2 0.25 2 0.25 4 1 C5 4 5 4 3.890625 6.59375 C3.34921875 7.5528125 2.8078125 8.511875 2.25 9.5 C1.71890625 10.4590625 1.1878125 11.418125 0.640625 12.40625 C-0.76099554 14.62214532 -2.05639412 16.26714656 -4 18 C-5.32 17.34 -6.64 16.68 -8 16 C-7.68553475 9.86792766 -4.31543778 4.31543778 0 0 Z " fill="#3F403F" transform="translate(628,535)"/>
<path d="M0 0 C2 0.0625 2 0.0625 4 1 C5.77905073 4.59649823 6.3374079 7.83414258 6.625 11.8125 C6.69976563 12.78832031 6.77453125 13.76414062 6.8515625 14.76953125 C6.90054688 15.50558594 6.94953125 16.24164063 7 17 C5.02 17.99 5.02 17.99 3 19 C0.42470331 17.07739558 -0.02305051 15.90543667 -0.80078125 12.71484375 C-0.96964844 11.46832031 -1.13851562 10.22179687 -1.3125 8.9375 C-1.49425781 7.68839844 -1.67601562 6.43929688 -1.86328125 5.15234375 C-1.90839844 4.11207031 -1.95351563 3.07179688 -2 2 C-1.34 1.34 -0.68 0.68 0 0 Z " fill="#333231" transform="translate(650,380)"/>
<path d="M0 0 C2.125 0.9375 2.125 0.9375 4 2 C3.40984815 7.50808397 2.43336231 12.64878069 1 18 C-0.65 18.33 -2.3 18.66 -4 19 C-5.56802465 12.58535369 -4.40534407 7.12462057 -2 1 C-1.34 0.67 -0.68 0.34 0 0 Z " fill="#464646" transform="translate(204,370)"/>
<path d="M0 0 C5.05714856 2.10714523 8.42489809 6.27284864 11 11 C10.875 14 10.875 14 10 16 C9.01 16.33 8.02 16.66 7 17 C4.13945858 14.30291809 1.52456704 11.55626501 -0.875 8.4375 C-1.30554688 7.87933594 -1.73609375 7.32117188 -2.1796875 6.74609375 C-3 5 -3 5 -2.7578125 2.84765625 C-2 1 -2 1 0 0 Z " fill="#383838" transform="translate(605,282)"/>
<path d="M0 0 C0.53238281 0.39316406 1.06476563 0.78632813 1.61328125 1.19140625 C1.44140625 3.48046875 1.44140625 3.48046875 0.61328125 6.19140625 C-1.71484375 8.02734375 -1.71484375 8.02734375 -4.63671875 9.56640625 C-5.590625 10.08976563 -6.54453125 10.613125 -7.52734375 11.15234375 C-10.69186568 12.30229297 -12.21628123 12.17493614 -15.38671875 11.19140625 C-15.25 8.9375 -15.25 8.9375 -14.38671875 6.19140625 C-11.8046875 4.1015625 -11.8046875 4.1015625 -8.57421875 2.25390625 C-7.51589844 1.62613281 -6.45757812 0.99835938 -5.3671875 0.3515625 C-2.38671875 -0.80859375 -2.38671875 -0.80859375 0 0 Z " fill="#3D3C3D" transform="translate(318.38671875,223.80859375)"/>
<path d="M0 0 C6.11246492 0.39015734 11.05073216 2.32522173 16 6 C16.33 6.99 16.66 7.98 17 9 C16.01 9.99 15.02 10.98 14 12 C8.52067211 10.45454854 3.88570819 7.84456788 -1 5 C-0.67 3.35 -0.34 1.7 0 0 Z " fill="#3E3E3E" transform="translate(516,216)"/>
<path d="M0 0 C0.33 1.32 0.66 2.64 1 4 C-2.19761003 6.74963568 -5.04506104 7.76760684 -9.125 8.75 C-10.17945313 9.01296875 -11.23390625 9.2759375 -12.3203125 9.546875 C-15 10 -15 10 -17 9 C-17 7.35 -17 5.7 -17 4 C-14.92227529 3.13227971 -12.83756823 2.28126381 -10.75 1.4375 C-9.58984375 0.96183594 -8.4296875 0.48617187 -7.234375 -0.00390625 C-4.13733356 -0.95770524 -2.92678299 -1.20983356 0 0 Z " fill="#403F3F" transform="translate(506,644)"/>
<path d="M0 0 C2.3125 0.0625 2.3125 0.0625 5 1 C7.9933047 6.13137948 8.6143173 11.13496304 9 17 C7.35 17.33 5.7 17.66 4 18 C1.5860947 12.84302049 -0.30500816 7.68734991 -1 2 C-0.67 1.34 -0.34 0.68 0 0 Z " fill="#3F3E3E" transform="translate(642,354)"/>
<path d="M0 0 C-0.1015625 2.2890625 -0.1015625 2.2890625 -1 5 C-3.8359375 6.8359375 -3.8359375 6.8359375 -7.375 8.375 C-8.53773438 8.89835938 -9.70046875 9.42171875 -10.8984375 9.9609375 C-14 11 -14 11 -17 10 C-17.6875 7.9375 -17.6875 7.9375 -18 6 C-6.09318182 -1.74090909 -6.09318182 -1.74090909 0 0 Z " fill="#3A3A3B" transform="translate(345,213)"/>
<path d="M0 0 C5.88600042 0.14658622 11.42016269 1.18048783 17 3 C17 4.65 17 6.3 17 8 C12.76674194 9.18594057 9.89604576 8.71869389 5.6875 7.5625 C4.61886719 7.27503906 3.55023438 6.98757813 2.44921875 6.69140625 C1.64097656 6.46324219 0.83273437 6.23507812 0 6 C-0.38218767 4.34385343 -0.71395102 2.67542976 -1 1 C-0.67 0.67 -0.34 0.34 0 0 Z " fill="#3F3E3E" transform="translate(380,651)"/>
<path d="M0 0 C3.50050305 0.26041805 4.70901337 0.66531006 7.0546875 3.36328125 C7.65539062 4.33652344 8.25609375 5.30976562 8.875 6.3125 C9.49117187 7.27800781 10.10734375 8.24351562 10.7421875 9.23828125 C12 12 12 12 11.8828125 14.29296875 C11 16 11 16 8 17 C4.17902995 13.60358218 1.13618114 9.64987705 -1 5 C-0.8125 2 -0.8125 2 0 0 Z " fill="#403F3F" transform="translate(227,538)"/>
<path d="M0 0 C2.1875 0.3125 2.1875 0.3125 4 1 C4.49406952 5.6476031 3.19101638 7.72100545 0.3125 11.3125 C-0.37199219 12.19550781 -1.05648437 13.07851563 -1.76171875 13.98828125 C-4 16 -4 16 -6.76953125 16.29296875 C-7.50558594 16.19628906 -8.24164063 16.09960938 -9 16 C-9.703125 14.28515625 -9.703125 14.28515625 -10 12 C-8.671875 9.74609375 -8.671875 9.74609375 -6.75 7.4375 C-6.12609375 6.67308594 -5.5021875 5.90867187 -4.859375 5.12109375 C-1.49307869 1.28097002 -1.49307869 1.28097002 0 0 Z " fill="#3C3C3C" transform="translate(252,275)"/>
<path d="M0 0 C0.8971875 0.309375 0.8971875 0.309375 1.8125 0.625 C2.1425 1.945 2.4725 3.265 2.8125 4.625 C1.09949008 6.16400891 -0.63357488 7.68071869 -2.375 9.1875 C-3.33792969 10.03441406 -4.30085938 10.88132813 -5.29296875 11.75390625 C-8.1875 13.625 -8.1875 13.625 -11.05078125 13.40234375 C-12.10845703 13.01755859 -12.10845703 13.01755859 -13.1875 12.625 C-13.1875 8.625 -13.1875 8.625 -11.54296875 6.7734375 C-10.82753906 6.18820313 -10.11210937 5.60296875 -9.375 5 C-8.66730469 4.40960938 -7.95960938 3.81921875 -7.23046875 3.2109375 C-2.53451407 -0.43448813 -2.53451407 -0.43448813 0 0 Z " fill="#3C3C3C" transform="translate(294.1875,238.375)"/>
<path d="M0 0 C1.67542976 0.28604898 3.34385343 0.61781233 5 1 C4.53874704 6.53503556 3.36639255 11.45979952 0 16 C-2.75 17 -2.75 17 -5 17 C-6.33522693 12.59214243 -5.62349145 10.33531401 -3.625 6.25 C-3.16351562 5.28578125 -2.70203125 4.3215625 -2.2265625 3.328125 C-1 1 -1 1 0 0 Z " fill="#3A3A3A" transform="translate(639,511)"/>
<path d="M0 0 C2.9375 0.875 2.9375 0.875 4.9375 3.875 C5.29134949 6.70579592 5.3295891 8.24330089 3.8125 10.6875 C1.03746189 12.44502414 -0.85179745 12.34322746 -4.0625 11.875 C-6 10.1875 -6 10.1875 -7.0625 7.875 C-6.92427181 5.04132207 -6.38805369 3.38903215 -4.875 1 C-3.0625 -0.125 -3.0625 -0.125 0 0 Z " fill="#2E2E2E" transform="translate(431.0625,457.125)"/>
<path d="M0 0 C1.65 0 3.3 0 5 0 C6.42308385 3.80101107 5.56065145 6.34806588 4.3125 10.125 C3.97863281 11.17945313 3.64476562 12.23390625 3.30078125 13.3203125 C2 16 2 16 -0.14453125 17.3671875 C-0.75683594 17.57601563 -1.36914062 17.78484375 -2 18 C-2.99 17.01 -3.98 16.02 -5 15 C-4.54705135 13.24859857 -4.08741252 11.49892656 -3.625 9.75 C-3.36976563 8.77546875 -3.11453125 7.8009375 -2.8515625 6.796875 C-2.10401491 4.34162697 -1.22876183 2.24382595 0 0 Z " fill="#404040" transform="translate(210,345)"/>
<path d="M0 0 C2.32421875 0.203125 2.32421875 0.203125 5 1 C6.58203125 3.109375 6.58203125 3.109375 7.8125 5.75 C8.44091797 7.04164063 8.44091797 7.04164063 9.08203125 8.359375 C10.03166777 11.09109536 10.18053422 13.13208503 10 16 C8.35 16.33 6.7 16.66 5 17 C3.96198445 15.11351956 2.94516833 13.21536344 1.9375 11.3125 C1.36902344 10.25675781 0.80054688 9.20101563 0.21484375 8.11328125 C-1.08735791 4.77612779 -1.08754852 3.34964944 0 0 Z " fill="#3F3E3F" transform="translate(632,329)"/>
<path d="M0 0 C2.25 0.9375 2.25 0.9375 3.25 2.9375 C1.5290132 4.92920383 -0.19938152 6.91335874 -1.94140625 8.88671875 C-3.28706232 10.41257067 -4.61660376 11.9526644 -5.9375 13.5 C-7.75 14.9375 -7.75 14.9375 -10 14.6875 C-11.75 13.9375 -11.75 13.9375 -12.5625 12.25 C-12.6553125 11.1053125 -12.6553125 11.1053125 -12.75 9.9375 C-10.625 7.5 -10.625 7.5 -7.75 4.9375 C-6.925 3.98875 -6.1 3.04 -5.25 2.0625 C-2.75 -0.0625 -2.75 -0.0625 0 0 Z " fill="#383838" transform="translate(272.75,256.0625)"/>
<path d="M0 0 C2.0625 0.4375 2.0625 0.4375 4 1 C5.43090907 4.8126803 4.55472391 7.3961772 3.3125 11.1875 C2.81169922 12.78658203 2.81169922 12.78658203 2.30078125 14.41796875 C1 17 1 17 -1.01953125 17.98828125 C-1.67308594 17.99214844 -2.32664062 17.99601562 -3 18 C-3.66 17.34 -4.32 16.68 -5 16 C-4.71053296 11.1755494 -3.60440545 3.60440545 0 0 Z " fill="#3F3F3F" transform="translate(648,485)"/>
<path d="M0 0 C1.65 0.33 3.3 0.66 5 1 C6 4 6 4 4.56640625 7.13671875 C3.90864027 8.3260128 3.24022185 9.50946371 2.5625 10.6875 C2.22412109 11.29400391 1.88574219 11.90050781 1.53710938 12.52539062 C0.70042085 14.0220025 -0.14862831 15.51169189 -1 17 C-2.65 16.67 -4.3 16.34 -6 16 C-5.52412884 9.97229862 -2.80277043 5.23321711 0 0 Z " fill="#393939" transform="translate(221,320)"/>
<path d="M0 0 C0.625 1.875 0.625 1.875 1 4 C-1 6 -1 6 -4.6953125 6.1953125 C-6.17200108 6.182009 -7.64862358 6.15814835 -9.125 6.125 C-9.87910156 6.11597656 -10.63320313 6.10695313 -11.41015625 6.09765625 C-13.27357254 6.0740687 -15.13682593 6.03819719 -17 6 C-17.38218767 4.34385343 -17.71395102 2.67542976 -18 1 C-16.14881958 -0.85118042 -13.18234558 -0.43074061 -10.6875 -0.625 C-9.53636719 -0.72039062 -8.38523437 -0.81578125 -7.19921875 -0.9140625 C-4.47951309 -0.98711931 -2.55318105 -0.8447562 0 0 Z " fill="#1E1E1E" transform="translate(321,442)"/>
<path d="M0 0 C1.32 0.66 2.64 1.32 4 2 C3.67 7.28 3.34 12.56 3 18 C1.35 18.33 -0.3 18.66 -2 19 C-3.78215749 17.21784251 -3.17282247 14.65711536 -3.1875 12.25 C-3.20167969 11.20328125 -3.21585938 10.1565625 -3.23046875 9.078125 C-2.98046683 5.73911632 -2.45857907 2.45857907 0 0 Z " fill="#333333" transform="translate(199,397)"/>
<path d="M0 0 C1.65 0.33 3.3 0.66 5 1 C4.68383092 7.16529701 1.50784939 11.17268433 -2 16 C-3.65 15.67 -5.3 15.34 -7 15 C-6.68383092 8.83470299 -3.50784939 4.82731567 0 0 Z " fill="#313131" transform="translate(235,297)"/>
<path d="M0 0 C1.58206057 0.00667536 3.16410534 0.0186375 4.74609375 0.03515625 C5.55240234 0.03966797 6.35871094 0.04417969 7.18945312 0.04882812 C9.18753131 0.06065107 11.18557158 0.07858711 13.18359375 0.09765625 C13.80859375 1.97265625 13.80859375 1.97265625 14.18359375 4.09765625 C12.18359375 6.09765625 12.18359375 6.09765625 8.48828125 6.29296875 C7.01159267 6.27966525 5.53497017 6.2558046 4.05859375 6.22265625 C3.30449219 6.21363281 2.55039062 6.20460938 1.7734375 6.1953125 C-0.08997879 6.17172495 -1.95323218 6.13585344 -3.81640625 6.09765625 C-4.19859392 4.44150968 -4.53035727 2.77308601 -4.81640625 1.09765625 C-3.81640625 0.09765625 -3.81640625 0.09765625 0 0 Z " fill="#1E1E1E" transform="translate(253.81640625,441.90234375)"/>
<path d="M0 0 C5.61 0 11.22 0 17 0 C17.33 1.65 17.66 3.3 18 5 C17 6 17 6 13.18359375 6.09765625 C11.60153318 6.09098089 10.01948841 6.07901875 8.4375 6.0625 C7.63119141 6.05798828 6.82488281 6.05347656 5.99414062 6.04882812 C3.99606244 6.03700518 1.99802217 6.01906914 0 6 C-1.125 2.25 -1.125 2.25 0 0 Z " fill="#505050" transform="translate(496,442)"/>
<path d="M0 0 C1.58206057 0.00667536 3.16410534 0.0186375 4.74609375 0.03515625 C5.55240234 0.03966797 6.35871094 0.04417969 7.18945312 0.04882812 C9.18753131 0.06065107 11.18557158 0.07858711 13.18359375 0.09765625 C13.80859375 1.97265625 13.80859375 1.97265625 14.18359375 4.09765625 C12.18359375 6.09765625 12.18359375 6.09765625 8.48828125 6.29296875 C7.01159267 6.27966525 5.53497017 6.2558046 4.05859375 6.22265625 C3.30449219 6.21363281 2.55039062 6.20460938 1.7734375 6.1953125 C-0.08997879 6.17172495 -1.95323218 6.13585344 -3.81640625 6.09765625 C-4.19859392 4.44150968 -4.53035727 2.77308601 -4.81640625 1.09765625 C-3.81640625 0.09765625 -3.81640625 0.09765625 0 0 Z " fill="#171717" transform="translate(580.81640625,441.90234375)"/>
<path d="M0 0 C1.58206057 0.00667536 3.16410534 0.0186375 4.74609375 0.03515625 C5.55240234 0.03966797 6.35871094 0.04417969 7.18945312 0.04882812 C9.18753131 0.06065107 11.18557158 0.07858711 13.18359375 0.09765625 C13.80859375 1.97265625 13.80859375 1.97265625 14.18359375 4.09765625 C12.18359375 6.09765625 12.18359375 6.09765625 8.48828125 6.29296875 C7.01159267 6.27966525 5.53497017 6.2558046 4.05859375 6.22265625 C3.30449219 6.21363281 2.55039062 6.20460938 1.7734375 6.1953125 C-0.08997879 6.17172495 -1.95323218 6.13585344 -3.81640625 6.09765625 C-4.19859392 4.44150968 -4.53035727 2.77308601 -4.81640625 1.09765625 C-3.81640625 0.09765625 -3.81640625 0.09765625 0 0 Z " fill="#1F1F1F" transform="translate(553.81640625,441.90234375)"/>
<path d="M0 0 C1.58206057 0.00667536 3.16410534 0.0186375 4.74609375 0.03515625 C5.55240234 0.03966797 6.35871094 0.04417969 7.18945312 0.04882812 C9.18753131 0.06065107 11.18557158 0.07858711 13.18359375 0.09765625 C13.80859375 1.97265625 13.80859375 1.97265625 14.18359375 4.09765625 C12.18359375 6.09765625 12.18359375 6.09765625 8.48828125 6.29296875 C7.01159267 6.27966525 5.53497017 6.2558046 4.05859375 6.22265625 C3.30449219 6.21363281 2.55039062 6.20460938 1.7734375 6.1953125 C-0.08997879 6.17172495 -1.95323218 6.13585344 -3.81640625 6.09765625 C-4.19859392 4.44150968 -4.53035727 2.77308601 -4.81640625 1.09765625 C-3.81640625 0.09765625 -3.81640625 0.09765625 0 0 Z " fill="#343434" transform="translate(334.81640625,441.90234375)"/>
<path d="M0 0 C1.58206057 0.00667536 3.16410534 0.0186375 4.74609375 0.03515625 C5.55240234 0.03966797 6.35871094 0.04417969 7.18945312 0.04882812 C9.18753131 0.06065107 11.18557158 0.07858711 13.18359375 0.09765625 C13.80859375 1.97265625 13.80859375 1.97265625 14.18359375 4.09765625 C12.18359375 6.09765625 12.18359375 6.09765625 8.48828125 6.29296875 C7.01159267 6.27966525 5.53497017 6.2558046 4.05859375 6.22265625 C3.30449219 6.21363281 2.55039062 6.20460938 1.7734375 6.1953125 C-0.08997879 6.17172495 -1.95323218 6.13585344 -3.81640625 6.09765625 C-4.19859392 4.44150968 -4.53035727 2.77308601 -4.81640625 1.09765625 C-3.81640625 0.09765625 -3.81640625 0.09765625 0 0 Z " fill="#1F1F20" transform="translate(526.81640625,441.90234375)"/>
<path d="M0 0 C1.58206057 0.00667536 3.16410534 0.0186375 4.74609375 0.03515625 C5.55240234 0.03966797 6.35871094 0.04417969 7.18945312 0.04882812 C9.18753131 0.06065107 11.18557158 0.07858711 13.18359375 0.09765625 C13.80859375 1.97265625 13.80859375 1.97265625 14.18359375 4.09765625 C12.18359375 6.09765625 12.18359375 6.09765625 8.48828125 6.29296875 C7.01159267 6.27966525 5.53497017 6.2558046 4.05859375 6.22265625 C3.30449219 6.21363281 2.55039062 6.20460938 1.7734375 6.1953125 C-0.08997879 6.17172495 -1.95323218 6.13585344 -3.81640625 6.09765625 C-4.19859392 4.44150968 -4.53035727 2.77308601 -4.81640625 1.09765625 C-3.81640625 0.09765625 -3.81640625 0.09765625 0 0 Z " fill="#343434" transform="translate(280.81640625,441.90234375)"/>
<path d="M0 0 C0.33 0.99 0.66 1.98 1 3 C0.34 3.66 -0.32 4.32 -1 5 C-1.20711835 7.7290776 -1.29048735 10.35887691 -1.28710938 13.08984375 C-1.29394241 13.92573029 -1.30077545 14.76161682 -1.30781555 15.62283325 C-1.32142346 17.44092102 -1.33046393 19.2590473 -1.33552551 21.07717896 C-1.34378953 23.95124783 -1.36427025 26.8249951 -1.38806152 29.69897461 C-1.43636392 35.79926896 -1.46925995 41.89959517 -1.5 48 C-1.53561036 55.06692538 -1.57744063 62.13369377 -1.63594055 69.20046997 C-1.65607531 72.03788285 -1.66434185 74.8751769 -1.67224121 77.71264648 C-1.68520858 79.4451542 -1.69872814 81.17765789 -1.71289062 82.91015625 C-1.71190872 83.70398712 -1.71092682 84.49781799 -1.70991516 85.31570435 C-1.77231308 90.77231308 -1.77231308 90.77231308 -4 93 C-3.93885559 81.31711325 -3.86179778 69.63445113 -3.76428509 57.95180798 C-3.71951146 52.52737595 -3.68027083 47.10302025 -3.65356445 41.6784668 C-3.62760117 36.44582423 -3.5872485 31.21347429 -3.53681374 25.98101234 C-3.52009771 23.98231959 -3.50861302 21.98357618 -3.50238609 19.98482323 C-3.49279638 17.19033325 -3.46479921 14.39659998 -3.43237305 11.60229492 C-3.43380814 10.77151428 -3.43524323 9.94073364 -3.4367218 9.08477783 C-3.34295165 3.39044428 -3.34295165 3.39044428 -1.47507954 1.26390553 C-0.98830329 0.8468167 -0.50152704 0.42972788 0 0 Z " fill="#414141" transform="translate(589,604)"/>
<path d="M0 0 C4.05096296 3.35252107 5.67113505 7.02906073 7 12 C7.1875 15 7.1875 15 7 17 C5.35 17.33 3.7 17.66 2 18 C1.66226563 17.25234375 1.32453125 16.5046875 0.9765625 15.734375 C0.53054688 14.74953125 0.08453125 13.7646875 -0.375 12.75 C-1.03628906 11.28820312 -1.03628906 11.28820312 -1.7109375 9.796875 C-2.76638138 7.50688161 -3.85543935 5.24633399 -5 3 C-4.01 3 -3.02 3 -2 3 C-2 3.66 -2 4.32 -2 5 C-1.34 5 -0.68 5 0 5 C0 3.35 0 1.7 0 0 Z " fill="#414040" transform="translate(668,465)"/>
<path d="M0 0 C5.28 0 10.56 0 16 0 C17 4 17 4 16 6 C13.54137599 6.05383848 11.0839245 6.09359038 8.625 6.125 C7.57699219 6.15013672 7.57699219 6.15013672 6.5078125 6.17578125 C4.67102514 6.19344267 2.83398037 6.10303261 1 6 C0.34 5.34 -0.32 4.68 -1 4 C-0.67 2.68 -0.34 1.36 0 0 Z " fill="#151515" transform="translate(224,442)"/>
<path d="M0 0 C0.33 0.99 0.66 1.98 1 3 C-3.06734974 7.59216906 -7.56385928 10.2167907 -13 13 C-13.185625 12.071875 -13.185625 12.071875 -13.375 11.125 C-13.87197356 8.80879168 -13.87197356 8.80879168 -16 7 C-14.0898586 5.82268014 -12.17162056 4.65848895 -10.25 3.5 C-9.18265625 2.8503125 -8.1153125 2.200625 -7.015625 1.53125 C-4 0 -4 0 0 0 Z " fill="#3D3E3E" transform="translate(228,423)"/>
<path d="M0 0 C0.66 0.66 1.32 1.32 2 2 C1.44444444 6.55555556 1.44444444 6.55555556 0 8 C-2.9375 8.1875 -2.9375 8.1875 -6 8 C-6.66 7.34 -7.32 6.68 -8 6 C-7.75 2.9375 -7.75 2.9375 -7 0 C-4.29393021 -1.35303489 -2.8671629 -0.7884698 0 0 Z " fill="#F1F1F1" transform="translate(433,443)"/>
<path d="M0 0 C1.98 0.495 1.98 0.495 4 1 C4 10.24 4 19.48 4 29 C3.67 29 3.34 29 3 29 C2.67 25.37 2.34 21.74 2 18 C1.34 18.66 0.68 19.32 0 20 C-0.19594676 16.85463232 -0.3803401 13.70869386 -0.5625 10.5625 C-0.61857422 9.66466797 -0.67464844 8.76683594 -0.73242188 7.84179688 C-0.78076172 6.98779297 -0.82910156 6.13378906 -0.87890625 5.25390625 C-0.9260376 4.46314697 -0.97316895 3.6723877 -1.02172852 2.85766602 C-1 1 -1 1 0 0 Z " fill="#373737" transform="translate(560,643)"/>
<path d="M0 0 C1.9375 1.5 1.9375 1.5 2.75 5 C2.9375 8.5 2.9375 8.5 1.9375 10.5 C0.2875 10.5 -1.3625 10.5 -3.0625 10.5 C-5.13206522 5.14347826 -5.13206522 5.14347826 -4.8125 2.1875 C-3.67448182 -0.3730409 -2.67233837 -0.64783961 0 0 Z " fill="#323232" transform="translate(657.0625,407.5)"/>
<path d="M0 0 C1.17949219 0.01804687 2.35898437 0.03609375 3.57421875 0.0546875 C4.92966797 0.08949219 4.92966797 0.08949219 6.3125 0.125 C6.6425 0.785 6.9725 1.445 7.3125 2.125 C2.3625 2.125 -2.5875 2.125 -7.6875 2.125 C-7.6875 3.115 -7.6875 4.105 -7.6875 5.125 C-2.7375 5.455 2.2125 5.785 7.3125 6.125 C7.3125 6.455 7.3125 6.785 7.3125 7.125 C2.0325 7.125 -3.2475 7.125 -8.6875 7.125 C-9.0175 5.475 -9.3475 3.825 -9.6875 2.125 C-6.05554504 -0.29630331 -4.30400652 -0.08522785 0 0 Z " fill="#727272" transform="translate(612.6875,440.875)"/>
<path d="M0 0 C0.66 0.66 1.32 1.32 2 2 C1.46428571 5.53571429 1.46428571 5.53571429 0 7 C-2.69654854 7.07319621 -5.36691458 7.09242537 -8.0625 7.0625 C-8.82111328 7.05798828 -9.57972656 7.05347656 -10.36132812 7.04882812 C-12.24091871 7.0370068 -14.12046899 7.01907078 -16 7 C-16.33 5.35 -16.66 3.7 -17 2 C-11.38329484 0.04636342 -5.95018369 -0.73969377 0 0 Z M-15 3 C-15 3.99 -15 4.98 -15 6 C-10.05 6 -5.1 6 0 6 C0 4.68 0 3.36 0 2 C-4.91398118 -0.45699059 -10.08730608 1.42793795 -15 3 Z " fill="#6F706F" transform="translate(424,196)"/>
<path d="M0 0 C0.70189453 0.05671875 1.40378906 0.1134375 2.12695312 0.171875 C3.85630285 0.31304641 5.58454088 0.46771959 7.3125 0.625 C7.3125 0.955 7.3125 1.285 7.3125 1.625 C6.31347656 1.68558594 5.31445312 1.74617188 4.28515625 1.80859375 C2.99480469 1.89238281 1.70445312 1.97617187 0.375 2.0625 C-0.91277344 2.14371094 -2.20054687 2.22492188 -3.52734375 2.30859375 C-6.54773957 2.27419188 -6.54773957 2.27419188 -7.6875 3.625 C-2.7375 3.955 2.2125 4.285 7.3125 4.625 C7.3125 7.265 7.3125 9.905 7.3125 12.625 C6.9825 12.625 6.6525 12.625 6.3125 12.625 C6.3125 10.315 6.3125 8.005 6.3125 5.625 C1.0325 5.625 -4.2475 5.625 -9.6875 5.625 C-10.0175 4.305 -10.3475 2.985 -10.6875 1.625 C-6.92241505 -0.88505664 -4.29288391 -0.4008295 0 0 Z " fill="#4B4B4B" transform="translate(185.6875,431.375)"/>
<path d="M0 0 C4.95 0.33 9.9 0.66 15 1 C15 1.99 15 2.98 15 4 C10.05 4 5.1 4 0 4 C0 2.68 0 1.36 0 0 Z " fill="#171717" transform="translate(497,443)"/>
<path d="M0 0 C1.58206057 0.00667536 3.16410534 0.0186375 4.74609375 0.03515625 C5.55240234 0.03966797 6.35871094 0.04417969 7.18945312 0.04882812 C9.18753131 0.06065107 11.18557158 0.07858711 13.18359375 0.09765625 C13.80859375 1.97265625 13.80859375 1.97265625 14.18359375 4.09765625 C12.18359375 6.09765625 12.18359375 6.09765625 8.48828125 6.29296875 C7.01159267 6.27966525 5.53497017 6.2558046 4.05859375 6.22265625 C3.30449219 6.21363281 2.55039062 6.20460938 1.7734375 6.1953125 C-0.08997879 6.17172495 -1.95323218 6.13585344 -3.81640625 6.09765625 C-4.19859392 4.44150968 -4.53035727 2.77308601 -4.81640625 1.09765625 C-3.81640625 0.09765625 -3.81640625 0.09765625 0 0 Z M-1.81640625 1.09765625 C-2.14640625 2.41765625 -2.47640625 3.73765625 -2.81640625 5.09765625 C2.13359375 5.09765625 7.08359375 5.09765625 12.18359375 5.09765625 C12.18359375 3.77765625 12.18359375 2.45765625 12.18359375 1.09765625 C7.56359375 1.09765625 2.94359375 1.09765625 -1.81640625 1.09765625 Z " fill="#5D5D5D" transform="translate(580.81640625,441.90234375)"/>
<path d="M0 0 C0.99 0.33 1.98 0.66 3 1 C3 1.66 3 2.32 3 3 C6.63 3 10.26 3 14 3 C14 3.33 14 3.66 14 4 C9.545 4.495 9.545 4.495 5 5 C5.99 5.33 6.98 5.66 8 6 C8 6.66 8 7.32 8 8 C5.69 8.33 3.38 8.66 1 9 C-1.125 3.375 -1.125 3.375 0 0 Z " fill="#363636" transform="translate(435,440)"/>
<path d="M0 0 C1.28132812 0.00902344 2.56265625 0.01804687 3.8828125 0.02734375 C4.87023437 0.03894531 5.85765625 0.05054688 6.875 0.0625 C6.875 0.7225 6.875 1.3825 6.875 2.0625 C7.535 2.3925 8.195 2.7225 8.875 3.0625 C3.265 3.0625 -2.345 3.0625 -8.125 3.0625 C-8.455 2.4025 -8.785 1.7425 -9.125 1.0625 C-6.12186252 -0.43906874 -3.33432478 -0.03031204 0 0 Z " fill="#1A1A1A" transform="translate(186.125,432.9375)"/>
<path d="M0 0 C2.6875 0.875 2.6875 0.875 5 2 C4.67 3.65 4.34 5.3 4 7 C2.02 7 0.04 7 -2 7 C-2.33 5.35 -2.66 3.7 -3 2 C-2.01 1.34 -1.02 0.68 0 0 Z " fill="#585858" transform="translate(633,441)"/>
<path d="M0 0 C2.31 0 4.62 0 7 0 C8.125 3.75 8.125 3.75 7 6 C4.69 6 2.38 6 0 6 C-1.125 2.25 -1.125 2.25 0 0 Z " fill="#696969" transform="translate(358,442)"/>
<path d="M0 0 C5.28 0 10.56 0 16 0 C17 4 17 4 16 6 C13.54137599 6.05383848 11.0839245 6.09359038 8.625 6.125 C7.57699219 6.15013672 7.57699219 6.15013672 6.5078125 6.17578125 C4.67102514 6.19344267 2.83398037 6.10303261 1 6 C0.34 5.34 -0.32 4.68 -1 4 C-0.67 2.68 -0.34 1.36 0 0 Z M1 1 C1 2.32 1 3.64 1 5 C5.62 5 10.24 5 15 5 C14.67 3.68 14.34 2.36 14 1 C9.71 1 5.42 1 1 1 Z " fill="#606060" transform="translate(224,442)"/>
<path d="M0 0 C-0.33 0.66 -0.66 1.32 -1 2 C-5.95 1.67 -10.9 1.34 -16 1 C-15.67 1.99 -15.34 2.98 -15 4 C-8.07 4.495 -8.07 4.495 -1 5 C-1 5.33 -1 5.66 -1 6 C-6.28 6 -11.56 6 -17 6 C-17.33 4.35 -17.66 2.7 -18 1 C-16.14881958 -0.85118042 -13.18234558 -0.43074061 -10.6875 -0.625 C-9.53636719 -0.72039062 -8.38523437 -0.81578125 -7.19921875 -0.9140625 C-4.47951309 -0.98711931 -2.55318105 -0.8447562 0 0 Z " fill="#5E5E5E" transform="translate(321,442)"/>
<path d="M0 0 C1.58206057 0.00667536 3.16410534 0.0186375 4.74609375 0.03515625 C5.55240234 0.03966797 6.35871094 0.04417969 7.18945312 0.04882812 C9.18753131 0.06065107 11.18557158 0.07858711 13.18359375 0.09765625 C12.85359375 0.75765625 12.52359375 1.41765625 12.18359375 2.09765625 C7.23359375 1.76765625 2.28359375 1.43765625 -2.81640625 1.09765625 C-2.81640625 2.08765625 -2.81640625 3.07765625 -2.81640625 4.09765625 C2.13359375 4.42765625 7.08359375 4.75765625 12.18359375 5.09765625 C12.18359375 5.42765625 12.18359375 5.75765625 12.18359375 6.09765625 C6.90359375 6.09765625 1.62359375 6.09765625 -3.81640625 6.09765625 C-4.14640625 4.44765625 -4.47640625 2.79765625 -4.81640625 1.09765625 C-3.81640625 0.09765625 -3.81640625 0.09765625 0 0 Z " fill="#545454" transform="translate(553.81640625,441.90234375)"/>
<path d="M0 0 C1.73443359 0.00966797 1.73443359 0.00966797 3.50390625 0.01953125 C6.4375 0.1875 6.4375 0.1875 8.4375 1.1875 C8.1075 2.5075 7.7775 3.8275 7.4375 5.1875 C5.7875 4.8575 4.1375 4.5275 2.4375 4.1875 C2.4375 3.8575 2.4375 3.5275 2.4375 3.1875 C-1.5225 2.8575 -5.4825 2.5275 -9.5625 2.1875 C-5.96639031 -0.20990646 -4.26157673 -0.05237692 0 0 Z " fill="#696969" transform="translate(674.5625,430.8125)"/>
<path d="M0 0 C1.33333333 0 2.66666667 0 4 0 C4 3.63 4 7.26 4 11 C2.68 11.33 1.36 11.66 0 12 C0 8.04 0 4.08 0 0 Z " fill="#1D1D1D" transform="translate(415,459)"/>
<path d="M0 0 C1.58206057 0.00667536 3.16410534 0.0186375 4.74609375 0.03515625 C5.55240234 0.03966797 6.35871094 0.04417969 7.18945312 0.04882812 C9.18753131 0.06065107 11.18557158 0.07858711 13.18359375 0.09765625 C13.18359375 0.42765625 13.18359375 0.75765625 13.18359375 1.09765625 C8.23359375 1.42765625 3.28359375 1.75765625 -1.81640625 2.09765625 C-2.14640625 3.08765625 -2.47640625 4.07765625 -2.81640625 5.09765625 C2.13359375 5.09765625 7.08359375 5.09765625 12.18359375 5.09765625 C12.18359375 5.42765625 12.18359375 5.75765625 12.18359375 6.09765625 C6.90359375 6.09765625 1.62359375 6.09765625 -3.81640625 6.09765625 C-4.14640625 4.44765625 -4.47640625 2.79765625 -4.81640625 1.09765625 C-3.81640625 0.09765625 -3.81640625 0.09765625 0 0 Z " fill="#5D5D5D" transform="translate(253.81640625,441.90234375)"/>
<path d="M0 0 C1.58206057 0.00667536 3.16410534 0.0186375 4.74609375 0.03515625 C5.55240234 0.03966797 6.35871094 0.04417969 7.18945312 0.04882812 C9.18753131 0.06065107 11.18557158 0.07858711 13.18359375 0.09765625 C12.85359375 0.75765625 12.52359375 1.41765625 12.18359375 2.09765625 C7.56359375 2.09765625 2.94359375 2.09765625 -1.81640625 2.09765625 C-2.14640625 3.08765625 -2.47640625 4.07765625 -2.81640625 5.09765625 C2.13359375 5.09765625 7.08359375 5.09765625 12.18359375 5.09765625 C12.18359375 5.42765625 12.18359375 5.75765625 12.18359375 6.09765625 C6.90359375 6.09765625 1.62359375 6.09765625 -3.81640625 6.09765625 C-4.14640625 4.44765625 -4.47640625 2.79765625 -4.81640625 1.09765625 C-3.81640625 0.09765625 -3.81640625 0.09765625 0 0 Z " fill="#5C5C5C" transform="translate(526.81640625,441.90234375)"/>
<path d="M0 0 C2.08268593 -0.08126087 4.16628658 -0.13930839 6.25 -0.1875 C7.99023438 -0.23970703 7.99023438 -0.23970703 9.765625 -0.29296875 C13 0 13 0 17 3 C11.72 3 6.44 3 1 3 C0.67 2.01 0.34 1.02 0 0 Z " fill="#191919" transform="translate(665,433)"/>
<path d="M0 0 C2.125 0.375 2.125 0.375 4 1 C4.33 2.65 4.66 4.3 5 6 C4.67 5.01 4.34 4.02 4 3 C3.01 3 2.02 3 1 3 C0.67 4.98 0.34 6.96 0 9 C0.66 9.33 1.32 9.66 2 10 C1.67 11.98 1.34 13.96 1 16 C0.67 16 0.34 16 0 16 C-0.38854209 13.71059044 -0.7604628 11.41835426 -1.125 9.125 C-1.43824219 7.21074219 -1.43824219 7.21074219 -1.7578125 5.2578125 C-1.83773437 4.18273437 -1.91765625 3.10765625 -2 2 C-1.34 1.34 -0.68 0.68 0 0 Z " fill="#6A6A6A" transform="translate(650,380)"/>
<path d="M0 0 C1.10408203 0.36931641 1.10408203 0.36931641 2.23046875 0.74609375 C1.90046875 2.39609375 1.57046875 4.04609375 1.23046875 5.74609375 C0.57046875 4.75609375 -0.08953125 3.76609375 -0.76953125 2.74609375 C-3.40953125 4.72609375 -6.04953125 6.70609375 -8.76953125 8.74609375 C-9.42953125 8.41609375 -10.08953125 8.08609375 -10.76953125 7.74609375 C-9.55993509 6.3744177 -8.32601937 5.02415766 -7.08203125 3.68359375 C-6.39753906 2.92949219 -5.71304688 2.17539062 -5.0078125 1.3984375 C-2.76953125 -0.25390625 -2.76953125 -0.25390625 0 0 Z " fill="#585858" transform="translate(597.76953125,581.25390625)"/>
<path d="M0 0 C3.63 0 7.26 0 11 0 C10.67 2.97 10.34 5.94 10 9 C9.67 9 9.34 9 9 9 C9 7.02 9 5.04 9 3 C6.36 3 3.72 3 1 3 C0.67 2.01 0.34 1.02 0 0 Z " fill="#404040" transform="translate(395,438)"/>
<path d="M0 0 C0 0.99 0 1.98 0 3 C-2.64 3 -5.28 3 -8 3 C-8 4.98 -8 6.96 -8 9 C-8.33 9 -8.66 9 -9 9 C-9.33 6.36 -9.66 3.72 -10 1 C-6.78548731 -0.60725635 -3.56387464 -0.05748185 0 0 Z " fill="#383838" transform="translate(464,438)"/>
<path d="M0 0 C0.33 0.99 0.66 1.98 1 3 C0.34 3.66 -0.32 4.32 -1 5 C-1.36952049 7.12860662 -1.36952049 7.12860662 -1.4140625 9.5703125 C-1.45273437 10.46621094 -1.49140625 11.36210938 -1.53125 12.28515625 C-1.5621875 13.22230469 -1.593125 14.15945313 -1.625 15.125 C-1.66367187 16.06988281 -1.70234375 17.01476562 -1.7421875 17.98828125 C-1.83661346 20.32532375 -1.92218394 22.66235501 -2 25 C-2.33 25 -2.66 25 -3 25 C-3.08701039 21.39598519 -3.14039388 17.79223988 -3.1875 14.1875 C-3.21263672 13.16333984 -3.23777344 12.13917969 -3.26367188 11.08398438 C-3.27333984 10.10107422 -3.28300781 9.11816406 -3.29296875 8.10546875 C-3.3086792 7.19949951 -3.32438965 6.29353027 -3.34057617 5.36010742 C-2.93875073 2.57555794 -2.16311438 1.72400465 0 0 Z " fill="#3A3A3A" transform="translate(589,604)"/>
<path d="M0 0 C2.625 0.375 2.625 0.375 5 1 C4.505 1.391875 4.01 1.78375 3.5 2.1875 C1.54406857 4.55091715 1.75792027 6.01435003 2 9 C1.01 8.67 0.02 8.34 -1 8 C-1.625 5.125 -1.625 5.125 -2 2 C-1.34 1.34 -0.68 0.68 0 0 Z " fill="#1B1B1B" transform="translate(427,458)"/>
<path d="M0 0 C2.9375 0.375 2.9375 0.375 6 1 C6.33 1.66 6.66 2.32 7 3 C6.67 3.66 6.34 4.32 6 5 C5.34 5 4.68 5 4 5 C3.67 5.99 3.34 6.98 3 8 C2.01 7.67 1.02 7.34 0 7 C1 4 1 4 3 2 C2.01 1.34 1.02 0.68 0 0 Z " fill="#6F6E6E" transform="translate(428,457)"/>
<path d="M0 0 C2.64 0 5.28 0 8 0 C8 0.99 8 1.98 8 3 C5.03 3 2.06 3 -1 3 C-0.67 2.01 -0.34 1.02 0 0 Z " fill="#2B2B2B" transform="translate(411,438)"/>
<path d="M0 0 C1.65 0.33 3.3 0.66 5 1 C4.25 6.75 4.25 6.75 2 9 C2.33 6.69 2.66 4.38 3 2 C1.35 2.66 -0.3 3.32 -2 4 C-1.34 2.68 -0.68 1.36 0 0 Z " fill="#636363" transform="translate(235,297)"/>
<path d="M0 0 C1.32 0.66 2.64 1.32 4 2 C3.67 3.65 3.34 5.3 3 7 C1.35 7 -0.3 7 -2 7 C-2.33 6.01 -2.66 5.02 -3 4 C-0.525 4.495 -0.525 4.495 2 5 C1.34 3.35 0.68 1.7 0 0 Z " fill="#626262" transform="translate(340,637)"/>
<path d="M0 0 C1.65 0.33 3.3 0.66 5 1 C5.33 2.32 5.66 3.64 6 5 C3.125 5.1875 3.125 5.1875 0 5 C-0.66 4.01 -1.32 3.02 -2 2 C-1.34 2 -0.68 2 0 2 C0 1.34 0 0.68 0 0 Z " fill="#343433" transform="translate(427,451)"/>
<path d="M0 0 C2.64 0 5.28 0 8 0 C7.67 0.99 7.34 1.98 7 3 C4.69 3 2.38 3 0 3 C0 2.01 0 1.02 0 0 Z " fill="#272727" transform="translate(441,438)"/>
<path d="M0 0 C0.99 0.33 1.98 0.66 3 1 C2.67 1.66 2.34 2.32 2 3 C1.34 3 0.68 3 0 3 C-0.33 5.31 -0.66 7.62 -1 10 C-1.33 10 -1.66 10 -2 10 C-2.6875 6.6875 -2.6875 6.6875 -3 3 C-1.5625 1.0625 -1.5625 1.0625 0 0 Z " fill="#59595A" transform="translate(655,407)"/>
<path d="M0 0 C0.33 0 0.66 0 1 0 C1.33 3.63 1.66 7.26 2 11 C2.66 11 3.32 11 4 11 C4 11.66 4 12.32 4 13 C2.68 12.67 1.36 12.34 0 12 C0 8.04 0 4.08 0 0 Z " fill="#676767" transform="translate(196,403)"/>
<path d="M0 0 C1.32 0 2.64 0 4 0 C4 0.66 4 1.32 4 2 C3.01 2 2.02 2 1 2 C1.495 2.45375 1.99 2.9075 2.5 3.375 C4 5 4 5 4 7 C1.525 6.01 1.525 6.01 -1 5 C-0.67 3.35 -0.34 1.7 0 0 Z " fill="#4B4B4B" transform="translate(516,216)"/>
<path d="M0 0 C0.66 0.33 1.32 0.66 2 1 C1.8125 2.8125 1.8125 2.8125 1 5 C-3.17857143 8 -3.17857143 8 -6 8 C-6 7.34 -6 6.68 -6 6 C-5.195625 5.525625 -4.39125 5.05125 -3.5625 4.5625 C-0.7081924 3.20016328 -0.7081924 3.20016328 0 0 Z " fill="#616161" transform="translate(531,633)"/>
<path d="M0 0 C0.93423645 3.01031744 1.04449911 3.86650268 0 7 C0.99 7 1.98 7 3 7 C3 7.66 3 8.32 3 9 C1.35 8.67 -0.3 8.34 -2 8 C-1.125 2.25 -1.125 2.25 0 0 Z " fill="#4F4F4F" transform="translate(217,328)"/>
<path d="M0 0 C1.65 0 3.3 0 5 0 C5 1.32 5 2.64 5 4 C3.35 4 1.7 4 0 4 C0 2.68 0 1.36 0 0 Z " fill="#141414" transform="translate(359,443)"/>
<path d="M0 0 C0.99 0.66 1.98 1.32 3 2 C2.01 2.33 1.02 2.66 0 3 C0 4.65 0 6.3 0 8 C-1.5625 6.75 -1.5625 6.75 -3 5 C-2.8125 2.875 -2.8125 2.875 -2 1 C-1.34 0.67 -0.68 0.34 0 0 Z " fill="#636263" transform="translate(605,282)"/>
<path d="M0 0 C0.66 0.33 1.32 0.66 2 1 C1.21625 1.763125 0.4325 2.52625 -0.375 3.3125 C-3.07257717 5.90891805 -3.07257717 5.90891805 -5 9 C-5.3125 6.75 -5.3125 6.75 -5 4 C-2.5 1.6875 -2.5 1.6875 0 0 Z " fill="#515151" transform="translate(568,606)"/>
<path d="M0 0 C0.99 0.33 1.98 0.66 3 1 C2.67 1.66 2.34 2.32 2 3 C2.66 3 3.32 3 4 3 C3.67 3.99 3.34 4.98 3 6 C1.68 5.34 0.36 4.68 -1 4 C-0.67 2.68 -0.34 1.36 0 0 Z " fill="#535353" transform="translate(640,472)"/>
<path d="M0 0 C1.98 0 3.96 0 6 0 C6 0.99 6 1.98 6 3 C4.02 3.33 2.04 3.66 0 4 C0 2.68 0 1.36 0 0 Z " fill="#272727" transform="translate(630,443)"/>
<path d="M0 0 C3.67420866 0.30618405 4.78135513 0.75771784 7.3125 3.5625 C8.1478125 4.7690625 8.1478125 4.7690625 9 6 C6 6 6 6 4.3125 4.625 C3 3 3 3 3 1 C2.01 0.67 1.02 0.34 0 0 Z " fill="#666666" transform="translate(585,262)"/>
<path d="M0 0 C2.475 0.495 2.475 0.495 5 1 C4.625 3.4375 4.625 3.4375 4 6 C3.01 6.495 3.01 6.495 2 7 C2.33 5.35 2.66 3.7 3 2 C2.01 2 1.02 2 0 2 C0 1.34 0 0.68 0 0 Z " fill="#4C4C4D" transform="translate(639,511)"/>
<path d="M0 0 C2.625 0.375 2.625 0.375 5 1 C4.67 2.65 4.34 4.3 4 6 C3.67 4.68 3.34 3.36 3 2 C1.35 2 -0.3 2 -2 2 C-1.34 1.34 -0.68 0.68 0 0 Z " fill="#595959" transform="translate(340,212)"/>
<path d="M0 0 C0.33 0 0.66 0 1 0 C1 1.65 1 3.3 1 5 C-0.65 5.33 -2.3 5.66 -4 6 C-3.67 5.01 -3.34 4.02 -3 3 C-2.34 3.33 -1.68 3.66 -1 4 C-0.67 2.68 -0.34 1.36 0 0 Z " fill="#4F4F4F" transform="translate(224,525)"/>
<path d="M0 0 C0.33 0 0.66 0 1 0 C1 1.65 1 3.3 1 5 C-0.65 5.33 -2.3 5.66 -4 6 C-3.67 5.01 -3.34 4.02 -3 3 C-2.34 3.33 -1.68 3.66 -1 4 C-0.67 2.68 -0.34 1.36 0 0 Z " fill="#5D5D5D" transform="translate(674,477)"/>
<path d="M0 0 C0.33 0.99 0.66 1.98 1 3 C2.32 3 3.64 3 5 3 C4.67 3.99 4.34 4.98 4 6 C2.0625 5.6875 2.0625 5.6875 0 5 C-0.33 4.01 -0.66 3.02 -1 2 C-0.67 1.34 -0.34 0.68 0 0 Z " fill="#636363" transform="translate(631,461)"/>
<path d="M0 0 C0.99 0.33 1.98 0.66 3 1 C2.01 3.97 1.02 6.94 0 10 C-0.33 10 -0.66 10 -1 10 C-1.02689216 8.52093108 -1.04634621 7.04172517 -1.0625 5.5625 C-1.07410156 4.73878906 -1.08570313 3.91507812 -1.09765625 3.06640625 C-1 1 -1 1 0 0 Z " fill="#2A2A2A" transform="translate(202,372)"/>
<path d="M0 0 C0.33 0 0.66 0 1 0 C1 1.65 1 3.3 1 5 C-0.65 5.33 -2.3 5.66 -4 6 C-3.67 5.01 -3.34 4.02 -3 3 C-2.34 3.33 -1.68 3.66 -1 4 C-0.67 2.68 -0.34 1.36 0 0 Z " fill="#5D5D5D" transform="translate(650,366)"/>
<path d="M0 0 C3.77545388 1.09068668 6.47043472 1.9083091 9 5 C7.35 4.67 5.7 4.34 4 4 C4 3.34 4 2.68 4 2 C2.68 2 1.36 2 0 2 C0 1.34 0 0.68 0 0 Z " fill="#5C5B5B" transform="translate(515,300)"/>
</svg>
