<?xml version="1.0" encoding="UTF-8"?>
<svg version="1.1" xmlns="http://www.w3.org/2000/svg" width="860" height="860">
<path d="M0 0 C1.32 0.66 2.64 1.32 4 2 C4.97662361 21.01299162 5.11886551 39.96871672 5 59 C5.59538574 58.98952637 6.19077148 58.97905273 6.80419922 58.96826172 C9.49442343 58.92676051 12.18458037 58.90069296 14.875 58.875 C15.81214844 58.85824219 16.74929688 58.84148437 17.71484375 58.82421875 C18.61074219 58.81777344 19.50664062 58.81132812 20.4296875 58.8046875 C21.25710449 58.79421387 22.08452148 58.78374023 22.93701172 58.77294922 C25 59 25 59 27 61 C27.24050903 63.17666626 27.24050903 63.17666626 27.22705078 65.90869141 C27.22689972 66.92959869 27.22674866 67.95050598 27.22659302 69.00234985 C27.21627045 70.10759003 27.20594788 71.2128302 27.1953125 72.3515625 C27.1924826 73.4807309 27.18965271 74.60989929 27.18673706 75.77328491 C27.17551462 79.39062971 27.15040622 83.00772966 27.125 86.625 C27.11497287 89.0729131 27.10584656 91.52083007 27.09765625 93.96875 C27.07556853 99.97926145 27.04102454 105.98958917 27 112 C30.3 112 33.6 112 37 112 C36.95359375 110.81921875 36.9071875 109.6384375 36.859375 108.421875 C36.82185051 106.86460866 36.78545107 105.30731492 36.75 103.75 C36.71648437 102.97269531 36.68296875 102.19539063 36.6484375 101.39453125 C36.54887335 95.57002825 36.54887335 95.57002825 39.015625 92.453125 C39.67046875 91.97359375 40.3253125 91.4940625 41 91 C42.32 91.66 43.64 92.32 45 93 C45 94.65 45 96.3 45 98 C46.65 98 48.3 98 50 98 C49.96519531 96.97519531 49.93039062 95.95039063 49.89453125 94.89453125 C49.86637965 93.53387064 49.83908096 92.1731922 49.8125 90.8125 C49.78736328 90.13896484 49.76222656 89.46542969 49.73632812 88.77148438 C49.67092818 84.30248803 50.24369935 81.54381512 53 78 C56.38158441 76.3092078 60.15947812 76.73110941 63.875 76.6875 C65.09896484 76.64399414 65.09896484 76.64399414 66.34765625 76.59960938 C67.13785156 76.59123047 67.92804688 76.58285156 68.7421875 76.57421875 C69.4626123 76.55963623 70.18303711 76.54505371 70.92529297 76.5300293 C74.02394182 77.23194728 75.06505943 78.49037918 77 81 C77.3895967 83.77803669 77.53759927 86.15828539 77.50170898 88.93383789 C77.50981346 90.12717491 77.50981346 90.12717491 77.51808167 91.34461975 C77.53057654 93.97101177 77.51407501 96.59630931 77.49609375 99.22265625 C77.49624871 101.04821327 77.49773711 102.87377063 77.50050354 104.69932556 C77.50188782 108.52341268 77.48932354 112.34712485 77.46655273 116.17114258 C77.43814784 121.07643282 77.44091045 125.98110099 77.45364285 130.88643742 C77.46059208 134.65507842 77.45281975 138.42357521 77.44038582 142.1921978 C77.43586537 144.00112798 77.43553968 145.8100736 77.43945122 147.6190052 C77.44235658 150.14484621 77.42589024 152.66982455 77.40405273 155.19555664 C77.41080521 156.32009247 77.41080521 156.32009247 77.41769409 157.46734619 C77.34490376 162.52577471 77.34490376 162.52577471 75.5997467 164.92527771 C71.90903618 167.40472577 68.50209461 167.2192638 64.1875 167.25 C63.11918945 167.2809375 63.11918945 167.2809375 62.02929688 167.3125 C57.50356813 167.3459929 54.54276235 166.88819483 51 164 C49.90493508 160.71480525 49.90039392 158.26336585 49.9375 154.8125 C49.94652344 153.72582031 49.95554687 152.63914062 49.96484375 151.51953125 C49.98224609 150.27236328 49.98224609 150.27236328 50 149 C48.35 149 46.7 149 45 149 C45.0309375 150.2065625 45.0309375 150.2065625 45.0625 151.4375 C45 154 45 154 44 155 C41.5625 155.25 41.5625 155.25 39 155 C36.50881047 151.2632157 36.7934774 149.25548181 36.875 144.8125 C36.89304687 143.54019531 36.91109375 142.26789063 36.9296875 140.95703125 C36.95289063 139.98121094 36.97609375 139.00539063 37 138 C34.36 138 31.72 138 29 138 C29.33 138.66 29.66 139.32 30 140 C30.1967237 141.41155364 30.34410833 142.83017131 30.46484375 144.25024414 C30.58001343 145.56654564 30.58001343 145.56654564 30.69750977 146.90943909 C30.77670654 147.85842575 30.85590332 148.80741241 30.9375 149.78515625 C31.02249756 150.75658066 31.10749512 151.72800507 31.19506836 152.72886658 C31.55977683 156.8972474 31.91508327 161.06641444 32.27050781 165.2355957 C32.53084686 168.27327901 32.79649029 171.31046514 33.0625 174.34765625 C33.14169678 175.29866714 33.22089355 176.24967804 33.30249023 177.22950745 C33.41765991 178.5410807 33.41765991 178.5410807 33.53515625 179.87915039 C33.63389038 181.03925377 33.63389038 181.03925377 33.73461914 182.22279358 C33.82304221 184.02134957 33.82304221 184.02134957 35 185 C36.33763383 184.68436631 37.67033808 184.34768962 39 184 C55.66429992 182.68345248 68.36324514 185.25120097 81.6875 195.75 C91.0463115 204.27202365 96.64518002 216.10286498 97.9375 228.625 C98.46372083 241.9080895 94.55025653 254.66003965 85.9375 264.90625 C79.3724222 272.00076955 73.07020638 276.55861601 64 280 C62.906875 280.433125 61.81375 280.86625 60.6875 281.3125 C54.82094774 282.40626398 48.94916425 282.14852282 43 282 C43.08564209 282.68400879 43.17128418 283.36801758 43.25952148 284.07275391 C44.79109389 296.37290393 46.2885818 308.6213233 47 321 C52.28 321 57.56 321 63 321 C62.80324168 315.95819615 62.80324168 315.95819615 62.54956055 310.91918945 C62.46899251 306.80814052 62.70643527 305.37576285 65.34375 302 C68 300 68 300 70.8125 299.6875 C71.534375 299.790625 72.25625 299.89375 73 300 C72.95875 298.88625 72.9175 297.7725 72.875 296.625 C73 293 73 293 75 291 C78.53571429 291.53571429 78.53571429 291.53571429 80 293 C80.04092937 295.33297433 80.04241723 297.66705225 80 300 C80.9075 299.9175 81.815 299.835 82.75 299.75 C86 300 86 300 88.17077637 301.49206543 C90.72876056 304.99915821 90.56024868 308.19866199 90.51757812 312.37695312 C90.5245874 313.2196727 90.53159668 314.06239227 90.53881836 314.9306488 C90.55641445 317.71451836 90.54477009 320.49737022 90.53125 323.28125 C90.53394445 325.21651403 90.53782649 327.15177674 90.54284668 329.08703613 C90.54874391 333.14230238 90.5401715 337.19721614 90.52148438 341.25244141 C90.49869474 346.45142932 90.51181661 351.64959129 90.53577423 356.84854889 C90.5502261 360.84456611 90.54562902 364.84038741 90.53526306 368.83641052 C90.53259409 370.75337319 90.53587152 372.67035362 90.54518127 374.58729553 C90.55533682 377.26635883 90.53986027 379.94408334 90.51757812 382.62304688 C90.52567505 383.41589584 90.53377197 384.20874481 90.54211426 385.02561951 C90.48766653 388.55793999 90.27923395 390.61715973 88.17077637 393.50793457 C85.32802249 395.46187826 83.37502302 395.30682027 80 395 C80.02320313 396.13179687 80.04640625 397.26359375 80.0703125 398.4296875 C80.08906901 399.91145175 80.10726934 401.39322312 80.125 402.875 C80.15013672 403.99455078 80.15013672 403.99455078 80.17578125 405.13671875 C80.1933959 407.09194461 80.10320189 409.04742021 80 411 C79.34 411.66 78.68 412.32 78 413 C74.46428571 412.46428571 74.46428571 412.46428571 73 411 C72.76346477 408.47403741 72.57826308 405.96892793 72.4375 403.4375 C72.39431641 402.72658203 72.35113281 402.01566406 72.30664062 401.28320312 C72.20028223 399.52238088 72.09961154 397.7612168 72 396 C70.88625 395.731875 69.7725 395.46375 68.625 395.1875 C65 394 65 394 63 391 C62.77294922 387.99731445 62.77294922 387.99731445 62.8046875 384.36328125 C62.81435547 382.41518555 62.81435547 382.41518555 62.82421875 380.42773438 C62.8409294 379.05598693 62.85785929 377.68424214 62.875 376.3125 C62.88503326 374.92904282 62.89415851 373.54557873 62.90234375 372.16210938 C62.92595033 368.77456548 62.95887963 365.38736928 63 362 C59.04 362 55.08 362 51 362 C51.17312462 363.37207359 51.17312462 363.37207359 51.3497467 364.77186584 C53.03785937 378.46378532 54.25898603 392.19491158 55.49609375 405.93359375 C55.73248508 408.54071206 55.96906631 411.14781317 56.20582581 413.75489807 C56.7006386 419.20698862 57.19381404 424.65922512 57.68579102 430.11157227 C58.18390119 435.63186726 58.68315139 441.1520572 59.18383789 446.67211914 C59.27576922 447.68567319 59.27576922 447.68567319 59.36955774 448.71970308 C59.49290766 450.07956397 59.61626141 451.43942451 59.73961902 452.7992847 C60.85883627 465.1379745 61.97238197 477.47716678 63.0813961 489.81677818 C63.64147639 496.04227427 64.20650385 502.26726122 64.78117657 508.49142742 C65.07476012 511.67563437 65.36483901 514.86015378 65.65410042 518.04475594 C65.83819195 520.05671946 66.0272903 522.06822301 66.21665955 524.07969666 C66.848496 531.07645246 67.14825328 537.97491622 67 545 C67.73822998 544.97123779 68.47645996 544.94247559 69.23706055 544.9128418 C70.51190308 544.86317261 70.51190308 544.86317261 71.8125 544.8125 C72.70582031 544.77769531 73.59914063 544.74289062 74.51953125 544.70703125 C77 545 77 545 78.80859375 546.12890625 C80.52874979 548.83039721 80.32641643 550.95371802 80.25 554.125 C80.23453125 555.20007813 80.2190625 556.27515625 80.203125 557.3828125 C80 560 80 560 79 561 C76.56339554 561.10082764 74.15575299 561.13972603 71.71875 561.1328125 C70.99006714 561.13376923 70.26138428 561.13472595 69.51062012 561.13571167 C67.9672029 561.13639335 66.42378283 561.13453988 64.88037109 561.13037109 C62.510026 561.12502262 60.13987041 561.13031642 57.76953125 561.13671875 C56.27343708 561.13605797 54.77734303 561.1347768 53.28125 561.1328125 C52.56771362 561.13483673 51.85417725 561.13686096 51.11901855 561.13894653 C46.11495191 561.11495191 46.11495191 561.11495191 45 560 C44.76171875 557.92578125 44.76171875 557.92578125 44.6875 555.3125 C44.63142578 554.03826172 44.63142578 554.03826172 44.57421875 552.73828125 C45.13805533 549.1121396 46.837705 546.91291417 49 544 C48.31711914 543.58339111 47.63423828 543.16678223 46.93066406 542.73754883 C44.29527622 541.12784334 41.66130599 539.5158499 39.02841187 537.90206909 C37.84507098 537.17707862 36.66133598 536.45273104 35.47720337 535.72903442 C29.2484286 531.91998398 23.05701972 528.08119711 16.99609375 524.0078125 C15.64306152 523.10131958 15.64306152 523.10131958 14.26269531 522.17651367 C12.57749685 521.03850944 10.90062604 519.88805031 9.23339844 518.72387695 C8.47961914 518.2155835 7.72583984 517.70729004 6.94921875 517.18359375 C6.30299561 516.73556396 5.65677246 516.28753418 4.9909668 515.82592773 C2.23059087 514.68082022 0.82777269 515.09098763 -2 516 C-4.7262506 517.38794367 -4.7262506 517.38794367 -7.5078125 519.17578125 C-9.09940186 520.16288086 -9.09940186 520.16288086 -10.72314453 521.16992188 C-11.85722233 521.88391453 -12.99117169 522.59811122 -14.125 523.3125 C-15.28591283 524.03642144 -16.4472116 524.75972431 -17.60888672 525.48242188 C-21.07905648 527.64474507 -24.53998951 529.82145632 -28 532 C-29.01449219 532.63728027 -30.02898437 533.27456055 -31.07421875 533.93115234 C-36.39207867 537.27295211 -41.70068713 540.62887085 -47 544 C-46.01966797 545.05960938 -46.01966797 545.05960938 -45.01953125 546.140625 C-42.7192267 549.3975359 -42.53406837 550.8348481 -42.6875 554.75 C-42.72423828 556.19632813 -42.72423828 556.19632813 -42.76171875 557.671875 C-43 560 -43 560 -44 561 C-46.03777124 561.07548699 -48.07812257 561.08309373 -50.1171875 561.0625 C-51.36371094 561.05476562 -52.61023438 561.04703125 -53.89453125 561.0390625 C-56.54036534 561.01309749 -59.18619868 560.98705628 -61.83203125 560.9609375 C-63.08113281 560.95320312 -64.33023438 560.94546875 -65.6171875 560.9375 C-66.76815918 560.92589844 -67.91913086 560.91429687 -69.10498047 560.90234375 C-72.06874354 560.86510077 -72.06874354 560.86510077 -75 562 C-75.99 561.34 -76.98 560.68 -78 560 C-78.83367463 555.26833316 -78.8447975 550.57940403 -76.5625 546.3125 C-72.7292496 544.34912784 -69.21119515 544.72913493 -65 545 C-65.0157907 544.39236124 -65.0315814 543.78472248 -65.04785061 543.15867043 C-65.16653435 534.69401554 -64.43322257 526.34732005 -63.63891602 517.93115234 C-63.49232843 516.33828097 -63.34618201 514.74536895 -63.20043945 513.15242004 C-62.80614773 508.85672218 -62.40567627 504.56162107 -62.00399518 500.26660872 C-61.5832 495.75615903 -61.1680219 491.24519218 -60.75218201 486.73428345 C-60.05350308 479.16369273 -59.35117644 471.59344803 -58.64624023 464.0234375 C-57.65387218 453.36673812 -56.66822311 442.70942511 -55.68386185 432.05198359 C-54.91686905 423.75067889 -54.14800848 415.449547 -53.37890625 407.1484375 C-53.29687619 406.26281742 -53.21484614 405.37719733 -53.13033032 404.46474028 C-52.65769323 399.36311691 -52.18411364 394.26158261 -51.70912933 389.16017723 C-51.56575438 387.61914416 -51.42264741 386.07808612 -51.27983665 384.53700066 C-50.58274217 377.01710808 -49.86913153 369.50231025 -49 362 C-52.63 362 -56.26 362 -60 362 C-59.97905273 362.79172607 -59.95810547 363.58345215 -59.93652344 364.39916992 C-59.85324533 367.99515018 -59.80130109 371.59092736 -59.75 375.1875 C-59.71648437 376.43337891 -59.68296875 377.67925781 -59.6484375 378.96289062 C-59.62910156 380.7659668 -59.62910156 380.7659668 -59.609375 382.60546875 C-59.58842773 383.71043701 -59.56748047 384.81540527 -59.54589844 385.95385742 C-60.10712937 389.71863072 -61.31325038 391.3472713 -64 394 C-67.25 394.8125 -67.25 394.8125 -70 395 C-69.96519531 396.04800781 -69.93039063 397.09601563 -69.89453125 398.17578125 C-69.86639063 399.55467147 -69.83909076 400.93357902 -69.8125 402.3125 C-69.78736328 403.00279297 -69.76222656 403.69308594 -69.73632812 404.40429688 C-69.66165501 409.55674183 -69.66165501 409.55674183 -71.51171875 411.98046875 C-72.00285156 412.31691406 -72.49398437 412.65335938 -73 413 C-76.875 411.25 -76.875 411.25 -78 409 C-78.07116382 406.62597499 -78.08409085 404.24999323 -78.0625 401.875 C-78.05347656 400.59367187 -78.04445312 399.31234375 -78.03515625 397.9921875 C-78.02355469 397.00476563 -78.01195312 396.01734375 -78 395 C-78.9075 394.938125 -79.815 394.87625 -80.75 394.8125 C-84.91501641 393.7712459 -85.76119608 392.62481553 -88 389 C-88.38724879 386.13597832 -88.5480541 383.65995064 -88.51757812 380.80078125 C-88.5245874 379.98878265 -88.53159668 379.17678406 -88.53881836 378.34017944 C-88.55638138 375.6639354 -88.54478201 372.98875425 -88.53125 370.3125 C-88.53394541 368.44832151 -88.53782824 366.58414439 -88.54284668 364.7199707 C-88.54873942 360.81610711 -88.54018602 356.91261001 -88.52148438 353.00878906 C-88.49869492 348.00833463 -88.51181921 343.00873898 -88.53577423 338.00831604 C-88.55023828 334.15980577 -88.54562344 330.31149862 -88.53526306 326.46298218 C-88.53259745 324.61941425 -88.53585971 322.77582779 -88.54518127 320.93228149 C-88.55535697 318.35409804 -88.53983245 315.77729924 -88.51757812 313.19921875 C-88.52567505 312.43958832 -88.53377197 311.67995789 -88.54211426 310.89730835 C-88.4841998 307.27005343 -88.0930843 305.15071146 -86.17077637 302.03833008 C-83.49081039 299.52187775 -81.61347485 299.24637329 -78 299 C-77.67 296.69 -77.34 294.38 -77 292 C-74.625 291.375 -74.625 291.375 -72 291 C-69.4345406 293.5654594 -69.45953913 295.47686668 -69 299 C-67.6078125 299.37125 -67.6078125 299.37125 -66.1875 299.75 C-62.62337201 301.14769725 -61.78367391 301.68746273 -60 305 C-59.78659617 307.83400286 -59.71535009 310.43016169 -59.8125 313.25 C-59.83280273 314.36761719 -59.83280273 314.36761719 -59.85351562 315.5078125 C-59.88872796 317.33885416 -59.94253149 319.16952169 -60 321 C-55.05 320.67 -50.1 320.34 -45 320 C-44.79318604 317.825271 -44.58637207 315.65054199 -44.37329102 313.40991211 C-43.68828291 306.20934129 -43.00145943 299.00894445 -42.31375217 291.80863094 C-41.89702011 287.44484983 -41.48089187 283.08101292 -41.06616211 278.71704102 C-40.66559793 274.50236484 -40.26342343 270.2878451 -39.86015129 266.0734272 C-39.70688951 264.46881087 -39.55419938 262.86413984 -39.40210152 261.25941277 C-39.1883009 259.00474241 -38.97243342 256.7502785 -38.75610352 254.49584961 C-38.63396988 253.21455673 -38.51183624 251.93326385 -38.38600159 250.61314392 C-38.00605395 247.0566676 -37.52821035 243.53682502 -37 240 C-40.3 240 -43.6 240 -47 240 C-47.03738281 240.90363281 -47.07476562 241.80726563 -47.11328125 242.73828125 C-47.17902344 243.91777344 -47.24476563 245.09726562 -47.3125 246.3125 C-47.39951172 248.07013672 -47.39951172 248.07013672 -47.48828125 249.86328125 C-48 253 -48 253 -49.07421875 254.89453125 C-52.08427032 256.62241075 -55.12841794 256.43279855 -58.5 256.375 C-59.17675781 256.38660156 -59.85351562 256.39820313 -60.55078125 256.41015625 C-65.47374994 256.38102626 -65.47374994 256.38102626 -67.6925354 254.77453613 C-69.39722528 252.46087212 -69.38019794 251.06885978 -69.38818359 248.20898438 C-69.39764008 247.2378772 -69.40709656 246.26677002 -69.4168396 245.26623535 C-69.41076691 244.21931519 -69.40469421 243.17239502 -69.3984375 242.09375 C-69.40130768 241.01750366 -69.40417786 239.94125732 -69.40713501 238.83239746 C-69.40917725 236.55606561 -69.40363629 234.27971628 -69.39111328 232.00341797 C-69.37506255 228.51359927 -69.39095728 225.02493881 -69.41015625 221.53515625 C-69.40817385 219.32551827 -69.40433024 217.11588101 -69.3984375 214.90625 C-69.40451019 213.85932983 -69.41058289 212.81240967 -69.4168396 211.73376465 C-69.40738312 210.76265747 -69.39792664 209.79155029 -69.38818359 208.79101562 C-69.38579681 207.93624634 -69.38341003 207.08147705 -69.38095093 206.20080566 C-68.91145857 203.48848404 -68.21218961 202.60458635 -66 201 C-63.39557392 200.67444674 -61.09906123 200.53527174 -58.5 200.5625 C-57.82324219 200.54251953 -57.14648438 200.52253906 -56.44921875 200.50195312 C-53.38668026 200.50497338 -51.46546868 200.62558108 -49.04296875 202.57421875 C-47.61106848 205.90459353 -47.71220756 208.63947226 -47.8125 212.25 C-47.85310547 214.14492188 -47.85310547 214.14492188 -47.89453125 216.078125 C-47.94673828 217.52445312 -47.94673828 217.52445312 -48 219 C-43.71 219 -39.42 219 -35 219 C-34.885354 217.51870605 -34.77070801 216.03741211 -34.65258789 214.51123047 C-33.48151336 199.54025785 -32.17859889 184.58500603 -30.76782227 169.63476562 C-30.43054782 166.05113118 -30.09902497 162.46699012 -29.76757812 158.8828125 C-29.55242871 156.59111338 -29.33694727 154.29944541 -29.12109375 152.0078125 C-29.02316025 150.94241241 -28.92522675 149.87701233 -28.82432556 148.77932739 C-28.73075272 147.79914642 -28.63717987 146.81896545 -28.54077148 145.80908203 C-28.46020004 144.94960968 -28.3796286 144.09013733 -28.2966156 143.20462036 C-28 141 -28 141 -27 138 C-29.64 138 -32.28 138 -35 138 C-34.97679687 139.05960938 -34.95359375 140.11921875 -34.9296875 141.2109375 C-34.91093056 142.5989513 -34.89273028 143.9869727 -34.875 145.375 C-34.85824219 146.07367188 -34.84148437 146.77234375 -34.82421875 147.4921875 C-34.80655733 149.32897486 -34.89696739 151.16601963 -35 153 C-35.66 153.66 -36.32 154.32 -37 155 C-39.5 154.9375 -39.5 154.9375 -42 154 C-43.3125 151.4375 -43.3125 151.4375 -44 149 C-44.99 149 -45.98 149 -47 149 C-47.03738281 149.89203125 -47.07476562 150.7840625 -47.11328125 151.703125 C-47.17902344 152.87359375 -47.24476563 154.0440625 -47.3125 155.25 C-47.39951172 156.99023438 -47.39951172 156.99023438 -47.48828125 158.765625 C-48.0237541 162.15014039 -48.59884142 163.60454488 -51 166 C-54.59001609 167.19667203 -57.5904839 167.20538881 -61.375 167.25 C-62.68210938 167.27578125 -63.98921875 167.3015625 -65.3359375 167.328125 C-69.15074144 166.98650077 -70.99765501 166.31641599 -74 164 C-75.52698431 160.94603138 -75.16488703 157.75269728 -75.17700195 154.40087891 C-75.18357315 153.61697281 -75.19014435 152.83306671 -75.19691467 152.02540588 C-75.21665983 149.42579051 -75.22831207 146.82623288 -75.23828125 144.2265625 C-75.24235678 143.3397517 -75.2464323 142.4529409 -75.25063133 141.53925705 C-75.27149586 136.84681175 -75.28579671 132.15439573 -75.29516602 127.46191406 C-75.30623985 122.61045853 -75.34064968 117.75946049 -75.38033772 112.90816689 C-75.40645504 109.18156061 -75.41485342 105.45506423 -75.41844749 101.72837448 C-75.42332502 99.93977132 -75.43497205 98.15117345 -75.45348549 96.36265945 C-75.47777693 93.86070495 -75.4769308 91.35994594 -75.4699707 88.85791016 C-75.48278076 88.11802353 -75.49559082 87.3781369 -75.50878906 86.61582947 C-75.47353263 83.14211189 -75.25287949 81.32665612 -73.09732056 78.54222107 C-69.58894821 75.9624124 -66.28068104 76.37990235 -62.0625 76.4375 C-60.86463867 76.40172852 -60.86463867 76.40172852 -59.64257812 76.36523438 C-55.51885156 76.3754839 -53.46439076 76.69278765 -49.953125 79.015625 C-47.37033786 82.96212374 -47.4204833 85.71570474 -47.6875 90.3125 C-47.71005859 91.05306641 -47.73261719 91.79363281 -47.75585938 92.55664062 C-47.8144185 94.37197357 -47.90409114 96.18625681 -48 98 C-46.35 98 -44.7 98 -43 98 C-42.67 96.35 -42.34 94.7 -42 93 C-39.625 92.375 -39.625 92.375 -37 92 C-35 94 -35 94 -34.77294922 95.87939453 C-34.78342285 96.62302246 -34.79389648 97.36665039 -34.8046875 98.1328125 C-34.81113281 98.93847656 -34.81757813 99.74414062 -34.82421875 100.57421875 C-34.84097656 101.41597656 -34.85773438 102.25773437 -34.875 103.125 C-34.88402344 103.97449219 -34.89304688 104.82398438 -34.90234375 105.69921875 C-34.92594353 107.79959884 -34.96181517 109.89983444 -35 112 C-31.7 112 -28.4 112 -25 112 C-25.06900513 109.8048877 -25.06900513 109.8048877 -25.1394043 107.56542969 C-25.3059037 102.13888688 -25.452053 96.7119541 -25.59204102 91.28466797 C-25.65549117 88.93522737 -25.72446875 86.5859293 -25.79907227 84.23681641 C-25.90531713 80.86122451 -25.9917092 77.48562007 -26.07421875 74.109375 C-26.11157639 73.05820496 -26.14893402 72.00703491 -26.18742371 70.92401123 C-26.20767105 69.94329651 -26.2279184 68.96258179 -26.2487793 67.95214844 C-26.27320602 67.09055115 -26.29763275 66.22895386 -26.32279968 65.34124756 C-25.91507074 62.38401298 -25.14355635 61.06958473 -23 59 C-20.82348633 58.54589844 -20.82348633 58.54589844 -18.33203125 58.609375 C-17.43935547 58.62226563 -16.54667969 58.63515625 -15.62695312 58.6484375 C-14.69818359 58.68195313 -13.76941406 58.71546875 -12.8125 58.75 C-11.40194336 58.77707031 -11.40194336 58.77707031 -9.96289062 58.8046875 C-7.64090111 58.8518345 -5.3209631 58.91761769 -3 59 C-3.00999275 57.93551132 -3.00999275 57.93551132 -3.02018738 56.84951782 C-3.08024197 50.16905407 -3.12594541 43.48866539 -3.15543652 36.80799294 C-3.17110785 33.37318046 -3.19237214 29.93859059 -3.22631836 26.50390625 C-3.2650808 22.55731856 -3.27969712 18.61082172 -3.29296875 14.6640625 C-3.30845261 13.42757965 -3.32393646 12.1910968 -3.33988953 10.91714478 C-3.34011612 9.77611298 -3.34034271 8.63508118 -3.34057617 7.45947266 C-3.35056892 5.94723618 -3.35056892 5.94723618 -3.36076355 4.40444946 C-3.24171158 3.61098114 -3.12265961 2.81751282 -3 2 C-2.01 1.34 -1.02 0.68 0 0 Z " fill="#32414F" transform="translate(290,149)"/>
<path d="M0 0 C1.67542976 0.28604898 3.34385343 0.61781233 5 1 C5 2.32 5 3.64 5 5 C7.20887757 4.88501733 9.41710787 4.75756495 11.625 4.625 C13.46964844 4.52058594 13.46964844 4.52058594 15.3515625 4.4140625 C18.93145281 4.14630245 18.93145281 4.14630245 21.89453125 2.9765625 C26.01112892 1.68203493 29.77419523 1.70061041 34.0625 1.75 C35.3146228 1.75906372 35.3146228 1.75906372 36.59204102 1.76831055 C55.28035439 2.0646084 55.28035439 2.0646084 61 7 C60.67 8.65 60.34 10.3 60 12 C55.20341084 13.80061234 50.67769026 14.57657632 45.625 15.125 C44.90828125 15.21136719 44.1915625 15.29773438 43.453125 15.38671875 C36.97528391 16.12336855 30.52303517 16.62216338 24.125 15.0625 C23.38507813 14.88847656 22.64515625 14.71445313 21.8828125 14.53515625 C20 14 20 14 18 13 C15.795636 12.77049681 13.58607827 12.58924067 11.375 12.4375 C10.18648438 12.35371094 8.99796875 12.26992187 7.7734375 12.18359375 C6.85820312 12.12300781 5.94296875 12.06242188 5 12 C5 13.98 5 15.96 5 18 C6.6396875 18.0928125 6.6396875 18.0928125 8.3125 18.1875 C12 19 12 19 13.9375 21.375 C15 24 15 24 15 27 C30.84 27 46.68 27 63 27 C63.66 25.02 64.32 23.04 65 21 C70.3306238 15.94274152 74.95807266 15.8223829 82.015625 15.76171875 C82.90481628 15.753647 83.79400757 15.74557526 84.71014404 15.73725891 C86.5930385 15.72342957 88.47595791 15.71270227 90.35888672 15.70483398 C93.22542421 15.68764735 96.09080021 15.64375456 98.95703125 15.59960938 C100.78905404 15.58947956 102.62108662 15.58096436 104.453125 15.57421875 C105.30440979 15.55671066 106.15569458 15.53920258 107.03277588 15.52116394 C112.85298318 15.54216886 116.22460783 16.625076 121 20 C124 24.06451613 124 24.06451613 124 27 C139.18 27 154.36 27 170 27 C170.33 25.02 170.66 23.04 171 21 C172.875 19.125 172.875 19.125 175 18 C175.99 18 176.98 18 178 18 C178.33 16.02 178.66 14.04 179 12 C173.05717672 12.30077116 167.5315451 12.69843176 161.875 14.625 C151.64737197 17.66364311 137.07684105 16.23768539 127 13 C124.7109375 11.4296875 124.7109375 11.4296875 123 10 C123.56640625 7.61328125 123.56640625 7.61328125 125 5 C133.15152243 1.91819862 142.48897675 1.73890992 151.125 1.6875 C151.91769287 1.68194092 152.71038574 1.67638184 153.52709961 1.6706543 C158.11228223 1.72776772 161.64688639 2.45630074 166 4 C168.28452807 4.27580863 170.57818383 4.4843786 172.875 4.625 C174.02742187 4.69976562 175.17984375 4.77453125 176.3671875 4.8515625 C177.67042969 4.92503906 177.67042969 4.92503906 179 5 C179.33 3.68 179.66 2.36 180 1 C183.75 -0.125 183.75 -0.125 186 1 C186 2.32 186 3.64 186 5 C188.20887757 4.88501733 190.41710787 4.75756495 192.625 4.625 C194.46964844 4.52058594 194.46964844 4.52058594 196.3515625 4.4140625 C199.92675908 4.14914992 199.92675908 4.14914992 202.859375 2.9765625 C207.15429893 1.6410762 211.15417293 1.70160532 215.625 1.75 C216.95144531 1.75906372 216.95144531 1.75906372 218.3046875 1.76831055 C236.12598097 2.03699781 236.12598097 2.03699781 242 7 C241.67 8.65 241.34 10.3 241 12 C236.02701986 13.89371084 231.31166127 14.59354965 226.0625 15.125 C225.28970703 15.21136719 224.51691406 15.29773438 223.72070312 15.38671875 C217.2273373 16.07831984 211.17492497 16.62626853 204.875 14.5625 C198.63596686 12.72289635 192.47389804 12.29847861 186 12 C186 13.98 186 15.96 186 18 C187.11375 18.12375 188.2275 18.2475 189.375 18.375 C193 19 193 19 195 21 C195.39863496 25.25742138 195.32902541 29.52947574 195.31567383 33.8034668 C195.31251689 35.92614206 195.33595761 38.04741936 195.36132812 40.16992188 C195.36360146 41.51822741 195.36430446 42.86653669 195.36328125 44.21484375 C195.36626221 45.44323975 195.36924316 46.67163574 195.37231445 47.93725586 C195 51 195 51 193.74658203 52.89477539 C190.34830831 55.04517868 186.46870872 54.51166903 182.5625 54.5 C181.70333984 54.52835937 180.84417969 54.55671875 179.95898438 54.5859375 C179.12818359 54.58851563 178.29738281 54.59109375 177.44140625 54.59375 C176.68545166 54.60083984 175.92949707 54.60792969 175.15063477 54.61523438 C173 54 173 54 171.36206055 51.4934082 C168.66133615 48.64250399 168.15655686 48.61663203 164.41503906 48.43237305 C162.53171548 48.43316277 160.64827382 48.46130295 158.765625 48.51171875 C157.77246277 48.51879349 156.77930054 48.52586823 155.75604248 48.53315735 C152.58659267 48.56112712 149.41891503 48.62387199 146.25 48.6875 C144.10028594 48.71257946 141.95054418 48.73539324 139.80078125 48.75585938 C134.5332504 48.81096178 129.2667518 48.89461335 124 49 C124.29963898 51.44238732 124.29963898 51.44238732 125 54 C126.39289889 54.96176352 127.79463495 55.91428097 129.24609375 56.78515625 C135.38451283 61.03693427 138.99404875 66.89027121 141 74 C141.37232335 76.95833326 141.37620009 79.86152116 141.328125 82.83984375 C141.32625183 83.64740616 141.32437866 84.45496857 141.32244873 85.28700256 C141.31577605 86.97694082 141.30195824 88.66686491 141.28125 90.35668945 C141.24979132 92.95473429 141.24024281 95.55217324 141.234375 98.15039062 C141.22521588 99.79688248 141.21484361 101.44336813 141.203125 103.08984375 C141.19887512 103.86891586 141.19462524 104.64798798 141.19024658 105.45066833 C141.11724172 110.88275828 141.11724172 110.88275828 140 112 C138.00041636 112.04080783 135.99954746 112.04254356 134 112 C132.51219195 109.0243839 132.86414886 105.98126333 132.859375 102.71875 C132.84102499 101.22133923 132.8214527 99.72394303 132.80078125 98.2265625 C132.77200151 95.87442811 132.75000487 93.52321938 132.74951172 91.17089844 C132.8007874 77.79921931 132.8007874 77.79921931 127 66 C124.69851873 64.18242606 122.72263966 63.17447201 120 62 C119.814375 62.598125 119.62875 63.19625 119.4375 63.8125 C117.28439098 67.08897025 114.63220048 67.74751708 111 69 C109.68 69 108.36 69 107 69 C107.02320313 69.69867188 107.04640625 70.39734375 107.0703125 71.1171875 C107.08835937 72.02726562 107.10640625 72.93734375 107.125 73.875 C107.14820313 74.77992188 107.17140625 75.68484375 107.1953125 76.6171875 C107 79 107 79 105 81 C102.31160615 81.26991906 99.70858064 81.08737357 97 81 C97 82.65 97 84.3 97 86 C98.19238281 85.95359375 99.38476562 85.9071875 100.61328125 85.859375 C102.17966247 85.82185689 103.74607076 85.78545677 105.3125 85.75 C106.09818359 85.71648437 106.88386719 85.68296875 107.69335938 85.6484375 C113.50372788 85.54953761 113.50372788 85.54953761 116.03125 87.84375 C117.17432707 90.38801833 117.23000204 92.23997553 117 95 C117.804375 95.144375 118.60875 95.28875 119.4375 95.4375 C122 96 122 96 123 97 C123.15126231 98.97513667 123.22173766 100.95678135 123.25 102.9375 C123.28867187 104.55978516 123.28867187 104.55978516 123.328125 106.21484375 C123.16570312 107.59349609 123.16570312 107.59349609 123 109 C120 111 120 111 117 111 C117.061875 111.9075 117.12375 112.815 117.1875 113.75 C117 117 117 117 116.06054688 119.17211914 C112.72789206 122.12846826 109.14810204 121.55155118 104.84375 121.49609375 C103.94507202 121.49754898 103.04639404 121.49900421 102.1204834 121.50050354 C100.22075152 121.4988438 98.32100631 121.4872741 96.42138672 121.46655273 C93.51081321 121.43760754 90.6020616 121.44593983 87.69140625 121.45898438 C85.8463453 121.45274673 84.00129011 121.44435559 82.15625 121.43359375 C80.8483551 121.43799721 80.8483551 121.43799721 79.51403809 121.44248962 C78.70309692 121.42980545 77.89215576 121.41712128 77.05664062 121.40405273 C76.34399048 121.39864975 75.63134033 121.39324677 74.89709473 121.38768005 C72.39805807 120.87699039 71.50389013 120.03822928 70 118 C69.8125 114.3125 69.8125 114.3125 70 111 C68.824375 110.814375 68.824375 110.814375 67.625 110.625 C65 110 65 110 63 108 C62.734375 105.72265625 62.734375 105.72265625 62.75 103.0625 C62.74226562 101.74958984 62.74226562 101.74958984 62.734375 100.41015625 C63 98 63 98 65 95 C67.625 94.8125 67.625 94.8125 70 95 C69.938125 94.071875 69.87625 93.14375 69.8125 92.1875 C70 89 70 89 71 87.3125 C74.16973279 85.23236286 77.53253394 85.68800771 81.1875 85.8125 C82.31188477 85.83280273 82.31188477 85.83280273 83.45898438 85.85351562 C85.30629767 85.88881461 87.15324066 85.94262083 89 86 C89 84.35 89 82.7 89 81 C86.98177083 81.09765625 84.96354167 81.1953125 82.9453125 81.29296875 C82.30335938 81.19628906 81.66140625 81.09960938 81 81 C78.79086 77.68629 78.77518447 76.6553979 78.875 72.8125 C78.89304687 71.91144531 78.91109375 71.01039063 78.9296875 70.08203125 C78.95289063 69.39496094 78.97609375 68.70789063 79 68 C78.13375 68.0825 77.2675 68.165 76.375 68.25 C72.20709412 67.94126623 70.21472226 66.60239421 67 64 C67 63.34 67 62.68 67 62 C61.75331883 64.62334059 58.83434515 66.65834952 56 72 C54.9678403 75.41406669 54.85695488 76.57086463 56 80 C55.67 80.66 55.34 81.32 55 82 C54.86939561 84.08085305 54.79728457 86.1655036 54.75390625 88.25 C54.70459961 90.12171875 54.70459961 90.12171875 54.65429688 92.03125 C54.59310098 94.67699591 54.53580894 97.322835 54.48242188 99.96875 C54.44826172 101.2165625 54.41410156 102.464375 54.37890625 103.75 C54.34132202 105.47476563 54.34132202 105.47476563 54.30297852 107.234375 C54 110 54 110 52 112 C49.4375 112.1875 49.4375 112.1875 47 112 C45.00383446 110.00383446 45.59016573 106.18298037 45.4375 103.4375 C45.39431641 102.72658203 45.35113281 102.01566406 45.30664062 101.28320312 C45.20028223 99.52238088 45.09961154 97.7612168 45 96 C34.51841642 110.58727301 24.20720456 125.29323357 14.05639648 140.11254883 C9.22394688 147.1546282 4.31640254 154.14579664 -0.65527344 161.09033203 C-1.56584686 162.3834521 -2.45408601 163.6925399 -3.32128906 165.01513672 C-5.6961145 168.57375196 -6.87388659 170.09798562 -11 171 C-12.68839674 173.59188664 -13.45724522 176.35846047 -14.3125 179.3125 C-15.84016027 183.98035081 -17.80451243 187.25894139 -21 191 C-23.03515625 191.75 -23.03515625 191.75 -25 192 C-25.66 191.67 -26.32 191.34 -27 191 C-27 188.69 -27 186.38 -27 184 C-26.34 184 -25.68 184 -25 184 C-24.06619039 179.46859347 -24.06619039 179.46859347 -25 175 C-25.1546875 173.7934375 -25.1546875 173.7934375 -25.3125 172.5625 C-25.79992673 169.84722978 -25.79992673 169.84722978 -28.0625 168.0625 C-30 166 -30 166 -30.25 162.75 C-30.1675 161.8425 -30.085 160.935 -30 160 C-31.32 159.67 -32.64 159.34 -34 159 C-34 158.01 -34 157.02 -34 156 C-34.66 156 -35.32 156 -36 156 C-37.1721056 153.65578881 -38.32361639 151.31055639 -39.4375 148.9375 C-40.7817245 146.41035794 -41.85775961 144.83620604 -44 143 C-43.505 142.01 -43.505 142.01 -43 141 C-43.66 141 -44.32 141 -45 141 C-45 140.01 -45 139.02 -45 138 C-45.66 138 -46.32 138 -47 138 C-47.15855469 137.45472656 -47.31710937 136.90945313 -47.48046875 136.34765625 C-48.81601095 132.03112483 -50.32069721 128.29700227 -52.6875 124.4375 C-55.26122322 119.98417891 -55.79179998 117.10271097 -55 112 C-53.22667752 109.6098697 -51.84444216 109.13139328 -48.94140625 108.6796875 C-47.3792128 108.5163553 -45.81521183 108.36957369 -44.25 108.23828125 C-40.69786281 107.86210005 -37.1725036 107.3093975 -34.71725464 104.56748962 C-32.33525496 102.39322863 -29.96562131 101.77514103 -26.89892578 100.79516602 C-26.28538742 100.59632813 -25.67184906 100.39749023 -25.03971863 100.19262695 C-23.01096373 99.5375779 -20.97829239 98.89571062 -18.9453125 98.25390625 C-17.52317662 97.79773216 -16.10129513 97.34076427 -14.67965698 96.88304138 C-10.92909895 95.67794213 -7.17505949 94.48406141 -3.42022705 93.2923584 C0.35491315 92.09190297 4.12646286 90.88027862 7.8984375 89.66992188 C12.82111823 88.09234971 17.74399111 86.51536597 22.67053413 84.94988918 C24.56259893 84.34771695 26.45304291 83.74045952 28.34344482 83.13308716 C30.8067902 82.36974984 33.28481011 81.6524258 35.77423096 80.97897339 C36.94846619 80.6558316 38.12270142 80.33268982 39.33251953 79.99975586 C40.37634796 79.72908798 41.42017639 79.4584201 42.49563599 79.17955017 C45.18788178 78.20615794 45.18788178 78.20615794 46.35470581 75.60426331 C47.07451549 73.08291212 47.53271689 70.57825506 48 68 C51.02233021 62.29115405 56.15138781 56.9243061 62 54 C62.65555119 51.47266765 62.65555119 51.47266765 63 49 C56.39823957 48.87312163 49.796794 48.78561623 43.1940918 48.7253418 C40.94852956 48.70021277 38.703049 48.66610385 36.45776367 48.62280273 C33.22814782 48.56208224 29.99961416 48.53377369 26.76953125 48.51171875 C25.26613945 48.47300911 25.26613945 48.47300911 23.7323761 48.43351746 C17.89515369 48.36341 17.89515369 48.36341 13.1105957 51.4934082 C12.41409912 52.3205835 11.71760254 53.14775879 11 54 C8.73583984 54.61523438 8.73583984 54.61523438 6.4609375 54.59375 C5.21957031 54.58988281 5.21957031 54.58988281 3.953125 54.5859375 C3.10234375 54.55757813 2.2515625 54.52921875 1.375 54.5 C0.08722656 54.50386719 0.08722656 54.50386719 -1.2265625 54.5078125 C-7.35977866 54.411981 -7.35977866 54.411981 -9.7421875 52.87890625 C-11.61059313 50.0879028 -11.38888044 47.80188761 -11.3984375 44.46875 C-11.40423828 42.54095703 -11.40423828 42.54095703 -11.41015625 40.57421875 C-11.40387207 39.90567871 -11.39758789 39.23713867 -11.39111328 38.54833984 C-11.37505354 36.5068067 -11.39096671 34.46725292 -11.41015625 32.42578125 C-11.40628906 31.14058594 -11.40242188 29.85539062 -11.3984375 28.53125 C-11.39505371 27.35111328 -11.39166992 26.17097656 -11.38818359 24.95507812 C-11 22 -11 22 -9.67431641 20.13476562 C-7.25115606 18.49247205 -4.86886491 18.31876277 -2 18 C-2 16.02 -2 14.04 -2 12 C-4.06309376 12.11478413 -6.12548354 12.24226198 -8.1875 12.375 C-9.91033203 12.47941406 -9.91033203 12.47941406 -11.66796875 12.5859375 C-14.82122018 12.97778352 -17.11942846 13.71751946 -20 15 C-28.47450824 16.9260246 -36.88560088 15.9407936 -45.375 14.625 C-46.26316406 14.49867188 -47.15132813 14.37234375 -48.06640625 14.2421875 C-48.91847656 14.11328125 -49.77054687 13.984375 -50.6484375 13.8515625 C-51.79578369 13.67874756 -51.79578369 13.67874756 -52.96630859 13.50244141 C-55 13 -55 13 -58 11 C-57.6875 8.625 -57.6875 8.625 -57 6 C-49.79903327 1.19935551 -39.48933332 1.80372595 -31.0625 1.75 C-30.258125 1.74081543 -29.45375 1.73163086 -28.625 1.72216797 C-23.965082 1.74647889 -20.42587049 2.43511732 -16 4 C-13.54859141 4.27821125 -11.08820235 4.48557345 -8.625 4.625 C-7.37976563 4.69976562 -6.13453125 4.77453125 -4.8515625 4.8515625 C-3.91054688 4.90054688 -2.96953125 4.94953125 -2 5 C-1.855625 4.360625 -1.71125 3.72125 -1.5625 3.0625 C-1 1 -1 1 0 0 Z " fill="#364554" transform="translate(455,208)"/>
<path d="M0 0 C1.30618118 10.39113779 2.33358056 20.51074452 2 31 C2.598125 30.67 3.19625 30.34 3.8125 30 C6 29 6 29 9 29 C9.495 27.515 9.495 27.515 10 26 C10.33 26.33 10.66 26.66 11 27 C12.33763383 26.68436631 13.67033808 26.34768962 15 26 C31.66429992 24.68345248 44.36324514 27.25120097 57.6875 37.75 C67.0463115 46.27202365 72.64518002 58.10286498 73.9375 70.625 C74.46372083 83.9080895 70.55025653 96.66003965 61.9375 106.90625 C53.12468628 116.4297745 42.57997618 123.41184329 29.24609375 124.23046875 C27.98925781 124.21628906 26.73242188 124.20210938 25.4375 124.1875 C23.54837891 124.17783203 23.54837891 124.17783203 21.62109375 124.16796875 C18.3232826 124.01499585 15.24497062 123.57267548 12 123 C12.09087891 123.74983154 12.18175781 124.49966309 12.27539062 125.2722168 C12.69147854 128.74308349 13.09578208 132.21523169 13.5 135.6875 C13.64308594 136.86634766 13.78617187 138.04519531 13.93359375 139.25976562 C14.84856509 147.21130225 15.18028246 154.9982967 15 163 C9.4667938 158.98571315 4.21831588 154.69929112 -0.97998047 150.26513672 C-6.2574752 145.76550751 -11.61498876 141.37060031 -17 137 C-15.42432234 133.0051937 -12.79864856 130.75804825 -9.625 127.9375 C-8.19027344 126.65166016 -8.19027344 126.65166016 -6.7265625 125.33984375 C-4 123 -4 123 -1.6484375 121.31640625 C-0.83246094 120.66478516 -0.83246094 120.66478516 0 120 C0 119.34 0 118.68 0 118 C-1.32 117.34 -2.64 116.68 -4 116 C-4.96421875 116.83144531 -5.9284375 117.66289062 -6.921875 118.51953125 C-8.19785987 119.61725353 -9.47390469 120.71490612 -10.75 121.8125 C-11.38421875 122.35970703 -12.0184375 122.90691406 -12.671875 123.47070312 C-13.90113179 124.52709568 -15.13599897 125.57700227 -16.37695312 126.61962891 C-17.66348807 127.71380288 -18.90991003 128.85511618 -20.140625 130.01171875 C-22 131 -22 131 -24.2890625 130.578125 C-28.05126613 128.38802375 -31.14326032 125.65077839 -34.375 122.75 C-35.65349613 121.61962232 -36.93214134 120.48941324 -38.2109375 119.359375 C-38.83323242 118.80443359 -39.45552734 118.24949219 -40.09667969 117.67773438 C-42.6065511 115.46533874 -45.1672539 113.31546041 -47.73681641 111.17285156 C-48.36209229 110.59229004 -48.36209229 110.59229004 -49 110 C-49 109.67 -49 109.34 -49 109 C-36.46 109 -23.92 109 -11 109 C-15.12808671 102.78441725 -15.12808671 102.78441725 -19.6887207 102.22705078 C-21.10053 102.18644438 -22.51350142 102.17742262 -23.92578125 102.1953125 C-24.67337204 102.18160614 -25.42096283 102.16789978 -26.19120789 102.15377808 C-28.56558854 102.11655736 -30.93786967 102.12018672 -33.3125 102.125 C-34.92776695 102.1068673 -36.54300626 102.08606279 -38.15820312 102.0625 C-42.10581928 102.01072476 -46.05206301 101.99556376 -50 102 C-49.22438721 101.2251123 -48.44877441 100.45022461 -47.6496582 99.65185547 C-45.96272425 97.9635226 -44.28075927 96.27019946 -42.60546875 94.5703125 C-38.07596486 89.98958643 -33.49708031 85.55488813 -28.59375 81.375 C-25.7810247 79.0364993 -25.7810247 79.0364993 -24.48828125 75.71484375 C-24.20945558 71.3093982 -24.14452238 68.22624896 -26.73046875 64.51953125 C-29.05519164 62.19480836 -31.45709256 60.08306173 -34 58 C-35.48175301 56.71130111 -36.96113445 55.4198674 -38.4375 54.125 C-39.07558594 53.59132813 -39.71367187 53.05765625 -40.37109375 52.5078125 C-42 51 -42 51 -44 48 C-34.43 48 -24.86 48 -15 48 C-14.34 46.68 -13.68 45.36 -13 44 C-12.34 43.01 -11.68 42.02 -11 41 C-21.56 41 -32.12 41 -43 41 C-41.89513102 37.68539307 -41.12376914 37.03023894 -38.5 34.875 C-34.36159827 31.40648344 -30.7197571 27.6072164 -27.078125 23.625 C-25 22 -25 22 -23.06347656 22.22827148 C-20.77886824 23.08270202 -19.62403481 24.00737145 -17.90625 25.72265625 C-17.35066406 26.26083984 -16.79507813 26.79902344 -16.22265625 27.35351562 C-15.072264 28.49477778 -13.92382979 29.63801695 -12.77734375 30.78320312 C-12.22175781 31.32009766 -11.66617188 31.85699219 -11.09375 32.41015625 C-10.34641602 33.15471069 -10.34641602 33.15471069 -9.58398438 33.91430664 C-7.77016311 35.37690854 -7.77016311 35.37690854 -4 35 C-3.01 34.67 -2.02 34.34 -1 34 C-3.35690769 30.75925192 -5.90060202 28.14587257 -8.9375 25.5625 C-12.3905455 22.61934346 -15.21143737 19.57284587 -18 16 C-2.25218914 0 -2.25218914 0 0 0 Z " fill="#23C2E6" transform="translate(314,307)"/>
<path d="M0 0 C-6.69206705 9.57395409 -13.38626176 19.14631311 -20.125 28.6875 C-20.61202393 29.377229 -21.09904785 30.06695801 -21.60083008 30.77758789 C-24.04931281 34.24360081 -26.50120498 37.70715526 -28.95703125 41.16796875 C-34.90234397 49.55533255 -40.76652622 57.99273941 -46.54858398 66.49365234 C-47.05719971 67.2408252 -47.56581543 67.98799805 -48.08984375 68.7578125 C-48.57565918 69.47356445 -49.06147461 70.18931641 -49.56201172 70.92675781 C-50.9591306 72.9410759 -52.41364535 74.90218359 -53.87890625 76.8671875 C-56.28032133 79.78347465 -56.28032133 79.78347465 -56 83 C-55.01 83.99 -55.01 83.99 -54 85 C-54.66 85 -55.32 85 -56 85 C-57.44725953 87.72823818 -58.45489813 90.35035367 -59.3125 93.3125 C-60.84016027 97.98035081 -62.80451243 101.25894139 -66 105 C-68.03515625 105.75 -68.03515625 105.75 -70 106 C-70.66 105.67 -71.32 105.34 -72 105 C-72 102.69 -72 100.38 -72 98 C-71.34 98 -70.68 98 -70 98 C-69.06619039 93.46859347 -69.06619039 93.46859347 -70 89 C-70.103125 88.195625 -70.20625 87.39125 -70.3125 86.5625 C-70.79992673 83.84722978 -70.79992673 83.84722978 -73.0625 82.0625 C-75 80 -75 80 -75.25 76.75 C-75.1675 75.8425 -75.085 74.935 -75 74 C-76.32 73.67 -77.64 73.34 -79 73 C-79 72.01 -79 71.02 -79 70 C-79.66 70 -80.32 70 -81 70 C-82.1721056 67.65578881 -83.32361639 65.31055639 -84.4375 62.9375 C-85.7817245 60.41035794 -86.85775961 58.83620604 -89 57 C-88.67 56.34 -88.34 55.68 -88 55 C-88.66 55 -89.32 55 -90 55 C-90 54.01 -90 53.02 -90 52 C-90.66 52 -91.32 52 -92 52 C-92.23783203 51.18208984 -92.23783203 51.18208984 -92.48046875 50.34765625 C-93.81601095 46.03112483 -95.32069721 42.29700227 -97.6875 38.4375 C-100.26122322 33.98417891 -100.79179998 31.10271097 -100 26 C-98.23691204 23.62366405 -96.86254674 23.13654215 -93.9765625 22.6796875 C-92.4291146 22.51596434 -90.87931934 22.37327372 -89.328125 22.25 C-86.05681048 21.8987179 -83.12903839 20.99862927 -80 20 C-80 20.99 -80 21.98 -80 23 C-71.46032232 21.14354833 -63.26547285 18.50846336 -55.00317383 15.68920898 C-50.29376975 14.08469935 -45.57410368 12.55251788 -40.8125 11.109375 C-35.94507339 9.62586287 -31.1196356 8.04268504 -26.30859375 6.38671875 C-25.66261734 6.16560928 -25.01664093 5.94449982 -24.35108948 5.71669006 C-21.70036163 4.80930183 -19.04994719 3.90150707 -16.4050293 2.97729492 C-14.43855759 2.29160324 -12.46792476 1.619316 -10.49609375 0.94921875 C-9.34294678 0.55049561 -8.1897998 0.15177246 -7.00170898 -0.2590332 C-4.09147652 -0.97741918 -2.74582689 -1.07116267 0 0 Z " fill="#C0EFF8" transform="translate(500,294)"/>
<path d="M0 0 C0.33 1.32 0.66 2.64 1 4 C2.03640625 3.51273437 2.03640625 3.51273437 3.09375 3.015625 C11.74157813 -0.00646548 24.32355036 1.37976165 33 4 C35.45289486 6.05030467 36.76388261 7.40183595 37.9375 10.375 C38.91872213 13.20415557 38.91872213 13.20415557 41.375 15.75 C47.23761172 22.63900368 48.74165089 29.44953147 48.44140625 38.4375 C47.22413562 48.26184351 42.54803166 56.61420851 35 63 C28.33228964 67.12527481 22.60980168 69.14835756 14.75 69.1875 C13.46609375 69.20167969 12.1821875 69.21585937 10.859375 69.23046875 C5.88404691 68.93335908 1.73963209 68.13681654 -2.46875 65.38671875 C-5.90058368 63.50662468 -8.61522615 63.76976749 -12.5 63.8125 C-19.15927004 63.59910284 -19.15927004 63.59910284 -21.984375 61.5859375 C-25.58486297 56.18520554 -26.71429437 49.27173476 -28 43 C-22.88863277 46.65838974 -18.33702922 50.44611932 -14 55 C-14.28875 54.39671875 -14.5775 53.7934375 -14.875 53.171875 C-15.431875 51.97304688 -15.431875 51.97304688 -16 50.75 C-16.37125 49.96109375 -16.7425 49.1721875 -17.125 48.359375 C-18 46 -18 46 -18 42 C-18.66 42 -19.32 42 -20 42 C-20 41.34 -20 40.68 -20 40 C-20.5775 39.773125 -21.155 39.54625 -21.75 39.3125 C-24.5623279 37.67197539 -26.02970461 35.56221186 -28 33 C-27.28714844 32.32195312 -26.57429688 31.64390625 -25.83984375 30.9453125 C-21.20896214 26.46841541 -16.90767454 22.1784597 -13.375 16.75 C-10.47465095 12.30796056 -7.231795 9.57655636 -2.8203125 6.66796875 C-0.52858884 4.5680417 -0.31945395 3.03481255 0 0 Z " fill="#16BDE3" transform="translate(324,346)"/>
<path d="M0 0 C0.91471573 -0.00478363 1.82943146 -0.00956726 2.77186584 -0.01449585 C4.70429201 -0.01789469 6.63677567 -0.0086933 8.5690918 0.01220703 C11.52198081 0.03894321 14.47105825 0.01247576 17.42382812 -0.01953125 C19.30339379 -0.01622655 21.18295708 -0.00981906 23.0625 0 C24.38301613 -0.01518173 24.38301613 -0.01518173 25.73020935 -0.03067017 C30.01630328 0.05095581 32.06125417 0.28828114 35.65429688 2.80541992 C37.95602264 6.19121226 38.22922208 7.99990425 38.2265625 12.06640625 C38.22849609 13.28650391 38.23042969 14.50660156 38.23242188 15.76367188 C38.20857422 17.03017578 38.18472656 18.29667969 38.16015625 19.6015625 C38.17111328 20.86419922 38.18207031 22.12683594 38.19335938 23.42773438 C38.10204746 34.96347276 38.10204746 34.96347276 33.59765625 39.6640625 C29.82518138 42.17904575 26.76264541 42.00499951 22.38671875 42.03515625 C21.17899307 42.04869896 21.17899307 42.04869896 19.9468689 42.06251526 C18.24391396 42.07701731 16.5409033 42.08590439 14.83789062 42.08959961 C12.23862283 42.10148946 9.64173497 42.15066495 7.04296875 42.20117188 C5.38673031 42.2106373 3.73047732 42.21787176 2.07421875 42.22265625 C0.91305038 42.25195473 0.91305038 42.25195473 -0.27157593 42.28184509 C-4.20501312 42.24912834 -6.15130572 41.85612833 -9.30712891 39.44165039 C-14.26446526 32.86980051 -13.76862108 26.61913809 -13.77734375 18.6640625 C-13.80183594 17.4884375 -13.82632813 16.3128125 -13.8515625 15.1015625 C-13.85542969 13.9671875 -13.85929688 12.8328125 -13.86328125 11.6640625 C-13.87149902 10.6328125 -13.8797168 9.6015625 -13.88818359 8.5390625 C-12.46890931 0.14038212 -7.2640581 -0.08332196 0 0 Z " fill="#929FB2" transform="translate(536.40234375,229.3359375)"/>
<path d="M0 0 C2.00720923 0.28674418 4.0085944 0.61866701 6 1 C6.00386719 2.10408203 6.00386719 2.10408203 6.0078125 3.23046875 C6.07032942 8.88754895 6.07032942 8.88754895 8.40234375 13.84375 C10.20671218 15.3625108 10.20671218 15.3625108 13 17 C13.33 13.37 13.66 9.74 14 6 C19.78230278 9.91793776 19.78230278 9.91793776 20.74462891 14.70117188 C20.77052512 16.12347493 20.76273749 17.54667125 20.7265625 18.96875 C20.72755951 19.72667847 20.72855652 20.48460693 20.72958374 21.26550293 C20.72491814 22.86249316 20.70555302 24.45950022 20.67236328 26.05615234 C20.62513166 28.49320675 20.63124978 30.92588473 20.64453125 33.36328125 C20.6333768 34.91929677 20.61915642 36.47529396 20.6015625 38.03125 C20.60429672 39.11738586 20.60429672 39.11738586 20.60708618 40.22546387 C20.47202638 45.07277649 19.44392966 47.59393342 16 51 C13.11584117 52.44207941 10.58278472 52.09394887 7.375 52.0625 C6.18648438 52.05347656 4.99796875 52.04445313 3.7734375 52.03515625 C2.85820312 52.02355469 1.94296875 52.01195312 1 52 C0.34 50.35 -0.32 48.7 -1 47 C-3.97 47 -6.94 47 -10 47 C-10.33 49.97 -10.66 52.94 -11 56 C-16.39286143 54.09663714 -21.15072581 51.27697133 -25 47 C-24.67 46.34 -24.34 45.68 -24 45 C-21.525 46.98 -21.525 46.98 -19 49 C-19.19916016 47.84564453 -19.19916016 47.84564453 -19.40234375 46.66796875 C-20.77732559 37.72556861 -21.43021671 28.78514696 -21.875 19.75 C-21.98509399 17.94631958 -21.98509399 17.94631958 -22.09741211 16.10620117 C-22.14518799 14.97287354 -22.19296387 13.8395459 -22.2421875 12.671875 C-22.2922998 11.6519043 -22.34241211 10.63193359 -22.39404297 9.58105469 C-22 7 -22 7 -20.10986328 5.14550781 C-18 4 -18 4 -16 4 C-15.67 6.97 -15.34 9.94 -15 13 C-13.4840625 12.01 -13.4840625 12.01 -11.9375 11 C-8.21937109 8.84500284 -5.31084509 8.64809428 -1 9 C-1.020625 7.700625 -1.04125 6.40125 -1.0625 5.0625 C-1.08399454 3.70834367 -1.07148199 2.35243917 -1 1 C-0.67 0.67 -0.34 0.34 0 0 Z " fill="#18BAE1" transform="translate(341,353)"/>
<path d="M0 0 C0.0501123 0.73935791 0.10022461 1.47871582 0.15185547 2.24047852 C1.39154072 20.6241972 1.39154072 20.6241972 3.55859375 38.9140625 C4.66166414 46.62579356 5.12762142 54.21509315 5 62 C1.55630419 60.71520302 -1.44013953 59.22425047 -4.52734375 57.234375 C-5.39190186 56.68040039 -6.25645996 56.12642578 -7.1472168 55.55566406 C-8.06801025 54.95979492 -8.98880371 54.36392578 -9.9375 53.75 C-11.90095349 52.48944598 -13.86449797 51.22903367 -15.828125 49.96875 C-16.83939453 49.31777344 -17.85066406 48.66679688 -18.89257812 47.99609375 C-23.97902443 44.72874735 -29.08416981 41.49088475 -34.1875 38.25 C-36.01459643 37.08897198 -37.84144037 35.92754647 -39.66796875 34.765625 C-40.43391357 34.27868164 -41.1998584 33.79173828 -41.98901367 33.29003906 C-43.67087651 32.2111313 -45.33741765 31.10838823 -47 30 C-47 29.34 -47 28.68 -47 28 C-45.55737305 26.86181641 -45.55737305 26.86181641 -43.51171875 25.6015625 C-42.75141357 25.12783203 -41.9911084 24.65410156 -41.20776367 24.16601562 C-40.37607666 23.65748047 -39.54438965 23.14894531 -38.6875 22.625 C-36.94780607 21.54444887 -35.2082261 20.46371426 -33.46875 19.3828125 C-32.56769531 18.82625977 -31.66664063 18.26970703 -30.73828125 17.69628906 C-26.37111123 14.99094872 -22.02972937 12.24512201 -17.6875 9.5 C-16.90656982 9.00838379 -16.12563965 8.51676758 -15.32104492 8.01025391 C-14.57959229 7.54280762 -13.83813965 7.07536133 -13.07421875 6.59375 C-12.37603027 6.15417969 -11.6778418 5.71460938 -10.95849609 5.26171875 C-9.15525702 4.10002098 -7.40078218 2.88719132 -5.64453125 1.65625 C-3 0 -3 0 0 0 Z " fill="#F9FAFA" transform="translate(345,629)"/>
<path d="M0 0 C3.6604783 1.13346247 6.85468868 2.31817536 10.07421875 4.3984375 C10.81542969 4.8723291 11.55664062 5.3462207 12.3203125 5.83447266 C13.10148437 6.34284668 13.88265625 6.8512207 14.6875 7.375 C16.36835808 8.45333001 18.04935187 9.5314485 19.73046875 10.609375 C20.59333496 11.16560547 21.45620117 11.72183594 22.34521484 12.29492188 C26.71235875 15.09978973 31.10748193 17.86011031 35.5 20.625 C37.07326304 21.61663818 38.64620555 22.60878516 40.21875 23.6015625 C40.87810547 24.01744629 41.53746094 24.43333008 42.21679688 24.86181641 C43.82419811 25.8877891 45.41334342 26.94222895 47 28 C45.82793197 31.51620408 45.22138055 31.74890283 42.125 33.53125 C41.31281006 34.00667236 40.50062012 34.48209473 39.66381836 34.97192383 C38.34522827 35.72832153 38.34522827 35.72832153 37 36.5 C35.16653587 37.57438139 33.33452813 38.65125161 31.50390625 39.73046875 C30.57980957 40.27493652 29.65571289 40.8194043 28.70361328 41.38037109 C24.7210496 43.76616913 20.82348901 46.27328617 16.9375 48.8125 C15.89807251 49.48986206 15.89807251 49.48986206 14.83764648 50.1809082 C12.89040018 51.45186817 10.94494143 52.72551657 9 54 C6.85813468 55.40222838 4.71217573 56.79719024 2.5625 58.1875 C1.71816406 58.73792969 0.87382812 59.28835938 0.00390625 59.85546875 C-2 61 -2 61 -4 61 C-4.11973102 53.27800236 -3.77414356 45.68135723 -3.125 37.98828125 C-3.03621582 36.89404343 -2.94743164 35.7998056 -2.85595703 34.67240906 C-2.57478595 31.21875171 -2.28750001 27.76563565 -2 24.3125 C-1.80688513 21.95380929 -1.61417301 19.59508557 -1.421875 17.23632812 C-0.95256867 11.49049584 -0.47825723 5.74509381 0 0 Z " fill="#FBFBFB" transform="translate(237,629)"/>
<path d="M0 0 C2.58049776 1.47806992 5.06836821 2.9955417 7.53125 4.6640625 C9.08972656 5.71980469 9.08972656 5.71980469 10.6796875 6.796875 C16.20411369 10.59775279 21.69285438 14.45063436 27.17407227 18.31347656 C32.00835959 21.71621673 36.88141292 25.03367111 41.8449707 28.24560547 C42.38081787 28.63119629 42.91666504 29.01678711 43.46875 29.4140625 C43.46875 29.7440625 43.46875 30.0740625 43.46875 30.4140625 C13.76875 30.4140625 -15.93125 30.4140625 -46.53125 30.4140625 C-37.17826846 22.93167727 -27.49730589 15.87637383 -17.453125 9.34765625 C-15.36993182 7.96907253 -13.32082054 6.53840158 -11.296875 5.07421875 C-9.71132813 3.94306641 -9.71132813 3.94306641 -8.09375 2.7890625 C-7.14628906 2.09554687 -6.19882812 1.40203125 -5.22265625 0.6875 C-2.53125 -0.5859375 -2.53125 -0.5859375 0 0 Z " fill="#FBFCFC" transform="translate(292.53125,588.5859375)"/>
<path d="M0 0 C0.495 1.485 0.495 1.485 1 3 C0.67 3.66 0.34 4.32 0 5 C-0.13060439 7.08085305 -0.20271543 9.1655036 -0.24609375 11.25 C-0.29540039 13.12171875 -0.29540039 13.12171875 -0.34570312 15.03125 C-0.40689902 17.67699591 -0.46419106 20.322835 -0.51757812 22.96875 C-0.55173828 24.2165625 -0.58589844 25.464375 -0.62109375 26.75 C-0.65867798 28.47476562 -0.65867798 28.47476562 -0.69702148 30.234375 C-1 33 -1 33 -3 35 C-5.5625 35.1875 -5.5625 35.1875 -8 35 C-9.99616554 33.00383446 -9.40983427 29.18298037 -9.5625 26.4375 C-9.60568359 25.72658203 -9.64886719 25.01566406 -9.69335938 24.28320312 C-9.79971777 22.52238088 -9.90038846 20.7612168 -10 19 C-20.48158358 33.58727301 -30.79279544 48.29323357 -40.94360352 63.11254883 C-47.83913656 73.16105321 -54.91058046 83.08770249 -62 93 C-63.65 92.67 -65.3 92.34 -67 92 C-66.52809799 87.1539294 -64.14344869 84.10122173 -61.25 80.375 C-56.85913977 74.56068516 -52.65069808 68.65601293 -48.5625 62.625 C-39.7751475 49.69959861 -30.75013654 36.95286959 -21.5390625 24.32592773 C-17.88993176 19.30430028 -14.40847954 14.18780597 -11 9 C-18.7248454 10.46122629 -25.99139846 12.95773607 -33.38430786 15.56658936 C-43.97018125 19.298756 -54.55591925 22.91114318 -65.3671875 25.94140625 C-70.55972932 27.45450177 -75.63990089 29.25795787 -80.73046875 31.08203125 C-83.99173244 31.99767876 -86.6331264 32.17881726 -90 32 C-90 30.35 -90 28.7 -90 27 C-70.64997462 20.46998953 -51.26458186 14.0443018 -31.83084106 7.76760864 C-29.74103765 7.09106672 -27.65238169 6.4109697 -25.56491089 5.7272644 C-22.61278403 4.76138205 -19.65666901 3.80881246 -16.69921875 2.859375 C-15.82142761 2.56932083 -14.94363647 2.27926666 -14.03924561 1.98042297 C-9.15754133 0.43105987 -5.12268347 -0.31635909 0 0 Z " fill="#28C4E8" transform="translate(510,285)"/>
<path d="M0 0 C1.42788586 10.69722961 2.5557491 21.39218895 3.43261719 32.1484375 C3.62716681 34.52648564 3.82891831 36.90385263 4.03125 39.28125 C4.15927939 40.82288141 4.28689871 42.36454695 4.4140625 43.90625 C4.50308334 44.95020935 4.50308334 44.95020935 4.59390259 46.01525879 C4.96927962 50.69636477 5.04916716 55.30879743 5 60 C-0.88906617 56.86238973 -6.40943082 53.47344444 -11.8125 49.5625 C-13.27566716 48.51640307 -14.73922711 47.47085536 -16.203125 46.42578125 C-16.97076172 45.87615723 -17.73839844 45.3265332 -18.52929688 44.76025391 C-23.01984599 41.56095953 -27.54273767 38.40781912 -32.0625 35.25 C-33.78257146 34.04690271 -35.50262525 32.84378014 -37.22265625 31.640625 C-38.48173627 30.76036722 -39.74083662 29.88013852 -41 29 C-37.84696724 25.70031455 -34.7818444 23.01404805 -30.9375 20.5625 C-25.01539248 16.70572748 -19.21937208 12.68884786 -13.4375 8.625 C-11.7070797 7.40878524 -9.97661381 6.19263532 -8.24609375 4.9765625 C-7.50029053 4.45143066 -6.7544873 3.92629883 -5.98608398 3.38525391 C-1.13253437 0 -1.13253437 0 0 0 Z " fill="#F9FAFA" transform="translate(338,555)"/>
<path d="M0 0 C3.03521551 1.14581652 5.72954475 2.32269193 8.390625 4.1796875 C9.00977783 4.60830078 9.62893066 5.03691406 10.2668457 5.47851562 C10.92128662 5.93935547 11.57572754 6.40019531 12.25 6.875 C12.93731201 7.35388672 13.62462402 7.83277344 14.33276367 8.32617188 C15.79627149 9.3475388 17.25805989 10.37137316 18.71826172 11.39746094 C21.04875417 13.03424164 23.38533516 14.6620517 25.72265625 16.2890625 C27.25296236 17.3588628 28.78291986 18.42916198 30.3125 19.5 C31.3967627 20.25579346 31.3967627 20.25579346 32.50292969 21.02685547 C33.1787207 21.50268066 33.85451172 21.97850586 34.55078125 22.46875 C35.14544189 22.88576172 35.74010254 23.30277344 36.3527832 23.73242188 C38.05084004 25.03912279 39.51975723 26.45363729 41 28 C31.0264601 35.26159345 20.85207153 42.2165855 10.62133789 49.10913086 C9.57969482 49.81303955 8.53805176 50.51694824 7.46484375 51.2421875 C6.532771 51.8697998 5.60069824 52.49741211 4.64038086 53.14404297 C1.93574924 54.9954104 1.93574924 54.9954104 -0.71655273 57.23486328 C-3 59 -3 59 -5 59 C-4.38982606 45.74323259 -3.27245492 32.57687197 -1.9375 19.375 C-1.74899246 17.4818063 -1.56083968 15.58857723 -1.37304688 13.6953125 C-0.91943341 9.12979234 -0.46109119 4.56477076 0 0 Z " fill="#FAFAFA" transform="translate(244,556)"/>
<path d="M0 0 C12.03070775 7.11396641 19.02258214 16.10856199 23.19140625 29.3984375 C25.53608098 41.428591 23.22219842 53.20644726 16.671875 63.48046875 C14.26158221 66.83549942 11.69224379 69.77629163 8.609375 72.54296875 C7.5265625 73.53296875 7.5265625 73.53296875 6.421875 74.54296875 C-1.8087665 80.39586937 -9.17875972 82.70839595 -19.265625 82.60546875 C-20.99425781 82.59193359 -20.99425781 82.59193359 -22.7578125 82.578125 C-24.06105469 82.56072266 -24.06105469 82.56072266 -25.390625 82.54296875 C-25.720625 79.24296875 -26.050625 75.94296875 -26.390625 72.54296875 C-24.94042969 72.50429688 -24.94042969 72.50429688 -23.4609375 72.46484375 C-12.4972541 71.98721794 -3.49725757 70.47410664 4.78515625 62.74609375 C11.47580051 54.66574393 14.08059628 45.6136751 14.02734375 35.3359375 C13.13700463 27.25631798 9.24530549 21.16710859 3.609375 15.54296875 C2.90772858 13.55497057 2.23564628 11.55598358 1.609375 9.54296875 C-7.67744902 4.89955674 -22.47857383 5.23138965 -32.390625 7.54296875 C-32.720625 4.57296875 -33.050625 1.60296875 -33.390625 -1.45703125 C-22.94586856 -5.58519689 -10.01077698 -4.93625329 0 0 Z " fill="#F2FBFB" transform="translate(357.390625,342.45703125)"/>
<path d="M0 0 C29.04 0 58.08 0 88 0 C84.95530599 2.43575521 82.26658294 4.56748878 79.0234375 6.59375 C78.27916504 7.06151855 77.53489258 7.52928711 76.76806641 8.01123047 C75.97835449 8.50252441 75.18864258 8.99381836 74.375 9.5 C69.10697165 12.77900533 63.86096958 16.07276683 58.703125 19.5234375 C57.85186035 20.08482422 57.0005957 20.64621094 56.12353516 21.22460938 C54.48345651 22.30795232 52.85248971 23.40524375 51.23193359 24.51757812 C45.74723695 28.10358892 45.74723695 28.10358892 42.4921875 27.65234375 C41.66976562 27.10707031 40.84734375 26.56179688 40 26 C39.39881348 25.63680664 38.79762695 25.27361328 38.17822266 24.89941406 C35.92530596 23.53468167 33.71310849 22.11583442 31.5 20.6875 C29.8170779 19.6109285 28.13345619 18.53545005 26.44921875 17.4609375 C25.5679834 16.89858398 24.68674805 16.33623047 23.77880859 15.75683594 C20.8932917 13.9325362 17.9912434 12.13781209 15.08203125 10.3515625 C13.63763672 9.46464722 13.63763672 9.46464722 12.1640625 8.55981445 C10.27894273 7.4046944 8.3922475 6.2521411 6.50390625 5.10229492 C5.653125 4.57998291 4.80234375 4.0576709 3.92578125 3.51953125 C3.16692627 3.05651611 2.40807129 2.59350098 1.6262207 2.11645508 C1.08956787 1.7480249 0.55291504 1.37959473 0 1 C0 0.67 0 0.34 0 0 Z " fill="#FBFBFC" transform="translate(247,626)"/>
<path d="M0 0 C4.95 0 9.9 0 15 0 C15 27.39 15 54.78 15 83 C10.05 83 5.1 83 0 83 C0 55.61 0 28.22 0 0 Z " fill="#98A4B5" transform="translate(359,455)"/>
<path d="M0 0 C3.9500018 2.30086188 7.41729337 5.09738357 10.97265625 7.9609375 C17.99710651 13.54272404 25.15839262 18.82635062 32.59082031 23.85302734 C34.33461828 25.05037979 36.03401592 26.31197593 37.72265625 27.5859375 C37.72265625 28.2459375 37.72265625 28.9059375 37.72265625 29.5859375 C11.98265625 29.5859375 -13.75734375 29.5859375 -40.27734375 29.5859375 C-40.27734375 28.9259375 -40.27734375 28.2659375 -40.27734375 27.5859375 C-38.62060547 26.31982422 -38.62060547 26.31982422 -36.33203125 24.890625 C-31.46496016 21.75186856 -26.94073785 18.30249374 -22.40234375 14.7109375 C-20.82871054 13.48362386 -19.2544932 12.25705881 -17.6796875 11.03125 C-15.05261752 8.98153951 -12.4405914 6.9159198 -9.84375 4.828125 C-8.89371094 4.08820312 -7.94367188 3.34828125 -6.96484375 2.5859375 C-5.76408203 1.626875 -5.76408203 1.626875 -4.5390625 0.6484375 C-2.27734375 -0.4140625 -2.27734375 -0.4140625 0 0 Z " fill="#F7F7F8" transform="translate(292.27734375,516.4140625)"/>
<path d="M0 0 C4.62 0 9.24 0 14 0 C14 27.06 14 54.12 14 82 C9.38 82 4.76 82 0 82 C0 54.94 0 27.88 0 0 Z " fill="#9CA8BA" transform="translate(209,455)"/>
<path d="M0 0 C25.41 0 50.82 0 77 0 C73.90703882 3.09296118 71.57943205 5.07542302 68 7.375 C63.91599964 10.03540567 59.9057391 12.76135562 55.94140625 15.59765625 C55.05517578 16.22945801 54.16894531 16.86125977 53.25585938 17.51220703 C51.48034364 18.78139821 49.70937857 20.05698322 47.94335938 21.33935547 C46.70489258 22.22131592 46.70489258 22.22131592 45.44140625 23.12109375 C44.33841187 23.91664673 44.33841187 23.91664673 43.21313477 24.72827148 C40.72986923 26.15522462 38.85343896 26.76451365 36 27 C33.51457593 25.51056194 31.42939147 24.04777106 29.1875 22.25 C27.86242869 21.23209076 26.53554147 20.21654189 25.20703125 19.203125 C24.5207666 18.67525391 23.83450195 18.14738281 23.12744141 17.60351562 C19.61895354 14.95906436 16.0021571 12.4779046 12.375 10 C11.71266357 9.54399414 11.05032715 9.08798828 10.36791992 8.61816406 C7.62978599 6.74343096 4.92500966 4.95726144 2.0390625 3.3125 C1.36617187 2.879375 0.69328125 2.44625 0 2 C0 1.34 0 0.68 0 0 Z " fill="#F6F7F7" transform="translate(253,552)"/>
<path d="M0 0 C4.62 0 9.24 0 14 0 C14 25.08 14 50.16 14 76 C9.38 76 4.76 76 0 76 C0 50.92 0 25.84 0 0 Z " fill="#D1DDE9" transform="translate(347,233)"/>
<path d="M0 0 C4.62 0 9.24 0 14 0 C14 25.08 14 50.16 14 76 C9.38 76 4.76 76 0 76 C0 50.92 0 25.84 0 0 Z " fill="#CED9E5" transform="translate(221,233)"/>
<path d="M0 0 C2.55215502 2.55215502 2.43088887 3.88728416 2.81640625 7.44140625 C3.0023938 9.13668457 3.0023938 9.13668457 3.19213867 10.86621094 C3.31435791 12.08598633 3.43657715 13.30576172 3.5625 14.5625 C3.75646362 16.42503418 3.75646362 16.42503418 3.9543457 18.32519531 C5.16399888 30.5316252 5.70726811 42.74084127 6 55 C-0.73691902 50.6475308 -7.14456858 45.95164921 -13.5 41.0625 C-14.38558594 40.38509766 -15.27117187 39.70769531 -16.18359375 39.00976562 C-21.81053763 34.70073297 -27.41182079 30.35915506 -33 26 C-28.79445264 21.55101777 -24.15858487 17.85484619 -19.3125 14.125 C-18.51537598 13.50802246 -17.71825195 12.89104492 -16.89697266 12.25537109 C-11.37498845 8.00242129 -5.7964132 3.8739847 0 0 Z " fill="#F9FAFA" transform="translate(330,486)"/>
<path d="M0 0 C7.19194029 4.21377999 13.79883893 9.01850624 20.375 14.125 C21.14763184 14.7226416 21.92026367 15.3202832 22.71630859 15.93603516 C26.73807524 19.08818335 30.4852587 22.28921735 34 26 C33.54898926 26.35078613 33.09797852 26.70157227 32.63330078 27.06298828 C31.2594689 28.13152419 29.88569551 29.20013531 28.51196289 30.26879883 C26.90740208 31.51657175 25.30241456 32.76379611 23.69702148 34.01049805 C19.42204038 37.33159562 15.15465862 40.66163416 10.90234375 44.01171875 C10.09071777 44.64899902 9.2790918 45.2862793 8.44287109 45.94287109 C6.87677378 47.17294014 5.31321925 48.40625471 3.75244141 49.64306641 C2.68582275 50.479104 2.68582275 50.479104 1.59765625 51.33203125 C0.97383057 51.82421143 0.35000488 52.3163916 -0.29272461 52.82348633 C-2 54 -2 54 -5 55 C-4.57465157 43.35425323 -3.66710619 31.7798766 -2.5 20.1875 C-2.36940186 18.88280762 -2.23880371 17.57811523 -2.10424805 16.23388672 C-1.54482862 10.7870759 -0.94614813 5.3951762 0 0 Z " fill="#F9FAFA" transform="translate(251,486)"/>
<path d="M0 0 C4.42491763 0.36494166 6.48026322 1.97095587 9.625 5 C13.19707778 8.34882292 16.81663427 11.54657104 20.625 14.625 C30.5091106 22.63914373 30.5091106 22.63914373 34 26 C34 26.33 34 26.66 34 27 C12.88 27 -8.24 27 -30 27 C-26.97462494 23.21828118 -24.79525677 20.83242897 -21.125 17.9375 C-16.46818347 14.20575378 -11.90025524 10.39032533 -7.375 6.5 C-6.75898926 5.97140381 -6.14297852 5.44280762 -5.50830078 4.89819336 C-2.69184186 2.51730227 -2.69184186 2.51730227 0 0 Z " fill="#FBFBFC" transform="translate(289,448)"/>
<path d="M0 0 C21.78 0 43.56 0 66 0 C62.62252929 3.37747071 59.97017139 5.89973762 56.1875 8.5625 C52.67738927 11.04106799 49.25816103 13.56940783 45.90234375 16.25390625 C44.84140503 17.0890979 44.84140503 17.0890979 43.7590332 17.94116211 C42.35177388 19.05154623 40.95538272 20.17586428 39.57104492 21.31469727 C38.92111572 21.82186279 38.27118652 22.32902832 37.6015625 22.8515625 C37.02744629 23.31385254 36.45333008 23.77614258 35.86181641 24.25244141 C34 25 34 25 31.52734375 24.3203125 C29.10468302 23.05468757 27.09403364 21.7260484 24.9609375 20.0234375 C24.22020996 19.43844482 23.47948242 18.85345215 22.71630859 18.25073242 C21.55736084 17.32224487 21.55736084 17.32224487 20.375 16.375 C18.77196149 15.10664576 17.16779651 13.83971392 15.5625 12.57421875 C14.78519531 11.9611084 14.00789063 11.34799805 13.20703125 10.71630859 C9.47615401 7.81497375 5.63751825 5.07657066 1.7734375 2.35546875 C1.18820312 1.90816406 0.60296875 1.46085937 0 1 C0 0.67 0 0.34 0 0 Z " fill="#F8F9F9" transform="translate(258,482)"/>
<path d="M0 0 C3.39121482 1.6261574 6.0373945 3.52583332 8.9375 5.9375 C9.89140625 6.72898437 10.8453125 7.52046875 11.828125 8.3359375 C17.23617198 12.87006054 22.62426546 17.42763438 28 22 C26.49775154 25.73892951 24.39834702 27.54093605 21.25 30 C15.99488091 34.17359062 10.90124265 38.49582273 5.86035156 42.92578125 C2.72465279 45.64808047 -0.34165811 47.98585671 -4 50 C-4.43401932 39.52777681 -3.12202618 29.20347903 -2 18.8125 C-1.80676932 16.98377908 -1.61405673 15.15500333 -1.421875 13.32617188 C-0.95388833 8.8834599 -0.4788938 4.44154894 0 0 Z " fill="#F7F8F8" transform="translate(257,420)"/>
<path d="M0 0 C1.2375 0.433125 1.2375 0.433125 2.5 0.875 C3.8303125 1.1534375 3.8303125 1.1534375 5.1875 1.4375 C7.5 2.875 7.5 2.875 8.57421875 6.359375 C9.63044072 11.05795923 10.17486076 15.77272275 10.625 20.5625 C10.70991699 21.43229492 10.79483398 22.30208984 10.88232422 23.19824219 C11.51749024 30.11222241 11.72808679 36.93102433 11.5 43.875 C5.9667938 39.86071315 0.71831588 35.57429112 -4.47998047 31.14013672 C-9.7574752 26.64050751 -15.11498876 22.24560031 -20.5 17.875 C-18.92882367 13.90571242 -16.34553306 11.67834193 -13.1875 8.875 C-12.24261719 8.029375 -11.29773438 7.18375 -10.32421875 6.3125 C-2.84537605 -0.1422688 -2.84537605 -0.1422688 0 0 Z " fill="#F8F9F9" transform="translate(317.5,426.125)"/>
<path d="M0 0 C5.44425217 -0.12395838 10.8876761 -0.2145074 16.33300781 -0.2746582 C18.18373938 -0.29974245 20.03437247 -0.33381845 21.88476562 -0.37719727 C24.55102883 -0.43811995 27.21597825 -0.46626991 29.8828125 -0.48828125 C31.11597702 -0.52699089 31.11597702 -0.52699089 32.37405396 -0.56648254 C36.65272019 -0.56855321 39.21279606 -0.25106034 42.56982422 2.53051758 C43.37178223 3.34544678 44.17374023 4.16037598 45 5 C43.46029107 8.96182414 40.98032363 10.89782274 37.6875 13.5 C36.74261719 14.2528125 35.79773438 15.005625 34.82421875 15.78125 C33.89222656 16.5134375 32.96023438 17.245625 32 18 C30.33244348 19.33222026 28.66548214 20.66518736 27 22 C21.86531022 20.46549501 18.52730292 17.25266948 14.625 13.75 C13.34650387 12.61962232 12.06785866 11.48941324 10.7890625 10.359375 C9.85562012 9.52696289 9.85562012 9.52696289 8.90332031 8.67773438 C6.3934489 6.46533874 3.8327461 4.31546041 1.26318359 2.17285156 C0.84633301 1.78581055 0.42948242 1.39876953 0 1 C0 0.67 0 0.34 0 0 Z " fill="#FAFBFB" transform="translate(265,416)"/>
<path d="M0 0 C1.26290106 0.92500301 2.52270908 1.85422962 3.78125 2.78515625 C4.8340918 3.56064819 4.8340918 3.56064819 5.90820312 4.35180664 C8.55674789 6.43867939 10.85196173 8.76701237 13.19140625 11.1875 C16.30065672 14.30346591 19.6551243 17.14165168 23 20 C20.19424081 23.85791889 17.03549535 26.81838037 13.4296875 29.88671875 C11.5445327 31.52637912 9.70715958 33.18911522 7.8828125 34.89453125 C7.07553711 35.64742432 7.07553711 35.64742432 6.25195312 36.41552734 C5.17685369 37.42125511 4.10516361 38.43064122 3.03710938 39.44384766 C-0.77900654 43 -0.77900654 43 -3 43 C-3.22364283 33.29742131 -2.54449107 23.8274282 -1.5 14.1875 C-1.35485682 12.80149624 -1.21032246 11.41542858 -1.06640625 10.02929688 C-0.71688293 6.68552375 -0.3613184 3.34251553 0 0 Z " fill="#F8F9F9" transform="translate(263,359)"/>
<path d="M0 0 C11.88 0 23.76 0 36 0 C36 7.92 36 15.84 36 24 C31.38 24 26.76 24 22 24 C22.99 23.01 23.98 22.02 25 21 C25.66 21 26.32 21 27 21 C29.15674623 16.68650754 29.73669136 12.73587302 29 8 C27.74612994 4.91182268 27.74612994 4.91182268 25 3 C20.90042992 1.83743535 17.26447611 1.69762528 13.125 2.6875 C10.49882456 4.30954954 9.36600073 5.19610377 8 8 C7.47037659 11.10789999 7.39109253 13.90010743 8 17 C10.22976163 19.98119541 10.22976163 19.98119541 13 22 C13.66 22.66 14.32 23.32 15 24 C10.05 24 5.1 24 0 24 C0 16.08 0 8.16 0 0 Z " fill="#60728B" transform="translate(530,299)"/>
<path d="M0 0 C16.17 0 32.34 0 49 0 C49 2.97 49 5.94 49 9 C32.83 9 16.66 9 0 9 C0 6.03 0 3.06 0 0 Z " fill="#475E78" transform="translate(469,241)"/>
<path d="M0 0 C2.92970081 2.45138231 4.63434275 4.18236398 5.40234375 8 C5.61404624 12.47115664 4.761498 15.52255807 2 19 C-2.44024967 21.96016644 -6.79281459 21.77651011 -12 21 C-15.125 18.5625 -15.125 18.5625 -17 16 C-17.33 15.67 -17.66 15.34 -18 15 C-18.55479171 11.23534198 -18.79882775 7.54972584 -17.0234375 4.10546875 C-12.44000594 -1.67302932 -6.77731532 -1.92948479 0 0 Z " fill="#213847" transform="translate(555,301)"/>
<path d="M0 0 C0 7.59 0 15.18 0 23 C-1.98 23.66 -3.96 24.32 -6 25 C-6 22.69 -6 20.38 -6 18 C-12.435 18.495 -12.435 18.495 -19 19 C-21.42778066 14.14443869 -21.88305167 10.35025426 -21 5 C-18.5625 1.9375 -18.5625 1.9375 -16 0 C-15.67 -0.33 -15.34 -0.66 -15 -1 C-13.57109694 -1.26085451 -12.13057853 -1.45967185 -10.6875 -1.625 C-9.90761719 -1.72039062 -9.12773437 -1.81578125 -8.32421875 -1.9140625 C-5.1461816 -2.03156976 -2.82836206 -1.41418103 0 0 Z " fill="#273D4C" transform="translate(346,370)"/>
<path d="M0 0 C15.18 0 30.36 0 46 0 C46 2.97 46 5.94 46 9 C30.82 9 15.64 9 0 9 C0 6.03 0 3.06 0 0 Z " fill="#485E78" transform="translate(579,241)"/>
<path d="M0 0 C0.64693025 3.5077996 0.813714 6.50906647 0 10 C-2.22389205 12.35339581 -4.62366914 14.02377271 -7.27734375 15.875 C-11.0317469 18.80526587 -13.30708426 22.3314107 -15.97265625 26.234375 C-19.18530934 30.61695378 -23.04502622 34.29221208 -27 38 C-26.21625 38.969375 -25.4325 39.93875 -24.625 40.9375 C-24.18414062 41.48277344 -23.74328125 42.02804687 -23.2890625 42.58984375 C-22.0333609 44.13266437 -22.0333609 44.13266437 -20 45 C-20 45.66 -20 46.32 -20 47 C-19.34 47 -18.68 47 -18 47 C-17.32739649 48.76858691 -16.66211605 50.53996016 -16 52.3125 C-15.62875 53.29863281 -15.2575 54.28476562 -14.875 55.30078125 C-14 58 -14 58 -14 61 C-14.65355469 60.32904297 -14.65355469 60.32904297 -15.3203125 59.64453125 C-18.25350284 56.66689863 -21.16664457 53.79481674 -24.4375 51.1875 C-25.283125 50.465625 -26.12875 49.74375 -27 49 C-27 48.34 -27 47.68 -27 47 C-27.66 47 -28.32 47 -29 47 C-29.05451714 44.95863605 -29.09302485 42.91684144 -29.125 40.875 C-29.14820313 39.73804688 -29.17140625 38.60109375 -29.1953125 37.4296875 C-28.89089891 32.08418486 -27.76456394 28.18979883 -23.8125 24.5 C-23.19890625 23.92121094 -22.5853125 23.34242188 -21.953125 22.74609375 C-19.00810734 20.11324796 -16.02985896 17.53518811 -13 15 C-15.97 14.505 -15.97 14.505 -19 14 C-14.86736171 8.52704659 -7.41009171 0 0 0 Z " fill="#233B4B" transform="translate(324,341)"/>
<path d="M0 0 C4.72445297 0.58098326 7.40492256 3.69900484 10.75 6.8125 C11.35199219 7.34681641 11.95398438 7.88113281 12.57421875 8.43164062 C13.14269531 8.95564453 13.71117187 9.47964844 14.296875 10.01953125 C14.81604492 10.49495361 15.33521484 10.97037598 15.87011719 11.46020508 C17 13 17 13 17 17 C15 19 15 19 11.74365234 19.22705078 C10.35770705 19.22673382 8.97173699 19.21541759 7.5859375 19.1953125 C6.85629791 19.1924826 6.12665833 19.18965271 5.37490845 19.18673706 C3.04143972 19.17553002 0.70835297 19.1504251 -1.625 19.125 C-3.20572363 19.11497085 -4.78645327 19.10584489 -6.3671875 19.09765625 C-10.24493914 19.07558905 -14.12240478 19.04105615 -18 19 C-16.89513102 15.68539307 -16.12376914 15.03023894 -13.5 12.875 C-9.36159827 9.40648344 -5.7197571 5.6072164 -2.078125 1.625 C-1.39234375 1.08875 -0.7065625 0.5525 0 0 Z " fill="#FAFAFA" transform="translate(289,329)"/>
<path d="M0 0 C0.66 0 1.32 0 2 0 C2.15855469 0.82242187 2.31710937 1.64484375 2.48046875 2.4921875 C2.71378906 3.60851562 2.94710938 4.72484375 3.1875 5.875 C3.40792969 6.96554687 3.62835938 8.05609375 3.85546875 9.1796875 C5.23751782 14.19049765 5.23751782 14.19049765 10 23 C-1.22 23 -12.44 23 -24 23 C-22.35 21.35 -20.7 19.7 -19 18 C-18.20980469 17.19820313 -17.41960937 16.39640625 -16.60546875 15.5703125 C-11.57698434 10.48496316 -6.43778735 5.64270617 -1 1 C-0.67 0.67 -0.34 0.34 0 0 Z " fill="#F7FAFA" transform="translate(288,386)"/>
<path d="M0 0 C3.30949515 1.43411456 5.39664885 3.20973364 7.875 5.8125 C11.09720225 9.12521355 14.39330023 12.11464018 18 15 C14.11218686 19.88753652 9.82978943 24.14711467 5.25 28.375 C4.67096924 28.91092773 4.09193848 29.44685547 3.49536133 29.99902344 C-0.73621941 33.8681097 -0.73621941 33.8681097 -3 35 C-2.51423747 23.23943355 -1.65590678 11.65565449 0 0 Z " fill="#F2F3F4" transform="translate(268,308)"/>
<path d="M0 0 C1.36326269 10.7356937 2.31366039 21.16129087 2 32 C-2.98314383 31.60465833 -5.67622118 29.01157236 -9.125 25.6875 C-9.64964844 25.20087891 -10.17429687 24.71425781 -10.71484375 24.21289062 C-13.43656795 21.65309179 -15.87890485 19.07924503 -18 16 C-2.25218914 0 -2.25218914 0 0 0 Z " fill="#F7F8F8" transform="translate(314,307)"/>
<path d="M0 0 C4.62 0 9.24 0 14 0 C14 7.92 14 15.84 14 24 C9.38 24 4.76 24 0 24 C0 16.08 0 8.16 0 0 Z " fill="#8792A8" transform="translate(631,232)"/>
<path d="M0 0 C4.62 0 9.24 0 14 0 C14 7.59 14 15.18 14 23 C9.38 23 4.76 23 0 23 C0 15.41 0 7.82 0 0 Z " fill="#8995AB" transform="translate(450,233)"/>
<path d="M0 0 C0.33 0 0.66 0 1 0 C1.96131838 4.97343226 2.23698541 9.83033998 2.4375 14.875 C2.83509962 23.65911771 3.76370409 32.29791712 5 41 C-0.73667154 38.52337528 -4.68061191 33.63877617 -7.4375 28.125 C-8.94349272 19.75837376 -8.60362713 11.34482924 -3.72265625 4.10546875 C-2.375 2.4375 -2.375 2.4375 0 0 Z " fill="#EEF8F8" transform="translate(318,362)"/>
<path d="M0 0 C5.78230278 3.91793776 5.78230278 3.91793776 6.74462891 8.70117188 C6.77052512 10.12347493 6.76273749 11.54667125 6.7265625 12.96875 C6.72755951 13.72667847 6.72855652 14.48460693 6.72958374 15.26550293 C6.72491814 16.86249316 6.70555302 18.45950022 6.67236328 20.05615234 C6.62513166 22.49320675 6.63124978 24.92588473 6.64453125 27.36328125 C6.6333768 28.91929677 6.61915642 30.47529396 6.6015625 32.03125 C6.60429672 33.11738586 6.60429672 33.11738586 6.60708618 34.22546387 C6.47202638 39.07277649 5.44392966 41.59393342 2 45 C-0.88415883 46.44207941 -3.41721528 46.09394887 -6.625 46.0625 C-7.81351562 46.05347656 -9.00203125 46.04445313 -10.2265625 46.03515625 C-11.14179688 46.02355469 -12.05703125 46.01195312 -13 46 C-13.33 44.35 -13.66 42.7 -14 41 C-10.85069107 39.95023036 -8.61185544 39.89868405 -5.3125 39.9375 C-4.31863281 39.94652344 -3.32476562 39.95554687 -2.30078125 39.96484375 C-1.16189453 39.98224609 -1.16189453 39.98224609 0 40 C-0.01160156 39.31292969 -0.02320313 38.62585938 -0.03515625 37.91796875 C-0.04417969 37.01691406 -0.05320312 36.11585938 -0.0625 35.1875 C-0.07410156 34.29417969 -0.08570313 33.40085937 -0.09765625 32.48046875 C0 30 0 30 1 27 C1.09357692 25.14772748 1.12993909 23.2921282 1.125 21.4375 C1.12757813 20.46683594 1.13015625 19.49617188 1.1328125 18.49609375 C1.16650953 16.00047047 1.16650953 16.00047047 0 14 C-0.07116382 11.62597499 -0.08409085 9.24999323 -0.0625 6.875 C-0.05347656 5.59367187 -0.04445313 4.31234375 -0.03515625 2.9921875 C-0.02355469 2.00476563 -0.01195312 1.01734375 0 0 Z " fill="#233847" transform="translate(355,359)"/>
<path d="M0 0 C2.31 0 4.62 0 7 0 C7 13.86 7 27.72 7 42 C4.69 42 2.38 42 0 42 C0 28.14 0 14.28 0 0 Z " fill="#D4DFE9" transform="translate(228,356)"/>
<path d="M0 0 C10.56 0 21.12 0 32 0 C28.40777239 4.19093221 25.01936764 8.10213793 21.125 11.9375 C20.34382813 12.70964844 19.56265625 13.48179687 18.7578125 14.27734375 C18.17773438 14.84582031 17.59765625 15.41429687 17 16 C12.95864413 14.40069566 10.32092848 11.51339591 7.375 8.4375 C4.03597098 4.77285984 4.03597098 4.77285984 0 2 C0 1.34 0 0.68 0 0 Z " fill="#F6F7F7" transform="translate(275,303)"/>
<path d="M0 0 C9.24 0 18.48 0 28 0 C26.39881838 4.00295405 24.6997952 7.90271007 22.90234375 11.81640625 C22.05457328 13.86793738 21.47607428 15.83557983 21 18 C17.59986814 17.4234559 16.07329515 16.39002339 13.75 13.875 C10.57314493 10.5403314 7.22287381 7.54104124 3.69921875 4.578125 C2 3 2 3 0 0 Z " fill="#F4F7F7" transform="translate(270,355)"/>
<path d="M0 0 C3.6020463 1.55447938 6.16870103 3.747448 9.0625 6.375 C10.34833984 7.53128906 10.34833984 7.53128906 11.66015625 8.7109375 C14 11 14 11 17 15 C6.44 15 -4.12 15 -15 15 C-8.25 7.125 -8.25 7.125 -4.125 3.5625 C-3.34382813 2.88316406 -2.56265625 2.20382812 -1.7578125 1.50390625 C-1.17773438 1.00761719 -0.59765625 0.51132812 0 0 Z " fill="#F7F8F8" transform="translate(290,281)"/>
<path d="M0 0 C2.31 0 4.62 0 7 0 C7 12.21 7 24.42 7 37 C4.69 37 2.38 37 0 37 C0 24.79 0 12.58 0 0 Z " fill="#E4E7E8" transform="translate(241,254)"/>
<path d="M0 0 C0.34011625 3.16597571 0.67083187 6.3328688 1 9.5 C1.09539062 10.386875 1.19078125 11.27375 1.2890625 12.1875 C1.83514946 17.49234474 2.0996753 22.66737152 2 28 C-2.32504836 26.34136495 -5.09418825 23.128959 -8.25 19.875 C-8.80429687 19.31167969 -9.35859375 18.74835938 -9.9296875 18.16796875 C-11.29104485 16.78313972 -12.64614859 15.39216796 -14 14 C-2.28571429 0 -2.28571429 0 0 0 Z " fill="#F5F6F6" transform="translate(310,262)"/>
<path d="M0 0 C3.90285767 1.58667578 6.33520982 4.13350481 9.25 7.125 C10.14203125 8.03507812 11.0340625 8.94515625 11.953125 9.8828125 C12.62859375 10.58148438 13.3040625 11.28015625 14 12 C9.31645873 17.64426769 4.3792354 23.0058046 -1 28 C-1.33 28 -1.66 28 -2 28 C-1.85929844 24.83308393 -1.71148731 21.66653622 -1.5625 18.5 C-1.52318359 17.613125 -1.48386719 16.72625 -1.44335938 15.8125 C-1.18915913 10.49384873 -0.73323663 5.2743744 0 0 Z " fill="#F2F3F3" transform="translate(272,263)"/>
<path d="M0 0 C1.98 0 3.96 0 6 0 C6 11.88 6 23.76 6 36 C4.02 36 2.04 36 0 36 C0 24.12 0 12.24 0 0 Z " fill="#F3F3F3" transform="translate(335,254)"/>
<path d="M0 0 C14.28703159 -0.7133608 14.28703159 -0.7133608 21 4 C23.77138597 4.77485832 23.77138597 4.77485832 26 5 C26 8.3 26 11.6 26 15 C24.02 15 22.04 15 20 15 C20 13.35 20 11.7 20 10 C19.34 10 18.68 10 18 10 C18 10.66 18 11.32 18 12 C17.01 12.33 16.02 12.66 15 13 C12.3125 11.5625 12.3125 11.5625 10 10 C10.33 9.34 10.66 8.68 11 8 C10.113125 7.79375 9.22625 7.5875 8.3125 7.375 C4.07721318 5.61695642 2.69506667 3.64626667 0 0 Z " fill="#253D4C" transform="translate(305,409)"/>
<path d="M0 0 C9.24 0 18.48 0 28 0 C19.36585366 10.07317073 19.36585366 10.07317073 16 13 C12.49962477 12.74491193 10.54858251 11.0397421 8 8.75 C7.34 8.16734375 6.68 7.5846875 6 6.984375 C3.82123332 4.82262993 1.91733209 2.39666511 0 0 Z " fill="#E9EBEC" transform="translate(277,215)"/>
<path d="M0 0 C0 8.91 0 17.82 0 27 C-7.875 20.25 -7.875 20.25 -10.9375 17.125 C-11.52402344 16.52945313 -12.11054688 15.93390625 -12.71484375 15.3203125 C-13.13894531 14.88460937 -13.56304687 14.44890625 -14 14 C-2.28571429 0 -2.28571429 0 0 0 Z " fill="#F5F6F6" transform="translate(310,220)"/>
<path d="M0 0 C4.16796154 2.77864103 7.03314679 4.79291047 10.375 8.25 C11.06335938 8.95640625 11.75171875 9.6628125 12.4609375 10.390625 C12.96882813 10.92171875 13.47671875 11.4528125 14 12 C10.19985226 16.554787 6.34334454 20.95279259 2 25 C1.34 25 0.68 25 0 25 C0 16.75 0 8.5 0 0 Z " fill="#F8F8F8" transform="translate(272,221)"/>
<path d="M0 0 C4.29 0 8.58 0 13 0 C12.01 0.969375 11.02 1.93875 10 2.9375 C6.91606012 6.54885952 6.15180524 9.20633791 6.46484375 13.91796875 C7.32956022 17.28215766 9.33676625 18.90745919 12 21 C12.66 21.66 13.32 22.32 14 23 C9.38 23 4.76 23 0 23 C0 15.41 0 7.82 0 0 Z " fill="#94A1B5" transform="translate(531,300)"/>
<path d="M0 0 C6.93 0 13.86 0 21 0 C21 2.97 21 5.94 21 9 C17.68744674 9.02683436 14.37510817 9.0467578 11.0625 9.0625 C10.11697266 9.07087891 9.17144531 9.07925781 8.19726562 9.08789062 C6.84858398 9.09272461 6.84858398 9.09272461 5.47265625 9.09765625 C4.64000244 9.10289307 3.80734863 9.10812988 2.94946289 9.11352539 C1 9 1 9 0 8 C0 5.36 0 2.72 0 0 Z " fill="#CBD7E5" transform="translate(342,701)"/>
<path d="M0 0 C8.58 0 17.16 0 26 0 C22.04354855 4.61586002 18.30058488 8.80181 14 13 C10.12060491 11.41379873 7.66638913 8.90079013 4.75 5.9375 C3.85796875 5.03902344 2.9659375 4.14054687 2.046875 3.21484375 C0 1 0 1 0 0 Z " fill="#EBEDED" transform="translate(278,258)"/>
<path d="M0 0 C3.87939509 1.58620127 6.33361087 4.09920987 9.25 7.0625 C10.14203125 7.96097656 11.0340625 8.85945312 11.953125 9.78515625 C14 12 14 12 14 13 C5.42 13 -3.16 13 -12 13 C-8.04354855 8.38413998 -4.30058488 4.19819 0 0 Z " fill="#F4F5F5" transform="translate(290,238)"/>
<path d="M0 0 C5.28 0 10.56 0 16 0 C15.67 3.63 15.34 7.26 15 11 C10.05 11 5.1 11 0 11 C0 7.37 0 3.74 0 0 Z " fill="#E8EAEA" transform="translate(229,477)"/>
<path d="M0 0 C5.28 0 10.56 0 16 0 C16 3.63 16 7.26 16 11 C11.05 11 6.1 11 1 11 C0.67 7.37 0.34 3.74 0 0 Z " fill="#EBECED" transform="translate(337,477)"/>
<path d="M0 0 C6.93 0 13.86 0 21 0 C21 2.64 21 5.28 21 8 C14.07 8 7.14 8 0 8 C0 5.36 0 2.72 0 0 Z " fill="#CAD7E5" transform="translate(219,701)"/>
<path d="M0 0 C0.02886338 4.47915328 0.04675187 8.95828291 0.0625 13.4375 C0.07087891 14.71689453 0.07925781 15.99628906 0.08789062 17.31445312 C0.09111328 18.52939453 0.09433594 19.74433594 0.09765625 20.99609375 C0.10289307 22.12200928 0.10812988 23.2479248 0.11352539 24.40795898 C0 27 0 27 -1 28 C-3.5 28.125 -3.5 28.125 -6 28 C-8.4558938 25.5441062 -7.42782876 18.75727052 -7.46850586 15.30932617 C-7.37907169 9.3588602 -6.648401 5.52066582 -2.41015625 1.08203125 C-1 0 -1 0 0 0 Z " fill="#213241" transform="translate(508,292)"/>
<path d="M0 0 C7.15093295 4.85607768 13.00168024 10.82725414 19 17 C19.99786097 18.00213446 20.99667224 19.00333887 22 20 C9.70705126 21.19768919 9.70705126 21.19768919 6.0625 18.640625 C2.45816035 13.18906128 1.29486917 6.31643499 0 0 Z " fill="#F2F8F8" transform="translate(296,389)"/>
<path d="M0 0 C7.6171875 0.390625 7.6171875 0.390625 10 1 C10.3196875 1.66 10.639375 2.32 10.96875 3 C11.47921875 3.99 11.47921875 3.99 12 5 C14.64787088 5.70373017 14.64787088 5.70373017 17.625 5.75 C19.12933594 5.83507812 19.12933594 5.83507812 20.6640625 5.921875 C21.43492187 5.94765625 22.20578125 5.9734375 23 6 C19.88396341 9.60804237 16.71810862 10.86835272 11.9921875 11.23046875 C10.96351563 11.21628906 9.93484375 11.20210938 8.875 11.1875 C7.32425781 11.17783203 7.32425781 11.17783203 5.7421875 11.16796875 C3 11 3 11 0 10 C0 6.7 0 3.4 0 0 Z " fill="#EEFAFA" transform="translate(330,399)"/>
<path d="M0 0 C4.62 0 9.24 0 14 0 C14 3.3 14 6.6 14 10 C9.38 10 4.76 10 0 10 C0 6.7 0 3.4 0 0 Z " fill="#F0F2F2" transform="translate(229,494)"/>
<path d="M0 0 C1.9375 1.125 1.9375 1.125 3 3 C3.54624158 6.66762206 3.47898298 8.3258758 1.3125 11.375 C-1 13 -1 13 -3.5 13.5 C-6.87013879 12.82597224 -8.01677007 11.7912125 -10 9 C-10.45319325 5.82764724 -10.52990283 3.93512264 -8.9375 1.125 C-5.8930714 -0.64273274 -3.4368988 -0.36823916 0 0 Z " fill="#20D0EB" transform="translate(552,305)"/>
<path d="M0 0 C0 2.97 0 5.94 0 9 C-1.381875 9.28875 -2.76375 9.5775 -4.1875 9.875 C-7.6203806 10.63304934 -10.78416767 11.54768863 -14 13 C-14.33 9.7 -14.66 6.4 -15 3 C-9.63560356 0.31780178 -5.98993047 -0.3152595 0 0 Z " fill="#F0FAFA" transform="translate(340,353)"/>
<path d="M0 0 C4.62 0 9.24 0 14 0 C14 3.3 14 6.6 14 10 C9.71 10 5.42 10 1 10 C0.67 6.7 0.34 3.4 0 0 Z " fill="#F6F8F8" transform="translate(339,494)"/>
<path d="M0 0 C0.33 0 0.66 0 1 0 C0.91878906 0.65226562 0.83757812 1.30453125 0.75390625 1.9765625 C0.25496596 7.32077406 0.25496596 7.32077406 2.55859375 11.9296875 C4.46514636 13.51522636 4.46514636 13.51522636 6.46875 14.84375 C6.9740625 15.2253125 7.479375 15.606875 8 16 C8 16.66 8 17.32 8 18 C8.66 18 9.32 18 10 18 C10.67260351 19.76858691 11.33788395 21.53996016 12 23.3125 C12.37125 24.29863281 12.7425 25.28476562 13.125 26.30078125 C14 29 14 29 14 32 C13.34644531 31.32904297 13.34644531 31.32904297 12.6796875 30.64453125 C9.74649716 27.66689863 6.83335543 24.79481674 3.5625 22.1875 C2.2940625 21.1046875 2.2940625 21.1046875 1 20 C1 19.34 1 18.68 1 18 C0.34 18 -0.32 18 -1 18 C-1.02717692 15.93757383 -1.0464758 13.87504297 -1.0625 11.8125 C-1.07410156 10.66394531 -1.08570313 9.51539063 -1.09765625 8.33203125 C-1.01192832 5.40699414 -0.67849023 2.83683709 0 0 Z " fill="#244353" transform="translate(296,370)"/>
<path d="M0 0 C0.33 1.65 0.66 3.3 1 5 C-4.35211268 7.91933419 -9.79850164 10.66547934 -16 11 C-16.66 10.34 -17.32 9.68 -18 9 C-17.625 6.375 -17.625 6.375 -17 4 C-15.10751181 3.32389577 -13.2108398 2.65949561 -11.3125 2 C-10.25675781 1.62875 -9.20101563 1.2575 -8.11328125 0.875 C-5.21637944 0.0608143 -2.98299377 -0.17709796 0 0 Z " fill="#40CEEC" transform="translate(391,323)"/>
<path d="M0 0 C3.63 0 7.26 0 11 0 C11 3.96 11 7.92 11 12 C7.7 12 4.4 12 1 12 C0.67 8.04 0.34 4.08 0 0 Z " fill="#EBECED" transform="translate(317,268)"/>
<path d="M0 0 C3.63 0 7.26 0 11 0 C10.67 3.96 10.34 7.92 10 12 C6.7 12 3.4 12 0 12 C0 8.04 0 4.08 0 0 Z " fill="#E9EBEC" transform="translate(254,268)"/>
<path d="M0 0 C4.19382108 4.19382108 5.25092047 6.59387575 5.37890625 12.5859375 C5.37761719 13.27945312 5.37632812 13.97296875 5.375 14.6875 C5.37628906 15.39777344 5.37757813 16.10804688 5.37890625 16.83984375 C5.26409332 22.55961526 4.05155373 27.09571721 1 32 C0.67 32 0.34 32 0 32 C0 21.44 0 10.88 0 0 Z " fill="#ECF9FA" transform="translate(361,366)"/>
<path d="M0 0 C2.38367397 1.60148799 4.1646796 2.84356571 6 5 C6.54070475 8.00100827 6.71051888 10.16845437 6.5859375 13.14453125 C6.57744781 13.91431808 6.56895813 14.68410492 6.56021118 15.47721863 C6.52675703 17.9237671 6.45150592 20.36695691 6.375 22.8125 C6.34488948 24.47586368 6.31751555 26.13927929 6.29296875 27.80273438 C6.22699369 31.86977371 6.12353843 35.93431851 6 40 C5.67 40 5.34 40 5 40 C4.67 34.72 4.34 29.44 4 24 C3.67 25.65 3.34 27.3 3 29 C2.34 29 1.68 29 1 29 C1.01160156 28.08476562 1.02320313 27.16953125 1.03515625 26.2265625 C1.04417969 25.03804688 1.05320312 23.84953125 1.0625 22.625 C1.07410156 21.44164062 1.08570313 20.25828125 1.09765625 19.0390625 C1.21466593 16.08078479 1.21466593 16.08078479 0 14 C-0.07116382 11.62597499 -0.08409085 9.24999323 -0.0625 6.875 C-0.05347656 5.59367187 -0.04445313 4.31234375 -0.03515625 2.9921875 C-0.02355469 2.00476563 -0.01195312 1.01734375 0 0 Z " fill="#284452" transform="translate(355,359)"/>
<path d="M0 0 C5.28 0 10.56 0 16 0 C16 2.31 16 4.62 16 7 C10.72 7 5.44 7 0 7 C0 4.69 0 2.38 0 0 Z " fill="#465D76" transform="translate(540,276)"/>
<path d="M0 0 C6.62790698 4.45877378 6.62790698 4.45877378 7.6875 8.84765625 C7.91308587 11.57936011 8.03413012 14.25983923 8 17 C2.62229109 14.9491788 -2.10660264 12.32599706 -6 8 C-5.67 7.34 -5.34 6.68 -5 6 C-2.525 7.98 -2.525 7.98 0 10 C0 6.7 0 3.4 0 0 Z " fill="#234151" transform="translate(322,392)"/>
<path d="M0 0 C4.62 0 9.24 0 14 0 C14 2.31 14 4.62 14 7 C9.38 7 4.76 7 0 7 C0 4.69 0 2.38 0 0 Z " fill="#E8EBEC" transform="translate(241,375)"/>
<path d="M0 0 C1.32 0.33 2.64 0.66 4 1 C4.61970139 6.08155144 3.33460402 8.59698882 0.484375 12.58203125 C-1.3140076 14.29995989 -2.54833215 14.70089652 -5 15 C-5.66 14.67 -6.32 14.34 -7 14 C-7 11.69 -7 9.38 -7 7 C-6.01 6.67 -5.02 6.34 -4 6 C-2.60287726 4.04402816 -1.26220093 2.04563599 0 0 Z " fill="#35CCEB" transform="translate(435,385)"/>
<path d="M0 0 C5 4 5 4 6 6 C6.50866466 12.10397596 6.05703618 15.10769166 2 20 C1.34 20.33 0.68 20.66 0 21 C0 14.07 0 7.14 0 0 Z " fill="#BED9E4" transform="translate(346,371)"/>
<path d="M0 0 C4.29 0 8.58 0 13 0 C13 2.31 13 4.62 13 7 C8.71 7 4.42 7 0 7 C0 4.69 0 2.38 0 0 Z " fill="#F4F5F5" transform="translate(327,375)"/>
<path d="M0 0 C5.75 0.75 5.75 0.75 8 3 C8.1953125 5.8203125 8.1953125 5.8203125 8.125 9.125 C8.10695313 10.22070312 8.08890625 11.31640625 8.0703125 12.4453125 C8.04710937 13.28835938 8.02390625 14.13140625 8 15 C4.99368261 13.28881488 2.35232304 11.55350857 0 9 C-0.68820402 5.88790095 -0.50115655 3.13222841 0 0 Z " fill="#C2D7E4" transform="translate(347,356)"/>
<path d="M0 0 C-0.33 5.28 -0.66 10.56 -1 16 C-5.34905688 13.39056587 -7.14579818 11.91131361 -10 8 C-8.71451591 6.66070495 -7.42141845 5.32871357 -6.125 4 C-5.04605469 2.88625 -5.04605469 2.88625 -3.9453125 1.75 C-2 0 -2 0 0 0 Z " fill="#E9F2F3" transform="translate(306,371)"/>
<path d="M0 0 C1.2228253 3.6684759 1.38634028 6.13659719 1 10 C-0.43056287 12.65971075 -2.04195517 14.65989764 -4 17 C-4.33 17 -4.66 17 -5 17 C-5.9586937 12.20653152 -6.39865603 7.86360359 -6 3 C-3.95950963 0.82347693 -2.99435075 0 0 0 Z " fill="#29404E" transform="translate(325,357)"/>
<path d="M0 0 C3.96 0 7.92 0 12 0 C12 2.31 12 4.62 12 7 C8.0482998 7.3763524 6.17705367 7.09508438 2.625 5.1875 C1.75875 4.465625 0.8925 3.74375 0 3 C0 2.01 0 1.02 0 0 Z " fill="#E2EFF1" transform="translate(328,388)"/>
<path d="M0 0 C2.203125 0.01171875 2.203125 0.01171875 5.890625 0.51171875 C1.79024927 5.76144222 -2.63902287 9.72134786 -8.109375 13.51171875 C-7.6422902 8.52948088 -5.37902869 1.30491252 0 0 Z " fill="#E1EFF0" transform="translate(306.109375,354.48828125)"/>
<path d="M0 0 C2.00720923 0.28674418 4.0085944 0.61866701 6 1 C5.67 4.3 5.34 7.6 5 11 C2.03 10.505 2.03 10.505 -1 10 C-1.02689216 8.52093108 -1.04634621 7.04172517 -1.0625 5.5625 C-1.07410156 4.73878906 -1.08570313 3.91507812 -1.09765625 3.06640625 C-1 1 -1 1 0 0 Z " fill="#224050" transform="translate(341,353)"/>
<path d="M0 0 C0.33 1.65 0.66 3.3 1 5 C-1.57213134 6.61949011 -2.67669159 7.04408751 -5.75 6.625 C-6.4925 6.41875 -7.235 6.2125 -8 6 C-7.625 3.5625 -7.625 3.5625 -7 1 C-4.53721199 -0.231394 -2.7204945 -0.07159196 0 0 Z " fill="#1BCDEF" transform="translate(409,317)"/>
<path d="M0 0 C0.62011719 1.89355469 0.62011719 1.89355469 1 4 C0.36578125 4.56203125 -0.2684375 5.1240625 -0.921875 5.703125 C-4.03416103 9.14302009 -3.44255816 12.28413189 -3.25 16.75 C-3.23195313 17.54277344 -3.21390625 18.33554687 -3.1953125 19.15234375 C-3.14833082 21.10208348 -3.07659044 23.05119878 -3 25 C-1.68 25 -0.36 25 1 25 C1 25.66 1 26.32 1 27 C-0.66611905 27.042721 -2.33382885 27.04063832 -4 27 C-6.22904819 24.77095181 -5.32606897 19.8642412 -5.375 16.875 C-5.43107422 15.61042969 -5.43107422 15.61042969 -5.48828125 14.3203125 C-5.5777715 7.91678779 -4.17131259 4.85556576 0 0 Z " fill="#334C5A" transform="translate(506,293)"/>
<path d="M0 0 C0.66 0 1.32 0 2 0 C2.02687279 1.81242052 2.04633715 3.62495233 2.0625 5.4375 C2.07410156 6.44683594 2.08570313 7.45617187 2.09765625 8.49609375 C2 11 2 11 1 12 C-0.99958364 12.04080783 -3.00045254 12.04254356 -5 12 C-5 9.03 -5 6.06 -5 3 C-4.34 3 -3.68 3 -3 3 C-3 5.31 -3 7.62 -3 10 C-2.01 10 -1.02 10 0 10 C0 6.7 0 3.4 0 0 Z " fill="#475562" transform="translate(245,698)"/>
<path d="M0 0 C-1.32 1.32 -2.64 2.64 -4 4 C-4 3.01 -4 2.02 -4 1 C-4.55461914 1.2172876 -5.10923828 1.4345752 -5.68066406 1.65844727 C-8.19949895 2.63790638 -10.72451564 3.60032345 -13.25 4.5625 C-14.12269531 4.90474609 -14.99539063 5.24699219 -15.89453125 5.59960938 C-17.16103516 6.07817383 -17.16103516 6.07817383 -18.453125 6.56640625 C-19.22817383 6.86490479 -20.00322266 7.16340332 -20.80175781 7.47094727 C-23.25968408 8.06249838 -24.63503708 7.81266156 -27 7 C-23.25614186 5.62841249 -19.50408803 4.28080868 -15.75 2.9375 C-14.68652344 2.54755859 -13.62304688 2.15761719 -12.52734375 1.75585938 C-11.50253906 1.39169922 -10.47773438 1.02753906 -9.421875 0.65234375 C-8.47924805 0.31195068 -7.53662109 -0.02844238 -6.56542969 -0.37915039 C-3.89647093 -1.02505467 -2.5478969 -0.92531647 0 0 Z " fill="#6EDFF6" transform="translate(500,294)"/>
<path d="M0 0 C2.0625 0.4375 2.0625 0.4375 4 1 C4 3.64 4 6.28 4 9 C2.0625 9.5625 2.0625 9.5625 0 10 C-1 9 -1 9 -1.1328125 7.1875 C-1.13023437 6.465625 -1.12765625 5.74375 -1.125 5 C-1.12757813 4.278125 -1.13015625 3.55625 -1.1328125 2.8125 C-1 1 -1 1 0 0 Z " fill="#2F3F4F" transform="translate(560,250)"/>
<path d="M0 0 C2.0625 0.4375 2.0625 0.4375 4 1 C4 3.64 4 6.28 4 9 C2.0625 9.5625 2.0625 9.5625 0 10 C-1 9 -1 9 -1.1328125 7.1875 C-1.13023437 6.465625 -1.12765625 5.74375 -1.125 5 C-1.12757813 4.278125 -1.13015625 3.55625 -1.1328125 2.8125 C-1 1 -1 1 0 0 Z " fill="#2E3D4D" transform="translate(551,250)"/>
<path d="M0 0 C2.0625 0.4375 2.0625 0.4375 4 1 C4 3.64 4 6.28 4 9 C2.0625 9.5625 2.0625 9.5625 0 10 C-1 9 -1 9 -1.1328125 7.1875 C-1.13023437 6.465625 -1.12765625 5.74375 -1.125 5 C-1.12757813 4.278125 -1.13015625 3.55625 -1.1328125 2.8125 C-1 1 -1 1 0 0 Z " fill="#304050" transform="translate(534,250)"/>
<path d="M0 0 C1.32 0 2.64 0 4 0 C4 2.97 4 5.94 4 9 C2.68 9 1.36 9 0 9 C0 6.03 0 3.06 0 0 Z " fill="#293B49" transform="translate(542,250)"/>
<path d="M0 0 C0.66 0.33 1.32 0.66 2 1 C1.21753906 1.77085937 0.43507813 2.54171875 -0.37109375 3.3359375 C-1.39336057 4.34882573 -2.41548881 5.36185384 -3.4375 6.375 C-4.2119043 7.13683594 -4.2119043 7.13683594 -5.00195312 7.9140625 C-7.857133 10.68568936 -7.857133 10.68568936 -10 14 C-10.66 13.67 -11.32 13.34 -12 13 C-8.43679155 7.90789714 -4.95258714 3.77339973 0 0 Z " fill="#17ADD2" transform="translate(321,352)"/>
<path d="M0 0 C0.33 0 0.66 0 1 0 C1 2.64 1 5.28 1 8 C-1.64 8 -4.28 8 -7 8 C-6.02133662 6.85373678 -5.04205413 5.70800212 -4.0625 4.5625 C-3.51722656 3.92441406 -2.97195313 3.28632813 -2.41015625 2.62890625 C-1.63204305 1.73008851 -0.84063472 0.84063472 0 0 Z " fill="#BAD4DD" transform="translate(354,391)"/>
<path d="M0 0 C0.66 0 1.32 0 2 0 C2.09765625 6.15234375 2.09765625 6.15234375 2 8 C1 9 1 9 -2.0625 9.0625 C-3.031875 9.041875 -4.00125 9.02125 -5 9 C-5 8.34 -5 7.68 -5 7 C-3.35 7 -1.7 7 0 7 C0 4.69 0 2.38 0 0 Z " fill="#4B5761" transform="translate(363,442)"/>
<path d="M0 0 C0 0.33 0 0.66 0 1 C-2.31 1.66 -4.62 2.32 -7 3 C-7.33 5.64 -7.66 8.28 -8 11 C-10 9 -10 9 -10.3125 6.0625 C-10 3 -10 3 -8.9375 1.125 C-5.99772876 -0.58196395 -3.32129197 -0.18799766 0 0 Z " fill="#30BCD2" transform="translate(552,305)"/>
<path d="M0 0 C0.66 0 1.32 0 2 0 C2 2.64 2 5.28 2 8 C0.02 8.99 0.02 8.99 -2 10 C-2.66 9.34 -3.32 8.68 -4 8 C-2.68 7.67 -1.36 7.34 0 7 C0 4.69 0 2.38 0 0 Z " fill="#455260" transform="translate(217,701)"/>
<path d="M0 0 C5.625 -0.25 5.625 -0.25 9 2 C8.67 3.32 8.34 4.64 8 6 C6.66402348 5.19185349 5.331275 4.37836819 4 3.5625 C3.2575 3.11003906 2.515 2.65757812 1.75 2.19140625 C1.1725 1.79824219 0.595 1.40507812 0 1 C0 0.67 0 0.34 0 0 Z " fill="#244956" transform="translate(351,350)"/>
<path d="M0 0 C0.66 0 1.32 0 2 0 C2 2.31 2 4.62 2 7 C3.32 7.33 4.64 7.66 6 8 C6 8.33 6 8.66 6 9 C4.33388095 9.042721 2.66617115 9.04063832 1 9 C0 8 0 8 -0.09765625 6.15234375 C-0.06510417 4.1015625 -0.03255208 2.05078125 0 0 Z " fill="#42505E" transform="translate(363,701)"/>
<path d="M0 0 C0.33 0 0.66 0 1 0 C1.82810601 6.81508864 2.50413785 12.51870203 0 19 C-0.33 19 -0.66 19 -1 19 C-0.67 12.73 -0.34 6.46 0 0 Z " fill="#858E95" transform="translate(231,617)"/>
<path d="M0 0 C0.33 0 0.66 0 1 0 C1.82810601 6.81508864 2.50413785 12.51870203 0 19 C-0.33 19 -0.66 19 -1 19 C-0.67 12.73 -0.34 6.46 0 0 Z " fill="#828A92" transform="translate(261,301)"/>
<path d="M0 0 C1.32 0 2.64 0 4 0 C4 1.65 4 3.3 4 5 C2.35 5 0.7 5 -1 5 C-0.67 3.35 -0.34 1.7 0 0 Z " fill="#DBFCFC" transform="translate(545,307)"/>
<path d="M0 0 C0.598125 0.20625 1.19625 0.4125 1.8125 0.625 C0.8225 0.625 -0.1675 0.625 -1.1875 0.625 C-1.8475 2.605 -2.5075 4.585 -3.1875 6.625 C-4.1775 6.625 -5.1675 6.625 -6.1875 6.625 C-5.875 4.25 -5.875 4.25 -5.1875 1.625 C-2.1875 -0.375 -2.1875 -0.375 0 0 Z " fill="#57626D" transform="translate(403.1875,212.375)"/>
<path d="M0 0 C-3 2 -3 2 -5 2 C-5.33 3.32 -5.66 4.64 -6 6 C-5.01 6.33 -4.02 6.66 -3 7 C-4.65 6.67 -6.3 6.34 -8 6 C-7.625 3.5625 -7.625 3.5625 -7 1 C-4.53721199 -0.231394 -2.7204945 -0.07159196 0 0 Z " fill="#54D4E9" transform="translate(409,317)"/>
<path d="M0 0 C0.66 0.33 1.32 0.66 2 1 C0.39696485 4.20607031 -2.15942656 5.89797566 -5 8 C-5.99 7.67 -6.98 7.34 -8 7 C-5.36 4.69 -2.72 2.38 0 0 Z " fill="#303F4B" transform="translate(310,357)"/>
<path d="M0 0 C0.33 0.99 0.66 1.98 1 3 C-1.97 5.475 -1.97 5.475 -5 8 C-5.66 7.67 -6.32 7.34 -7 7 C-4.69 4.69 -2.38 2.38 0 0 Z " fill="#1F4F63" transform="translate(312,347)"/>
<path d="M0 0 C0.99 0 1.98 0 3 0 C3 2.64 3 5.28 3 8 C2.01 7.67 1.02 7.34 0 7 C0 4.69 0 2.38 0 0 Z " fill="#99A5B9" transform="translate(547,251)"/>
<path d="M0 0 C0 2.31 0 4.62 0 7 C-0.99 7.33 -1.98 7.66 -3 8 C-3 5.69 -3 3.38 -3 1 C-1 0 -1 0 0 0 Z " fill="#9BA5B8" transform="translate(559,251)"/>
<path d="M0 0 C2.97 0 5.94 0 9 0 C7.515 1.485 7.515 1.485 6 3 C3.02602384 2.72963853 2.14553974 2.14553974 0 0 Z " fill="#DDEDEF" transform="translate(344,405)"/>
<path d="M0 0 C2.43840236 2.43840236 3.62292893 4.85240898 5 8 C4.67 8.66 4.34 9.32 4 10 C2 8.375 2 8.375 0 6 C-0.25 2.75 -0.25 2.75 0 0 Z " fill="#184D61" transform="translate(306,392)"/>
<path d="M0 0 C-1.49097658 3.7952131 -3.75700849 5.61042731 -7 8 C-4.18918919 0 -4.18918919 0 0 0 Z " fill="#18ABD2" transform="translate(328,366)"/>
<path d="M0 0 C0 3 0 3 0 3 Z " fill="#DDF6FB" transform="translate(404,338)"/>
<path d="" fill="#DDF6FB" transform="translate(0,0)"/>
<path d="" fill="#DDF6FB" transform="translate(0,0)"/>
<path d="" fill="#DDF6FB" transform="translate(0,0)"/>
<path d="" fill="#DDF5FB" transform="translate(0,0)"/>
<path d="" fill="#DDF6FA" transform="translate(0,0)"/>
<path d="" fill="#DDF6FB" transform="translate(0,0)"/>
<path d="" fill="#DDF6FA" transform="translate(0,0)"/>
<path d="" fill="#DDF6FA" transform="translate(0,0)"/>
<path d="" fill="#DDF5FB" transform="translate(0,0)"/>
</svg>
